<?xml version="1.0" encoding="utf-8"?>
<!-- Generator: Adobe Illustrator 19.0.0, SVG Export Plug-In . SVG Version: 6.00 Build 0)  -->
<svg version="1.1" id="Layer_1" xmlns="http://www.w3.org/2000/svg" xmlns:xlink="http://www.w3.org/1999/xlink" x="0px" y="0px"
	 viewBox="0 0 18.4 21.8" enable-background="new 0 0 18.4 21.8" xml:space="preserve">
<path id="XMLID_118_" fill="#FFFFFF" d="M18,17c-0.3,0.8-0.7,1.5-1.2,2.1c-0.6,0.9-1.1,1.5-1.5,1.8c-0.6,0.6-1.2,0.8-1.9,0.9
	c-0.5,0-1.1-0.1-1.8-0.4c-0.7-0.3-1.3-0.4-1.9-0.4c-0.6,0-1.3,0.1-2,0.4c-0.7,0.3-1.3,0.4-1.7,0.5c-0.7,0-1.3-0.3-2-0.9
	c-0.4-0.4-0.9-1-1.6-1.9c-0.7-1-1.2-2.1-1.7-3.3C0.2,14.4,0,13,0,11.8C0,10.3,0.3,9,0.9,8c0.5-0.8,1.2-1.5,2-2s1.7-0.7,2.7-0.8
	c0.5,0,1.2,0.2,2.1,0.5C8.6,6,9.1,6.2,9.3,6.2c0.2,0,0.8-0.2,1.8-0.6c1-0.4,1.8-0.5,2.5-0.4c1.8,0.1,3.2,0.9,4.1,2.2
	c-1.6,1-2.5,2.4-2.4,4.2c0,1.4,0.5,2.6,1.5,3.5c0.4,0.4,1,0.8,1.5,1C18.3,16.3,18.1,16.7,18,17L18,17z M13.8,0.4
	c0,1.1-0.4,2.1-1.2,3.1c-1,1.1-2.1,1.8-3.4,1.7c0-0.1,0-0.3,0-0.4c0-1,0.5-2.2,1.3-3.1c0.4-0.5,0.9-0.8,1.5-1.2
	C12.6,0.2,13.2,0,13.8,0C13.8,0.1,13.8,0.3,13.8,0.4L13.8,0.4z"/>
</svg>
