<?xml version="1.0" encoding="utf-8"?>
<!-- Generator: Adobe Illustrator 19.0.0, SVG Export Plug-In . SVG Version: 6.00 Build 0)  -->
<svg version="1.1" id="Layer_1" xmlns="http://www.w3.org/2000/svg" xmlns:xlink="http://www.w3.org/1999/xlink" x="0px" y="0px"
	 viewBox="0 0 23.5 30.2" enable-background="new 0 0 23.5 30.2" xml:space="preserve">
<path id="XMLID_39_" fill="#009FFD" d="M23,15.3c-0.4-1.2-1.3-2.1-2.5-2.5c-0.6-0.2-1.2-0.3-1.8-0.4c0.1-0.1,0.1-0.1,0.1-0.1
	c2.5-2,1.4-6.3-1-7.3c-1-0.4-2-0.6-3-0.6c-0.7,0-1.4,0-2.2,0.1c-0.3-1.3-0.6-3-0.9-4.4L9.2,0.5c0.3,1.4,0.6,3,0.8,4.3
	C9.3,5,8.6,5.1,7.9,5.3C7.7,4,7.3,2.4,7,1L4.5,1.5c0.3,1.4,0.6,3.1,0.9,4.4C3.5,6.2,1.8,6.6,0,6.9c0.2,1,0.4,1.9,0.6,2.8
	c0.4-0.1,0.7-0.1,1-0.2c0.3-0.1,0.7-0.1,1-0.2c0.9-0.1,1.5,0.3,1.7,1.2c0.7,3.7,1.5,7.5,2.2,11.3c0.2,0.8-0.1,1.2-0.9,1.4
	c-0.6,0.1-1.2,0.2-1.7,0.4c0,1.1,0.1,2.1,0.1,3.2c1.8-0.3,3.5-0.7,5.3-1c0.3,1.3,0.6,3,0.9,4.5l2.6-0.5c-0.3-1.4-0.6-3.1-0.9-4.4
	c0.7-0.1,1.4-0.2,2.1-0.4c0.3,1.3,0.6,3,0.9,4.3l2.6-0.5c-0.3-1.4-0.6-3.1-0.9-4.4c0.1,0,0.2-0.1,0.2-0.1c1.2-0.5,2.5-0.8,3.6-1.4
	c1.5-0.7,2.6-1.9,2.9-3.6C23.6,17.9,23.5,16.6,23,15.3z M8.6,8.3c1.6-0.3,3.2-0.8,4.8-0.4c1.1,0.2,1.7,0.9,1.9,1.9
	c0.1,1-0.3,1.9-1.3,2.5c-1.3,0.8-2.8,1.1-4.4,1.3C9.3,11.9,9,10.2,8.6,8.3z M17,20.2c-1.3,1-2.8,1.3-4.4,1.6
	c-0.4,0.1-0.9,0.2-1.3,0.3c-0.4-2-0.8-3.9-1.1-5.8c2-0.4,3.9-1,6-0.5c1.1,0.2,1.8,0.8,2,1.9C18.3,18.8,17.9,19.6,17,20.2z"/>
</svg>
