<?xml version="1.0" encoding="utf-8"?>
<!-- Generator: Adobe Illustrator 19.0.0, SVG Export Plug-In . SVG Version: 6.00 Build 0)  -->
<svg version="1.1" id="Layer_1" xmlns="http://www.w3.org/2000/svg" xmlns:xlink="http://www.w3.org/1999/xlink" x="0px" y="0px"
	 viewBox="0 0 39.4 22" enable-background="new 0 0 39.4 22" xml:space="preserve">
<path id="XMLID_95_" fill="#009FFD" d="M0.9,22c0.6-1.8,1.2-3.4,1.8-5.1c0.1-0.2,0.4-0.3,0.6-0.3c1,0,2,0,3,0c6.6,0,13.3,0,19.9,0
	c0.5,0,0.8-0.2,0.9-0.7c1.1-3.3,2.2-6.5,3.4-9.8c0.1-0.2,0.1-0.3,0.2-0.6c-8,0-16,0-24.1,0C7.2,3.7,7.8,2,8.4,0.3
	C8.5,0.2,8.7,0,8.9,0c0.6,0,1.2,0,1.8,0C18.8,0,27,0.1,35.2,0c2.4,0,5,1.8,4,5.4c-0.8,2.7-1.8,5.3-2.7,7.9c-0.3,0.9-0.6,1.8-0.9,2.7
	c-1.1,3.1-3.4,5-6.6,5.9C28.6,22,28.3,22,28,22c-8.8,0-17.6,0-26.4,0C1.4,22,1.2,22,0.9,22z"/>
<path id="XMLID_94_" fill="#009FFD" d="M16.2,8.4c-0.6,1.7-1.2,3.4-1.8,4.9c0,0.1-0.3,0.2-0.4,0.2c-4.6,0-9.1,0-13.7,0
	c-0.1,0-0.1,0-0.2-0.1c0.6-1.6,1.1-3.2,1.8-4.7c0.1-0.2,0.3-0.3,0.5-0.3C6.8,8.4,11.4,8.4,16.2,8.4z"/>
</svg>
