<?xml version="1.0" encoding="utf-8"?>
<!-- Generator: Adobe Illustrator 19.0.0, SVG Export Plug-In . SVG Version: 6.00 Build 0)  -->
<svg version="1.1" id="Layer_1" xmlns="http://www.w3.org/2000/svg" xmlns:xlink="http://www.w3.org/1999/xlink" x="0px" y="0px"
	 viewBox="0 0 76.8 76.8" enable-background="new 0 0 76.8 76.8" xml:space="preserve">
<circle id="XMLID_101_" fill="none" stroke="#FFFFFF" stroke-width="2" stroke-miterlimit="10" cx="38.4" cy="38.4" r="29.2"/>
<circle id="XMLID_98_" fill="none" stroke="#FFFFFF" stroke-miterlimit="10" stroke-opacity="0.5" cx="38.4" cy="38.4" r="33.8"/>
<circle id="XMLID_40_" fill="none" stroke="#FFFFFF" stroke-miterlimit="10" stroke-opacity="0.2" cx="38.4" cy="38.4" r="37.9"/>
<path id="XMLID_95_" fill="#009FFD" d="M19.2,49.5c0.6-1.8,1.2-3.4,1.8-5.1c0.1-0.2,0.4-0.3,0.6-0.3c1,0,2,0,3,0
	c6.6,0,13.3,0,19.9,0c0.5,0,0.8-0.2,0.9-0.7c1.1-3.3,2.2-6.5,3.4-9.8c0.1-0.2,0.1-0.3,0.2-0.6c-8,0-16,0-24.1,0
	c0.6-1.8,1.2-3.5,1.8-5.2c0.1-0.1,0.3-0.2,0.5-0.2c0.6,0,1.2,0,1.8,0c8.2,0,16.3,0.1,24.5,0c2.4,0,5,1.8,4,5.4
	c-0.8,2.7-1.8,5.3-2.7,7.9c-0.3,0.9-0.6,1.8-0.9,2.7c-1.1,3.1-3.4,5-6.6,5.9c-0.3,0.1-0.6,0.1-0.9,0.1c-8.8,0-17.6,0-26.4,0
	C19.7,49.5,19.4,49.5,19.2,49.5z"/>
<path id="XMLID_94_" fill="#009FFD" d="M34.4,35.9c-0.6,1.7-1.2,3.4-1.8,4.9c0,0.1-0.3,0.2-0.4,0.2c-4.6,0-9.1,0-13.7,0
	c-0.1,0-0.1,0-0.2-0.1c0.6-1.6,1.1-3.2,1.8-4.7c0.1-0.2,0.3-0.3,0.5-0.3C25,35.9,29.7,35.9,34.4,35.9z"/>
</svg>
