<?xml version="1.0" encoding="utf-8"?>
<!-- Generator: Adobe Illustrator 19.0.0, SVG Export Plug-In . SVG Version: 6.00 Build 0)  -->
<svg version="1.1" id="Layer_1" xmlns="http://www.w3.org/2000/svg" xmlns:xlink="http://www.w3.org/1999/xlink" x="0px" y="0px"
	 viewBox="-465.7 280.8 72.8 40.9" enable-background="new -465.7 280.8 72.8 40.9" xml:space="preserve">
<g id="XMLID_53_">
	<path id="XMLID_879_" fill="#FFFFFF" d="M-413.4,280.8c-11.4,0-20.4,9.3-20.4,20.5c0,11.4,9.2,20.5,20.4,20.5
		c11.4,0,20.4-9.3,20.4-20.5C-392.8,289.8-402.1,280.8-413.4,280.8z M-413.4,318.8c-9.6,0-17.6-7.8-17.6-17.6s7.8-17.6,17.6-17.6
		c9.6,0,17.6,7.8,17.6,17.6C-395.8,311-403.6,318.8-413.4,318.8z"/>
	<path id="XMLID_875_" fill="#FFFFFF" d="M-408.5,300.9c0.4-0.2,0.5-0.2,0.5-0.2c0.2,0,0.4-0.2,0.5-0.4c0.9-0.5,1.3-1.6,1.3-2.9
		c0-1.1-0.4-2-1.1-2.9c-0.4-0.4-1.1-0.7-1.8-1.1c-0.4-0.2-0.9-0.2-1.4-0.4v-2h-1.8v2h-2v-2h-1.8v2h-2.1h-2.9v3h1.6
		c0.5,0,1.3,0.2,1.3,1.3v7.3c0,1.3-0.7,1.3-1.3,1.3h-1.6v3h2.9h2.1v2h1.8v-2h2v2h1.8v-2.1c1.8,0,3.2-0.5,3.9-1.4
		c0.7-0.9,1.1-1.8,1.1-3c0-1.1-0.4-1.8-0.9-2.5C-406.7,301.6-407.4,301.2-408.5,300.9z M-414.3,296.2h1.8c1.1,0,1.8,0.2,2.3,0.4
		c0.5,0.2,0.7,0.7,0.7,1.4c0,0.7-0.2,1.3-0.7,1.4c-0.5,0.2-1.3,0.4-2.1,0.4h-1.8L-414.3,296.2L-414.3,296.2z M-409.7,305.8
		c-0.5,0.2-1.3,0.4-2.3,0.4h-2.5v-3.8h2.1c1.3,0,2.1,0.2,2.7,0.4s0.9,0.7,0.9,1.4C-408.8,305.1-409.2,305.5-409.7,305.8z"/>
	<path id="XMLID_874_" fill="#FFFFFF" d="M-437.7,306.9c-4.8,0-9.8,0-14.6,0c-2.5,0-2.5,3.8,0,3.8c4.8,0,9.8,0,14.6,0
		C-435.3,310.8-435.3,306.9-437.7,306.9z"/>
	<path id="XMLID_873_" fill="#FFFFFF" d="M-437.6,292.3c-4.8,0-9.8,0-14.6,0c-2.5,0-2.5,3.8,0,3.8c4.8,0,9.8,0,14.6,0
		C-435.1,296-435.1,292.3-437.6,292.3z"/>
	<path id="XMLID_872_" fill="#FFFFFF" d="M-439.3,299.6c-10.8,0-13.5,0-24.5,0c-2.5,0-2.5,3.8,0,3.8c10.8,0,13.5,0,24.5,0
		C-436.8,303.5-436.8,299.6-439.3,299.6z"/>
</g>
</svg>
