<?xml version="1.0" encoding="utf-8"?>
<!-- Generator: Adobe Illustrator 19.0.0, SVG Export Plug-In . SVG Version: 6.00 Build 0)  -->
<svg version="1.1" id="Layer_1" xmlns="http://www.w3.org/2000/svg" xmlns:xlink="http://www.w3.org/1999/xlink" x="0px" y="0px"
	 viewBox="0 0 36.3 36" enable-background="new 0 0 36.3 36" xml:space="preserve">
<path id="XMLID_136_" fill="#009FFD" d="M8.6,18.9c-4.7,0-8.6,3.8-8.6,8.6C0,32.2,3.8,36,8.6,36c4.7,0,8.6-3.8,8.6-8.6
	C17.1,22.7,13.3,18.9,8.6,18.9z M8.6,33.6c-3.4,0-6.1-2.7-6.1-6.1c0-3.4,2.7-6.1,6.1-6.1s6.1,2.7,6.1,6.1
	C14.7,30.8,11.9,33.6,8.6,33.6z"/>
<path id="XMLID_133_" fill="#009FFD" d="M27.7,0c-4.7,0-8.6,3.8-8.6,8.6s3.8,8.6,8.6,8.6c4.7,0,8.6-3.8,8.6-8.6S32.4,0,27.7,0z
	 M27.7,14.7c-3.4,0-6.1-2.7-6.1-6.1s2.7-6.1,6.1-6.1s6.1,2.7,6.1,6.1S31.1,14.7,27.7,14.7z"/>
<path id="XMLID_128_" fill="#009FFD" d="M8.6,0C3.8,0,0,3.8,0,8.6s3.8,8.6,8.6,8.6c4.7,0,8.6-3.8,8.6-8.6c0-2.4-1-4.6-2.6-6.1h2.6V0
	L8.6,0L8.6,0z M14.7,8.6c0,3.4-2.7,6.1-6.1,6.1S2.4,12,2.4,8.6s2.7-6.1,6.1-6.1S14.7,5.2,14.7,8.6z"/>
</svg>
