<?xml version="1.0" encoding="utf-8"?>
<!-- Generator: Adobe Illustrator 19.0.0, SVG Export Plug-In . SVG Version: 6.00 Build 0)  -->
<svg version="1.1" id="Layer_1" xmlns="http://www.w3.org/2000/svg" xmlns:xlink="http://www.w3.org/1999/xlink" x="0px" y="0px"
	 viewBox="0 0 40.9 42.2" enable-background="new 0 0 40.9 42.2" xml:space="preserve">
<linearGradient id="XMLID_41_" gradientUnits="userSpaceOnUse" x1="-403.6266" y1="272.6352" x2="-403.6266" y2="280.7165" gradientTransform="matrix(5.2245 0 0 5.2245 2129.1995 -1424.3796)">
	<stop  offset="0" style="stop-color:#00EFD1"/>
	<stop  offset="1" style="stop-color:#00ACEA"/>
</linearGradient>
<path id="XMLID_221_" fill="url(#XMLID_41_)" d="M36,15.5h-0.1v-0.1C35.9,6.9,29,0,20.5,0S5,6.9,5,15.4v0.1H4.9
	c-2.7,0-4.9,2.2-4.9,4.9v7.2c0,2.7,2.2,4.9,4.9,4.9h3.9c0.9,0,1.6-0.7,1.6-1.6V17.1c0-0.9-0.7-1.6-1.6-1.6H8.2v-0.1
	c0-6.8,5.5-12.3,12.3-12.3s12.3,5.5,12.3,12.3v0.1h-0.6c-0.9,0-1.6,0.7-1.6,1.6V31c0,0.9,0.7,1.6,1.6,1.6h1.4
	c-0.6,1.4-2,2.4-3.7,2.4H27c-0.7-2.4-2.9-4.1-5.5-4.1c-3.1,0-5.7,2.6-5.7,5.7c0,3.1,2.6,5.7,5.8,5.7c1.6,0,3.1-0.6,4.1-1.8
	c0.6-0.7,1.1-1.5,1.4-2.4h2.8c3.4,0,6.3-2.4,7-5.6c2.3-0.4,4.1-2.4,4.1-4.9v-7.1C40.9,17.8,38.7,15.5,36,15.5z M7.2,29.5H4.9
	c-1,0-1.8-0.8-1.8-1.8v-7.2c0-1,0.8-1.8,1.8-1.8h2.3V29.5z M23.4,38.3c-0.5,0.5-1.2,0.8-1.9,0.8c-1.4,0-2.6-1.2-2.6-2.6
	c0-1.4,1.2-2.6,2.6-2.6s2.6,1.2,2.6,2.6v0.1C24.1,37.3,23.9,37.9,23.4,38.3z M37.8,27.7c0,1-0.8,1.8-1.8,1.8h-2.3V18.7H36
	c1,0,1.8,0.8,1.8,1.8V27.7z"/>
</svg>
