<?xml version="1.0" encoding="utf-8"?>
<!-- Generator: Adobe Illustrator 19.0.0, SVG Export Plug-In . SVG Version: 6.00 Build 0)  -->
<svg version="1.1" id="Layer_1" xmlns="http://www.w3.org/2000/svg" xmlns:xlink="http://www.w3.org/1999/xlink" x="0px" y="0px"
	 viewBox="-503.7 278.3 45.3 45.2" enable-background="new -503.7 278.3 45.3 45.2" xml:space="preserve">
<g id="XMLID_3240_">
	<g id="XMLID_3876_">
		<g id="XMLID_3877_">
			<linearGradient id="XMLID_2_" gradientUnits="userSpaceOnUse" x1="-486.8666" y1="308.7657" x2="-466.8672" y2="308.7657">
				<stop  offset="0" style="stop-color:#00EFD1"/>
				<stop  offset="1" style="stop-color:#00ACEA"/>
			</linearGradient>
			<path id="XMLID_3878_" fill="url(#XMLID_2_)" d="M-467.2,312.1c-2.6-2-9.4-7.5-10.3-10.9c-0.7-2.5-3.3-3.9-5.9-3.3
				c-2.5,0.7-4,3.3-3.3,5.9c1.7,5.9,7.9,11.2,13.6,15.7c0.2,0.2,0.4,0.2,0.6,0.2c0.3,0,0.5-0.2,0.7-0.4c0.3-0.4,0.2-1-0.2-1.3
				c-5.5-4.3-11.4-9.4-12.9-14.7c-0.4-1.5,0.4-3.1,2-3.5c1.5-0.4,3.1,0.4,3.5,2c1.1,3.6,6.2,8,11,11.9c0.4,0.3,1,0.2,1.3-0.2
				C-466.8,313-466.8,312.4-467.2,312.1z"/>
		</g>
	</g>
	<g id="XMLID_3873_">
		<g id="XMLID_3874_">
			<linearGradient id="XMLID_3_" gradientUnits="userSpaceOnUse" x1="-497.4395" y1="302.6667" x2="-464.2457" y2="302.6667">
				<stop  offset="0" style="stop-color:#00EFD1"/>
				<stop  offset="1" style="stop-color:#00ACEA"/>
			</linearGradient>
			<path id="XMLID_3875_" fill="url(#XMLID_3_)" d="M-464.6,303.7c-2.2-1.8-5.4-4.4-5.9-4.9c-2-6.2-8.7-9.9-15-8
				c-3.1,0.9-5.8,3-7.4,5.9c-1.6,2.9-2,6.2-1.1,9.3c1.6,5.4-1.8,6.8-2.9,7.2c-0.5,0.2-0.7,0.7-0.6,1.2c0.2,0.4,0.5,0.7,0.9,0.7
				c0.1,0,0.2,0,0.3-0.1c2.9-0.9,5.7-3.9,4.1-9.5c-0.7-2.6-0.4-5.5,0.9-7.9s3.5-4.2,6.2-5c5.4-1.6,11.1,1.6,12.8,7
				c0,0.1,0.1,0.2,0.1,0.2c0.1,0.2,0.3,0.5,6.4,5.4c0.4,0.3,1,0.3,1.3-0.2C-464.1,304.6-464.2,304-464.6,303.7z"/>
		</g>
	</g>
	<g id="XMLID_3870_">
		<g id="XMLID_3871_">
			<linearGradient id="XMLID_4_" gradientUnits="userSpaceOnUse" x1="-494.508" y1="306.2899" x2="-465.1545" y2="306.2899">
				<stop  offset="0" style="stop-color:#00EFD1"/>
				<stop  offset="1" style="stop-color:#00ACEA"/>
			</linearGradient>
			<path id="XMLID_3872_" fill="url(#XMLID_4_)" d="M-465.6,308.3c-7-5.5-8.2-7.3-8.5-8.2c-1.3-4.5-6-7-10.5-5.8
				c-4.4,1.3-6.8,5.7-5.9,10.4c1.9,8.6,0.4,10.7-3.5,11.9c-0.5,0.2-0.7,0.7-0.6,1.2c0.2,0.4,0.5,0.7,0.9,0.7c0.1,0,0.2,0,0.3-0.1
				c5.5-1.7,6.6-5.3,4.7-14.1c-0.9-3.7,1.1-7.3,4.5-8.2c3.5-1,7.1,1.1,8.2,4.5c0.4,1.3,1.3,3.1,9.1,9.2c0.4,0.3,1,0.2,1.3-0.2
				C-465,309.2-465.1,308.7-465.6,308.3z"/>
		</g>
	</g>
	<g id="XMLID_3867_">
		<g id="XMLID_3868_">
			<linearGradient id="XMLID_5_" gradientUnits="userSpaceOnUse" x1="-483.2172" y1="309.1327" x2="-468.9764" y2="309.1327">
				<stop  offset="0" style="stop-color:#00EFD1"/>
				<stop  offset="1" style="stop-color:#00ACEA"/>
			</linearGradient>
			<path id="XMLID_3869_" fill="url(#XMLID_5_)" d="M-469.2,315c-0.4-0.4-1.2-1.1-2.2-1.7c-3.1-2.4-8.6-6.4-9.9-11
				c-0.2-0.5-0.7-0.7-1.2-0.7c-0.5,0.2-0.7,0.7-0.7,1.2c1.5,5.2,7.1,9.5,10.5,12c0.9,0.7,1.7,1.3,2,1.6c0.2,0.2,0.4,0.3,0.7,0.3
				c0.2,0,0.4-0.1,0.7-0.3C-468.9,316-468.9,315.4-469.2,315z"/>
		</g>
	</g>
	<g id="XMLID_3864_">
		<g id="XMLID_3865_">
			<linearGradient id="XMLID_6_" gradientUnits="userSpaceOnUse" x1="-485.0215" y1="320.3033" x2="-475.5801" y2="320.3033">
				<stop  offset="0" style="stop-color:#00EFD1"/>
				<stop  offset="1" style="stop-color:#00ACEA"/>
			</linearGradient>
			<path id="XMLID_3866_" fill="url(#XMLID_6_)" d="M-475.9,320.6c-0.2-0.2-0.4-0.5-0.7-0.9c-0.9-1.3-2.3-3.3-4.7-3.3
				c-3.3,0-3.7,5.5-3.7,6.6c0,0.5,0.4,1,0.9,1h0.1c0.5,0,0.9-0.4,1-0.9c0.2-2,0.9-4.8,1.9-4.8c1.4,0,2.4,1.3,3.1,2.4
				c0.3,0.4,0.6,0.9,0.9,1.1c0.4,0.4,1,0.4,1.3,0C-475.5,321.6-475.5,321-475.9,320.6z"/>
		</g>
	</g>
	<g id="XMLID_3861_">
		<g id="XMLID_3862_">
			<linearGradient id="XMLID_7_" gradientUnits="userSpaceOnUse" x1="-490.6169" y1="316.7329" x2="-484.7577" y2="316.7329">
				<stop  offset="0" style="stop-color:#00EFD1"/>
				<stop  offset="1" style="stop-color:#00ACEA"/>
			</linearGradient>
			<path id="XMLID_3863_" fill="url(#XMLID_7_)" d="M-485,311.6c-0.2-0.5-0.7-0.7-1.2-0.6c-0.5,0.2-0.7,0.7-0.6,1.2
				c0.9,2.6-0.7,7.5-3.1,8.3c-0.5,0.2-0.7,0.7-0.6,1.2c0.2,0.4,0.5,0.7,0.9,0.7c0.1,0,0.2,0,0.3-0.1
				C-485.8,321-484.1,314.7-485,311.6z"/>
		</g>
	</g>
	<g id="XMLID_3858_">
		<g id="XMLID_3859_">
			<linearGradient id="XMLID_8_" gradientUnits="userSpaceOnUse" x1="-498.0805" y1="294.9583" x2="-464.1272" y2="294.9583">
				<stop  offset="0" style="stop-color:#00EFD1"/>
				<stop  offset="1" style="stop-color:#00ACEA"/>
			</linearGradient>
			<path id="XMLID_3860_" fill="url(#XMLID_8_)" d="M-464.9,298.8c-1.2-0.4-2.1-1.9-3.1-3.6c-2.2-3.7-5.4-8.7-14.1-8.7
				c-8.8,0-16,7.2-16,16c0,0.5,0.4,1,1,1s1-0.4,1-1c0-7.8,6.3-14.1,14.1-14.1c7.7,0,10.3,4.4,12.5,7.8c1.3,2,2.3,3.8,4.2,4.4
				c0.5,0.2,1.1-0.1,1.2-0.6C-464.1,299.5-464.4,299-464.9,298.8z"/>
		</g>
	</g>
	<g id="XMLID_3854_">
		<g id="XMLID_3855_">
			<linearGradient id="XMLID_9_" gradientUnits="userSpaceOnUse" x1="-498.2404" y1="307.6708" x2="-495.3761" y2="307.6708">
				<stop  offset="0" style="stop-color:#00EFD1"/>
				<stop  offset="1" style="stop-color:#00ACEA"/>
			</linearGradient>
			<path id="XMLID_3857_" fill="url(#XMLID_9_)" d="M-495.5,308.7c-0.4-0.7-0.9-1.9-0.9-2.4s-0.4-1-1-1s-1,0.4-1,1
				c0,1.1,0.9,2.9,1.1,3.3c0.2,0.3,0.5,0.5,0.9,0.5c0.2,0,0.3,0,0.4-0.1C-495.4,309.7-495.3,309.1-495.5,308.7z"/>
		</g>
	</g>
	<g id="XMLID_3850_">
		<g id="XMLID_3851_">
			<linearGradient id="XMLID_10_" gradientUnits="userSpaceOnUse" x1="-497.1809" y1="286.4598" x2="-468.0294" y2="286.4598">
				<stop  offset="0" style="stop-color:#00EFD1"/>
				<stop  offset="1" style="stop-color:#00ACEA"/>
			</linearGradient>
			<path id="XMLID_3852_" fill="url(#XMLID_10_)" d="M-468.1,288.8c-1.3-2.1-7-6.1-14.9-6.1c-8.4,0-13,4.4-14,6.1
				c-0.3,0.4-0.2,1.1,0.3,1.3c0.4,0.3,1.1,0.2,1.3-0.3c0.9-1.3,4.9-5.2,12.4-5.2c7.2,0,12.4,3.7,13.3,5.2c0.2,0.3,0.4,0.4,0.9,0.4
				c0.2,0,0.3-0.1,0.4-0.2C-468.1,289.8-467.9,289.3-468.1,288.8z"/>
		</g>
	</g>
	<g id="XMLID_3847_">
		<g id="XMLID_3848_">
			<linearGradient id="XMLID_11_" gradientUnits="userSpaceOnUse" x1="-492.4839" y1="280.7534" x2="-471.6902" y2="280.7534">
				<stop  offset="0" style="stop-color:#00EFD1"/>
				<stop  offset="1" style="stop-color:#00ACEA"/>
			</linearGradient>
			<path id="XMLID_3849_" fill="url(#XMLID_11_)" d="M-472.4,280.8c-0.4-0.2-0.7-0.2-1.1-0.4c-2-0.7-4.2-1.6-9.6-1.6
				c-5,0-6.2,0.7-7.8,1.4c-0.3,0.2-0.7,0.3-1.1,0.5c-0.4,0.2-0.7,0.7-0.4,1.3c0.2,0.4,0.7,0.7,1.3,0.4c0.4-0.2,0.9-0.4,1.1-0.5
				c1.4-0.7,2.4-1.3,7-1.3c5.1,0,7,0.7,9,1.4c0.4,0.2,0.7,0.3,1.1,0.4c0.1,0,0.2,0.1,0.3,0.1c0.4,0,0.7-0.2,0.9-0.6
				C-471.6,281.6-472,281-472.4,280.8z"/>
		</g>
	</g>
	<g id="XMLID_3722_">
		<g id="XMLID_3725_">
			<linearGradient id="XMLID_12_" gradientUnits="userSpaceOnUse" x1="-467.9886" y1="293.0009" x2="-464.2449" y2="293.0009">
				<stop  offset="0" style="stop-color:#00EFD1"/>
				<stop  offset="1" style="stop-color:#00ACEA"/>
			</linearGradient>
			<path id="XMLID_3846_" fill="url(#XMLID_12_)" d="M-464.3,294.6c-0.5-1.6-2-3.9-2-4c-0.3-0.4-0.9-0.6-1.3-0.3
				c-0.4,0.3-0.6,0.9-0.3,1.3c0,0,1.3,2.2,1.8,3.5c0.2,0.4,0.5,0.7,0.9,0.7c0.1,0,0.2,0,0.3-0.1
				C-464.4,295.7-464.1,295.2-464.3,294.6z"/>
		</g>
	</g>
</g>
</svg>
