<?xml version="1.0" encoding="utf-8"?>
<!-- Generator: Adobe Illustrator 19.0.0, SVG Export Plug-In . SVG Version: 6.00 Build 0)  -->
<svg version="1.1" id="Layer_1" xmlns="http://www.w3.org/2000/svg" xmlns:xlink="http://www.w3.org/1999/xlink" x="0px" y="0px"
	 viewBox="-503.7 278.4 45.3 45.2" enable-background="new -503.7 278.4 45.3 45.2" xml:space="preserve">
<g id="XMLID_8819_">
	<linearGradient id="XMLID_2_" gradientUnits="userSpaceOnUse" x1="-484.1685" y1="289.6784" x2="-478.1099" y2="289.6784">
		<stop  offset="0" style="stop-color:#00EFD1"/>
		<stop  offset="1" style="stop-color:#00ACEA"/>
	</linearGradient>
	<path id="XMLID_9034_" fill="url(#XMLID_2_)" d="M-483.4,290.4h4.5c0.4,0,0.8-0.3,0.8-0.8c0-0.5-0.3-0.8-0.8-0.8h-4.5
		c-0.4,0-0.8,0.3-0.8,0.8C-484.2,290.1-483.8,290.4-483.4,290.4z"/>
	<linearGradient id="XMLID_3_" gradientUnits="userSpaceOnUse" x1="-477.4108" y1="301.7375" x2="-471.3522" y2="301.7375">
		<stop  offset="0" style="stop-color:#00EFD1"/>
		<stop  offset="1" style="stop-color:#00ACEA"/>
	</linearGradient>
	<path id="XMLID_9027_" fill="url(#XMLID_3_)" d="M-472.1,301h-4.5c-0.4,0-0.8,0.3-0.8,0.8c0,0.5,0.3,0.8,0.8,0.8h4.5
		c0.4,0,0.8-0.3,0.8-0.8C-471.4,301.3-471.6,301-472.1,301z"/>
	<linearGradient id="XMLID_4_" gradientUnits="userSpaceOnUse" x1="-490.9262" y1="295.6788" x2="-485.6832" y2="295.6788">
		<stop  offset="0" style="stop-color:#00EFD1"/>
		<stop  offset="1" style="stop-color:#00ACEA"/>
	</linearGradient>
	<path id="XMLID_9024_" fill="url(#XMLID_4_)" d="M-490.2,296.4h3.7c0.4,0,0.8-0.3,0.8-0.8c0-0.5-0.3-0.8-0.8-0.8h-3.7
		c-0.4,0-0.8,0.3-0.8,0.8C-490.9,296.1-490.6,296.4-490.2,296.4z"/>
	<linearGradient id="XMLID_5_" gradientUnits="userSpaceOnUse" x1="-481.1392" y1="295.7371" x2="-474.3233" y2="295.7371">
		<stop  offset="0" style="stop-color:#00EFD1"/>
		<stop  offset="1" style="stop-color:#00ACEA"/>
	</linearGradient>
	<path id="XMLID_9023_" fill="url(#XMLID_5_)" d="M-481.1,295.7c0,0.4,0.3,0.8,0.8,0.8h5.3c0.4,0,0.8-0.3,0.8-0.8
		c0-0.5-0.3-0.8-0.8-0.8h-5.3C-480.8,295-481.1,295.3-481.1,295.7z"/>
	<linearGradient id="XMLID_6_" gradientUnits="userSpaceOnUse" x1="-484.2268" y1="295.6862" x2="-482.6539" y2="295.6862">
		<stop  offset="0" style="stop-color:#00EFD1"/>
		<stop  offset="1" style="stop-color:#00ACEA"/>
	</linearGradient>
	<path id="XMLID_9021_" fill="url(#XMLID_6_)" d="M-483.4,296.4c0.2,0,0.4-0.1,0.5-0.2c0.2-0.2,0.2-0.3,0.2-0.5s-0.1-0.4-0.2-0.5
		c-0.3-0.3-0.8-0.3-1.1,0c-0.2,0.2-0.2,0.3-0.2,0.5s0.1,0.4,0.2,0.5C-483.8,296.4-483.6,296.4-483.4,296.4z"/>
	<linearGradient id="XMLID_7_" gradientUnits="userSpaceOnUse" x1="-487.8969" y1="301.7375" x2="-478.809" y2="301.7375">
		<stop  offset="0" style="stop-color:#00EFD1"/>
		<stop  offset="1" style="stop-color:#00ACEA"/>
	</linearGradient>
	<path id="XMLID_9019_" fill="url(#XMLID_7_)" d="M-479.6,301h-7.6c-0.4,0-0.8,0.3-0.8,0.8c0,0.5,0.3,0.8,0.8,0.8h7.6
		c0.4,0,0.8-0.3,0.8-0.8C-478.8,301.3-479.2,301-479.6,301z"/>
	<linearGradient id="XMLID_8_" gradientUnits="userSpaceOnUse" x1="-490.9845" y1="301.7449" x2="-489.4116" y2="301.7449">
		<stop  offset="0" style="stop-color:#00EFD1"/>
		<stop  offset="1" style="stop-color:#00ACEA"/>
	</linearGradient>
	<path id="XMLID_8914_" fill="url(#XMLID_8_)" d="M-490.2,302.5c0.2,0,0.4-0.1,0.5-0.2c0.2-0.2,0.2-0.3,0.2-0.5
		c0-0.2-0.1-0.4-0.2-0.5c-0.3-0.3-0.8-0.3-1.1,0c-0.2,0.2-0.2,0.3-0.2,0.5c0,0.2,0.1,0.4,0.2,0.5
		C-490.6,302.4-490.4,302.5-490.2,302.5z"/>
	<linearGradient id="XMLID_9_" gradientUnits="userSpaceOnUse" x1="-472.9251" y1="295.6862" x2="-471.3522" y2="295.6862">
		<stop  offset="0" style="stop-color:#00EFD1"/>
		<stop  offset="1" style="stop-color:#00ACEA"/>
	</linearGradient>
	<path id="XMLID_8906_" fill="url(#XMLID_9_)" d="M-472.1,296.4c0.2,0,0.4-0.1,0.5-0.2c0.2-0.2,0.2-0.3,0.2-0.5s-0.1-0.4-0.2-0.5
		c-0.3-0.3-0.8-0.3-1.1,0c-0.2,0.2-0.2,0.3-0.2,0.5s0.1,0.4,0.2,0.5C-472.5,296.4-472.2,296.4-472.1,296.4z"/>
	<linearGradient id="XMLID_10_" gradientUnits="userSpaceOnUse" x1="-503.7426" y1="310.8837" x2="-488.4212" y2="310.8837">
		<stop  offset="0" style="stop-color:#00EFD1"/>
		<stop  offset="1" style="stop-color:#00ACEA"/>
	</linearGradient>
	<polygon id="XMLID_8904_" fill="url(#XMLID_10_)" points="-503.7,299.1 -503.7,322.7 -488.4,310.8 	"/>
	<linearGradient id="XMLID_11_" gradientUnits="userSpaceOnUse" x1="-502.5775" y1="317.5832" x2="-459.6427" y2="317.5832">
		<stop  offset="0" style="stop-color:#00EFD1"/>
		<stop  offset="1" style="stop-color:#00ACEA"/>
	</linearGradient>
	<polygon id="XMLID_8884_" fill="url(#XMLID_11_)" points="-487,311.5 -502.6,323.6 -459.6,323.6 -475.4,311.5 	"/>
	<linearGradient id="XMLID_12_" gradientUnits="userSpaceOnUse" x1="-503.0435" y1="294.2515" x2="-459.2349" y2="294.2515">
		<stop  offset="0" style="stop-color:#00EFD1"/>
		<stop  offset="1" style="stop-color:#00ACEA"/>
	</linearGradient>
	<path id="XMLID_8823_" fill="url(#XMLID_12_)" d="M-497.8,301.8l10.4,8.3h12.6l10.4-8.3l5.2-4l-3.8-3.6v-9.1h-9.6l-6.5-6
		c-1-0.9-2.8-0.9-3.8,0l-6.5,6h-9.7v9.1l-3.8,3.6L-497.8,301.8z M-497.7,286.7h6.6h20h6.6v6.1v7.1l-10.8,8.6H-487l-10.8-8.7v-7.1
		L-497.7,286.7L-497.7,286.7z"/>
	<linearGradient id="XMLID_13_" gradientUnits="userSpaceOnUse" x1="-473.9155" y1="310.8837" x2="-458.4776" y2="310.8837">
		<stop  offset="0" style="stop-color:#00EFD1"/>
		<stop  offset="1" style="stop-color:#00ACEA"/>
	</linearGradient>
	<polygon id="XMLID_8820_" fill="url(#XMLID_13_)" points="-473.9,310.8 -458.5,322.7 -458.5,299.1 	"/>
</g>
</svg>
