<?xml version="1.0" encoding="utf-8"?>
<!-- Generator: Adobe Illustrator 19.0.0, SVG Export Plug-In . SVG Version: 6.00 Build 0)  -->
<svg version="1.1" id="Layer_1" xmlns="http://www.w3.org/2000/svg" xmlns:xlink="http://www.w3.org/1999/xlink" x="0px" y="0px"
	 viewBox="-503.7 278.3 45.3 45.2" enable-background="new -503.7 278.3 45.3 45.2" xml:space="preserve">
<g id="XMLID_4222_">
	<g id="c13_monument_16_">
		
			<linearGradient id="_x3C_Group_x3E__1_" gradientUnits="userSpaceOnUse" x1="-503.724" y1="300.8806" x2="-458.4074" y2="300.8806">
			<stop  offset="0" style="stop-color:#00EFD1"/>
			<stop  offset="1" style="stop-color:#00ACEA"/>
		</linearGradient>
		<path id="_x3C_Group_x3E__16_" fill="url(#_x3C_Group_x3E__1_)" d="M-473.1,314v-19.5h-6.5V314H-473.1z M-463.5,314v-19.5h-6.6
			V314H-463.5z M-460.2,290.7l-21-12.5l-21,12.5c0,0-1.5,1.3,0,2.2h42.1C-460.2,292.9-459,291.9-460.2,290.7z M-482.8,314v-19.5
			h-6.6V314H-482.8z M-492.6,314v-19.5h-6.5V314H-492.6z M-461.5,316.2l-38.7,0.1l-3.6,4.6v2.6h45.3v-2.6L-461.5,316.2z"/>
	</g>
	<g id="Capa_1_16_">
	</g>
</g>
</svg>
