<?xml version="1.0" encoding="UTF-8"?>
<svg width="73px" height="41px" viewBox="0 0 73 41" version="1.1" xmlns="http://www.w3.org/2000/svg" xmlns:xlink="http://www.w3.org/1999/xlink">
    <!-- Generator: Sketch 50.2 (55047) - http://www.bohemiancoding.com/sketch -->
    <title>logo-gradient</title>
    <desc>Created with Sketch.</desc>
    <defs></defs>
    <g id="Page-1" stroke="none" stroke-width="1" fill="none" fill-rule="evenodd">
        <g id="logo-gradient" fill="#FFFFFF" fill-rule="nonzero">
            <path d="M52.3,0 C40.9,0 31.9,9.3 31.9,20.5 C31.9,31.9 41.1,41 52.3,41 C63.7,41 72.7,31.7 72.7,20.5 C72.9,9.1 63.7,0 52.3,0 Z M52.3,38 C42.7,38 34.7,30.2 34.7,20.4 C34.7,10.6 42.6,2.9 52.3,2.9 C61.9,2.9 69.9,10.7 69.9,20.5 C69.9,30.3 62.1,38 52.3,38 Z" id="XMLID_2233_"></path>
            <path d="M57.3,20.1 C57.7,19.9 57.8,19.9 57.8,19.9 C58,19.9 58.2,19.7 58.3,19.5 C59.2,19 59.6,17.9 59.6,16.6 C59.6,15.5 59.2,14.6 58.5,13.7 C58.1,13.3 57.4,13 56.7,12.6 C56.3,12.4 55.8,12.4 55.3,12.2 L55.3,10.2 L53.5,10.2 L53.5,12.2 L51.5,12.2 L51.5,10.2 L49.7,10.2 L49.7,12.2 L47.6,12.2 L44.7,12.2 L44.7,15.2 L46.3,15.2 C46.8,15.2 47.6,15.4 47.6,16.5 L47.6,24 C47.6,25.3 46.9,25.3 46.3,25.3 L44.7,25.3 L44.7,28.3 L47.6,28.3 L49.7,28.3 L49.7,30.3 L51.5,30.3 L51.5,28.3 L53.5,28.3 L53.5,30.3 L55.3,30.3 L55.3,28.2 C57.1,28.2 58.5,27.7 59.2,26.8 C59.9,25.9 60.3,25 60.3,23.8 C60.3,22.7 59.9,22 59.4,21.3 C59.1,20.8 58.4,20.5 57.3,20.1 Z M51.4,15.5 L53.2,15.5 C54.3,15.5 55,15.7 55.5,15.9 C56,16.1 56.2,16.6 56.2,17.3 C56.2,18 56,18.6 55.5,18.7 C55,18.9 54.3,19 53.4,19 L51.6,19 L51.4,15.5 Z M56,25.1 C55.5,25.3 54.7,25.5 53.7,25.5 L51.2,25.5 L51.2,21.7 L53.3,21.7 C54.6,21.7 55.4,21.9 56,22.1 C56.5,22.3 56.9,22.8 56.9,23.5 C56.9,24.4 56.6,24.7 56,25.1 Z" id="XMLID_2031_"></path>
            <path d="M28,26.1 C23.2,26.1 18.2,26.1 13.4,26.1 C10.9,26.1 10.9,29.9 13.4,29.9 C18.2,29.9 23.2,29.9 28,29.9 C30.5,30 30.5,26.1 28,26.1 Z" id="XMLID_2030_"></path>
            <path d="M28.2,11.6 C23.4,11.6 18.4,11.6 13.6,11.6 C11.1,11.6 11.1,15.4 13.6,15.4 C18.4,15.4 23.4,15.4 28.2,15.4 C30.6,15.3 30.6,11.6 28.2,11.6 Z" id="XMLID_2025_"></path>
            <path d="M26.4,18.9 C15.6,18.9 12.9,18.9 1.9,18.9 C-0.6,18.9 -0.6,22.7 1.9,22.7 C12.7,22.7 15.4,22.7 26.4,22.7 C28.9,22.7 28.9,18.9 26.4,18.9 Z" id="XMLID_2024_"></path>
        </g>
    </g>
</svg>