<?xml version="1.0" encoding="utf-8"?>
<!-- Generator: Adobe Illustrator 19.0.0, SVG Export Plug-In . SVG Version: 6.00 Build 0)  -->
<svg version="1.1" id="Layer_1" xmlns="http://www.w3.org/2000/svg" xmlns:xlink="http://www.w3.org/1999/xlink" x="0px" y="0px"
	 viewBox="-384 1279.7 670.4 403.3" style="enable-background:new -384 1279.7 670.4 403.3;" xml:space="preserve">
<style type="text/css">
	.st0{opacity:0.3;fill:#3A4551;enable-background:new    ;}
</style>
<g id="Background">
</g>
<circle class="st0" cx="-184.9" cy="1284.8" r="5.1"/>
<circle class="st0" cx="-172.7" cy="1284.8" r="5.1"/>
<circle class="st0" cx="-160.4" cy="1284.8" r="5.1"/>
<circle class="st0" cx="-148.2" cy="1284.8" r="5.1"/>
<circle class="st0" cx="-135.9" cy="1284.8" r="5.1"/>
<circle class="st0" cx="-123.6" cy="1284.8" r="5.1"/>
<circle class="st0" cx="-111.4" cy="1284.8" r="5.1"/>
<circle class="st0" cx="-99.1" cy="1284.8" r="5.1"/>
<circle class="st0" cx="-86.9" cy="1284.8" r="5.1"/>
<circle class="st0" cx="-184.9" cy="1298.4" r="5.1"/>
<circle class="st0" cx="-172.7" cy="1298.4" r="5.1"/>
<circle class="st0" cx="-160.4" cy="1298.4" r="5.1"/>
<circle class="st0" cx="-148.2" cy="1298.4" r="5.1"/>
<circle class="st0" cx="-135.9" cy="1298.4" r="5.1"/>
<circle class="st0" cx="-123.6" cy="1298.4" r="5.1"/>
<circle class="st0" cx="-111.4" cy="1298.4" r="5.1"/>
<circle class="st0" cx="-99.1" cy="1298.4" r="5.1"/>
<circle class="st0" cx="-280.8" cy="1312" r="5.1"/>
<circle class="st0" cx="-268.5" cy="1312" r="5.1"/>
<circle class="st0" cx="-256.3" cy="1312" r="5.1"/>
<circle class="st0" cx="-244" cy="1312" r="5.1"/>
<circle class="st0" cx="-268.5" cy="1300.2" r="5.1"/>
<circle class="st0" cx="-256.3" cy="1300.2" r="5.1"/>
<circle class="st0" cx="-244" cy="1300.2" r="5.1"/>
<circle class="st0" cx="-172.7" cy="1312" r="5.1"/>
<circle class="st0" cx="-160.4" cy="1312" r="5.1"/>
<circle class="st0" cx="-148.2" cy="1312" r="5.1"/>
<circle class="st0" cx="-135.9" cy="1312" r="5.1"/>
<circle class="st0" cx="-123.6" cy="1312" r="5.1"/>
<circle class="st0" cx="-111.4" cy="1312" r="5.1"/>
<circle class="st0" cx="-99.1" cy="1312" r="5.1"/>
<circle class="st0" cx="-354.3" cy="1325.6" r="5.1"/>
<circle class="st0" cx="-342.1" cy="1325.6" r="5.1"/>
<circle class="st0" cx="-329.8" cy="1325.6" r="5.1"/>
<circle class="st0" cx="-317.6" cy="1325.6" r="5.1"/>
<circle class="st0" cx="-305.3" cy="1325.6" r="5.1"/>
<circle class="st0" cx="-293" cy="1325.6" r="5.1"/>
<circle class="st0" cx="-280.8" cy="1325.6" r="5.1"/>
<circle class="st0" cx="-268.5" cy="1325.6" r="5.1"/>
<circle class="st0" cx="-256.3" cy="1325.6" r="5.1"/>
<circle class="st0" cx="-244" cy="1325.6" r="5.1"/>
<circle class="st0" cx="-231.7" cy="1325.6" r="5.1"/>
<circle class="st0" cx="-219.5" cy="1325.6" r="5.1"/>
<circle class="st0" cx="-207.2" cy="1325.6" r="5.1"/>
<circle class="st0" cx="-160.4" cy="1325.6" r="5.1"/>
<circle class="st0" cx="-148.2" cy="1325.6" r="5.1"/>
<circle class="st0" cx="-135.9" cy="1325.6" r="5.1"/>
<circle class="st0" cx="-123.6" cy="1325.6" r="5.1"/>
<circle class="st0" cx="-111.4" cy="1325.6" r="5.1"/>
<circle class="st0" cx="-366.6" cy="1339.1" r="5.1"/>
<circle class="st0" cx="-354.3" cy="1339.1" r="5.1"/>
<circle class="st0" cx="-342.1" cy="1339.1" r="5.1"/>
<circle class="st0" cx="-329.8" cy="1339.1" r="5.1"/>
<circle class="st0" cx="-317.6" cy="1339.1" r="5.1"/>
<circle class="st0" cx="-305.3" cy="1339.1" r="5.1"/>
<circle class="st0" cx="-293" cy="1339.1" r="5.1"/>
<circle class="st0" cx="-280.8" cy="1339.1" r="5.1"/>
<circle class="st0" cx="-268.5" cy="1339.1" r="5.1"/>
<circle class="st0" cx="-256.3" cy="1339.1" r="5.1"/>
<circle class="st0" cx="-244" cy="1339.1" r="5.1"/>
<circle class="st0" cx="-231.7" cy="1339.1" r="5.1"/>
<circle class="st0" cx="-219.5" cy="1339.1" r="5.1"/>
<circle class="st0" cx="-207.2" cy="1339.1" r="5.1"/>
<circle class="st0" cx="-195" cy="1339.1" r="5.1"/>
<circle class="st0" cx="-160.4" cy="1339.1" r="5.1"/>
<circle class="st0" cx="-148.2" cy="1339.1" r="5.1"/>
<circle class="st0" cx="-135.9" cy="1339.1" r="5.1"/>
<circle class="st0" cx="-123.6" cy="1339.1" r="5.1"/>
<circle class="st0" cx="-366.6" cy="1352.7" r="5.1"/>
<circle class="st0" cx="-354.3" cy="1352.7" r="5.1"/>
<circle class="st0" cx="-342.1" cy="1352.7" r="5.1"/>
<circle class="st0" cx="-329.8" cy="1352.7" r="5.1"/>
<circle class="st0" cx="-317.6" cy="1352.7" r="5.1"/>
<circle class="st0" cx="-305.3" cy="1352.7" r="5.1"/>
<circle class="st0" cx="-293" cy="1352.7" r="5.1"/>
<circle class="st0" cx="-280.8" cy="1352.7" r="5.1"/>
<circle class="st0" cx="-268.5" cy="1352.7" r="5.1"/>
<circle class="st0" cx="-256.3" cy="1352.7" r="5.1"/>
<circle class="st0" cx="-244" cy="1352.7" r="5.1"/>
<circle class="st0" cx="-231.7" cy="1352.7" r="5.1"/>
<circle class="st0" cx="-219.5" cy="1352.7" r="5.1"/>
<circle class="st0" cx="-207.2" cy="1352.7" r="5.1"/>
<circle class="st0" cx="-195" cy="1352.7" r="5.1"/>
<circle class="st0" cx="-160.4" cy="1352.7" r="5.1"/>
<circle class="st0" cx="-148.2" cy="1352.7" r="5.1"/>
<circle class="st0" cx="-135.9" cy="1352.7" r="5.1"/>
<circle class="st0" cx="-378.9" cy="1366.3" r="5.1"/>
<circle class="st0" cx="-366.6" cy="1366.3" r="5.1"/>
<circle class="st0" cx="-354.3" cy="1366.3" r="5.1"/>
<circle class="st0" cx="-342.1" cy="1366.3" r="5.1"/>
<circle class="st0" cx="-329.8" cy="1366.3" r="5.1"/>
<circle class="st0" cx="-317.6" cy="1366.3" r="5.1"/>
<circle class="st0" cx="-305.3" cy="1366.3" r="5.1"/>
<circle class="st0" cx="-293" cy="1366.3" r="5.1"/>
<circle class="st0" cx="-280.8" cy="1366.3" r="5.1"/>
<circle class="st0" cx="-268.5" cy="1366.3" r="5.1"/>
<circle class="st0" cx="-256.3" cy="1366.3" r="5.1"/>
<circle class="st0" cx="-244" cy="1366.3" r="5.1"/>
<circle class="st0" cx="-207.2" cy="1366.3" r="5.1"/>
<circle class="st0" cx="-195" cy="1366.3" r="5.1"/>
<circle class="st0" cx="-366.6" cy="1379.9" r="5.1"/>
<circle class="st0" cx="-354.3" cy="1379.9" r="5.1"/>
<circle class="st0" cx="-342.1" cy="1379.9" r="5.1"/>
<circle class="st0" cx="-317.6" cy="1379.9" r="5.1"/>
<circle class="st0" cx="-305.3" cy="1379.9" r="5.1"/>
<circle class="st0" cx="-293" cy="1379.9" r="5.1"/>
<circle class="st0" cx="-280.8" cy="1379.9" r="5.1"/>
<circle class="st0" cx="-268.5" cy="1379.9" r="5.1"/>
<circle class="st0" cx="-256.3" cy="1379.9" r="5.1"/>
<circle class="st0" cx="-244" cy="1379.9" r="5.1"/>
<circle class="st0" cx="-231.7" cy="1379.9" r="5.1"/>
<circle class="st0" cx="-207.2" cy="1379.9" r="5.1"/>
<circle class="st0" cx="-195" cy="1379.9" r="5.1"/>
<circle class="st0" cx="-182.7" cy="1379.9" r="5.1"/>
<circle class="st0" cx="-73.7" cy="1379.9" r="5.1"/>
<circle class="st0" cx="-378.9" cy="1393.4" r="5.1"/>
<circle class="st0" cx="-366.6" cy="1393.4" r="5.1"/>
<circle class="st0" cx="-305.3" cy="1393.4" r="5.1"/>
<circle class="st0" cx="-293" cy="1393.4" r="5.1"/>
<circle class="st0" cx="-280.8" cy="1393.4" r="5.1"/>
<circle class="st0" cx="-268.5" cy="1393.4" r="5.1"/>
<circle class="st0" cx="-256.3" cy="1393.4" r="5.1"/>
<circle class="st0" cx="-244" cy="1393.4" r="5.1"/>
<circle class="st0" cx="-231.7" cy="1393.4" r="5.1"/>
<circle class="st0" cx="-219.5" cy="1393.4" r="5.1"/>
<circle class="st0" cx="-207.2" cy="1393.4" r="5.1"/>
<circle class="st0" cx="-195" cy="1393.4" r="5.1"/>
<circle class="st0" cx="-182.7" cy="1393.4" r="5.1"/>
<circle class="st0" cx="-73.7" cy="1393.4" r="5.1"/>
<circle class="st0" cx="-378.9" cy="1407" r="5.1"/>
<circle class="st0" cx="-305.3" cy="1407" r="5.1"/>
<circle class="st0" cx="-293" cy="1407" r="5.1"/>
<circle class="st0" cx="-280.8" cy="1407" r="5.1"/>
<circle class="st0" cx="-268.5" cy="1407" r="5.1"/>
<circle class="st0" cx="-256.3" cy="1407" r="5.1"/>
<circle class="st0" cx="-244" cy="1407" r="5.1"/>
<circle class="st0" cx="-231.7" cy="1407" r="5.1"/>
<circle class="st0" cx="-219.5" cy="1407" r="5.1"/>
<circle class="st0" cx="-207.2" cy="1407" r="5.1"/>
<circle class="st0" cx="-195" cy="1407" r="5.1"/>
<path class="st0" d="M-61.4,1401.9c-2.8,0-5.1,2.3-5.1,5.1c0,2.8,2.3,5.1,5.1,5.1c2.8,0,5.1-2.3,5.1-5.1
	C-56.3,1404.2-58.6,1401.9-61.4,1401.9z"/>
<circle class="st0" cx="-305.3" cy="1420.6" r="5.1"/>
<circle class="st0" cx="-293" cy="1420.6" r="5.1"/>
<circle class="st0" cx="-280.8" cy="1420.6" r="5.1"/>
<circle class="st0" cx="-268.5" cy="1420.6" r="5.1"/>
<circle class="st0" cx="-256.3" cy="1420.6" r="5.1"/>
<circle class="st0" cx="-244" cy="1420.6" r="5.1"/>
<circle class="st0" cx="-231.7" cy="1420.6" r="5.1"/>
<circle class="st0" cx="-219.5" cy="1420.6" r="5.1"/>
<circle class="st0" cx="-207.2" cy="1420.6" r="5.1"/>
<circle class="st0" cx="-73.7" cy="1420.6" r="5.1"/>
<path class="st0" d="M-61.4,1415.4c-2.8,0-5.1,2.3-5.1,5.1c0,2.8,2.3,5.1,5.1,5.1c2.8,0,5.1-2.3,5.1-5.1
	C-56.3,1417.7-58.6,1415.4-61.4,1415.4z"/>
<circle class="st0" cx="-305.3" cy="1434.1" r="5.1"/>
<circle class="st0" cx="-293" cy="1434.1" r="5.1"/>
<circle class="st0" cx="-280.8" cy="1434.1" r="5.1"/>
<circle class="st0" cx="-268.5" cy="1434.1" r="5.1"/>
<circle class="st0" cx="-256.3" cy="1434.1" r="5.1"/>
<circle class="st0" cx="-244" cy="1434.1" r="5.1"/>
<circle class="st0" cx="-231.7" cy="1434.1" r="5.1"/>
<circle class="st0" cx="-219.5" cy="1434.1" r="5.1"/>
<circle class="st0" cx="-73.7" cy="1434.1" r="5.1"/>
<path class="st0" d="M-61.4,1429c-2.8,0-5.1,2.3-5.1,5.1c0,2.8,2.3,5.1,5.1,5.1c2.8,0,5.1-2.3,5.1-5.1
	C-56.3,1431.3-58.6,1429-61.4,1429z"/>
<circle class="st0" cx="-305.3" cy="1447.7" r="5.1"/>
<circle class="st0" cx="-293" cy="1447.7" r="5.1"/>
<circle class="st0" cx="-280.8" cy="1447.7" r="5.1"/>
<circle class="st0" cx="-268.5" cy="1447.7" r="5.1"/>
<circle class="st0" cx="-256.3" cy="1447.7" r="5.1"/>
<circle class="st0" cx="-244" cy="1447.7" r="5.1"/>
<circle class="st0" cx="-231.7" cy="1447.7" r="5.1"/>
<circle class="st0" cx="-73.7" cy="1447.7" r="5.1"/>
<path class="st0" d="M-61.4,1442.6c-2.8,0-5.1,2.3-5.1,5.1s2.3,5.1,5.1,5.1c2.8,0,5.1-2.3,5.1-5.1S-58.6,1442.6-61.4,1442.6z"/>
<circle class="st0" cx="-293" cy="1461.3" r="5.1"/>
<circle class="st0" cx="-280.8" cy="1461.3" r="5.1"/>
<circle class="st0" cx="-268.5" cy="1461.3" r="5.1"/>
<circle class="st0" cx="-256.3" cy="1461.3" r="5.1"/>
<circle class="st0" cx="-244" cy="1461.3" r="5.1"/>
<circle class="st0" cx="-86" cy="1461.3" r="5.1"/>
<circle class="st0" cx="-73.7" cy="1461.3" r="5.1"/>
<path class="st0" d="M-61.4,1456.2c-2.8,0-5.1,2.3-5.1,5.1c0,2.8,2.3,5.1,5.1,5.1c2.8,0,5.1-2.3,5.1-5.1
	C-56.3,1458.5-58.6,1456.2-61.4,1456.2z"/>
<circle class="st0" cx="-293" cy="1474.9" r="5.1"/>
<circle class="st0" cx="-280.8" cy="1474.9" r="5.1"/>
<circle class="st0" cx="-268.5" cy="1474.9" r="5.1"/>
<circle class="st0" cx="-86" cy="1474.9" r="5.1"/>
<circle class="st0" cx="-73.7" cy="1474.9" r="5.1"/>
<path class="st0" d="M-61.4,1469.7c-2.8,0-5.1,2.3-5.1,5.1c0,2.8,2.3,5.1,5.1,5.1c2.8,0,5.1-2.3,5.1-5.1
	C-56.3,1472-58.6,1469.7-61.4,1469.7z"/>
<circle class="st0" cx="-37.5" cy="1298.4" r="5.1"/>
<circle class="st0" cx="-25.3" cy="1298.4" r="5.1"/>
<circle class="st0" cx="-13" cy="1298.4" r="5.1"/>
<circle class="st0" cx="-37.5" cy="1312" r="5.1"/>
<circle class="st0" cx="-25.3" cy="1312" r="5.1"/>
<circle class="st0" cx="97.3" cy="1312" r="5.1"/>
<circle class="st0" cx="109.6" cy="1312" r="5.1"/>
<circle class="st0" cx="121.8" cy="1312" r="5.1"/>
<circle class="st0" cx="183.1" cy="1312" r="5.1"/>
<circle class="st0" cx="-13" cy="1325.6" r="5.1"/>
<circle class="st0" cx="72.8" cy="1325.6" r="5.1"/>
<circle class="st0" cx="85.1" cy="1325.6" r="5.1"/>
<circle class="st0" cx="97.3" cy="1325.6" r="5.1"/>
<circle class="st0" cx="109.6" cy="1325.6" r="5.1"/>
<circle class="st0" cx="121.8" cy="1325.6" r="5.1"/>
<circle class="st0" cx="134.1" cy="1325.6" r="5.1"/>
<circle class="st0" cx="146.4" cy="1325.6" r="5.1"/>
<circle class="st0" cx="158.6" cy="1325.6" r="5.1"/>
<circle class="st0" cx="170.9" cy="1325.6" r="5.1"/>
<circle class="st0" cx="183.1" cy="1325.6" r="5.1"/>
<circle class="st0" cx="195.4" cy="1325.6" r="5.1"/>
<circle class="st0" cx="207.7" cy="1325.6" r="5.1"/>
<circle class="st0" cx="219.9" cy="1325.6" r="5.1"/>
<circle class="st0" cx="-37.5" cy="1339.1" r="5.1"/>
<circle class="st0" cx="-25.3" cy="1339.1" r="5.1"/>
<circle class="st0" cx="-13" cy="1339.1" r="5.1"/>
<circle class="st0" cx="-0.8" cy="1339.1" r="5.1"/>
<circle class="st0" cx="11.5" cy="1339.1" r="5.1"/>
<circle class="st0" cx="23.8" cy="1339.1" r="5.1"/>
<circle class="st0" cx="36" cy="1339.1" r="5.1"/>
<path class="st0" d="M48.3,1334c-2.8,0-5.1,2.3-5.1,5.1c0,2.8,2.3,5.1,5.1,5.1c2.8,0,5.1-2.3,5.1-5.1
	C53.4,1336.3,51.1,1334,48.3,1334z"/>
<circle class="st0" cx="60.5" cy="1339.1" r="5.1"/>
<circle class="st0" cx="72.8" cy="1339.1" r="5.1"/>
<circle class="st0" cx="85.1" cy="1339.1" r="5.1"/>
<circle class="st0" cx="97.3" cy="1339.1" r="5.1"/>
<circle class="st0" cx="109.6" cy="1339.1" r="5.1"/>
<circle class="st0" cx="121.8" cy="1339.1" r="5.1"/>
<circle class="st0" cx="134.1" cy="1339.1" r="5.1"/>
<circle class="st0" cx="146.4" cy="1339.1" r="5.1"/>
<circle class="st0" cx="158.6" cy="1339.1" r="5.1"/>
<circle class="st0" cx="170.9" cy="1339.1" r="5.1"/>
<circle class="st0" cx="183.1" cy="1339.1" r="5.1"/>
<circle class="st0" cx="195.4" cy="1339.1" r="5.1"/>
<circle class="st0" cx="207.7" cy="1339.1" r="5.1"/>
<circle class="st0" cx="219.9" cy="1339.1" r="5.1"/>
<circle class="st0" cx="232.2" cy="1339.1" r="5.1"/>
<circle class="st0" cx="244.5" cy="1339.1" r="5.1"/>
<path class="st0" d="M256.7,1334c-2.8,0-5.1,2.3-5.1,5.1c0,2.8,2.3,5.1,5.1,5.1s5.1-2.3,5.1-5.1C261.8,1336.3,259.5,1334,256.7,1334
	z"/>
<circle class="st0" cx="269" cy="1339.1" r="5.1"/>
<circle class="st0" cx="-37.5" cy="1352.7" r="5.1"/>
<circle class="st0" cx="-25.3" cy="1352.7" r="5.1"/>
<circle class="st0" cx="-13" cy="1352.7" r="5.1"/>
<circle class="st0" cx="-0.8" cy="1352.7" r="5.1"/>
<circle class="st0" cx="11.5" cy="1352.7" r="5.1"/>
<circle class="st0" cx="23.8" cy="1352.7" r="5.1"/>
<circle class="st0" cx="36" cy="1352.7" r="5.1"/>
<path class="st0" d="M48.3,1347.6c-2.8,0-5.1,2.3-5.1,5.1s2.3,5.1,5.1,5.1c2.8,0,5.1-2.3,5.1-5.1S51.1,1347.6,48.3,1347.6z"/>
<circle class="st0" cx="60.5" cy="1352.7" r="5.1"/>
<circle class="st0" cx="72.8" cy="1352.7" r="5.1"/>
<circle class="st0" cx="85.1" cy="1352.7" r="5.1"/>
<circle class="st0" cx="97.3" cy="1352.7" r="5.1"/>
<circle class="st0" cx="109.6" cy="1352.7" r="5.1"/>
<circle class="st0" cx="121.8" cy="1352.7" r="5.1"/>
<circle class="st0" cx="134.1" cy="1352.7" r="5.1"/>
<circle class="st0" cx="146.4" cy="1352.7" r="5.1"/>
<circle class="st0" cx="158.6" cy="1352.7" r="5.1"/>
<circle class="st0" cx="170.9" cy="1352.7" r="5.1"/>
<circle class="st0" cx="183.1" cy="1352.7" r="5.1"/>
<circle class="st0" cx="195.4" cy="1352.7" r="5.1"/>
<circle class="st0" cx="207.7" cy="1352.7" r="5.1"/>
<circle class="st0" cx="219.9" cy="1352.7" r="5.1"/>
<circle class="st0" cx="232.2" cy="1352.7" r="5.1"/>
<circle class="st0" cx="244.5" cy="1352.7" r="5.1"/>
<path class="st0" d="M256.7,1347.6c-2.8,0-5.1,2.3-5.1,5.1s2.3,5.1,5.1,5.1s5.1-2.3,5.1-5.1S259.5,1347.6,256.7,1347.6z"/>
<circle class="st0" cx="269" cy="1352.7" r="5.1"/>
<circle class="st0" cx="-49.8" cy="1366.3" r="5.1"/>
<circle class="st0" cx="-37.5" cy="1366.3" r="5.1"/>
<circle class="st0" cx="-0.8" cy="1366.3" r="5.1"/>
<circle class="st0" cx="11.5" cy="1366.3" r="5.1"/>
<circle class="st0" cx="23.8" cy="1366.3" r="5.1"/>
<circle class="st0" cx="36" cy="1366.3" r="5.1"/>
<path class="st0" d="M48.3,1361.1c-2.8,0-5.1,2.3-5.1,5.1s2.3,5.1,5.1,5.1c2.8,0,5.1-2.3,5.1-5.1S51.1,1361.1,48.3,1361.1z"/>
<circle class="st0" cx="60.5" cy="1366.3" r="5.1"/>
<circle class="st0" cx="72.8" cy="1366.3" r="5.1"/>
<circle class="st0" cx="85.1" cy="1366.3" r="5.1"/>
<circle class="st0" cx="97.3" cy="1366.3" r="5.1"/>
<circle class="st0" cx="109.6" cy="1366.3" r="5.1"/>
<circle class="st0" cx="121.8" cy="1366.3" r="5.1"/>
<circle class="st0" cx="134.1" cy="1366.3" r="5.1"/>
<circle class="st0" cx="146.4" cy="1366.3" r="5.1"/>
<circle class="st0" cx="158.6" cy="1366.3" r="5.1"/>
<circle class="st0" cx="170.9" cy="1366.3" r="5.1"/>
<circle class="st0" cx="183.1" cy="1366.3" r="5.1"/>
<circle class="st0" cx="195.4" cy="1366.3" r="5.1"/>
<circle class="st0" cx="207.7" cy="1366.3" r="5.1"/>
<circle class="st0" cx="219.9" cy="1366.3" r="5.1"/>
<circle class="st0" cx="232.2" cy="1366.3" r="5.1"/>
<circle class="st0" cx="244.5" cy="1366.3" r="5.1"/>
<path class="st0" d="M256.7,1361.1c-2.8,0-5.1,2.3-5.1,5.1s2.3,5.1,5.1,5.1s5.1-2.3,5.1-5.1S259.5,1361.1,256.7,1361.1z"/>
<circle class="st0" cx="-49.8" cy="1379.9" r="5.1"/>
<circle class="st0" cx="-37.5" cy="1379.9" r="5.1"/>
<circle class="st0" cx="-13" cy="1379.9" r="5.1"/>
<circle class="st0" cx="-0.8" cy="1379.9" r="5.1"/>
<circle class="st0" cx="11.5" cy="1379.9" r="5.1"/>
<circle class="st0" cx="23.8" cy="1379.9" r="5.1"/>
<circle class="st0" cx="36" cy="1379.9" r="5.1"/>
<path class="st0" d="M48.3,1374.7c-2.8,0-5.1,2.3-5.1,5.1c0,2.8,2.3,5.1,5.1,5.1c2.8,0,5.1-2.3,5.1-5.1
	C53.4,1377,51.1,1374.7,48.3,1374.7z"/>
<circle class="st0" cx="60.5" cy="1379.9" r="5.1"/>
<circle class="st0" cx="72.8" cy="1379.9" r="5.1"/>
<circle class="st0" cx="85.1" cy="1379.9" r="5.1"/>
<circle class="st0" cx="97.3" cy="1379.9" r="5.1"/>
<circle class="st0" cx="109.6" cy="1379.9" r="5.1"/>
<circle class="st0" cx="121.8" cy="1379.9" r="5.1"/>
<circle class="st0" cx="134.1" cy="1379.9" r="5.1"/>
<circle class="st0" cx="146.4" cy="1379.9" r="5.1"/>
<circle class="st0" cx="158.6" cy="1379.9" r="5.1"/>
<circle class="st0" cx="170.9" cy="1379.9" r="5.1"/>
<circle class="st0" cx="183.1" cy="1379.9" r="5.1"/>
<circle class="st0" cx="195.4" cy="1379.9" r="5.1"/>
<circle class="st0" cx="232.2" cy="1379.9" r="5.1"/>
<circle class="st0" cx="244.5" cy="1379.9" r="5.1"/>
<circle class="st0" cx="-49.8" cy="1393.4" r="5.1"/>
<circle class="st0" cx="-37.5" cy="1393.4" r="5.1"/>
<circle class="st0" cx="-25.3" cy="1393.4" r="5.1"/>
<circle class="st0" cx="-13" cy="1393.4" r="5.1"/>
<circle class="st0" cx="-0.8" cy="1393.4" r="5.1"/>
<circle class="st0" cx="11.5" cy="1393.4" r="5.1"/>
<circle class="st0" cx="23.8" cy="1393.4" r="5.1"/>
<circle class="st0" cx="36" cy="1393.4" r="5.1"/>
<path class="st0" d="M48.3,1388.3c-2.8,0-5.1,2.3-5.1,5.1c0,2.8,2.3,5.1,5.1,5.1c2.8,0,5.1-2.3,5.1-5.1
	C53.4,1390.6,51.1,1388.3,48.3,1388.3z"/>
<circle class="st0" cx="60.5" cy="1393.4" r="5.1"/>
<circle class="st0" cx="72.8" cy="1393.4" r="5.1"/>
<circle class="st0" cx="85.1" cy="1393.4" r="5.1"/>
<circle class="st0" cx="97.3" cy="1393.4" r="5.1"/>
<circle class="st0" cx="109.6" cy="1393.4" r="5.1"/>
<circle class="st0" cx="121.8" cy="1393.4" r="5.1"/>
<circle class="st0" cx="134.1" cy="1393.4" r="5.1"/>
<circle class="st0" cx="146.4" cy="1393.4" r="5.1"/>
<circle class="st0" cx="158.6" cy="1393.4" r="5.1"/>
<circle class="st0" cx="170.9" cy="1393.4" r="5.1"/>
<circle class="st0" cx="183.1" cy="1393.4" r="5.1"/>
<circle class="st0" cx="195.4" cy="1393.4" r="5.1"/>
<circle class="st0" cx="207.7" cy="1393.4" r="5.1"/>
<circle class="st0" cx="-49.8" cy="1407" r="5.1"/>
<circle class="st0" cx="-37.5" cy="1407" r="5.1"/>
<circle class="st0" cx="-25.3" cy="1407" r="5.1"/>
<circle class="st0" cx="-13" cy="1407" r="5.1"/>
<circle class="st0" cx="-0.8" cy="1407" r="5.1"/>
<circle class="st0" cx="11.5" cy="1407" r="5.1"/>
<circle class="st0" cx="23.8" cy="1407" r="5.1"/>
<circle class="st0" cx="36" cy="1407" r="5.1"/>
<path class="st0" d="M48.3,1401.9c-2.8,0-5.1,2.3-5.1,5.1c0,2.8,2.3,5.1,5.1,5.1c2.8,0,5.1-2.3,5.1-5.1
	C53.4,1404.2,51.1,1401.9,48.3,1401.9z"/>
<circle class="st0" cx="60.5" cy="1407" r="5.1"/>
<circle class="st0" cx="72.8" cy="1407" r="5.1"/>
<circle class="st0" cx="85.1" cy="1407" r="5.1"/>
<circle class="st0" cx="97.3" cy="1407" r="5.1"/>
<circle class="st0" cx="109.6" cy="1407" r="5.1"/>
<circle class="st0" cx="121.8" cy="1407" r="5.1"/>
<circle class="st0" cx="134.1" cy="1407" r="5.1"/>
<circle class="st0" cx="146.4" cy="1407" r="5.1"/>
<circle class="st0" cx="158.6" cy="1407" r="5.1"/>
<circle class="st0" cx="170.9" cy="1407" r="5.1"/>
<circle class="st0" cx="183.1" cy="1407" r="5.1"/>
<circle class="st0" cx="195.4" cy="1407" r="5.1"/>
<circle class="st0" cx="207.7" cy="1407" r="5.1"/>
<circle class="st0" cx="-49.8" cy="1420.6" r="5.1"/>
<circle class="st0" cx="-37.5" cy="1420.6" r="5.1"/>
<circle class="st0" cx="-25.3" cy="1420.6" r="5.1"/>
<circle class="st0" cx="-13" cy="1420.6" r="5.1"/>
<circle class="st0" cx="-0.8" cy="1420.6" r="5.1"/>
<circle class="st0" cx="11.5" cy="1420.6" r="5.1"/>
<circle class="st0" cx="23.8" cy="1420.6" r="5.1"/>
<circle class="st0" cx="36" cy="1420.6" r="5.1"/>
<path class="st0" d="M48.3,1415.4c-2.8,0-5.1,2.3-5.1,5.1c0,2.8,2.3,5.1,5.1,5.1c2.8,0,5.1-2.3,5.1-5.1
	C53.4,1417.7,51.1,1415.4,48.3,1415.4z"/>
<circle class="st0" cx="60.5" cy="1420.6" r="5.1"/>
<circle class="st0" cx="72.8" cy="1420.6" r="5.1"/>
<circle class="st0" cx="85.1" cy="1420.6" r="5.1"/>
<circle class="st0" cx="97.3" cy="1420.6" r="5.1"/>
<circle class="st0" cx="109.6" cy="1420.6" r="5.1"/>
<circle class="st0" cx="121.8" cy="1420.6" r="5.1"/>
<circle class="st0" cx="134.1" cy="1420.6" r="5.1"/>
<circle class="st0" cx="146.4" cy="1420.6" r="5.1"/>
<circle class="st0" cx="158.6" cy="1420.6" r="5.1"/>
<circle class="st0" cx="170.9" cy="1420.6" r="5.1"/>
<circle class="st0" cx="183.1" cy="1420.6" r="5.1"/>
<circle class="st0" cx="195.4" cy="1420.6" r="5.1"/>
<circle class="st0" cx="207.7" cy="1420.6" r="5.1"/>
<circle class="st0" cx="-13" cy="1434.1" r="5.1"/>
<circle class="st0" cx="-0.8" cy="1434.1" r="5.1"/>
<circle class="st0" cx="11.5" cy="1434.1" r="5.1"/>
<circle class="st0" cx="23.8" cy="1434.1" r="5.1"/>
<circle class="st0" cx="36" cy="1434.1" r="5.1"/>
<path class="st0" d="M48.3,1429c-2.8,0-5.1,2.3-5.1,5.1c0,2.8,2.3,5.1,5.1,5.1c2.8,0,5.1-2.3,5.1-5.1
	C53.4,1431.3,51.1,1429,48.3,1429z"/>
<circle class="st0" cx="60.5" cy="1434.1" r="5.1"/>
<circle class="st0" cx="72.8" cy="1434.1" r="5.1"/>
<circle class="st0" cx="85.1" cy="1434.1" r="5.1"/>
<circle class="st0" cx="97.3" cy="1434.1" r="5.1"/>
<circle class="st0" cx="109.6" cy="1434.1" r="5.1"/>
<circle class="st0" cx="121.8" cy="1434.1" r="5.1"/>
<circle class="st0" cx="134.1" cy="1434.1" r="5.1"/>
<circle class="st0" cx="146.4" cy="1434.1" r="5.1"/>
<circle class="st0" cx="158.6" cy="1434.1" r="5.1"/>
<circle class="st0" cx="170.9" cy="1434.1" r="5.1"/>
<circle class="st0" cx="183.1" cy="1434.1" r="5.1"/>
<circle class="st0" cx="207.7" cy="1434.1" r="5.1"/>
<circle class="st0" cx="-49.8" cy="1447.7" r="5.1"/>
<circle class="st0" cx="-37.5" cy="1447.7" r="5.1"/>
<circle class="st0" cx="11.5" cy="1447.7" r="5.1"/>
<circle class="st0" cx="23.8" cy="1447.7" r="5.1"/>
<circle class="st0" cx="36" cy="1447.7" r="5.1"/>
<path class="st0" d="M48.3,1442.6c-2.8,0-5.1,2.3-5.1,5.1s2.3,5.1,5.1,5.1c2.8,0,5.1-2.3,5.1-5.1S51.1,1442.6,48.3,1442.6z"/>
<circle class="st0" cx="60.5" cy="1447.7" r="5.1"/>
<circle class="st0" cx="72.8" cy="1447.7" r="5.1"/>
<circle class="st0" cx="85.1" cy="1447.7" r="5.1"/>
<circle class="st0" cx="97.3" cy="1447.7" r="5.1"/>
<circle class="st0" cx="109.6" cy="1447.7" r="5.1"/>
<circle class="st0" cx="121.8" cy="1447.7" r="5.1"/>
<circle class="st0" cx="134.1" cy="1447.7" r="5.1"/>
<circle class="st0" cx="146.4" cy="1447.7" r="5.1"/>
<circle class="st0" cx="158.6" cy="1447.7" r="5.1"/>
<circle class="st0" cx="170.9" cy="1447.7" r="5.1"/>
<circle class="st0" cx="195.4" cy="1447.7" r="5.1"/>
<circle class="st0" cx="207.7" cy="1447.7" r="5.1"/>
<circle class="st0" cx="-49.8" cy="1461.3" r="5.1"/>
<circle class="st0" cx="-37.5" cy="1461.3" r="5.1"/>
<circle class="st0" cx="-25.3" cy="1461.3" r="5.1"/>
<circle class="st0" cx="-13" cy="1461.3" r="5.1"/>
<circle class="st0" cx="-0.8" cy="1461.3" r="5.1"/>
<circle class="st0" cx="11.5" cy="1461.3" r="5.1"/>
<circle class="st0" cx="23.8" cy="1461.3" r="5.1"/>
<circle class="st0" cx="36" cy="1461.3" r="5.1"/>
<circle class="st0" cx="60.5" cy="1461.3" r="5.1"/>
<circle class="st0" cx="72.8" cy="1461.3" r="5.1"/>
<circle class="st0" cx="85.1" cy="1461.3" r="5.1"/>
<circle class="st0" cx="97.3" cy="1461.3" r="5.1"/>
<circle class="st0" cx="109.6" cy="1461.3" r="5.1"/>
<circle class="st0" cx="121.8" cy="1461.3" r="5.1"/>
<circle class="st0" cx="134.1" cy="1461.3" r="5.1"/>
<circle class="st0" cx="146.4" cy="1461.3" r="5.1"/>
<circle class="st0" cx="158.6" cy="1461.3" r="5.1"/>
<circle class="st0" cx="170.9" cy="1461.3" r="5.1"/>
<circle class="st0" cx="-49.8" cy="1474.9" r="5.1"/>
<circle class="st0" cx="-37.5" cy="1474.9" r="5.1"/>
<circle class="st0" cx="-25.3" cy="1474.9" r="5.1"/>
<circle class="st0" cx="-13" cy="1474.9" r="5.1"/>
<circle class="st0" cx="-0.8" cy="1474.9" r="5.1"/>
<circle class="st0" cx="23.8" cy="1474.9" r="5.1"/>
<circle class="st0" cx="36" cy="1474.9" r="5.1"/>
<path class="st0" d="M48.3,1469.7c-2.8,0-5.1,2.3-5.1,5.1c0,2.8,2.3,5.1,5.1,5.1c2.8,0,5.1-2.3,5.1-5.1
	C53.4,1472,51.1,1469.7,48.3,1469.7z"/>
<circle class="st0" cx="72.8" cy="1474.9" r="5.1"/>
<circle class="st0" cx="85.1" cy="1474.9" r="5.1"/>
<circle class="st0" cx="97.3" cy="1474.9" r="5.1"/>
<circle class="st0" cx="109.6" cy="1474.9" r="5.1"/>
<circle class="st0" cx="121.8" cy="1474.9" r="5.1"/>
<circle class="st0" cx="134.1" cy="1474.9" r="5.1"/>
<circle class="st0" cx="146.4" cy="1474.9" r="5.1"/>
<circle class="st0" cx="158.6" cy="1474.9" r="5.1"/>
<circle class="st0" cx="170.9" cy="1474.9" r="5.1"/>
<circle class="st0" cx="-280.8" cy="1487.8" r="5.1"/>
<circle class="st0" cx="-268.5" cy="1487.8" r="5.1"/>
<circle class="st0" cx="-256.3" cy="1487.8" r="5.1"/>
<circle class="st0" cx="-244" cy="1487.8" r="5.1"/>
<circle class="st0" cx="-231.7" cy="1487.8" r="5.1"/>
<circle class="st0" cx="-219.5" cy="1487.8" r="5.1"/>
<circle class="st0" cx="-207.2" cy="1487.8" r="5.1"/>
<circle class="st0" cx="-86" cy="1487.8" r="5.1"/>
<circle class="st0" cx="-73.7" cy="1487.8" r="5.1"/>
<path class="st0" d="M-61.4,1482.7c-2.8,0-5.1,2.3-5.1,5.1c0,2.8,2.3,5.1,5.1,5.1c2.8,0,5.1-2.3,5.1-5.1
	C-56.3,1484.9-58.6,1482.7-61.4,1482.7z"/>
<circle class="st0" cx="-256.3" cy="1501.4" r="5.1"/>
<circle class="st0" cx="-244" cy="1501.4" r="5.1"/>
<circle class="st0" cx="-86" cy="1501.4" r="5.1"/>
<circle class="st0" cx="-73.7" cy="1501.4" r="5.1"/>
<path class="st0" d="M-61.4,1496.2c-2.8,0-5.1,2.3-5.1,5.1c0,2.8,2.3,5.1,5.1,5.1c2.8,0,5.1-2.3,5.1-5.1
	C-56.3,1498.5-58.6,1496.2-61.4,1496.2z"/>
<circle class="st0" cx="-244" cy="1514.9" r="5.1"/>
<circle class="st0" cx="-231.7" cy="1514.9" r="5.1"/>
<circle class="st0" cx="-219.5" cy="1514.9" r="5.1"/>
<circle class="st0" cx="-207.2" cy="1514.9" r="5.1"/>
<circle class="st0" cx="-195" cy="1514.9" r="5.1"/>
<circle class="st0" cx="-182.7" cy="1514.9" r="5.1"/>
<circle class="st0" cx="-86" cy="1514.9" r="5.1"/>
<circle class="st0" cx="-73.7" cy="1514.9" r="5.1"/>
<path class="st0" d="M-61.4,1509.8c-2.8,0-5.1,2.3-5.1,5.1c0,2.8,2.3,5.1,5.1,5.1c2.8,0,5.1-2.3,5.1-5.1
	C-56.3,1512.1-58.6,1509.8-61.4,1509.8z"/>
<circle class="st0" cx="-231.7" cy="1528.5" r="5.1"/>
<circle class="st0" cx="-219.5" cy="1528.5" r="5.1"/>
<circle class="st0" cx="-207.2" cy="1528.5" r="5.1"/>
<circle class="st0" cx="-195" cy="1528.5" r="5.1"/>
<circle class="st0" cx="-182.7" cy="1528.5" r="5.1"/>
<circle class="st0" cx="-170.4" cy="1528.5" r="5.1"/>
<circle class="st0" cx="-158.2" cy="1528.5" r="5.1"/>
<circle class="st0" cx="-231.7" cy="1542.1" r="5.1"/>
<circle class="st0" cx="-219.5" cy="1542.1" r="5.1"/>
<circle class="st0" cx="-207.2" cy="1542.1" r="5.1"/>
<circle class="st0" cx="-195" cy="1542.1" r="5.1"/>
<circle class="st0" cx="-182.7" cy="1542.1" r="5.1"/>
<circle class="st0" cx="-170.4" cy="1542.1" r="5.1"/>
<circle class="st0" cx="-158.2" cy="1542.1" r="5.1"/>
<circle class="st0" cx="-145.9" cy="1542.1" r="5.1"/>
<circle class="st0" cx="-231.7" cy="1555.7" r="5.1"/>
<circle class="st0" cx="-219.5" cy="1555.7" r="5.1"/>
<circle class="st0" cx="-207.2" cy="1555.7" r="5.1"/>
<circle class="st0" cx="-195" cy="1555.7" r="5.1"/>
<circle class="st0" cx="-182.7" cy="1555.7" r="5.1"/>
<circle class="st0" cx="-170.4" cy="1555.7" r="5.1"/>
<circle class="st0" cx="-158.2" cy="1555.7" r="5.1"/>
<circle class="st0" cx="-145.9" cy="1555.7" r="5.1"/>
<circle class="st0" cx="-219.5" cy="1569.2" r="5.1"/>
<circle class="st0" cx="-207.2" cy="1569.2" r="5.1"/>
<circle class="st0" cx="-195" cy="1569.2" r="5.1"/>
<circle class="st0" cx="-182.7" cy="1569.2" r="5.1"/>
<circle class="st0" cx="-170.4" cy="1569.2" r="5.1"/>
<circle class="st0" cx="-158.2" cy="1569.2" r="5.1"/>
<circle class="st0" cx="-145.9" cy="1569.2" r="5.1"/>
<circle class="st0" cx="-219.5" cy="1582.8" r="5.1"/>
<circle class="st0" cx="-207.2" cy="1582.8" r="5.1"/>
<circle class="st0" cx="-195" cy="1582.8" r="5.1"/>
<circle class="st0" cx="-182.7" cy="1582.8" r="5.1"/>
<circle class="st0" cx="-170.4" cy="1582.8" r="5.1"/>
<circle class="st0" cx="-158.2" cy="1582.8" r="5.1"/>
<circle class="st0" cx="-219.5" cy="1596.4" r="5.1"/>
<circle class="st0" cx="-207.2" cy="1596.4" r="5.1"/>
<circle class="st0" cx="-195" cy="1596.4" r="5.1"/>
<circle class="st0" cx="-182.7" cy="1596.4" r="5.1"/>
<circle class="st0" cx="-170.4" cy="1596.4" r="5.1"/>
<circle class="st0" cx="-158.2" cy="1596.4" r="5.1"/>
<circle class="st0" cx="-219.5" cy="1610" r="5.1"/>
<circle class="st0" cx="-207.2" cy="1610" r="5.1"/>
<circle class="st0" cx="-195" cy="1610" r="5.1"/>
<circle class="st0" cx="-182.7" cy="1610" r="5.1"/>
<circle class="st0" cx="-170.4" cy="1610" r="5.1"/>
<circle class="st0" cx="-219.5" cy="1623.5" r="5.1"/>
<circle class="st0" cx="-207.2" cy="1623.5" r="5.1"/>
<circle class="st0" cx="-195" cy="1623.5" r="5.1"/>
<circle class="st0" cx="-182.7" cy="1623.5" r="5.1"/>
<circle class="st0" cx="-219.5" cy="1637.1" r="5.1"/>
<circle class="st0" cx="-207.2" cy="1637.1" r="5.1"/>
<circle class="st0" cx="-195" cy="1637.1" r="5.1"/>
<circle class="st0" cx="-207.2" cy="1650.7" r="5.1"/>
<circle class="st0" cx="-219.1" cy="1650.7" r="5.1"/>
<circle class="st0" cx="-195" cy="1650.7" r="5.1"/>
<circle class="st0" cx="-207.2" cy="1664.2" r="5.1"/>
<circle class="st0" cx="-219.1" cy="1664.2" r="5.1"/>
<circle class="st0" cx="-195" cy="1664.2" r="5.1"/>
<circle class="st0" cx="-207.2" cy="1677.8" r="5.1"/>
<circle class="st0" cx="-195" cy="1677.8" r="5.1"/>
<circle class="st0" cx="-49.8" cy="1487.8" r="5.1"/>
<circle class="st0" cx="-37.5" cy="1487.8" r="5.1"/>
<circle class="st0" cx="-25.3" cy="1487.8" r="5.1"/>
<circle class="st0" cx="-13" cy="1487.8" r="5.1"/>
<circle class="st0" cx="-0.8" cy="1487.8" r="5.1"/>
<circle class="st0" cx="11.5" cy="1487.8" r="5.1"/>
<circle class="st0" cx="36" cy="1487.8" r="5.1"/>
<path class="st0" d="M48.3,1482.7c-2.8,0-5.1,2.3-5.1,5.1c0,2.8,2.3,5.1,5.1,5.1c2.8,0,5.1-2.3,5.1-5.1
	C53.4,1484.9,51.1,1482.7,48.3,1482.7z"/>
<circle class="st0" cx="85.1" cy="1487.8" r="5.1"/>
<circle class="st0" cx="97.3" cy="1487.8" r="5.1"/>
<circle class="st0" cx="109.6" cy="1487.8" r="5.1"/>
<circle class="st0" cx="121.8" cy="1487.8" r="5.1"/>
<circle class="st0" cx="134.1" cy="1487.8" r="5.1"/>
<circle class="st0" cx="146.4" cy="1487.8" r="5.1"/>
<circle class="st0" cx="158.6" cy="1487.8" r="5.1"/>
<circle class="st0" cx="183.1" cy="1487.8" r="5.1"/>
<circle class="st0" cx="-49.8" cy="1501.4" r="5.1"/>
<circle class="st0" cx="-37.5" cy="1501.4" r="5.1"/>
<circle class="st0" cx="-25.3" cy="1501.4" r="5.1"/>
<circle class="st0" cx="-13" cy="1501.4" r="5.1"/>
<circle class="st0" cx="-0.8" cy="1501.4" r="5.1"/>
<circle class="st0" cx="11.5" cy="1501.4" r="5.1"/>
<circle class="st0" cx="23.8" cy="1501.4" r="5.1"/>
<circle class="st0" cx="36" cy="1501.4" r="5.1"/>
<circle class="st0" cx="85.1" cy="1501.4" r="5.1"/>
<circle class="st0" cx="97.3" cy="1501.4" r="5.1"/>
<circle class="st0" cx="134.1" cy="1501.4" r="5.1"/>
<circle class="st0" cx="146.4" cy="1501.4" r="5.1"/>
<circle class="st0" cx="183.1" cy="1501.4" r="5.1"/>
<circle class="st0" cx="195.4" cy="1501.4" r="5.1"/>
<circle class="st0" cx="-49.8" cy="1514.9" r="5.1"/>
<circle class="st0" cx="-37.5" cy="1514.9" r="5.1"/>
<circle class="st0" cx="-25.3" cy="1514.9" r="5.1"/>
<circle class="st0" cx="-13" cy="1514.9" r="5.1"/>
<circle class="st0" cx="-0.8" cy="1514.9" r="5.1"/>
<circle class="st0" cx="11.5" cy="1514.9" r="5.1"/>
<circle class="st0" cx="23.8" cy="1514.9" r="5.1"/>
<circle class="st0" cx="36" cy="1514.9" r="5.1"/>
<circle class="st0" cx="97.3" cy="1514.9" r="5.1"/>
<circle class="st0" cx="134.1" cy="1514.9" r="5.1"/>
<circle class="st0" cx="146.4" cy="1514.9" r="5.1"/>
<circle class="st0" cx="-37.5" cy="1528.5" r="5.1"/>
<circle class="st0" cx="-25.3" cy="1528.5" r="5.1"/>
<circle class="st0" cx="-13" cy="1528.5" r="5.1"/>
<circle class="st0" cx="-0.8" cy="1528.5" r="5.1"/>
<circle class="st0" cx="11.5" cy="1528.5" r="5.1"/>
<circle class="st0" cx="23.8" cy="1528.5" r="5.1"/>
<circle class="st0" cx="36" cy="1528.5" r="5.1"/>
<circle class="st0" cx="134.1" cy="1528.5" r="5.1"/>
<circle class="st0" cx="146.4" cy="1528.5" r="5.1"/>
<circle class="st0" cx="158.6" cy="1528.5" r="5.1"/>
<circle class="st0" cx="170.9" cy="1528.5" r="5.1"/>
<circle class="st0" cx="183.1" cy="1528.5" r="5.1"/>
<circle class="st0" cx="-37.5" cy="1542.1" r="5.1"/>
<circle class="st0" cx="-25.3" cy="1542.1" r="5.1"/>
<circle class="st0" cx="-13" cy="1542.1" r="5.1"/>
<circle class="st0" cx="-0.8" cy="1542.1" r="5.1"/>
<circle class="st0" cx="11.5" cy="1542.1" r="5.1"/>
<circle class="st0" cx="146.4" cy="1542.1" r="5.1"/>
<circle class="st0" cx="158.6" cy="1542.1" r="5.1"/>
<circle class="st0" cx="170.9" cy="1542.1" r="5.1"/>
<circle class="st0" cx="183.1" cy="1542.1" r="5.1"/>
<circle class="st0" cx="207.7" cy="1542.1" r="5.1"/>
<circle class="st0" cx="219.9" cy="1542.1" r="5.1"/>
<circle class="st0" cx="232.2" cy="1542.1" r="5.1"/>
<circle class="st0" cx="-37.5" cy="1555.7" r="5.1"/>
<circle class="st0" cx="-25.3" cy="1555.7" r="5.1"/>
<circle class="st0" cx="-13" cy="1555.7" r="5.1"/>
<circle class="st0" cx="-0.8" cy="1555.7" r="5.1"/>
<circle class="st0" cx="11.5" cy="1555.7" r="5.1"/>
<circle class="st0" cx="207.7" cy="1555.7" r="5.1"/>
<circle class="st0" cx="219.9" cy="1555.7" r="5.1"/>
<circle class="st0" cx="-37.5" cy="1569.2" r="5.1"/>
<circle class="st0" cx="-25.3" cy="1569.2" r="5.1"/>
<circle class="st0" cx="-13" cy="1569.2" r="5.1"/>
<circle class="st0" cx="-0.8" cy="1569.2" r="5.1"/>
<circle class="st0" cx="11.5" cy="1569.2" r="5.1"/>
<circle class="st0" cx="36" cy="1569.2" r="5.1"/>
<circle class="st0" cx="183.1" cy="1569.2" r="5.1"/>
<circle class="st0" cx="195.4" cy="1569.2" r="5.1"/>
<circle class="st0" cx="207.7" cy="1569.2" r="5.1"/>
<circle class="st0" cx="219.9" cy="1569.2" r="5.1"/>
<circle class="st0" cx="-37.5" cy="1582.8" r="5.1"/>
<circle class="st0" cx="-25.3" cy="1582.8" r="5.1"/>
<circle class="st0" cx="-13" cy="1582.8" r="5.1"/>
<circle class="st0" cx="-0.8" cy="1582.8" r="5.1"/>
<circle class="st0" cx="23.8" cy="1582.8" r="5.1"/>
<circle class="st0" cx="36" cy="1582.8" r="5.1"/>
<circle class="st0" cx="170.9" cy="1582.8" r="5.1"/>
<circle class="st0" cx="183.1" cy="1582.8" r="5.1"/>
<circle class="st0" cx="195.4" cy="1582.8" r="5.1"/>
<circle class="st0" cx="207.7" cy="1582.8" r="5.1"/>
<circle class="st0" cx="219.9" cy="1582.8" r="5.1"/>
<circle class="st0" cx="232.2" cy="1582.8" r="5.1"/>
<circle class="st0" cx="-25.3" cy="1596.4" r="5.1"/>
<circle class="st0" cx="-13" cy="1596.4" r="5.1"/>
<circle class="st0" cx="-0.8" cy="1596.4" r="5.1"/>
<circle class="st0" cx="23.8" cy="1596.4" r="5.1"/>
<circle class="st0" cx="36" cy="1596.4" r="5.1"/>
<circle class="st0" cx="158.6" cy="1596.4" r="5.1"/>
<circle class="st0" cx="170.9" cy="1596.4" r="5.1"/>
<circle class="st0" cx="183.1" cy="1596.4" r="5.1"/>
<circle class="st0" cx="195.4" cy="1596.4" r="5.1"/>
<circle class="st0" cx="207.7" cy="1596.4" r="5.1"/>
<circle class="st0" cx="219.9" cy="1596.4" r="5.1"/>
<circle class="st0" cx="232.2" cy="1596.4" r="5.1"/>
<circle class="st0" cx="-25.3" cy="1610" r="5.1"/>
<circle class="st0" cx="-13" cy="1610" r="5.1"/>
<circle class="st0" cx="-0.8" cy="1610" r="5.1"/>
<circle class="st0" cx="158.6" cy="1610" r="5.1"/>
<circle class="st0" cx="170.9" cy="1610" r="5.1"/>
<circle class="st0" cx="183.1" cy="1610" r="5.1"/>
<circle class="st0" cx="195.4" cy="1610" r="5.1"/>
<circle class="st0" cx="207.7" cy="1610" r="5.1"/>
<circle class="st0" cx="219.9" cy="1610" r="5.1"/>
<circle class="st0" cx="232.2" cy="1610" r="5.1"/>
<circle class="st0" cx="-25.3" cy="1623.5" r="5.1"/>
<circle class="st0" cx="-13" cy="1623.5" r="5.1"/>
<circle class="st0" cx="207.7" cy="1623.5" r="5.1"/>
<circle class="st0" cx="219.9" cy="1623.5" r="5.1"/>
<circle class="st0" cx="232.2" cy="1623.5" r="5.1"/>
<circle class="st0" cx="281.2" cy="1623.5" r="5.1"/>
<circle class="st0" cx="219.9" cy="1637.1" r="5.1"/>
<circle class="st0" cx="269" cy="1637.1" r="5.1"/>
<circle class="st0" cx="281.2" cy="1637.1" r="5.1"/>
<path class="st0" d="M256.7,1645.5c-2.8,0-5.1,2.3-5.1,5.1c0,2.8,2.3,5.1,5.1,5.1s5.1-2.3,5.1-5.1
	C261.8,1647.8,259.5,1645.5,256.7,1645.5z"/>
<circle class="st0" cx="269" cy="1650.7" r="5.1"/>
</svg>
