<?xml version="1.0" encoding="utf-8"?>
<!-- Generator: Adobe Illustrator 19.0.0, SVG Export Plug-In . SVG Version: 6.00 Build 0)  -->
<svg version="1.1" id="Layer_1" xmlns="http://www.w3.org/2000/svg" xmlns:xlink="http://www.w3.org/1999/xlink" x="0px" y="0px"
	 viewBox="0 0 76.8 76.8" enable-background="new 0 0 76.8 76.8" xml:space="preserve">
<circle id="XMLID_23_" fill="none" stroke="#FFFFFF" stroke-width="2" stroke-miterlimit="10" cx="38.4" cy="38.4" r="29.2"/>
<circle id="XMLID_24_" fill="none" stroke="#FFFFFF" stroke-miterlimit="10" stroke-opacity="0.5" cx="38.4" cy="38.4" r="33.8"/>
<circle id="XMLID_31_" fill="none" stroke="#FFFFFF" stroke-miterlimit="10" stroke-opacity="0.2" cx="38.4" cy="38.4" r="37.9"/>
<path id="XMLID_39_" fill="#009FFD" d="M49.7,38.6c-0.4-1.2-1.3-2.1-2.5-2.5c-0.6-0.2-1.2-0.3-1.8-0.4c0.1-0.1,0.1-0.1,0.1-0.1
	c2.5-2,1.4-6.3-1-7.3c-1-0.4-2-0.6-3-0.6c-0.7,0-1.4,0-2.2,0.1c-0.3-1.3-0.6-3-0.9-4.4l-2.6,0.5c0.3,1.4,0.6,3,0.8,4.3
	c-0.7,0.2-1.4,0.3-2.1,0.4c-0.3-1.2-0.6-2.9-0.9-4.3l-2.6,0.5c0.3,1.4,0.6,3.1,0.9,4.4c-1.8,0.4-3.5,0.7-5.3,1.1
	c0.2,1,0.4,1.9,0.6,2.8c0.4-0.1,0.7-0.1,1-0.2c0.3-0.1,0.7-0.1,1-0.2c0.9-0.1,1.5,0.3,1.7,1.2c0.7,3.7,1.5,7.5,2.2,11.3
	c0.2,0.8-0.1,1.2-0.9,1.4c-0.6,0.1-1.2,0.2-1.7,0.4c0,1.1,0.1,2.1,0.1,3.2c1.8-0.3,3.5-0.7,5.3-1c0.3,1.3,0.6,3,0.9,4.5l2.6-0.5
	c-0.3-1.4-0.6-3.1-0.9-4.4c0.7-0.1,1.4-0.2,2.1-0.4c0.3,1.3,0.6,3,0.9,4.3l2.6-0.5c-0.3-1.4-0.6-3.1-0.9-4.4c0.1,0,0.2-0.1,0.2-0.1
	c1.2-0.5,2.5-0.8,3.6-1.4c1.5-0.7,2.6-1.9,2.9-3.6C50.3,41.2,50.1,39.9,49.7,38.6z M35.2,31.6c1.6-0.3,3.2-0.8,4.8-0.4
	c1.1,0.2,1.7,0.9,1.9,1.9c0.1,1-0.3,1.9-1.3,2.5c-1.3,0.8-2.8,1.1-4.4,1.3C35.9,35.2,35.6,33.5,35.2,31.6z M43.7,43.5
	c-1.3,1-2.8,1.3-4.4,1.6c-0.4,0.1-0.9,0.2-1.3,0.3c-0.4-2-0.8-3.9-1.1-5.8c2-0.4,3.9-1,6-0.5c1.1,0.2,1.8,0.8,2,1.9
	C45,42.1,44.5,42.9,43.7,43.5z"/>
</svg>
