<?xml version="1.0" encoding="UTF-8"?>
<svg width="77px" height="77px" viewBox="0 0 77 77" version="1.1" xmlns="http://www.w3.org/2000/svg" xmlns:xlink="http://www.w3.org/1999/xlink">
    <!-- Generator: Sketch 50.2 (55047) - http://www.bohemiancoding.com/sketch -->
    <title>Group</title>
    <desc>Created with Sketch.</desc>
    <defs></defs>
    <g id="Page-1" stroke="none" stroke-width="1" fill="none" fill-rule="evenodd">
        <g id="Artboard" transform="translate(-213.000000, -86.000000)">
            <g id="Group" transform="translate(213.000000, 86.000000)">
                <g id="bch-coin" transform="translate(22.000000, 28.000000)" fill-rule="nonzero">
                    <path d="M24.9333333,21.1555556 C28.0419998,18.8203638 30.0734385,14.9544824 30.0734385,10.5795576 C30.0734385,6.2046329 28.0419998,2.33519173 24.9333333,0 L34,0 L34,21.1555556 L24.9333333,21.1555556 Z" id="Shape" fill="#0082D1"></path>
                    <path d="M3.93221001,10.5777778 C3.93221001,14.9534388 5.96141636,18.8199708 9.06666667,21.1555556 L0,21.1555556 L0,0 L9.06666667,0 C5.96141636,2.33558473 3.93221001,6.20211676 3.93221001,10.5777778 Z" id="Shape" fill="#0082D1"></path>
                    <circle id="Oval" fill="#0082D1" cx="17.3777778" cy="10.5777778" r="10.5777778"></circle>
                    <path d="M21.8296393,10.6789572 L21.822947,10.6684691 L21.822947,10.6649731 C21.8196008,10.654485 21.8162546,10.6439969 21.8129084,10.6300127 L21.8129084,10.6265167 C21.6957918,10.2174802 21.4649049,9.85738825 21.1503634,9.58819331 C21.1403248,9.58120123 21.1302862,9.57071312 21.1202477,9.56372104 L21.1068629,9.55323293 L21.0968244,9.54624085 L21.0934782,9.54274481 L21.0834396,9.53575274 L21.0800934,9.5322567 L21.0700549,9.52526462 L21.0667087,9.52176858 L21.0566701,9.51477651 L21.0533239,9.51128047 L21.0432854,9.50428839 L21.0399392,9.50079235 L21.0299006,9.49380028 L21.0265544,9.49030424 L21.0198621,9.47981613 L21.0131697,9.47632009 L21.0031311,9.46932801 L20.9964388,9.46583197 L20.9864002,9.4588399 L20.9797078,9.45534386 L20.9696693,9.44835178 L20.9629769,9.44485574 L20.9529383,9.43786367 L20.946246,9.43436763 L20.9362074,9.42737555 L20.929515,9.42387951 L20.9194765,9.41688744 L20.9127841,9.4133914 L20.9027455,9.40639932 L20.8960531,9.40290328 L20.8860146,9.39591121 L20.8793222,9.39241517 L20.8692836,9.38542309 L20.8625913,9.38192705 L20.8492065,9.37493498 L20.8425142,9.37143894 L20.8291294,9.36444686 L20.822437,9.36095083 L20.8090523,9.35395875 L20.8023599,9.35046271 L20.7889752,9.34347063 L20.7822828,9.3399746 L20.768898,9.33298252 L20.7622057,9.32948648 L20.7488209,9.32249441 L20.7421285,9.31899837 L20.7287438,9.31200629 L20.7187052,9.30851025 C20.7120129,9.30501421 20.7053205,9.30151818 20.6986281,9.29802214 C20.4142022,9.14419646 20.106353,9.04281135 19.7918114,8.99736285 C19.8821585,8.89947378 19.962467,8.79109659 20.0360831,8.67922337 L20.0461216,8.66174318 L20.052814,8.65125507 L20.0595064,8.64076695 L20.0628526,8.63377487 L20.0695449,8.62328676 L20.0728911,8.61629468 L20.0795835,8.60580657 L20.0829297,8.59881449 L20.0896221,8.58832638 L20.0929683,8.5813343 L20.0996606,8.57084619 L20.1030068,8.56385411 L20.1096992,8.553366 L20.1130454,8.54637392 L20.1197378,8.5358858 L20.1230839,8.53238977 L20.1297763,8.52190165 L20.1331225,8.51840561 L20.1398149,8.5079175 L20.1431611,8.50442146 L20.1498534,8.49393335 L20.1531996,8.49043731 L20.159892,8.47994919 L20.1632382,8.47645315 L20.1699306,8.46596504 L20.1732767,8.462469 L20.1799691,8.45198089 L20.1833153,8.44848485 L20.1900077,8.43799673 L20.1933539,8.4345007 L20.1967001,8.42401258 L20.2000462,8.42051654 L20.2033924,8.41002843 L20.2067386,8.40653239 L20.2100848,8.39604428 L20.213431,8.39254824 L20.2167772,8.38206012 L20.2201234,8.37856408 L20.2234696,8.36807597 L20.2268157,8.36457993 L20.2301619,8.35409182 L20.2335081,8.35059578 L20.2368543,8.34010766 L20.2402005,8.33661163 L20.2435467,8.32612351 L20.2468929,8.32262747 L20.250239,8.31213936 L20.2569314,8.2981552 C20.2602776,8.28766709 20.2636238,8.27717898 20.2703162,8.26669086 C20.4075098,7.91708704 20.4376255,7.53252283 20.3606632,7.16194278 L20.3606632,7.15844674 C20.357317,7.14795863 20.357317,7.13747051 20.3539708,7.1269824 L20.3539708,7.12348636 L20.3506247,7.11649428 C20.3472785,7.10251013 20.3439323,7.08852598 20.3405861,7.07104579 C20.3372399,7.05706163 20.3338937,7.04307748 20.3305475,7.02909333 L20.3238552,7.01860521 L20.3238552,7.01510918 C20.320509,7.00462106 20.3171628,6.99413295 20.3138166,6.98364483 C20.2100848,6.62005686 20.0059674,6.29842134 19.7248877,6.06069074 C19.7181953,6.05369866 19.7081568,6.04670659 19.7014644,6.03971451 L19.6914258,6.03272243 L19.6813873,6.02573036 L19.6780411,6.02223432 L19.6713487,6.01524224 L19.6680025,6.0117462 L19.6613101,6.00475413 L19.6579639,6.00125809 L19.6479254,5.99426601 L19.6445792,5.99076998 L19.6345406,5.9837779 L19.6311944,5.98028186 L19.6211559,5.97328978 L19.6178097,5.96979375 L19.6077711,5.96280167 L19.604425,5.95930563 L19.5943864,5.95231355 L19.5910402,5.94881752 L19.5810016,5.94182544 L19.5776555,5.9383294 L19.5676169,5.93133733 L19.5642707,5.92784129 L19.5542321,5.92084921 L19.550886,5.91735317 L19.5408474,5.9103611 L19.5375012,5.90686506 L19.5274627,5.89987298 L19.5241165,5.89637694 L19.5140779,5.88938487 L19.5107317,5.88588883 L19.5006932,5.87889675 L19.497347,5.87540071 L19.4873084,5.86840864 L19.4839622,5.8649126 L19.4739237,5.85792052 L19.4672313,5.85442448 L19.4571927,5.84743241 L19.4505003,5.84393637 L19.4404618,5.83694429 L19.4337694,5.83344826 L19.4237309,5.82645618 L19.4170385,5.82296014 L19.4069999,5.81596806 L19.4003075,5.81247203 L19.3869228,5.80547995 L19.3802304,5.80198391 L19.3668457,5.79499183 L19.3568071,5.7914958 L19.33673,5.78100768 C18.7946477,5.48734047 18.1053332,5.39644348 17.4126724,5.58522954 L17.2319784,5.63417408 L16.7768969,3.77777778 L15.7195018,4.06095687 L16.1745832,5.9103611 L15.3279979,6.13760358 L14.8729165,4.29519144 L13.8155214,4.57837053 L14.2706028,6.42777475 L12.0888889,7.01510918 L12.3800072,8.19327406 L13.2600543,7.9590395 C13.5511726,7.88212666 13.8489833,8.06392064 13.9225994,8.36807597 L15.1406115,13.3254582 C15.1908043,13.5282284 15.0736877,13.7344946 14.8796089,13.7869352 L14.1099859,13.9932015 L14.1568325,15.3951128 L16.3352002,14.8112744 L16.7668584,16.6222222 L17.8242535,16.3390431 L17.369172,14.4861429 L18.2157573,14.2589004 L18.6708388,16.1083046 L19.7282339,15.8251255 L19.2698063,13.9687292 C19.4505003,13.9197847 19.604425,13.8778322 19.7081568,13.8498639 C20.4911645,13.6401016 21.1202477,13.1611444 21.5050592,12.5633218 L21.5184439,12.5423456 L21.5251363,12.5318575 L21.5318287,12.5178733 L21.5351749,12.5108813 L21.5418672,12.4968971 L21.5452134,12.489905 L21.5519058,12.4759209 L21.555252,12.4689288 L21.5619444,12.4549447 L21.5652906,12.4479526 L21.5719829,12.4339684 L21.5753291,12.4269764 L21.5820215,12.4129922 L21.5853677,12.4060001 L21.59206,12.392016 L21.5954062,12.3850239 L21.6020986,12.3710397 L21.6054448,12.3640477 L21.6121372,12.3535595 L21.6154834,12.3465675 L21.6221757,12.3360794 L21.6255219,12.3290873 L21.6322143,12.3185992 L21.6355605,12.3116071 L21.6422529,12.301119 L21.645599,12.2941269 L21.6522914,12.2836388 L21.6556376,12.2766467 L21.66233,12.2661586 L21.6656762,12.2591665 L21.6723685,12.2486784 L21.6757147,12.2451824 L21.6824071,12.2346942 L21.6857533,12.2311982 L21.6924457,12.2207101 L21.6957918,12.2172141 L21.7024842,12.2067259 L21.7058304,12.2032299 L21.7125228,12.1927418 L21.715869,12.1892458 L21.7225613,12.1787576 L21.7259075,12.1752616 L21.7292537,12.1647735 L21.7325999,12.1612774 L21.7359461,12.1507893 L21.7392923,12.1472933 L21.7426385,12.1368052 L21.7493308,12.122821 C21.752677,12.1123329 21.7593694,12.0983488 21.7627156,12.0878606 C21.9166402,11.6928083 21.9501021,11.2592996 21.8664474,10.843271 C21.8631012,10.8327829 21.8631012,10.8222948 21.859755,10.8083107 L21.859755,10.8048146 L21.8564088,10.8013186 C21.8530626,10.7838384 21.8497164,10.7698542 21.8430241,10.752374 C21.8329855,10.7139176 21.8296393,10.6964374 21.8296393,10.6789572 Z M15.61577,7.36121696 C15.7964641,7.31227242 16.5426638,7.11649428 16.7869355,7.05006956 C17.1784394,6.94518841 17.5632509,6.98714087 17.8644077,7.13747051 L17.8744463,7.14096655 L17.8777924,7.14446259 L17.8844848,7.14795863 L17.887831,7.14795863 L17.8945234,7.15145467 L17.8978696,7.15145467 L17.9045619,7.1549507 L17.9079081,7.1549507 L17.9146005,7.15844674 L17.9179467,7.15844674 L17.9246391,7.16194278 L17.9279853,7.16194278 L17.9346776,7.16543882 L17.9380238,7.16543882 L17.9447162,7.16893486 L17.9480624,7.16893486 L17.9547547,7.1724309 L17.9581009,7.1724309 L17.9647933,7.17592693 L17.9681395,7.17592693 L17.9748319,7.17942297 L17.9781781,7.17942297 L17.9848704,7.18291901 L17.9882166,7.18291901 L17.994909,7.18641505 L17.9982552,7.18641505 L18.0016014,7.18991109 L18.0049476,7.18991109 L18.0082937,7.19340713 L18.0116399,7.19340713 L18.0149861,7.19690316 L18.0183323,7.19690316 L18.0216785,7.2003992 L18.0250247,7.2003992 L18.0283709,7.20389524 L18.031717,7.20739128 L18.0350632,7.21088732 L18.0384094,7.21088732 L18.0417556,7.21438335 L18.0451018,7.21438335 L18.048448,7.21787939 L18.0517942,7.21787939 L18.0551404,7.22137543 L18.0584865,7.22137543 L18.0618327,7.22487147 L18.0651789,7.22487147 L18.0685251,7.22836751 L18.0752175,7.23186355 C18.0785637,7.23535958 18.085256,7.23885562 18.0886022,7.24235166 C18.2425268,7.364713 18.3562972,7.53252283 18.4131824,7.72480494 L18.4131824,7.72830097 C18.4131824,7.73179701 18.4165286,7.73878909 18.4165286,7.74578116 L18.4198747,7.75277324 C18.4232209,7.75976532 18.4232209,7.76675739 18.4265671,7.77724551 C18.4299133,7.78423759 18.4299133,7.7947257 18.4299133,7.80171778 L18.4332595,7.80870985 C18.4332595,7.81570193 18.4366057,7.81919797 18.4366057,7.82619004 L18.4366057,7.82968608 C18.4767599,8.02546422 18.4566828,8.23173048 18.3763743,8.4170205 L18.3696819,8.4345007 L18.3663358,8.44149277 L18.3629896,8.44498881 L18.3629896,8.44848485 L18.3596434,8.45198089 L18.3596434,8.45547692 L18.3562972,8.45897296 L18.3562972,8.462469 L18.352951,8.46596504 L18.352951,8.46946108 L18.3496048,8.47295712 L18.3496048,8.47645315 L18.3462586,8.47994919 L18.3462586,8.48344523 L18.3429124,8.48694127 L18.3429124,8.49043731 L18.3395663,8.49393335 L18.3395663,8.49742938 L18.3362201,8.50092542 L18.3362201,8.50442146 L18.3328739,8.5079175 L18.3328739,8.51141354 L18.3295277,8.51490957 L18.3295277,8.51840561 L18.3261815,8.52539769 L18.3261815,8.52889373 L18.3228353,8.5358858 L18.3228353,8.53938184 L18.3194891,8.54637392 L18.3194891,8.54986996 L18.3161429,8.55686203 L18.3161429,8.56035807 L18.3127968,8.56735015 L18.3127968,8.57084619 L18.3094506,8.57783826 L18.3094506,8.5813343 L18.3061044,8.58832638 L18.3061044,8.59182242 L18.3027582,8.59881449 L18.3027582,8.60231053 L18.299412,8.60930261 L18.299412,8.61279865 L18.2960658,8.61979072 L18.2960658,8.62328676 L18.2927196,8.63027884 L18.2927196,8.63377487 L18.2893735,8.64076695 L18.2860273,8.64426299 L18.2793349,8.6547511 C18.085256,8.9379302 17.7673683,9.16866872 17.3758644,9.27354987 C17.1282466,9.3399746 16.385393,9.54274481 16.2046989,9.59168935 L15.61577,7.36121696 Z M19.748311,11.1614105 L19.7516572,11.1684026 C19.7516572,11.1753947 19.7550034,11.1788907 19.7550034,11.1858828 C19.7951576,11.4026371 19.7683881,11.6298796 19.6713487,11.8256578 L19.6613101,11.843138 L19.6579639,11.85013 L19.6546178,11.8571221 L19.6546178,11.8606182 L19.6512716,11.8641142 L19.6512716,11.8676102 L19.6479254,11.8711063 L19.6479254,11.8746023 L19.6445792,11.8815944 L19.6445792,11.8850904 L19.641233,11.8920825 L19.641233,11.8955785 L19.6378868,11.9025706 L19.6378868,11.9060667 L19.6345406,11.9130587 L19.6345406,11.9165548 L19.6311944,11.9235468 L19.6311944,11.9270429 L19.6278483,11.934035 L19.6278483,11.937531 L19.6245021,11.9445231 L19.6245021,11.9480191 L19.6211559,11.9550112 L19.6211559,11.9585072 L19.6178097,11.9654993 L19.6178097,11.9689953 L19.6144635,11.9759874 L19.6144635,11.9794835 L19.6111173,11.9864755 L19.6111173,11.9899716 L19.6077711,11.9969636 L19.6077711,12.0004597 L19.604425,12.0074518 L19.604425,12.0109478 L19.6010788,12.0179399 L19.5977326,12.0214359 L19.5943864,12.028428 L19.5910402,12.031924 L19.5843478,12.0389161 L19.5810016,12.0424121 L19.5743093,12.0494042 L19.5709631,12.0529003 L19.5642707,12.0598923 L19.5609245,12.0633884 L19.5542321,12.0703805 L19.550886,12.0738765 L19.5441936,12.0808686 L19.5408474,12.0843646 L19.534155,12.0948527 C19.2965757,12.4094962 18.9184566,12.668203 18.4533366,12.7940604 C18.1622183,12.8744692 17.278825,13.1121998 17.064669,13.1716325 L16.4657015,10.7313978 C16.6798575,10.6719652 17.5632509,10.4412266 17.8543691,10.3643138 C18.3161429,10.2419525 18.7712244,10.2769128 19.122574,10.4307385 L19.1326126,10.4342346 L19.139305,10.4377306 L19.1459973,10.4412266 L19.1493435,10.4412266 L19.1560359,10.4447227 L19.1593821,10.4447227 L19.1660745,10.4482187 L19.1694206,10.4482187 L19.176113,10.4517148 L19.1794592,10.4517148 L19.1861516,10.4552108 L19.1894978,10.4552108 L19.1961901,10.4587068 L19.1995363,10.4587068 L19.2062287,10.4622029 L19.2095749,10.4622029 L19.2162673,10.4656989 L19.2196134,10.4656989 L19.2263058,10.4691949 L19.229652,10.4691949 L19.2363444,10.472691 L19.2396906,10.472691 L19.2463829,10.476187 L19.2497291,10.476187 L19.2564215,10.4796831 L19.2597677,10.4796831 L19.2664601,10.4831791 L19.2698063,10.4831791 L19.2764986,10.4866751 L19.2798448,10.4866751 L19.2865372,10.4901712 L19.2898834,10.4901712 L19.2965757,10.4936672 L19.2999219,10.4936672 L19.3066143,10.4971632 L19.3099605,10.4971632 L19.3166529,10.5006593 L19.3199991,10.5006593 L19.3266914,10.5041553 L19.3300376,10.5041553 L19.33673,10.5076514 L19.3400762,10.5076514 L19.3467686,10.5111474 L19.3501147,10.5111474 L19.3534609,10.5146434 L19.3568071,10.5146434 L19.3634995,10.5181395 L19.3701919,10.5216355 C19.3768842,10.5251316 19.3802304,10.5286276 19.3869228,10.5321236 C19.5609245,10.657981 19.6914258,10.839775 19.7583496,11.0495373 L19.7616957,11.0530333 C19.7650419,11.0600254 19.7650419,11.0635214 19.7683881,11.0705135 L19.7717343,11.0775056 C19.7750805,11.0844977 19.7750805,11.0949858 19.7784267,11.1019779 C19.748311,11.1404343 19.7516572,11.1509224 19.748311,11.1614105 Z" id="Shape" fill="#FFFFFF"></path>
                </g>
                <g id="rings" stroke="#FFFFFF">
                    <circle id="XMLID_23_" stroke-width="2" cx="38.4" cy="38.4" r="29.2"></circle>
                    <circle id="XMLID_24_" stroke-opacity="0.5" cx="38.4" cy="38.4" r="33.8"></circle>
                    <circle id="XMLID_31_" stroke-opacity="0.2" cx="38.4" cy="38.4" r="37.9"></circle>
                </g>
            </g>
        </g>
    </g>
</svg>