<?xml version="1.0" encoding="UTF-8"?>
<svg width="15px" height="16px" viewBox="0 0 15 16" version="1.1" xmlns="http://www.w3.org/2000/svg" xmlns:xlink="http://www.w3.org/1999/xlink">
    <!-- Generator: Sketch 50.2 (55047) - http://www.bohemiancoding.com/sketch -->
    <title>Group</title>
    <desc>Created with Sketch.</desc>
    <defs></defs>
    <g id="Page-1" stroke="none" stroke-width="1" fill="none" fill-rule="evenodd">
        <g id="Group">
            <path d="M14.9069621,7.87282688 C14.9069621,11.6758617 11.907781,14.8000306 8.09743336,15.0979004 C7.88752626,15.136 7.67406141,15.136 7.4641543,15.136 C6.90558794,15.136 6.36481032,15.0805824 5.84893693,14.9697471 C2.50109651,14.2354635 0,11.3329651 0,7.87282688 C0,3.86543952 3.34784042,0.623508168 7.4641543,0.623508168 C11.5804682,0.623508168 14.9069621,3.86543952 14.9069621,7.87282688" id="Fill-20" fill="#FFFFFF"></path>
            <path d="M8.31089821,6.35576926 C8.42474613,6.22415239 8.65599972,6.12717154 8.98331249,6.12717154 C9.28927878,6.12717154 9.65572678,6.16873476 10.0008283,6.26225201 L10.2925636,4.74173079 C9.694862,4.53737828 9.08292942,4.47849705 8.44609262,4.47849705 C7.80925581,4.47849705 7.31117116,4.5754779 6.90558794,4.79714842 C6.50000472,5.02228254 6.23317366,5.26819827 6.08019052,5.62841287 C5.92364962,5.94013704 5.84893693,6.48738613 5.84893693,7.1593249 L5.84893693,7.75852802 L4.61439854,7.75852802 L4.61439854,9.50071976 L5.84893693,9.50071976 L5.84893693,14.9697471 C6.36481032,15.0805824 6.90558794,15.136 7.4641543,15.136 C7.67406141,15.136 7.88752626,15.136 8.09743336,15.0979004 L8.09743336,9.50071976 L9.73399722,9.50071976 L9.73399722,7.75852802 L8.09743336,7.75852802 L8.09743336,7.19742452 C8.09743336,6.76793788 8.15791507,6.50124054 8.31089821,6.35576926" id="Fill-21" fill="#3A506B"></path>
        </g>
    </g>
</svg>