<?xml version="1.0" encoding="UTF-8"?>
<svg width="113px" height="113px" viewBox="0 0 113 113" version="1.1" xmlns="http://www.w3.org/2000/svg" xmlns:xlink="http://www.w3.org/1999/xlink">
    <!-- Generator: Sketch 50.2 (55047) - http://www.bohemiancoding.com/sketch -->
    <title>google-plus</title>
    <desc>Created with Sketch.</desc>
    <defs></defs>
    <g id="Page-1" stroke="none" stroke-width="1" fill="none" fill-rule="evenodd">
        <g id="google-plus" transform="translate(0.000000, -1.000000)" fill-rule="nonzero">
            <circle id="XMLID_30_" fill="#FFFFFF" cx="56.098" cy="57.097" r="56.098"></circle>
            <g id="Group" transform="translate(19.000000, 36.000000)" fill="#3A506B">
                <path d="M0.531,23.608 C0.332,33.26 6.98,42.471 16.125,45.475 C24.739,48.369 35.33,46.204 41.062,38.827 C45.247,33.658 46.198,26.767 45.745,20.329 C38.368,20.263 30.991,20.285 23.625,20.296 C23.613,22.924 23.625,25.542 23.636,28.17 C28.053,28.292 32.471,28.236 36.888,28.325 C35.773,32.146 33.233,35.702 29.378,37.082 C21.935,40.362 12.438,36.077 10.096,28.269 C7.269,20.792 11.897,11.769 19.538,9.594 C24.276,7.927 29.157,9.804 33.211,12.267 C35.265,10.345 37.187,8.291 39.075,6.215 C34.469,2.361 28.55,-0.002 22.465,0.517 C10.526,0.659 0.078,11.681 0.531,23.608 Z" id="Shape"></path>
                <path d="M60.102,13.668 C60.08,15.866 60.057,18.075 60.046,20.272 C57.837,20.294 55.64,20.305 53.442,20.316 C53.442,22.514 53.442,24.7 53.442,26.898 C55.64,26.909 57.849,26.92 60.046,26.943 C60.068,29.141 60.068,31.338 60.09,33.547 C62.277,33.547 64.475,33.536 66.672,33.547 C66.684,31.338 66.694,29.141 66.717,26.932 C68.914,26.921 71.123,26.91 73.321,26.899 C73.321,24.701 73.321,22.515 73.321,20.317 C71.124,20.306 68.915,20.295 66.717,20.273 C66.705,18.075 66.684,15.866 66.672,13.669 C64.475,13.668 62.288,13.668 60.102,13.668 Z" id="Shape"></path>
                <g id="Shape">
                    <path d="M0.531,23.608 C0.078,11.681 10.525,0.659 22.464,0.516 C28.549,-0.003 34.469,2.36 39.074,6.214 C37.185,8.291 35.263,10.344 33.21,12.266 C29.156,9.803 24.275,7.926 19.537,9.593 C11.895,11.769 7.267,20.792 10.095,28.268 C12.437,36.076 21.934,40.361 29.377,37.081 C33.231,35.701 35.772,32.145 36.887,28.324 C32.47,28.236 28.052,28.291 23.635,28.169 C23.624,25.541 23.613,22.923 23.624,20.295 C30.99,20.284 38.367,20.262 45.744,20.328 C46.197,26.767 45.247,33.658 41.061,38.826 C35.329,46.203 24.739,48.368 16.124,45.474 C6.981,42.471 0.332,33.26 0.531,23.608 Z"></path>
                    <path d="M60.102,13.668 C62.289,13.668 64.475,13.668 66.672,13.668 C66.684,15.866 66.705,18.075 66.717,20.272 C68.914,20.294 71.123,20.305 73.321,20.316 C73.321,22.514 73.321,24.7 73.321,26.898 C71.124,26.909 68.915,26.92 66.717,26.931 C66.695,29.14 66.684,31.337 66.672,33.546 C64.475,33.535 62.276,33.546 60.09,33.546 C60.069,31.337 60.069,29.14 60.046,26.942 C57.849,26.919 55.64,26.909 53.442,26.897 C53.442,24.699 53.442,22.513 53.442,20.315 C55.64,20.304 57.838,20.293 60.046,20.271 C60.057,18.075 60.079,15.866 60.102,13.668 Z"></path>
                </g>
            </g>
        </g>
    </g>
</svg>