<?xml version="1.0" encoding="UTF-8"?>
<svg width="13px" height="13px" viewBox="0 0 13 13" version="1.1" xmlns="http://www.w3.org/2000/svg" xmlns:xlink="http://www.w3.org/1999/xlink">
    <!-- Generator: Sketch 50.2 (55047) - http://www.bohemiancoding.com/sketch -->
    <title>Group</title>
    <desc>Created with Sketch.</desc>
    <defs></defs>
    <g id="Page-1" stroke="none" stroke-width="1" fill="none" fill-rule="evenodd">
        <g id="Group">
            <path d="M12.57,6.291 C12.57,9.762 9.759,12.576 6.282,12.576 C2.814,12.576 0,9.762 0,6.291 C0,2.817 2.814,0 6.282,0 C9.759,0 12.57,2.817 12.57,6.291" id="Fill-27" fill="#FFFFFF"></path>
            <path d="M8.907,8.505 C8.901,8.82 8.82,8.913 8.505,8.913 C7.764,8.913 7.023,8.913 6.279,8.913 C5.544,8.913 4.803,8.913 4.062,8.913 C3.753,8.913 3.663,8.82 3.663,8.505 C3.663,7.689 3.666,6.858 3.651,6.033 C3.651,5.799 3.717,5.745 3.933,5.754 C4.245,5.775 4.251,5.763 4.215,6.063 C4.095,7.116 4.821,8.133 5.856,8.334 C6.921,8.541 7.989,7.902 8.28,6.879 C8.37,6.561 8.397,6.219 8.328,5.904 C8.304,5.787 8.334,5.763 8.439,5.763 C8.907,5.727 8.907,5.718 8.907,6.204 C8.907,6.963 8.907,7.737 8.907,8.505 Z M6.288,4.971 C6.999,4.971 7.608,5.583 7.596,6.291 C7.59,7.014 6.987,7.614 6.267,7.602 C5.55,7.584 4.947,6.984 4.965,6.273 C4.983,5.559 5.58,4.971 6.288,4.971 Z M8.235,3.663 C8.907,3.663 8.907,3.663 8.907,4.335 C8.907,4.995 8.907,4.995 8.247,4.995 C7.578,4.995 7.578,4.995 7.578,4.326 C7.578,3.663 7.578,3.663 8.235,3.663 Z M8.784,2.898 C7.122,2.898 5.451,2.898 3.786,2.898 C3.192,2.898 2.886,3.207 2.886,3.807 C2.886,4.629 2.886,5.454 2.886,6.291 C2.886,7.116 2.886,7.956 2.886,8.793 C2.886,9.366 3.201,9.681 3.759,9.681 C5.439,9.681 7.11,9.681 8.784,9.681 C9.366,9.681 9.684,9.366 9.684,8.784 C9.684,7.116 9.684,5.454 9.684,3.786 C9.684,3.207 9.366,2.898 8.784,2.898 Z" id="Fill-28" fill="#3A506B"></path>
        </g>
    </g>
</svg>