<?xml version="1.0" encoding="UTF-8"?>
<svg width="853px" height="834px" viewBox="0 0 853 834" version="1.1" xmlns="http://www.w3.org/2000/svg" xmlns:xlink="http://www.w3.org/1999/xlink">
    <!-- Generator: Sketch 50.2 (55047) - http://www.bohemiancoding.com/sketch -->
    <title>Group</title>
    <desc>Created with Sketch.</desc>
    <defs></defs>
    <g id="Page-1" stroke="none" stroke-width="1" fill="none" fill-rule="evenodd">
        <g id="Group" fill-rule="nonzero">
            <ellipse id="XMLID_30_" fill="#FFFFFF" cx="426.5" cy="417" rx="426.5" ry="417"></ellipse>
            <g id="linkedin" transform="translate(179.000000, 169.000000)" fill="#3A506B">
                <polygon id="Shape" points="247.5 0 247.5 40 455 40 455 455 247.5 455 247.5 495 495 495 495 0"></polygon>
                <polygon id="Shape" points="40 455 40 40 247.5 40 247.5 0 0 0 0 495 247.5 495 247.5 455"></polygon>
                <path d="M127.3,167.2 L127.7,167.2 C151.3,167.2 165.9,151.6 165.9,132.1 C165.5,112.2 151.3,97 128.1,97 C105,97 89.9,112.2 89.9,132.1 C90,151.6 104.7,167.2 127.3,167.2 Z" id="Shape"></path>
                <path d="M266.4,398 L266.4,284.6 C266.4,278.5 266.9,272.5 268.6,268.1 C273.5,256 284.6,243.4 303.2,243.4 C327.6,243.4 337.4,262 337.4,289.3 L337.4,398 L405,398 L405,281.5 C405,219.1 371.7,190.1 327.3,190.1 C291.4,190.1 275.4,209.8 266.4,223.6 L266.4,224.3 L266,224.3 C266.1,224.1 266.3,223.9 266.4,223.6 L266.4,194.8 L198.9,194.8 C199.8,213.9 198.9,397.9 198.9,397.9 L266.4,398 Z" id="Shape"></path>
                <rect id="Rectangle-path" x="94" y="194.9" width="67.5" height="203.1"></rect>
            </g>
        </g>
    </g>
</svg>