<?xml version="1.0" encoding="utf-8"?>
<!-- Generator: Adobe Illustrator 19.0.0, SVG Export Plug-In . SVG Version: 6.00 Build 0)  -->
<svg version="1.1" id="Layer_1" xmlns="http://www.w3.org/2000/svg" xmlns:xlink="http://www.w3.org/1999/xlink" x="0px" y="0px"
	 viewBox="0 0 94.1 34" enable-background="new 0 0 94.1 34" xml:space="preserve">
<g id="XMLID_15_">
	<g id="XMLID_1144_">
		<path id="XMLID_1149_" fill="#F9FBFC" d="M7.9,10.7c1.1,0,2.1,0.2,3.1,0.6c1,0.4,1.8,1,2.6,1.7c0.7,0.7,1.3,1.6,1.7,2.6
			s0.6,2,0.6,3.1s-0.2,2.1-0.6,3.1c-0.4,1-1,1.8-1.7,2.6c-0.7,0.7-1.6,1.3-2.6,1.7s-2,0.6-3.1,0.6s-2.1-0.2-3.1-0.6
			c-1-0.4-1.8-1-2.6-1.7c-0.7-0.7-1.3-1.6-1.7-2.6S0,19.7,0,18.6V3.5h1.6V14c0.7-1,1.7-1.8,2.8-2.4C5.4,11,6.6,10.7,7.9,10.7z
			 M7.9,12.3c-0.9,0-1.7,0.2-2.5,0.5s-1.5,0.8-2.1,1.4c-0.6,0.6-1,1.3-1.4,2.1c-0.3,0.8-0.5,1.6-0.5,2.5c0,0.9,0.2,1.7,0.5,2.5
			s0.8,1.5,1.4,2.1c0.6,0.6,1.3,1,2.1,1.4c0.8,0.3,1.6,0.5,2.5,0.5s1.7-0.2,2.5-0.5s1.5-0.8,2.1-1.4c0.6-0.6,1-1.3,1.4-2.1
			c0.3-0.8,0.5-1.6,0.5-2.5c0-0.9-0.2-1.7-0.5-2.5s-0.8-1.5-1.4-2.1c-0.6-0.6-1.3-1-2.1-1.4C9.6,12.5,8.8,12.3,7.9,12.3z"/>
		<path id="XMLID_1146_" fill="#F9FBFC" d="M18.3,3.4h1.6V6h-1.6V3.4z M18.3,11h1.6v15.2h-1.6V11z"/>
		<path id="XMLID_1145_" fill="#F9FBFC" d="M22.9,7.2h1.6v4h5.7v1.6h-5.7v9.8c0,0.7,0.2,1.2,0.7,1.7c0.5,0.5,1,0.7,1.7,0.7
			s1.2-0.2,1.7-0.7c0.5-0.5,0.7-1,0.7-1.7h1.6c0,0.6-0.1,1.1-0.3,1.6c-0.2,0.5-0.5,0.9-0.9,1.3c-0.4,0.4-0.8,0.6-1.3,0.9
			c-0.5,0.2-1,0.3-1.6,0.3c-0.6,0-1.1-0.1-1.6-0.3c-0.5-0.2-0.9-0.5-1.3-0.9c-0.4-0.4-0.6-0.8-0.9-1.3c-0.2-0.5-0.3-1-0.3-1.6V7.2
			L22.9,7.2L22.9,7.2z"/>
	</g>
	<g id="XMLID_1142_">
		<path id="XMLID_1143_" fill="#F9FBFC" d="M33.1,0H47c-1.9,4.4-3.7,8.8-5.6,13.1c-1.9,4.3-3.7,8.7-5.6,13.1H34L44.6,1.5H33.1V0
			L33.1,0z"/>
	</g>
	<g id="XMLID_1134_">
		<path id="XMLID_1139_" fill="#F9FBFC" d="M53.6,10.7c1.1,0,2.1,0.2,3.1,0.6c1,0.4,1.8,1,2.6,1.7c0.7,0.7,1.3,1.6,1.7,2.6
			c0.4,1,0.6,2,0.6,3.1s-0.2,2.1-0.6,3.1c-0.4,1-1,1.8-1.7,2.6c-0.7,0.7-1.6,1.3-2.6,1.7c-1,0.4-2,0.6-3.1,0.6
			c-1.3,0-2.6-0.3-3.6-0.9c-1.1-0.6-2-1.4-2.8-2.2v10.5h-1.6V18.7c0-1.1,0.2-2.1,0.6-3.1c0.4-1,1-1.8,1.7-2.6
			c0.7-0.7,1.6-1.3,2.6-1.7C51.4,10.9,52.5,10.7,53.6,10.7z M53.6,12.4c-0.9,0-1.7,0.2-2.5,0.5c-0.8,0.3-1.5,0.8-2,1.4
			c-0.6,0.6-1,1.3-1.4,2.1c-0.3,0.8-0.5,1.6-0.5,2.5c0,0.9,0.2,1.7,0.5,2.5c0.3,0.8,0.8,1.5,1.4,2.1c0.6,0.6,1.3,1,2,1.4
			c0.8,0.3,1.6,0.5,2.5,0.5c0.9,0,1.7-0.2,2.5-0.5c0.8-0.3,1.5-0.8,2.1-1.4c0.6-0.6,1-1.3,1.4-2.1c0.3-0.8,0.5-1.6,0.5-2.5
			c0-0.9-0.2-1.7-0.5-2.5c-0.3-0.8-0.8-1.5-1.4-2.1c-0.6-0.6-1.3-1-2.1-1.4C55.3,12.5,54.5,12.4,53.6,12.4z"/>
		<path id="XMLID_1136_" fill="#F9FBFC" d="M71.7,10.6c1.1,0,2.1,0.2,3.1,0.6c1,0.4,1.8,1,2.6,1.7c0.7,0.7,1.3,1.6,1.7,2.6
			s0.6,2,0.6,3.1v7.6H78v-2.9c-0.7,1-1.6,1.8-2.8,2.2c-1.1,0.6-2.4,0.9-3.6,0.9c-1.1,0-2.1-0.2-3.1-0.6c-1-0.4-1.8-1-2.6-1.7
			c-0.7-0.7-1.3-1.6-1.7-2.6c-0.4-1-0.6-2-0.6-3.1c0-1.1,0.2-2.1,0.6-3.1c0.4-1,1-1.8,1.7-2.6c0.7-0.7,1.6-1.3,2.6-1.7
			C69.7,10.8,70.7,10.6,71.7,10.6z M71.7,12.3c-0.9,0-1.7,0.2-2.5,0.5c-0.8,0.3-1.5,0.8-2.1,1.4c-0.6,0.6-1,1.3-1.4,2.1
			c-0.3,0.8-0.5,1.6-0.5,2.5c0,0.9,0.2,1.7,0.5,2.5c0.3,0.8,0.8,1.5,1.4,2.1c0.6,0.6,1.3,1,2.1,1.4c0.8,0.3,1.6,0.5,2.5,0.5
			c0.9,0,1.7-0.2,2.5-0.5c0.8-0.3,1.5-0.8,2.1-1.4c0.6-0.6,1-1.3,1.4-2.1c0.3-0.8,0.5-1.6,0.5-2.5c0-0.9-0.2-1.7-0.5-2.5
			c-0.3-0.8-0.8-1.5-1.4-2.1c-0.6-0.6-1.3-1-2.1-1.4C73.5,12.4,72.6,12.3,71.7,12.3z"/>
		<path id="XMLID_1135_" fill="#F9FBFC" d="M88.3,26.6c-0.8,0-1.6-0.2-2.4-0.5c-0.7-0.3-1.4-0.8-1.9-1.3c-0.5-0.5-1-1.2-1.3-1.9
			c-0.3-0.7-0.5-1.5-0.5-2.4V11h1.6v9.6c0,0.6,0.1,1.2,0.3,1.7c0.2,0.5,0.5,1,0.9,1.4s0.9,0.7,1.4,0.9c0.5,0.2,1.1,0.3,1.7,0.3
			c0.6,0,1.2-0.1,1.7-0.3c0.5-0.2,1-0.5,1.4-0.9c0.4-0.4,0.7-0.9,1-1.4c0.2-0.5,0.4-1.1,0.4-1.7V11h1.6v9.6V28
			c0,0.8-0.2,1.6-0.5,2.4c-0.3,0.7-0.8,1.4-1.3,1.9c-0.5,0.5-1.2,1-1.9,1.3C89.8,33.8,89,34,88.1,34v-1.6c0.6,0,1.2-0.1,1.7-0.4
			c0.5-0.2,1-0.6,1.4-1c0.4-0.4,0.7-0.9,1-1.4c0.2-0.5,0.4-1.1,0.4-1.7v-3.3c-0.6,0.6-1.2,1.1-2,1.4C90,26.4,89.2,26.6,88.3,26.6z"
			/>
	</g>
</g>
</svg>
