<?xml version="1.0" encoding="utf-8"?>
<!-- Generator: Adobe Illustrator 19.0.0, SVG Export Plug-In . SVG Version: 6.00 Build 0)  -->
<svg version="1.1" id="Layer_1" xmlns="http://www.w3.org/2000/svg" xmlns:xlink="http://www.w3.org/1999/xlink" x="0px" y="0px"
	 viewBox="0 0 393.2 91.5" enable-background="new 0 0 393.2 91.5" xml:space="preserve">
<g id="XMLID_15_">
	<g id="XMLID_1144_">
		<path id="XMLID_1149_" fill="#4E5C6E" d="M212.6,33.3c2.3,0,4.5,0.4,6.4,1.2c2.1,0.8,3.7,2.1,5.4,3.5c1.4,1.4,2.7,3.3,3.5,5.4
			c0.8,2.1,1.2,4.1,1.2,6.4s-0.4,4.5-1.2,6.4c-0.8,2.1-2.1,3.7-3.5,5.4c-1.4,1.4-3.3,2.7-5.4,3.5c-2.1,0.8-4.1,1.2-6.4,1.2
			s-4.5-0.4-6.4-1.2c-2.1-0.8-3.7-2.1-5.4-3.5c-1.4-1.4-2.7-3.3-3.5-5.4c-0.8-2.1-1.2-4.1-1.2-6.4V18.2h3.3v21.9
			c1.4-2.1,3.5-3.7,5.8-5C207.5,33.9,210,33.3,212.6,33.3z M212.6,36.6c-1.9,0-3.5,0.4-5.2,1c-1.7,0.6-3.1,1.7-4.3,2.9
			c-1.2,1.2-2.1,2.7-2.9,4.3c-0.6,1.7-1,3.3-1,5.2c0,1.9,0.4,3.5,1,5.2c0.6,1.7,1.7,3.1,2.9,4.3s2.7,2.1,4.3,2.9
			c1.7,0.6,3.3,1,5.2,1s3.5-0.4,5.2-1s3.1-1.7,4.3-2.9s2.1-2.7,2.9-4.3c0.6-1.7,1-3.3,1-5.2c0-1.9-0.4-3.5-1-5.2
			c-0.6-1.7-1.7-3.1-2.9-4.3s-2.7-2.1-4.3-2.9C216.2,37,214.5,36.6,212.6,36.6z"/>
		<path id="XMLID_1146_" fill="#4E5C6E" d="M234.5,18h3.3v5.4h-3.3V18z M234.5,33.9h3.3v31.8h-3.3V33.9z"/>
		<path id="XMLID_1145_" fill="#4E5C6E" d="M244,25.8h3.3v8.3h12v3.3h-12V58c0,1.4,0.4,2.5,1.4,3.5c1,1,2.1,1.4,3.5,1.4
			s2.5-0.4,3.5-1.4c1-1,1.4-2.1,1.4-3.5h3.3c0,1.2-0.2,2.3-0.6,3.3c-0.4,1-1,1.9-1.9,2.7c-0.8,0.8-1.7,1.2-2.7,1.9
			c-1,0.4-2.1,0.6-3.3,0.6s-2.3-0.2-3.3-0.6c-1-0.4-1.9-1-2.7-1.9c-0.8-0.8-1.2-1.7-1.9-2.7c-0.4-1-0.6-2.1-0.6-3.3V25.8H244z"/>
	</g>
	<g id="XMLID_1142_">
		<path id="XMLID_1143_" fill="#4E5C6E" d="M265.5,10.8h29.1c-3.9,9.3-7.8,18.4-11.8,27.4c-3.9,9.1-7.8,18.2-11.8,27.4h-3.7
			l22.1-51.6h-23.9V10.8z"/>
	</g>
	<g id="XMLID_1134_">
		<path id="XMLID_1139_" fill="#4E5C6E" d="M308.4,33.3c2.3,0,4.5,0.4,6.4,1.2c2.1,0.8,3.7,2.1,5.4,3.5c1.4,1.4,2.7,3.3,3.5,5.4
			s1.2,4.1,1.2,6.4s-0.4,4.5-1.2,6.4c-0.8,2.1-2.1,3.7-3.5,5.4c-1.4,1.4-3.3,2.7-5.4,3.5c-2.1,0.8-4.1,1.2-6.4,1.2
			c-2.7,0-5.4-0.6-7.6-1.9c-2.3-1.2-4.1-2.9-5.8-4.7v21.9h-3.3V50c0-2.3,0.4-4.5,1.2-6.4c0.8-2.1,2.1-3.7,3.5-5.4
			c1.4-1.4,3.3-2.7,5.4-3.5C303.8,33.7,306.1,33.3,308.4,33.3z M308.4,36.8c-1.9,0-3.5,0.4-5.2,1s-3.1,1.7-4.1,2.9
			c-1.2,1.2-2.1,2.7-2.9,4.3c-0.6,1.7-1,3.3-1,5.2c0,1.9,0.4,3.5,1,5.2c0.6,1.7,1.7,3.1,2.9,4.3c1.2,1.2,2.7,2.1,4.1,2.9
			c1.7,0.6,3.3,1,5.2,1c1.9,0,3.5-0.4,5.2-1c1.7-0.6,3.1-1.7,4.3-2.9c1.2-1.2,2.1-2.7,2.9-4.3c0.6-1.7,1-3.3,1-5.2
			c0-1.9-0.4-3.5-1-5.2c-0.6-1.7-1.7-3.1-2.9-4.3c-1.2-1.2-2.7-2.1-4.3-2.9C311.9,37,310.2,36.8,308.4,36.8z"/>
		<path id="XMLID_1136_" fill="#4E5C6E" d="M346.3,33.1c2.3,0,4.5,0.4,6.4,1.2c2.1,0.8,3.7,2.1,5.4,3.5c1.4,1.4,2.7,3.3,3.5,5.4
			s1.2,4.1,1.2,6.4v15.9h-3.3v-6c-1.4,2.1-3.3,3.7-5.8,4.7c-2.3,1.2-5,1.9-7.6,1.9c-2.3,0-4.5-0.4-6.4-1.2c-2.1-0.8-3.7-2.1-5.4-3.5
			c-1.4-1.4-2.7-3.3-3.5-5.4c-0.8-2.1-1.2-4.1-1.2-6.4s0.4-4.5,1.2-6.4c0.8-2.1,2.1-3.7,3.5-5.4c1.4-1.4,3.3-2.7,5.4-3.5
			C342,33.5,344.1,33.1,346.3,33.1z M346.3,36.6c-1.9,0-3.5,0.4-5.2,1c-1.7,0.6-3.1,1.7-4.3,2.9c-1.2,1.2-2.1,2.7-2.9,4.3
			c-0.6,1.7-1,3.3-1,5.2c0,1.9,0.4,3.5,1,5.2c0.6,1.7,1.7,3.1,2.9,4.3c1.2,1.2,2.7,2.1,4.3,2.9c1.7,0.6,3.3,1,5.2,1s3.5-0.4,5.2-1
			s3.1-1.7,4.3-2.9c1.2-1.2,2.1-2.7,2.9-4.3c0.6-1.7,1-3.3,1-5.2c0-1.9-0.4-3.5-1-5.2c-0.6-1.7-1.7-3.1-2.9-4.3
			c-1.2-1.2-2.7-2.1-4.3-2.9C350,36.8,348.2,36.6,346.3,36.6z"/>
		<path id="XMLID_1135_" fill="#4E5C6E" d="M381,66.5c-1.7,0-3.3-0.4-5-1c-1.4-0.6-2.9-1.7-3.9-2.7c-1-1-2.1-2.5-2.7-3.9
			c-0.6-1.4-1-3.1-1-5v-20h3.3v20c0,1.2,0.2,2.5,0.6,3.5c0.4,1,1,2.1,1.9,2.9s1.9,1.4,2.9,1.9c1,0.4,2.3,0.6,3.5,0.6
			c1.2,0,2.5-0.2,3.5-0.6c1-0.4,2.1-1,2.9-1.9s1.4-1.9,2.1-2.9c0.4-1,0.8-2.3,0.8-3.5v-20h3.3v20v15.5c0,1.7-0.4,3.3-1,5
			c-0.6,1.4-1.7,2.9-2.7,3.9c-1,1-2.5,2.1-3.9,2.7c-1.4,0.6-3.1,1-5,1v-3.3c1.2,0,2.5-0.2,3.5-0.8c1-0.4,2.1-1.2,2.9-2.1
			c0.8-0.8,1.4-1.9,2.1-2.9c0.4-1,0.8-2.3,0.8-3.5v-7c-1.2,1.2-2.5,2.3-4.1,2.9C384.5,66.1,382.8,66.5,381,66.5z"/>
	</g>
</g>
<g id="XMLID_3_">
	<path id="XMLID_879_" fill="#4E5C6E" d="M117.2,0C91.7,0,71.4,20.7,71.4,45.8c0,25.5,20.7,45.8,45.8,45.8
		c25.5,0,45.8-20.7,45.8-45.8C163.3,20.3,142.6,0,117.2,0z M117.2,85.1c-21.5,0-39.4-17.5-39.4-39.4S95.3,6.4,117.2,6.4
		c21.5,0,39.4,17.5,39.4,39.4S139.1,85.1,117.2,85.1z"/>
	<path id="XMLID_875_" fill="#F6AE2D" d="M128.3,45c0.8-0.4,1.2-0.4,1.2-0.4c0.4,0,0.8-0.4,1.2-0.8c2-1.2,2.8-3.6,2.8-6.4
		c0-2.4-0.8-4.4-2.4-6.4c-0.8-0.8-2.4-1.6-4-2.4c-0.8-0.4-2-0.4-3.2-0.8v-4.4h-4v4.4h-4.4v-4.4h-4v4.4h-4.8h-6.4v6.8h3.6
		c1.2,0,2.8,0.4,2.8,2.8v16.3c0,2.8-1.6,2.8-2.8,2.8h-3.6v6.8h6.4h4.8v4.4h4v-4.4h4.4v4.4h4v-4.8c4,0,7.2-1.2,8.8-3.2
		c1.6-2,2.4-4,2.4-6.8c0-2.4-0.8-4-2-5.6C132.3,46.6,130.7,45.8,128.3,45z M115.2,34.6h4c2.4,0,4,0.4,5.2,0.8
		c1.2,0.4,1.6,1.6,1.6,3.2c0,1.6-0.4,2.8-1.6,3.2c-1.2,0.4-2.8,0.8-4.8,0.8h-4L115.2,34.6L115.2,34.6z M125.5,56.1
		c-1.2,0.4-2.8,0.8-5.2,0.8h-5.6v-8.4h4.8c2.8,0,4.8,0.4,6,0.8s2,1.6,2,3.2C127.5,54.5,126.7,55.3,125.5,56.1z"/>
	<path id="XMLID_874_" fill="#4E5C6E" d="M62.7,58.5c-10.7,0-21.9,0-32.6,0c-5.6,0-5.6,8.4,0,8.4c10.7,0,21.9,0,32.6,0
		C68.2,67.2,68.2,58.5,62.7,58.5z"/>
	<path id="XMLID_873_" fill="#4E5C6E" d="M63.1,25.9c-10.7,0-21.9,0-32.6,0c-5.6,0-5.6,8.4,0,8.4c10.7,0,21.9,0,32.6,0
		C68.6,34.2,68.6,25.9,63.1,25.9z"/>
	<path id="XMLID_872_" fill="#4E5C6E" d="M59.1,42.2c-24.3,0-30.2,0-54.9,0c-5.6,0-5.6,8.4,0,8.4c24.3,0,30.2,0,54.9,0
		C64.7,50.9,64.7,42.2,59.1,42.2z"/>
</g>
</svg>
