<?xml version="1.0" encoding="utf-8"?>
<!-- Generator: Adobe Illustrator 19.0.0, SVG Export Plug-In . SVG Version: 6.00 Build 0)  -->
<svg version="1.1" id="Layer_1" xmlns="http://www.w3.org/2000/svg" xmlns:xlink="http://www.w3.org/1999/xlink" x="0px" y="0px"
	 viewBox="0 0 76.8 76.8" enable-background="new 0 0 76.8 76.8" xml:space="preserve">
<circle id="XMLID_145_" fill="none" stroke="#FFFFFF" stroke-width="2" stroke-miterlimit="10" cx="38.4" cy="38.4" r="29.2"/>
<circle id="XMLID_142_" fill="none" stroke="#FFFFFF" stroke-miterlimit="10" stroke-opacity="0.5" cx="38.4" cy="38.4" r="33.8"/>
<circle id="XMLID_139_" fill="none" stroke="#FFFFFF" stroke-miterlimit="10" stroke-opacity="0.2" cx="38.4" cy="38.4" r="37.9"/>
<path id="XMLID_136_" fill="#009FFD" d="M28.8,39.3c-4.7,0-8.6,3.8-8.6,8.6c0,4.7,3.8,8.6,8.6,8.6c4.7,0,8.6-3.8,8.6-8.6
	C37.4,43.1,33.6,39.3,28.8,39.3z M28.8,53.9c-3.4,0-6.1-2.7-6.1-6.1c0-3.4,2.7-6.1,6.1-6.1c3.4,0,6.1,2.7,6.1,6.1
	C34.9,51.2,32.2,53.9,28.8,53.9z"/>
<path id="XMLID_133_" fill="#009FFD" d="M48,20.4c-4.7,0-8.6,3.8-8.6,8.6s3.8,8.6,8.6,8.6c4.7,0,8.6-3.8,8.6-8.6S52.7,20.4,48,20.4z
	 M48,35.1c-3.4,0-6.1-2.7-6.1-6.1s2.7-6.1,6.1-6.1s6.1,2.7,6.1,6.1S51.3,35.1,48,35.1z"/>
<path id="XMLID_128_" fill="#009FFD" d="M28.8,20.4c-4.7,0-8.6,3.8-8.6,8.6s3.8,8.6,8.6,8.6c4.7,0,8.6-3.8,8.6-8.6
	c0-2.4-1-4.6-2.6-6.1h2.6v-2.4L28.8,20.4L28.8,20.4z M34.9,29c0,3.4-2.7,6.1-6.1,6.1c-3.4,0-6.1-2.7-6.1-6.1s2.7-6.1,6.1-6.1
	C32.2,22.8,34.9,25.6,34.9,29z"/>
</svg>
