<?xml version="1.0" encoding="utf-8"?>
<!-- Generator: Adobe Illustrator 19.0.0, SVG Export Plug-In . SVG Version: 6.00 Build 0)  -->
<svg version="1.1" id="Layer_1" xmlns="http://www.w3.org/2000/svg" xmlns:xlink="http://www.w3.org/1999/xlink" x="0px" y="0px"
	 viewBox="0 0 19.5 21.3" enable-background="new 0 0 19.5 21.3" xml:space="preserve">
<g id="XMLID_118_">
	<g id="XMLID_158_">
		<g id="XMLID_177_">
			<g id="XMLID_178_">
				<path id="XMLID_183_" fill="#FFFFFF" d="M3.2,0.3C2.7,0,2.2-0.1,1.6,0.1l9.6,9.6l3.1-3.1L3.2,0.3z"/>
			</g>
		</g>
	</g>
	<g id="XMLID_147_">
		<g id="XMLID_185_">
			<g id="XMLID_187_">
				<path id="XMLID_188_" fill="#FFFFFF" d="M0.4,0.8C0.2,1.2,0,1.6,0,2.1v17.1c0,0.5,0.2,0.9,0.4,1.3l9.8-9.8L0.4,0.8z"/>
			</g>
		</g>
	</g>
	<g id="XMLID_138_">
		<g id="XMLID_190_">
			<g id="XMLID_191_">
				<path id="XMLID_192_" fill="#FFFFFF" d="M18.4,8.8l-2.8-1.6l-3.4,3.4l3.4,3.4l2.8-1.6c0.7-0.4,1.1-1.1,1.1-1.8
					C19.5,9.9,19.1,9.2,18.4,8.8z"/>
			</g>
		</g>
	</g>
	<g id="XMLID_119_">
		<g id="XMLID_193_">
			<g id="XMLID_194_">
				<path id="XMLID_195_" fill="#FFFFFF" d="M11.2,11.6l-9.6,9.6c0.2,0,0.3,0.1,0.5,0.1c0.4,0,0.8-0.1,1.1-0.3l11.1-6.2L11.2,11.6z"
					/>
			</g>
		</g>
	</g>
</g>
</svg>
