<?xml version="1.0" encoding="utf-8"?>
<!-- Generator: Adobe Illustrator 19.0.0, SVG Export Plug-In . SVG Version: 6.00 Build 0)  -->
<svg version="1.1" id="Layer_1" xmlns="http://www.w3.org/2000/svg" xmlns:xlink="http://www.w3.org/1999/xlink" x="0px" y="0px"
	 viewBox="0 0 42.3 42.3" enable-background="new 0 0 42.3 42.3" xml:space="preserve">
<linearGradient id="XMLID_15_" gradientUnits="userSpaceOnUse" x1="-402.6151" y1="273.0973" x2="-402.6151" y2="281.1966" gradientTransform="matrix(5.2245 0 0 5.2245 2124.616 -1426.7941)">
	<stop  offset="0" style="stop-color:#00EFD1"/>
	<stop  offset="1" style="stop-color:#00ACEA"/>
</linearGradient>
<path id="XMLID_194_" fill="url(#XMLID_15_)" d="M28.7,22.2c-0.5,0-1,0-1.5,0.1V5c0-4-8.6-5-13.6-5S0,1.1,0,5v25.2
	c0,3.7,7.3,5,13.6,5c0.5,0,1,0,1.5-0.1v2.1c0,3.7,7.3,5,13.6,5s13.6-1.3,13.6-5V27.2C42.3,23.2,33.8,22.2,28.7,22.2z M39.3,32.1
	c-0.5,0.7-4,2.1-10.6,2.1s-10.1-1.5-10.6-2.1v-1.6c3,1.3,7.5,1.7,10.6,1.7c3.1,0,7.6-0.4,10.6-1.7V32.1z M3,23.5
	c2.7,1.2,6.9,1.7,10.6,1.7c0.8,0,1.7,0,2.5-0.1c-0.6,0.6-1,1.2-1,2c-0.5,0-1,0.1-1.5,0.1c-6.5,0-10.1-1.5-10.6-2.1V23.5z M3,18.5
	c2.7,1.2,6.9,1.7,10.6,1.7s7.9-0.5,10.6-1.7V20c-0.5,0.7-4,2.1-10.6,2.1S3.5,20.7,3,20V18.5z M3,13.4c2.7,1.2,6.9,1.7,10.6,1.7
	s7.9-0.5,10.6-1.7V15c-0.5,0.7-4,2.1-10.6,2.1S3.5,15.6,3,15V13.4z M3,8.4c3,1.3,7.5,1.7,10.6,1.7s7.6-0.4,10.6-1.7V10
	c-0.5,0.7-4,2.1-10.6,2.1S3.5,10.6,3,10V8.4z M39.2,27.2c-0.8,0.7-4.3,2-10.5,2s-9.7-1.3-10.5-2c0.8-0.7,4.3-2,10.5-2
	S38.4,26.5,39.2,27.2z M13.6,3c6.1,0,9.7,1.3,10.5,2c-0.8,0.7-4.3,2-10.5,2S3.9,5.7,3.1,5C3.9,4.3,7.5,3,13.6,3z M3,30.1v-1.5
	c2.7,1.2,6.9,1.7,10.6,1.7c0.5,0,1,0,1.5-0.1v2c-0.5,0-1,0.1-1.5,0.1C7.1,32.2,3.5,30.8,3,30.1z M28.7,39.3
	c-6.5,0-10.1-1.5-10.6-2.1v-1.5c2.7,1.2,6.9,1.7,10.6,1.7s7.9-0.5,10.6-1.7v1.5C38.8,37.8,35.3,39.3,28.7,39.3z"/>
</svg>
