<?xml version="1.0" encoding="utf-8"?>
<!-- Generator: Adobe Illustrator 19.0.0, SVG Export Plug-In . SVG Version: 6.00 Build 0)  -->
<svg version="1.1" id="Layer_1" xmlns="http://www.w3.org/2000/svg" xmlns:xlink="http://www.w3.org/1999/xlink" x="0px" y="0px"
	 viewBox="0 0 35.4 42.3" enable-background="new 0 0 35.4 42.3" xml:space="preserve">
<linearGradient id="XMLID_28_" gradientUnits="userSpaceOnUse" x1="17.5178" y1="85.8448" x2="17.5178" y2="128.1467" gradientTransform="matrix(1.0003 0 0 1.0003 0.1691 -85.8706)">
	<stop  offset="0" style="stop-color:#2AF598"/>
	<stop  offset="1" style="stop-color:#009EFD"/>
</linearGradient>
<path id="XMLID_216_" fill="url(#XMLID_28_)" d="M31.3,5.4L31.3,5.4c-4-0.7-7.7-2.9-9.5-4.1C20.5,0.4,19.1,0,17.7,0
	s-2.8,0.4-4.1,1.2c-1.8,1.2-5.5,3.4-9.5,4.1C1.7,5.8,0,7.9,0,10.3v10c0,3.3,0.9,6.5,2.7,9.5c1.4,2.4,3.4,4.7,5.9,6.8
	c4.1,3.5,8.2,5.4,8.4,5.5l0.7,0.3l0.7-0.3c0.2-0.1,4.3-1.9,8.4-5.5c2.5-2.1,4.4-4.4,5.9-6.8c1.8-3,2.7-6.3,2.7-9.5v-10
	C35.4,7.9,33.7,5.8,31.3,5.4z M32.1,20.2c0,4.9-2.5,9.5-7.4,13.7c-2.8,2.4-5.7,4-7,4.7c-2.9-1.5-14.4-8-14.4-18.4v-10
	c0-0.8,0.6-1.5,1.4-1.6C9.3,7.8,13.4,5.4,15.5,4c0.7-0.4,1.4-0.7,2.2-0.7c0.8,0,1.5,0.2,2.2,0.7c2.1,1.4,6.2,3.8,10.8,4.7l0,0
	c0.8,0.1,1.4,0.8,1.4,1.6V20.2z M25.6,12.9l2.5,2.2L16.1,28.4l-7.8-7.4l2.3-2.4l5.4,5.1L25.6,12.9z"/>
</svg>
