<?xml version="1.0" encoding="UTF-8"?>
<svg width="14px" height="15px" viewBox="0 0 14 15" version="1.1" xmlns="http://www.w3.org/2000/svg" xmlns:xlink="http://www.w3.org/1999/xlink">
    <!-- Generator: Sketch 50.2 (55047) - http://www.bohemiancoding.com/sketch -->
    <title>Group</title>
    <desc>Created with Sketch.</desc>
    <defs></defs>
    <g id="Page-1" stroke="none" stroke-width="1" fill="none" fill-rule="evenodd">
        <g id="Group">
            <path d="M13.5236044,7.38761013 C13.5236044,11.4655991 10.49362,14.7716956 6.76341559,14.7716956 C3.02675755,14.7716956 0,11.4655991 0,7.38761013 C0,3.30257189 3.02675755,0 6.76341559,0 C10.49362,0 13.5236044,3.30257189 13.5236044,7.38761013" id="Fill-25" fill="#FFFFFF"></path>
            <path d="M2.66858048,10.3941137 C3.31394457,10.4399338 3.93672091,10.3306705 4.52400222,10.0416514 C4.78860149,9.91828955 5.02738621,9.76320614 5.26617092,9.55877799 C4.98543754,9.54820412 4.73051873,9.47771166 4.49818766,9.3473006 C4.10128875,9.12877397 3.82055537,8.77983628 3.64953389,8.31458602 C3.61081204,8.21237195 3.61081204,8.21237195 3.71729712,8.21942119 C4.00125731,8.24409356 4.20777382,8.24056893 4.36911484,8.17007647 C4.21422746,8.11015788 4.06902054,8.08196089 3.94962819,7.99032069 C3.35589323,7.63785837 3.04289165,7.07744329 2.9880357,6.34079705 C2.98158206,6.25268147 3.00416981,6.24210761 3.07515985,6.28087846 C3.28490318,6.40424027 3.51078061,6.46415886 3.77215306,6.48883123 C3.65921435,6.37604329 3.56240974,6.28792771 3.47528559,6.18923826 C2.98158206,5.61120006 2.86541653,4.69479804 3.19455221,3.98987341 C3.23650088,3.89823321 3.25263498,3.89823321 3.31394457,3.97225029 C4.14001059,5.01553875 5.17259312,5.64644629 6.41491898,5.8614483 C6.54076498,5.88964529 6.67951826,5.89316991 6.80859107,5.91431765 C6.89571522,5.93194077 6.90539569,5.88964529 6.8924884,5.81210358 C6.76341559,4.99791563 7.11191219,4.19077693 7.7766372,3.78192064 C8.44781584,3.35191662 9.325511,3.48937692 9.86761683,4.06741512 C9.92892641,4.12733371 9.990236,4.14143221 10.0612261,4.12028447 C10.3968154,4.03921813 10.709817,3.90175783 11.0002308,3.71847743 C11.0260454,3.71142818 11.0454063,3.69732969 11.0776745,3.6691327 C10.9518285,4.12733371 10.7001365,4.46217291 10.3258253,4.73709352 C10.6710951,4.70184729 10.9808699,4.59258397 11.284191,4.46217291 C11.2906446,4.51151764 11.2583764,4.53971462 11.2422423,4.57496085 C11.032499,4.88512769 10.7904875,5.16357292 10.5033004,5.39972267 C10.4516713,5.4490674 10.438764,5.480789 10.438764,5.55833071 C10.4613518,6.97875384 10.0450919,8.24409356 9.21257228,9.3473006 C8.43168174,10.3518182 7.43136741,10.9545288 6.2438975,11.1695308 C4.98221072,11.3810082 3.79796763,11.148383 2.70730233,10.4152614 C2.69439505,10.4046875 2.67826094,10.3941137 2.66858048,10.3941137" id="Fill-26" fill="#3A506B"></path>
        </g>
    </g>
</svg>