<?xml version="1.0" encoding="utf-8"?>
<!-- Generator: Adobe Illustrator 19.0.0, SVG Export Plug-In . SVG Version: 6.00 Build 0)  -->
<svg version="1.1" id="Layer_1" xmlns="http://www.w3.org/2000/svg" xmlns:xlink="http://www.w3.org/1999/xlink" x="0px" y="0px"
	 viewBox="-512.6 278.9 61.6 45.2" enable-background="new -512.6 278.9 61.6 45.2" xml:space="preserve">
<g id="XMLID_9133_">
	<linearGradient id="XMLID_2_" gradientUnits="userSpaceOnUse" x1="-512.5586" y1="301.4611" x2="-450.9558" y2="301.4611">
		<stop  offset="0" style="stop-color:#00EFD1"/>
		<stop  offset="1" style="stop-color:#00ACEA"/>
	</linearGradient>
	<path id="XMLID_9174_" fill="url(#XMLID_2_)" d="M-455.3,278.9h-53c-2.4,0-4.3,2-4.3,4.3v36.6c0,2.4,2,4.3,4.3,4.3h53
		c2.4,0,4.3-2,4.3-4.3v-36.6C-450.9,280.8-452.8,278.9-455.3,278.9z M-452.9,319.8c0,1.3-1,2.3-2.3,2.3h-53c-1.3,0-2.3-1-2.3-2.3
		v-36.6c0-1.3,1-2.3,2.3-2.3h53c1.3,0,2.3,1,2.3,2.3L-452.9,319.8L-452.9,319.8z"/>
	<linearGradient id="XMLID_3_" gradientUnits="userSpaceOnUse" x1="-507.3794" y1="301.4697" x2="-486.8197" y2="301.4697">
		<stop  offset="0" style="stop-color:#00EFD1"/>
		<stop  offset="1" style="stop-color:#00ACEA"/>
	</linearGradient>
	<path id="XMLID_9154_" fill="url(#XMLID_3_)" d="M-489.3,308l-3.8-2v-0.4c1.6-0.9,2.8-2.4,3.5-4.6c1-0.5,1.6-1.6,1.6-2.7v-1
		c0-0.9-0.5-1.9-1.2-2.4c-0.6-3.8-3.3-5.8-8-5.8c-0.2,0-0.5,0-0.6,0c-1.2,0.1-2.4-0.2-3.3-0.7c-0.5-0.3-0.7-0.5-0.9-0.9
		c-0.5-0.5-1.4-0.6-2-0.1c-0.3,0.3-0.4,0.6-0.3,0.9c0,0.4,0.1,0.9,0.2,1.3c0.2,1,0.2,1-0.1,1.6c-0.1,0.2-0.3,0.5-0.4,0.9
		c-0.4,0.9-0.5,1.7-0.7,2.7c-0.7,0.5-1.2,1.5-1.2,2.4v1c0,1.1,0.6,2.2,1.6,2.7c0.6,2,1.9,3.6,3.5,4.6v0.4l-3.8,2
		c-1.4,0.7-2.3,2.2-2.3,3.8v1.4c0,0.9,0,2.7,10.3,2.7s10.3-2,10.3-2.7v-1.3C-486.9,310.2-487.8,308.7-489.3,308z"/>
	<linearGradient id="XMLID_4_" gradientUnits="userSpaceOnUse" x1="-482.7392" y1="293.2999" x2="-470.4191" y2="293.2999">
		<stop  offset="0" style="stop-color:#00EFD1"/>
		<stop  offset="1" style="stop-color:#00ACEA"/>
	</linearGradient>
	<path id="XMLID_9153_" fill="url(#XMLID_4_)" d="M-481.7,294.3h10.3c0.5,0,1-0.5,1-1s-0.5-1-1-1h-10.3c-0.5,0-1,0.5-1,1
		S-482.3,294.3-481.7,294.3z"/>
	<linearGradient id="XMLID_5_" gradientUnits="userSpaceOnUse" x1="-468.3788" y1="293.2999" x2="-465.3185" y2="293.2999">
		<stop  offset="0" style="stop-color:#00EFD1"/>
		<stop  offset="1" style="stop-color:#00ACEA"/>
	</linearGradient>
	<path id="XMLID_9152_" fill="url(#XMLID_5_)" d="M-467.4,294.3h1c0.5,0,1-0.5,1-1s-0.5-1-1-1h-1c-0.5,0-1,0.5-1,1
		S-467.9,294.3-467.4,294.3z"/>
	<linearGradient id="XMLID_6_" gradientUnits="userSpaceOnUse" x1="-482.7392" y1="310.7207" x2="-479.6788" y2="310.7207">
		<stop  offset="0" style="stop-color:#00EFD1"/>
		<stop  offset="1" style="stop-color:#00ACEA"/>
	</linearGradient>
	<path id="XMLID_9151_" fill="url(#XMLID_6_)" d="M-480.7,309.7h-1c-0.5,0-1,0.5-1,1s0.5,1,1,1h1c0.5,0,1-0.5,1-1
		S-480.1,309.7-480.7,309.7z"/>
	<linearGradient id="XMLID_7_" gradientUnits="userSpaceOnUse" x1="-477.5601" y1="310.7207" x2="-473.4796" y2="310.7207">
		<stop  offset="0" style="stop-color:#00EFD1"/>
		<stop  offset="1" style="stop-color:#00ACEA"/>
	</linearGradient>
	<path id="XMLID_9150_" fill="url(#XMLID_7_)" d="M-474.5,309.7h-2c-0.5,0-1,0.5-1,1s0.5,1,1,1h2c0.5,0,1-0.5,1-1
		S-474,309.7-474.5,309.7z"/>
	<linearGradient id="XMLID_8_" gradientUnits="userSpaceOnUse" x1="-471.4392" y1="310.7207" x2="-468.3789" y2="310.7207">
		<stop  offset="0" style="stop-color:#00EFD1"/>
		<stop  offset="1" style="stop-color:#00ACEA"/>
	</linearGradient>
	<path id="XMLID_9149_" fill="url(#XMLID_8_)" d="M-469.4,309.7h-1c-0.5,0-1,0.5-1,1s0.5,1,1,1h1c0.5,0,1-0.5,1-1
		S-468.8,309.7-469.4,309.7z"/>
	<linearGradient id="XMLID_9_" gradientUnits="userSpaceOnUse" x1="-466.3386" y1="310.7207" x2="-462.2495" y2="310.7207">
		<stop  offset="0" style="stop-color:#00EFD1"/>
		<stop  offset="1" style="stop-color:#00ACEA"/>
	</linearGradient>
	<path id="XMLID_9148_" fill="url(#XMLID_9_)" d="M-463.3,309.7h-2c-0.5,0-1,0.5-1,1s0.5,1,1,1h2c0.5,0,1-0.5,1-1
		C-462.2,310.2-462.7,309.7-463.3,309.7z"/>
	<linearGradient id="XMLID_10_" gradientUnits="userSpaceOnUse" x1="-460.1393" y1="310.7794" x2="-458.099" y2="310.7794">
		<stop  offset="0" style="stop-color:#00EFD1"/>
		<stop  offset="1" style="stop-color:#00ACEA"/>
	</linearGradient>
	<path id="XMLID_9141_" fill="url(#XMLID_10_)" d="M-459.8,310.1c-0.2,0.2-0.3,0.5-0.3,0.7c0,0.3,0.1,0.5,0.3,0.7
		c0.2,0.2,0.5,0.3,0.7,0.3c0.3,0,0.5-0.1,0.7-0.3c0.2-0.2,0.3-0.5,0.3-0.7c0-0.3-0.1-0.5-0.3-0.7
		C-458.7,309.6-459.5,309.6-459.8,310.1z"/>
	<linearGradient id="XMLID_11_" gradientUnits="userSpaceOnUse" x1="-482.7392" y1="299.4993" x2="-458.099" y2="299.4993">
		<stop  offset="0" style="stop-color:#00EFD1"/>
		<stop  offset="1" style="stop-color:#00ACEA"/>
	</linearGradient>
	<path id="XMLID_9140_" fill="url(#XMLID_11_)" d="M-459.1,298.5h-22.6c-0.5,0-1,0.5-1,1s0.5,1,1,1h22.6c0.5,0,1-0.5,1-1
		S-458.6,298.5-459.1,298.5z"/>
	<linearGradient id="XMLID_12_" gradientUnits="userSpaceOnUse" x1="-482.7392" y1="305.6985" x2="-458.099" y2="305.6985">
		<stop  offset="0" style="stop-color:#00EFD1"/>
		<stop  offset="1" style="stop-color:#00ACEA"/>
	</linearGradient>
	<path id="XMLID_9134_" fill="url(#XMLID_12_)" d="M-459.1,304.7h-22.6c-0.5,0-1,0.5-1,1c0,0.5,0.5,1,1,1h22.6c0.5,0,1-0.5,1-1
		C-458.1,305.1-458.6,304.7-459.1,304.7z"/>
</g>
</svg>
