<?xml version="1.0" encoding="utf-8"?>
<!-- Generator: Adobe Illustrator 19.0.0, SVG Export Plug-In . SVG Version: 6.00 Build 0)  -->
<svg version="1.1" id="Layer_1" xmlns="http://www.w3.org/2000/svg" xmlns:xlink="http://www.w3.org/1999/xlink" x="0px" y="0px"
	 viewBox="-504.2 279 45.2 45.2" enable-background="new -504.2 279 45.2 45.2" xml:space="preserve">
<g id="XMLID_4263_">
	<linearGradient id="XMLID_2_" gradientUnits="userSpaceOnUse" x1="-499.0108" y1="301.6838" x2="-464.1828" y2="301.6838">
		<stop  offset="0" style="stop-color:#00EFD1"/>
		<stop  offset="1" style="stop-color:#00ACEA"/>
	</linearGradient>
	<path id="XMLID_9432_" fill="url(#XMLID_2_)" d="M-464.2,301.7c0-9.6-7.8-17.4-17.4-17.4S-499,292-499,301.7c0,5,2.2,9.7,5.7,12.9
		l0,0l0.5,0.5l0.1,0.1c0.3,0.2,0.6,0.5,1,0.7c0.1,0.1,0.2,0.2,0.3,0.2c0.3,0.2,0.7,0.5,1,0.7c0.1,0.1,0.2,0.1,0.2,0.2
		c0.4,0.2,0.8,0.5,1.1,0.6c0,0,0.1,0,0.1,0.1c1.3,0.6,2.7,1.1,4.2,1.3h0.1c0.5,0.1,1,0.2,1.4,0.2c0.1,0,0.1,0,0.2,0
		c0.5,0,1,0.1,1.4,0.1c0.5,0,1,0,1.4-0.1c0.1,0,0.2,0,0.2,0c0.5-0.1,1-0.1,1.4-0.2c0.1,0,0.1,0,0.2,0c1.5-0.2,2.9-0.7,4.1-1.3
		c0.1,0,0.1-0.1,0.2-0.1c0.4-0.2,0.8-0.4,1.1-0.6c0.1-0.1,0.2-0.1,0.3-0.2c0.3-0.2,0.7-0.4,1-0.6c0.2-0.1,0.2-0.2,0.3-0.2
		c0.3-0.2,0.5-0.4,0.8-0.6c0.1-0.1,0.2-0.1,0.2-0.2l0.5-0.5l0,0C-466.4,311.3-464.2,306.7-464.2,301.7z M-497.7,301.7
		c0-8.9,7.3-16.2,16.2-16.2c8.9,0,16.2,7.3,16.2,16.2c0,4.9-2.1,9.1-5.5,12.1c-0.2-0.2-0.4-0.2-0.5-0.3l-5.4-2.6
		c-0.5-0.2-0.8-0.7-0.8-1.3v-1.9c0.2-0.2,0.2-0.3,0.4-0.5c0.7-1,1.3-2.1,1.6-3.3c0.8-0.4,1.3-1.1,1.3-2.1v-2.3
		c0-0.5-0.2-1.1-0.5-1.5V295c0-0.3,0.2-2.2-1.1-3.7c-1.1-1.3-3.1-2-5.6-2s-4.4,0.7-5.6,2c-1.3,1.6-1.3,3.4-1.1,3.7v2.9
		c-0.4,0.4-0.5,1-0.5,1.5v2.3c0,0.7,0.3,1.3,0.8,1.8c0.5,2,1.6,3.5,1.9,4.1v1.9c0,0.5-0.3,1-0.7,1.3l-5,2.7
		c-0.2,0.1-0.3,0.2-0.5,0.3C-495.7,310.7-497.7,306.4-497.7,301.7z"/>
	<g id="XMLID_9469_">
		<linearGradient id="XMLID_3_" gradientUnits="userSpaceOnUse" x1="-468.3261" y1="283.459" x2="-459.0187" y2="283.459">
			<stop  offset="0" style="stop-color:#00EFD1"/>
			<stop  offset="1" style="stop-color:#00ACEA"/>
		</linearGradient>
		<polygon id="XMLID_9474_" fill="url(#XMLID_3_)" points="-468.3,280.9 -460.9,280.9 -460.9,287.9 -459,287.9 -459,279 -468.3,279 
					"/>
		<linearGradient id="XMLID_4_" gradientUnits="userSpaceOnUse" x1="-504.235" y1="283.459" x2="-494.9275" y2="283.459">
			<stop  offset="0" style="stop-color:#00EFD1"/>
			<stop  offset="1" style="stop-color:#00ACEA"/>
		</linearGradient>
		<polygon id="XMLID_9473_" fill="url(#XMLID_4_)" points="-502.4,287.9 -502.4,280.9 -494.9,280.9 -494.9,279 -504.2,279 
			-504.2,287.9 		"/>
		<linearGradient id="XMLID_5_" gradientUnits="userSpaceOnUse" x1="-504.235" y1="319.368" x2="-494.9275" y2="319.368">
			<stop  offset="0" style="stop-color:#00EFD1"/>
			<stop  offset="1" style="stop-color:#00ACEA"/>
		</linearGradient>
		<polygon id="XMLID_9472_" fill="url(#XMLID_5_)" points="-494.9,322.3 -502.4,322.3 -502.4,314.5 -504.2,314.5 -504.2,324.2 
			-494.9,324.2 		"/>
		<linearGradient id="XMLID_6_" gradientUnits="userSpaceOnUse" x1="-468.3261" y1="319.368" x2="-459.0187" y2="319.368">
			<stop  offset="0" style="stop-color:#00EFD1"/>
			<stop  offset="1" style="stop-color:#00ACEA"/>
		</linearGradient>
		<polygon id="XMLID_9471_" fill="url(#XMLID_6_)" points="-460.9,314.5 -460.9,322.3 -468.3,322.3 -468.3,324.2 -459,324.2 
			-459,314.5 		"/>
	</g>
</g>
</svg>
