<?xml version="1.0" encoding="utf-8"?>
<!-- Generator: Adobe Illustrator 19.0.0, SVG Export Plug-In . SVG Version: 6.00 Build 0)  -->
<svg version="1.1" id="Layer_1" xmlns="http://www.w3.org/2000/svg" xmlns:xlink="http://www.w3.org/1999/xlink" x="0px" y="0px"
	 viewBox="-445.6 458.9 78.4 68.6" enable-background="new -445.6 458.9 78.4 68.6" xml:space="preserve">
<circle id="XMLID_93_" fill="none" stroke="#FFFFFF" stroke-width="2" stroke-miterlimit="10" cx="-411.3" cy="493.2" r="26"/>
<circle id="XMLID_90_" fill="none" stroke="#FFFFFF" stroke-miterlimit="10" stroke-opacity="0.5" cx="-411.3" cy="493.2" r="30.1"/>
<circle id="XMLID_37_" fill="none" stroke="#FFFFFF" stroke-miterlimit="10" stroke-opacity="0.2" cx="-411.3" cy="493.2" r="33.8"/>
<line id="XMLID_119_" fill="none" stroke="#FFFFFF" stroke-miterlimit="10" stroke-opacity="0.2" x1="-377.5" y1="493.2" x2="-367.2" y2="493.2"/>
<g>
	<g>
		<path fill="#0082D1" d="M-399.8,497.1c-1.1-0.7-2.4-0.8-3.7-0.9c-1.1,0-2.6-0.7-2.6-2.6c0-1.4,1.2-2.6,2.6-2.6
			c1.3,0,2.5-0.2,3.7-0.9c2.1-1.2,3.3-3.4,3.3-5.8s-1.3-4.6-3.3-5.8s-4.6-1.2-6.7,0c-2.1,1.2-3.4,3.4-3.4,5.8c0,1.3,0.5,2.5,1,3.6
			c0.5,0.9,0.7,2.7-1,3.7c-1.3,0.7-2.9,0.3-3.6-1c-0.7-1.1-1.5-2.1-2.6-2.7c-2.1-1.2-4.6-1.2-6.7,0c-2.1,1.2-3.3,3.4-3.3,5.8
			s1.3,4.6,3.4,5.8c2.1,1.2,4.6,1.2,6.7,0c1.1-0.7,1.9-1.6,2.6-2.7c0.6-0.9,1.9-2,3.6-1c1.3,0.7,1.7,2.3,0.9,3.7
			c-0.6,1.1-1,2.3-1,3.6c0,2.4,1.3,4.6,3.3,5.8c2.1,1.2,4.6,1.2,6.7,0c2.1-1.2,3.3-3.4,3.3-5.8
			C-396.5,500.6-397.7,498.3-399.8,497.1z"/>
	</g>
</g>
</svg>
