<?xml version="1.0" encoding="utf-8"?>
<!-- Generator: Adobe Illustrator 19.0.0, SVG Export Plug-In . SVG Version: 6.00 Build 0)  -->
<svg version="1.1" id="Layer_1" xmlns="http://www.w3.org/2000/svg" xmlns:xlink="http://www.w3.org/1999/xlink" x="0px" y="0px"
	 viewBox="-404.8 547.7 137.5 85" enable-background="new -404.8 547.7 137.5 85" xml:space="preserve">
<linearGradient id="SVGID_1_" gradientUnits="userSpaceOnUse" x1="-306.2554" y1="590.1422" x2="-267.2654" y2="590.1422">
	<stop  offset="0" style="stop-color:#2AF598"/>
	<stop  offset="1" style="stop-color:#009EFD"/>
</linearGradient>
<path opacity="0.2" fill="url(#SVGID_1_)" d="M-306.3,632.6c13.4-9.4,22.1-24.9,22.1-42.5s-8.7-33.1-22.1-42.5h39v85H-306.3z"/>
<linearGradient id="SVGID_2_" gradientUnits="userSpaceOnUse" x1="-404.812" y1="590.135" x2="-365.7783" y2="590.135">
	<stop  offset="0" style="stop-color:#2AF598"/>
	<stop  offset="1" style="stop-color:#009EFD"/>
</linearGradient>
<path opacity="0.2" fill="url(#SVGID_2_)" d="M-387.9,590.1c0,17.6,8.7,33.1,22.1,42.5h-39v-85h39
	C-379.1,557-387.9,572.6-387.9,590.1z"/>
<g opacity="0.2">
	<linearGradient id="SVGID_3_" gradientUnits="userSpaceOnUse" x1="-342.6732" y1="582.153" x2="-330.5351" y2="582.153">
		<stop  offset="0" style="stop-color:#2AF598"/>
		<stop  offset="1" style="stop-color:#009EFD"/>
	</linearGradient>
	<path fill="url(#SVGID_3_)" d="M-331.4,583.7L-331.4,583.7L-331.4,583.7L-331.4,583.7L-331.4,583.7l0.1-0.1l0,0l0,0l0,0l0,0l0,0
		l0,0l0,0l0,0l0,0l0,0l0,0l0,0l0,0l0,0l0,0l0,0l0,0l0,0l0,0l0,0l0,0l0,0l0,0l0,0l0,0l0,0l0,0l0,0l0,0l0,0l0,0l0,0l0,0l0,0l0,0l0,0
		l0,0l0,0l0,0l0,0l0,0l0,0l0,0l0-0.1c0.3-0.8,0.4-1.6,0.3-2.4l0,0c0,0,0,0,0-0.1l0,0l0,0c0,0,0-0.1,0-0.1c0,0,0-0.1,0-0.1l0,0l0,0
		c0,0,0,0,0-0.1l0,0c-0.2-0.8-0.7-1.5-1.4-2c0,0,0,0-0.1,0l0,0l0,0l0,0l0,0l0,0l0,0l0,0l0,0l0,0l0,0l0,0l0,0l0,0l0,0l0,0l0,0l0,0
		l0,0l0,0l0,0l0,0l0,0l0,0l0,0l0,0l0,0l0,0l0,0l0,0l0,0l0,0l0,0l0,0l0,0l0,0l0,0l0,0l0,0l0,0l0,0l0,0l0,0l0,0l0,0l0,0l0,0l0,0l0,0
		c-1.3-0.6-2.9-0.8-4.6-0.4c-1.1,0.3-4.2,1.1-5,1.3l2.4,9.2c0.8-0.2,3.9-1,5-1.3C-333.6,585.8-332.3,584.8-331.4,583.7z"/>
	<linearGradient id="SVGID_4_" gradientUnits="userSpaceOnUse" x1="-339.1367" y1="596.15" x2="-324.8984" y2="596.15">
		<stop  offset="0" style="stop-color:#2AF598"/>
		<stop  offset="1" style="stop-color:#009EFD"/>
	</linearGradient>
	<path fill="url(#SVGID_4_)" d="M-325,594L-325,594L-325,594L-325,594C-325,593.9-325,593.9-325,594L-325,594l0-0.1l0,0
		c0-0.1,0-0.1,0-0.1c0,0,0-0.1,0-0.1l0,0l0,0c0,0,0,0,0-0.1l0,0c-0.3-0.9-0.8-1.6-1.6-2.1c0,0,0,0-0.1,0l0,0l0,0l0,0l0,0l0,0l0,0
		l0,0l0,0l0,0l0,0l0,0l0,0l0,0l0,0l0,0l0,0l0,0l0,0l0,0l0,0l0,0l0,0l0,0l0,0l0,0l0,0l0,0l0,0l0,0l0,0l0,0l0,0l0,0l0,0l0,0l0,0l0,0
		l0,0l0,0l0,0l0,0l0,0l0,0l0,0l0,0l0,0l0,0l0,0c-1.5-0.6-3.4-0.8-5.4-0.3c-1.2,0.3-5,1.3-5.9,1.5l2.6,10c0.9-0.2,4.7-1.2,5.9-1.5
		c2-0.5,3.6-1.6,4.6-2.9l0,0l0,0l0,0l0,0l0,0l0,0l0,0l0,0l0,0l0,0l0,0l0,0l0,0l0,0l0,0l0,0l0,0l0,0l0,0l0,0l0,0l0,0l0,0l0,0l0,0l0,0
		l0,0l0,0l0,0l0,0l0,0l0,0l0,0l0,0l0,0l0,0l0,0l0,0l0,0l0,0l0,0l0,0l0,0l0,0l0,0l0,0l0,0l0,0l0-0.1
		C-324.9,595.8-324.8,594.9-325,594L-325,594z"/>
	<linearGradient id="SVGID_5_" gradientUnits="userSpaceOnUse" x1="-378.4891" y1="590.1145" x2="-293.5875" y2="590.1145">
		<stop  offset="0" style="stop-color:#2AF598"/>
		<stop  offset="1" style="stop-color:#009EFD"/>
	</linearGradient>
	<path fill="url(#SVGID_5_)" d="M-336,547.7c-23.4,0-42.5,19-42.5,42.5c0,23.4,19,42.5,42.5,42.5c23.4,0,42.5-19,42.5-42.5
		C-293.6,566.7-312.6,547.7-336,547.7z M-316.4,597.6L-316.4,597.6c0,0.1,0,0.1-0.1,0.1l0,0.1l0,0l0,0l0,0l0,0l0,0l0,0l0,0l0,0l0,0
		l0,0l0,0l0,0l0,0l0,0l0,0l0,0l0,0l0,0l0,0l0,0l0,0l0,0l0,0l0,0l0,0l0,0l0,0l0,0l0,0l0,0l0,0.1l0,0l0,0.1l0,0l0,0.1l0,0l0,0.1l0,0
		l0,0.1l0,0l0,0.1l0,0l0,0.1l0,0l0,0.1l0,0l0,0l-0.1,0.1c-1.6,2.4-4.3,4.4-7.7,5.3c-0.5,0.1-1.1,0.3-1.9,0.5l2,7.6l-4.5,1.2
		l-1.9-7.6l-3.6,0.9l1.9,7.6l-4.5,1.2l-2-7.5l-9.3,2.4l-0.2-5.7l3.3-0.8c0.8-0.2,1.3-1.1,1.1-1.9l-5.2-20.3c0,0,0,0,0,0
		c-0.3-1.2-1.6-2-2.8-1.7l-3.8,1l-1.2-4.8l9.3-2.4l-1.9-7.6l4.5-1.2l1.9,7.5l3.6-0.9l-1.9-7.6l4.5-1.2l1.9,7.6l0.8-0.2
		c3-0.8,5.9-0.4,8.2,0.8l0.1,0l0,0l0,0l0.1,0l0,0l0.1,0l0,0l0,0l0,0l0,0l0,0l0,0l0,0l0,0l0,0l0,0l0,0l0,0l0,0l0,0l0,0l0,0l0,0l0,0
		l0,0l0,0l0,0l0,0l0,0l0,0l0,0l0,0l0,0l0,0l0,0l0,0l0,0l0,0l0,0l0,0l0,0l0,0l0,0l0,0l0,0l0,0l0,0l0,0l0,0c0,0,0.1,0.1,0.1,0.1l0,0
		c1.2,1,2.1,2.3,2.5,3.8l0,0l0,0l0,0l0,0l0,0l0,0l0,0c0,0,0,0.1,0,0.1l0,0l0,0c0,0.1,0,0.1,0,0.2c0,0.1,0,0.1,0,0.2l0,0l0,0l0,0v0
		c0,0,0,0.1,0,0.1l0,0l0,0l0,0l0,0l0,0l0,0l0,0l0,0c0.3,1.5,0.2,3.1-0.4,4.5l0,0c0,0,0,0.1-0.1,0.1l0,0.1l0,0l0,0l0,0l0,0l0,0l0,0
		l0,0l0,0l0,0l0,0l0,0l0,0l0,0l0,0l0,0l0,0l0,0l0,0l0,0l0,0l0,0l0,0l0,0l0,0l0,0l0,0l0,0l0,0l0,0l0,0l0,0l0,0l0,0l0,0l0,0l0,0l0,0
		l0,0l0,0l0,0l0,0l0,0l0,0l0,0l0,0l0,0l0,0l0,0.1c-0.3,0.5-0.7,0.9-1,1.3c1.4,0.2,2.7,0.6,3.9,1.2c0,0,0.1,0,0.1,0l0,0l0,0l0.1,0
		l0,0l0.1,0l0,0l0.1,0l0,0l0.1,0l0,0l0.1,0l0,0l0.1,0l0,0l0.1,0l0,0l0,0l0,0l0,0l0,0l0,0l0,0l0,0l0,0l0,0l0,0l0,0l0,0l0,0l0,0l0,0
		l0,0l0,0l0,0l0,0l0,0l0,0l0,0l0,0l0,0l0,0l0,0l0,0l0,0l0,0l0,0l0,0l0.1,0c0,0,0.1,0.1,0.1,0.1l0,0c1.3,1.1,2.3,2.6,2.8,4.2l0,0l0,0
		l0,0l0,0l0,0l0,0l0,0c0,0,0,0.1,0,0.1l0,0l0,0c0,0.1,0,0.1,0,0.2c0,0.1,0,0.1,0.1,0.2l0,0l0,0l0,0l0,0l0,0l0,0l0,0l0,0l0,0l0,0l0,0
		l0,0l0,0l0,0v0c0,0,0,0.1,0,0.1l0,0l0,0l0,0l0,0l0,0l0,0l0,0l0,0C-315.6,594.2-315.8,596-316.4,597.6z"/>
</g>
</svg>
