<?xml version="1.0" encoding="UTF-8"?>
<svg width="55px" height="55px" viewBox="0 0 55 55" version="1.1" xmlns="http://www.w3.org/2000/svg" xmlns:xlink="http://www.w3.org/1999/xlink">
    <!-- Generator: Sketch 50.2 (55047) - http://www.bohemiancoding.com/sketch -->
    <title>btg-full</title>
    <desc>Created with Sketch.</desc>
    <defs></defs>
    <g id="Page-1" stroke="none" stroke-width="1" fill="none" fill-rule="evenodd">
        <g id="btg-full" transform="translate(1.000000, 0.000000)">
            <circle id="XMLID_108_" stroke="#FFFFFF" stroke-width="2" cx="26.9" cy="27.2" r="20.4"></circle>
            <circle id="XMLID_105_" stroke-opacity="0.5" stroke="#FFFFFF" cx="26.9" cy="27.2" r="23.6"></circle>
            <circle id="XMLID_102_" stroke-opacity="0.2" stroke="#FFFFFF" cx="26.9" cy="27.2" r="26.5"></circle>
            <g id="Group" transform="translate(16.000000, 16.000000)" fill="#0082D1" fill-rule="nonzero">
                <g id="Shape">
                    <path d="M10.5,0.7 L11.6,0.7 C12.7,0.8 13.9,1 14.9,1.4 C17.5,2.4 19.7,4.6 20.7,7.2 C22.2,10.7 21.5,14.9 19.1,17.8 C17.5,19.8 15.1,21.2 12.5,21.5 C10.1,21.8 7.6,21.3 5.5,20 C3.9,19 2.6,17.6 1.7,15.9 C0.6,13.8 0.3,11.3 0.8,9 C1.3,6.4 2.8,4.1 5,2.6 C6.6,1.5 8.5,0.9 10.5,0.7 Z M9.9,1.2 C6.7,1.6 3.8,3.6 2.3,6.4 C1.3,8.3 0.9,10.5 1.2,12.6 C1.6,15.2 2.9,17.5 5,19.1 C6.5,20.3 8.5,21.1 10.4,21.2 C12.6,21.4 14.9,20.8 16.7,19.5 C19,18 20.6,15.5 21,12.9 C21.3,11.3 21.2,9.7 20.7,8.2 C20,6 18.5,4 16.6,2.8 C14.6,1.5 12.2,0.9 9.9,1.2 Z"></path>
                    <path d="M10.1,5.3 C11.9,5 13.9,5.6 15.2,6.9 C16.4,8 17,9.6 17,11.2 C17,12.8 16.3,14.4 15.2,15.5 C13.9,16.8 12.1,17.3 10.3,17.1 C8.6,16.9 7.1,16 6.2,14.6 C5.2,13.1 4.9,11.2 5.4,9.4 C6,7.3 7.9,5.7 10.1,5.3 Z M10.5,5.7 C10.5,6.2 10.5,6.7 10.5,7.3 C10.8,7.3 11,7.3 11.3,7.3 C11.3,6.8 11.3,6.2 11.3,5.7 C11,5.7 10.7,5.7 10.5,5.7 Z M12.4,7.3 C13.1,7.4 13.8,7.5 14.4,8 C15.2,8.7 15.1,10.3 14.1,10.9 C14.7,11 15.3,11.4 15.5,12.1 C15.7,12.9 15.5,13.9 14.9,14.5 C14.2,15.1 13.3,15.1 12.5,15.2 C12.5,15.7 12.5,16.2 12.5,16.7 C14.2,16.3 15.7,15 16.4,13.3 C17,11.8 16.9,9.9 16,8.5 C15.2,7.2 14,6.3 12.5,5.9 C12.3,6.3 12.3,6.8 12.4,7.3 Z M7.2,7.3 C8,7.3 8.7,7.3 9.5,7.3 C9.5,6.8 9.5,6.4 9.5,5.9 C8.6,6.2 7.8,6.7 7.2,7.3 Z M7.1,7.3 C6.9,7.7 6.5,8 6.3,8.5 C5.4,10 5.3,11.9 6.1,13.5 C6.7,14.9 8,16 9.5,16.5 C9.5,16 9.5,15.6 9.5,15.1 C8.7,15.1 8,15.1 7.2,15.1 C7.2,14.7 7.3,14.3 7.5,13.9 C7.9,13.9 8.3,14 8.6,13.8 C8.8,13.6 8.7,13.3 8.8,13.1 C8.8,11.7 8.8,10.3 8.8,9 C8.8,8.8 8.7,8.5 8.4,8.5 C8,8.4 7.6,8.5 7.2,8.5 C7.2,8.2 7.2,7.9 7.1,7.6 L7.2,7.6 C7.2,7.5 7.1,7.4 7.1,7.3 Z M10.5,8.5 L10.5,10.5 C11.2,10.5 11.9,10.6 12.5,10.2 C13,9.9 13,9.1 12.5,8.8 C11.9,8.4 11.2,8.5 10.5,8.5 Z M10.5,11.6 L10.5,13.9 C11.3,13.8 12.3,14 13,13.5 C13.5,13.2 13.5,12.3 12.9,12 C12.2,11.5 11.3,11.7 10.5,11.6 Z M10.5,15.2 C10.5,15.7 10.5,16.2 10.5,16.8 C10.8,16.8 11,16.8 11.3,16.8 C11.3,16.3 11.3,15.7 11.3,15.2 L10.5,15.2 Z"></path>
                </g>
                <path d="M9.9,1.8 C11.7,1.6 13.6,1.9 15.3,2.7 C17.4,3.7 19.1,5.6 19.9,7.8 C20.8,10 20.7,12.5 19.9,14.7 C18.6,18.2 15,20.7 11.3,20.7 C9.1,20.8 6.9,20 5.2,18.7 C3.4,17.3 2.1,15.2 1.7,12.9 C1.3,10.6 1.7,8.2 3,6.3 C4.4,3.8 7.1,2.1 9.9,1.8 Z M9.6,4.8 C8.1,5.1 6.7,6 5.8,7.2 C4.8,8.5 4.3,10.3 4.5,11.9 C4.7,13.7 5.7,15.3 7.1,16.4 C8.4,17.4 10.2,17.9 11.9,17.6 C14,17.3 15.8,16 16.8,14.2 C17.5,12.9 17.7,11.3 17.5,9.9 C17.2,8.1 16.1,6.5 14.5,5.6 C13.1,4.7 11.3,4.5 9.6,4.8 Z" id="Shape"></path>
            </g>
        </g>
    </g>
</svg>