<?xml version="1.0" encoding="utf-8"?>
<!-- Generator: Adobe Illustrator 19.0.0, SVG Export Plug-In . SVG Version: 6.00 Build 0)  -->
<svg version="1.1" id="Layer_1" xmlns="http://www.w3.org/2000/svg" xmlns:xlink="http://www.w3.org/1999/xlink" x="0px" y="0px"
	 viewBox="0 0 73.3 57.6" enable-background="new 0 0 73.3 57.6" xml:space="preserve">
<g id="XMLID_2616_">
	<g id="XMLID_2617_">
		<path id="XMLID_2614_" d="M66.7,57.6c1.6,0,3.1-0.5,4.3-1.6L50.2,35.2c-0.5,0.4-1,0.7-1.4,1c-1.6,1.1-2.8,2-3.8,2.7
			c-1,0.6-2.3,1.3-3.9,2c-1.6,0.7-3.1,1-4.5,1h0h0c-1.4,0-2.9-0.3-4.5-1c-1.6-0.7-2.9-1.3-3.9-2c-1-0.6-2.2-1.5-3.8-2.7
			c-0.4-0.3-0.9-0.7-1.4-1L2.3,55.9c1.2,1.1,2.6,1.6,4.3,1.6H66.7z"/>
		<path id="XMLID_2613_" d="M4.1,22.1c-1.6-1-2.9-2.2-4.1-3.6v31.6l18.3-18.3C14.6,29.3,9.9,26.1,4.1,22.1z"/>
		<path id="XMLID_2599_" d="M69.2,22.1c-5.6,3.8-10.3,7-14.2,9.7l18.3,18.3V18.6C72.1,19.9,70.7,21.1,69.2,22.1z"/>
		<path id="XMLID_2596_" d="M66.7,0H6.5C4.4,0,2.8,0.7,1.7,2.1C0.6,3.5,0,5.3,0,7.4C0,9.2,0.8,11,2.2,13c1.5,2,3.1,3.6,4.8,4.7
			c0.9,0.7,3.7,2.6,8.4,5.8c2.5,1.7,4.7,3.3,6.6,4.6c1.6,1.1,3,2.1,4.1,2.9c0.1,0.1,0.3,0.2,0.6,0.4c0.3,0.2,0.7,0.5,1.1,0.8
			c0.9,0.6,1.6,1.2,2.2,1.6c0.6,0.4,1.3,0.8,2.1,1.3c0.8,0.5,1.6,0.9,2.4,1.1c0.7,0.2,1.4,0.4,2,0.4h0h0c0.6,0,1.3-0.1,2-0.4
			c0.7-0.2,1.5-0.6,2.4-1.1c0.8-0.5,1.5-0.9,2.1-1.3c0.6-0.4,1.3-0.9,2.2-1.6c0.5-0.3,0.8-0.6,1.1-0.8c0.3-0.2,0.5-0.3,0.6-0.4
			c0.9-0.6,2.3-1.6,4.1-2.9c3.4-2.4,8.4-5.8,15-10.4c2-1.4,3.7-3.1,5-5c1.3-2,2-4,2-6.2c0-1.8-0.6-3.3-1.9-4.6C70,0.6,68.5,0,66.7,0
			z"/>
	</g>
</g>
<g id="XMLID_14_">
</g>
<g id="XMLID_15_">
</g>
<g id="XMLID_16_">
</g>
<g id="XMLID_17_">
</g>
<g id="XMLID_18_">
</g>
<g id="XMLID_19_">
</g>
<g id="XMLID_20_">
</g>
<g id="XMLID_21_">
</g>
<g id="XMLID_22_">
</g>
<g id="XMLID_23_">
</g>
<g id="XMLID_24_">
</g>
<g id="XMLID_25_">
</g>
<g id="XMLID_26_">
</g>
<g id="XMLID_27_">
</g>
<g id="XMLID_28_">
</g>
</svg>
