<?xml version="1.0" encoding="utf-8"?>
<!-- Generator: Adobe Illustrator 19.0.0, SVG Export Plug-In . SVG Version: 6.00 Build 0)  -->
<svg version="1.1" id="Layer_1" xmlns="http://www.w3.org/2000/svg" xmlns:xlink="http://www.w3.org/1999/xlink" x="0px" y="0px"
	 viewBox="0 0 72.8 40.9" enable-background="new 0 0 72.8 40.9" xml:space="preserve">
<g id="XMLID_2013_">
	<linearGradient id="XMLID_15_" gradientUnits="userSpaceOnUse" x1="31.8796" y1="20.4691" x2="72.7797" y2="20.4691">
		<stop  offset="0" style="stop-color:#00F493"/>
		<stop  offset="1" style="stop-color:#009EFF"/>
	</linearGradient>
	<path id="XMLID_2233_" fill="url(#XMLID_15_)" d="M52.3,0C40.9,0,31.9,9.3,31.9,20.5c0,11.4,9.2,20.5,20.4,20.5
		c11.4,0,20.4-9.3,20.4-20.5C72.9,9.1,63.7,0,52.3,0z M52.3,38c-9.6,0-17.6-7.8-17.6-17.6S42.6,2.9,52.3,2.9
		c9.6,0,17.6,7.8,17.6,17.6S62.1,38,52.3,38z"/>
	<linearGradient id="XMLID_16_" gradientUnits="userSpaceOnUse" x1="44.7832" y1="20.3574" x2="60.3211" y2="20.3574">
		<stop  offset="0" style="stop-color:#00F493"/>
		<stop  offset="1" style="stop-color:#009EFF"/>
	</linearGradient>
	<path id="XMLID_2031_" fill="url(#XMLID_16_)" d="M57.3,20.1c0.4-0.2,0.5-0.2,0.5-0.2c0.2,0,0.4-0.2,0.5-0.4
		c0.9-0.5,1.3-1.6,1.3-2.9c0-1.1-0.4-2-1.1-2.9c-0.4-0.4-1.1-0.7-1.8-1.1c-0.4-0.2-0.9-0.2-1.4-0.4v-2h-1.8v2h-2v-2h-1.8v2h-2.1
		h-2.9v3h1.6c0.5,0,1.3,0.2,1.3,1.3V24c0,1.3-0.7,1.3-1.3,1.3h-1.6v3h2.9h2.1v2h1.8v-2h2v2h1.8v-2.1c1.8,0,3.2-0.5,3.9-1.4
		c0.7-0.9,1.1-1.8,1.1-3c0-1.1-0.4-1.8-0.9-2.5C59.1,20.8,58.4,20.5,57.3,20.1z M51.4,15.5h1.8c1.1,0,1.8,0.2,2.3,0.4
		s0.7,0.7,0.7,1.4c0,0.7-0.2,1.3-0.7,1.4C55,18.9,54.3,19,53.4,19h-1.8L51.4,15.5L51.4,15.5z M56,25.1c-0.5,0.2-1.3,0.4-2.3,0.4
		h-2.5v-3.8h2.1c1.3,0,2.1,0.2,2.7,0.4c0.5,0.2,0.9,0.7,0.9,1.4C56.9,24.4,56.6,24.7,56,25.1z"/>
	<linearGradient id="XMLID_17_" gradientUnits="userSpaceOnUse" x1="11.5641" y1="28.0238" x2="29.8368" y2="28.0238">
		<stop  offset="0" style="stop-color:#00F493"/>
		<stop  offset="1" style="stop-color:#009EFF"/>
	</linearGradient>
	<path id="XMLID_2030_" fill="url(#XMLID_17_)" d="M28,26.1c-4.8,0-9.8,0-14.6,0c-2.5,0-2.5,3.8,0,3.8c4.8,0,9.8,0,14.6,0
		C30.5,30,30.5,26.1,28,26.1z"/>
	<linearGradient id="XMLID_18_" gradientUnits="userSpaceOnUse" x1="11.7427" y1="13.4524" x2="30.0154" y2="13.4524">
		<stop  offset="0" style="stop-color:#00F493"/>
		<stop  offset="1" style="stop-color:#009EFF"/>
	</linearGradient>
	<path id="XMLID_2025_" fill="url(#XMLID_18_)" d="M28.2,11.6c-4.8,0-9.8,0-14.6,0c-2.5,0-2.5,3.8,0,3.8c4.8,0,9.8,0,14.6,0
		C30.6,15.3,30.6,11.6,28.2,11.6z"/>
	<linearGradient id="XMLID_19_" gradientUnits="userSpaceOnUse" x1="0" y1="20.739" x2="28.263" y2="20.739">
		<stop  offset="0" style="stop-color:#00F493"/>
		<stop  offset="1" style="stop-color:#009EFF"/>
	</linearGradient>
	<path id="XMLID_2024_" fill="url(#XMLID_19_)" d="M26.4,18.9c-10.8,0-13.5,0-24.5,0c-2.5,0-2.5,3.8,0,3.8c10.8,0,13.5,0,24.5,0
		C28.9,22.7,28.9,18.9,26.4,18.9z"/>
</g>
</svg>
