<?xml version="1.0" encoding="utf-8"?>
<!-- Generator: Adobe Illustrator 19.0.0, SVG Export Plug-In . SVG Version: 6.00 Build 0)  -->
<svg version="1.1" id="Capa_1" xmlns="http://www.w3.org/2000/svg" xmlns:xlink="http://www.w3.org/1999/xlink" x="0px" y="0px"
	 viewBox="-463 1149.2 512 587.8" enable-background="new -463 1149.2 512 587.8" xml:space="preserve">
<circle fill="#3A4551" cx="-207" cy="1481" r="256"/>
<path fill="#FE4A49" d="M-88.1,1385.2c0,0,67,25.9,65.8,113.3c-0.1,11.4-13.2,17.7-22.4,10.9c-13.6-9.9-35.7-16.3-69.5-2.1"/>
<g>
	<path fill="#E84949" d="M-319.1,1385.2c0,0-67,25.9-65.8,113.3c0.1,11.4,13.2,17.7,22.4,10.9c13.6-9.9,35.7-16.3,69.5-2.1"/>
	<path fill="#E84949" d="M-155.5,1429.3L-155.5,1429.3l12.8,84.6c0.9,6.1-3.8,11.5-9.9,11.5h-102c-6.1,0-10.8-5.5-9.9-11.5
		l12.8-84.6h38.5L-155.5,1429.3z"/>
</g>
<path fill="#FE4A49" d="M-155.5,1429.3l12.8,84.6c0.9,6.1-3.8,11.5-9.9,11.5h-63.5c-6.1,0-10.8-5.5-9.9-11.5l12.8-84.6H-155.5z"/>
<path fill="#F9EED7" d="M-203.6,1476.3c33.8,0,64.8,11.6,89.4,31c16.7-37.3,26-78.6,26-122.1c0-95.9-45.2-181.3-115.5-235.9
	c-70.3,54.7-115.5,140-115.5,235.9c0,43.5,9.3,84.8,26,122.1C-268.4,1487.9-237.3,1476.3-203.6,1476.3z"/>
<path fill="#E8DBC4" d="M-263.1,1385.1c0,35.2,3.1,68.9,8.9,100.2c-14.1,5.3-27.2,12.7-38.8,21.9c-16.7-37.3-26-78.6-26-122.1
	c0-95.9,45.2-181.3,115.5-235.9C-239.8,1203.9-263.1,1289.2-263.1,1385.1z"/>
<circle fill="#FE4A49" cx="-203.6" cy="1325.9" r="64.1"/>
<circle fill="#4E5C6E" cx="-203.6" cy="1325.9" r="39.7"/>
<g>
	<path fill="#F6AE2D" d="M-18.5,1326.4l-9.7,9.7c-4.7,4.7-12.4,4.7-17.2,0l-9.7-9.7c-2.1-2.1-5.6-2.5-7.9-0.6
		c-2.7,2.2-2.8,6.1-0.4,8.5l9.9,9.9c4.7,4.7,4.7,12.4,0,17.2l-9.7,9.7c-2.1,2.1-2.5,5.6-0.6,7.9c2.2,2.7,6.1,2.8,8.5,0.4l9.9-9.9
		c4.7-4.7,12.4-4.7,17.2,0l9.7,9.7c2.1,2.1,5.6,2.5,7.9,0.6c2.7-2.2,2.8-6.1,0.4-8.5l-9.9-9.9c-4.7-4.7-4.7-12.4,0-17.2l9.9-9.9
		c2.4-2.4,2.2-6.3-0.4-8.5C-12.9,1323.9-16.4,1324.3-18.5,1326.4z"/>
	<path fill="#F6AE2D" d="M-403.4,1373.7l-9.7,9.7c-4.7,4.7-12.4,4.7-17.2,0l-9.7-9.7c-2.1-2.1-5.6-2.5-7.9-0.6
		c-2.7,2.2-2.8,6.1-0.4,8.5l9.9,9.9c4.7,4.7,4.7,12.4,0,17.2l-9.7,9.7c-2.1,2.1-2.5,5.6-0.6,7.9c2.2,2.7,6.1,2.8,8.5,0.4l9.9-9.9
		c4.7-4.7,12.4-4.7,17.2,0l9.7,9.7c2.1,2.1,5.6,2.5,7.9,0.6c2.7-2.2,2.8-6.1,0.4-8.5l-9.9-9.9c-4.7-4.7-4.7-12.4,0-17.2l9.9-9.9
		c2.4-2.4,2.2-6.3-0.4-8.5C-397.8,1371.2-401.3,1371.6-403.4,1373.7z"/>
	<path fill="#F6AE2D" d="M-311.4,1552.1l-9.7,9.7c-4.7,4.7-12.4,4.7-17.2,0l-9.7-9.7c-2.1-2.1-5.6-2.5-7.9-0.6
		c-2.7,2.2-2.8,6.1-0.4,8.5l9.9,9.9c4.7,4.7,4.7,12.4,0,17.2l-9.7,9.7c-2.1,2.1-2.5,5.6-0.6,7.9c2.2,2.7,6.1,2.8,8.5,0.4l9.9-9.9
		c4.7-4.7,12.4-4.7,17.2,0l9.7,9.7c2.1,2.1,5.6,2.5,7.9,0.6c2.7-2.2,2.8-6.1,0.4-8.5l-9.9-9.9c-4.7-4.7-4.7-12.4,0-17.2l9.9-9.9
		c2.4-2.4,2.2-6.3-0.4-8.5C-305.9,1549.7-309.3,1550-311.4,1552.1z"/>
</g>
<path fill="#9BA6B2" d="M-33,1668.8c-70.9,65.8-169.9,84-256.4,54.7c-32.4-11-63.1-28.7-89.8-53c5.9-2.3,12.2-3.5,18.9-3.5
	c6,0,11.8,1,17.2,2.9c13.9-23.7,39.6-39.6,69-39.6c13.3,0,25.8,3.3,36.8,9l0-74.4c0-8.2,6.6-14.9,14.9-14.9l37.7,0
	c8.2,0,14.9,6.6,14.9,14.9v74.4c11-5.7,23.5-9,36.8-9c29.4,0,55.1,15.9,69,39.6c5.4-1.9,11.2-2.9,17.2-2.9
	C-42.1,1666.9-37.4,1667.6-33,1668.8z"/>
<path fill="#4E5C6E" d="M-222.4,1549.9v117.6c0,0-21.9-8.9-54,23.3c-10.1,10.1-13.3,21.6-13,32.7c-32.4-11-63.1-28.7-89.8-53
	c5.9-2.3,12.2-3.5,18.9-3.5c6,0,11.8,1,17.2,2.9c13.9-23.7,39.6-39.6,69-39.6c13.3,0,25.8,3.3,36.8,9l0-74.4
	C-237.3,1556.6-230.6,1549.9-222.4,1549.9z"/>
</svg>
