<?xml version="1.0" encoding="utf-8"?>
<!-- Generator: Adobe Illustrator 19.0.0, SVG Export Plug-In . SVG Version: 6.00 Build 0)  -->
<svg version="1.1" id="Content" xmlns="http://www.w3.org/2000/svg" xmlns:xlink="http://www.w3.org/1999/xlink" x="0px" y="0px"
	 viewBox="0 0 436.9 385.2" enable-background="new 0 0 436.9 385.2" xml:space="preserve">
<g>
	<g>
		<polygon fill="#44CCFF" points="192,120.7 190.6,159.6 158.4,77.8 159.8,38.9 		"/>
	</g>
</g>
<g>
	<g>
		<path fill="#3DBBE2" d="M302.3,151.5l-1.4,38.9c-23.6-25.4-67.6-38.7-110.4-30.8l1.4-38.9C234.7,112.8,278.8,126.1,302.3,151.5z"
			/>
	</g>
</g>
<g>
	<g>
		<polygon fill="#41C8F2" points="400.1,106.4 398.6,145.3 300.9,190.4 302.3,151.5 		"/>
	</g>
</g>
<g>
	<g>
		<path fill="#44CCFF" d="M159.8,38.9c92.6-17.1,186.7,9.3,240.2,67.5l-97.7,45.1c-23.6-25.4-67.6-38.7-110.4-30.8L159.8,38.9z"/>
	</g>
</g>
<g>
	<g>
		<path fill="#D1892A" d="M193.4,81.8l-2.8,77.8c-42.7,7.9-71.1,34.6-72.8,64.7l2.8-77.8C122.3,116.4,150.7,89.7,193.4,81.8z"/>
	</g>
</g>
<g>
	<g>
		<polygon fill="#E8A12E" points="120.6,146.5 117.7,224.3 0.2,219 3,141.2 		"/>
	</g>
</g>
<g>
	<g>
		<path fill="#F6AE2D" d="M161.2,0l32.1,81.8c-42.7,7.9-71.1,34.6-72.8,64.7L3,141.2C6.7,72.4,68.7,17.1,161.2,0z"/>
	</g>
</g>
<g>
	<g>
		<path fill="#14A0C1" d="M92.3,265.3c0.7-18.1,1.3-36.3,2-54.4c0-0.4,0-0.8,0.1-1.1l-2,54.4C92.3,264.5,92.3,264.9,92.3,265.3z"/>
	</g>
</g>
<g>
	<g>
		<polygon fill="#232A30" points="185,241.3 183,295.8 142.6,373.8 144.6,319.3 		"/>
	</g>
</g>
<g>
	<g>
		<path fill="#303A42" d="M144.6,319.3l-2,54.4C52.3,348.4-3.5,287.8,0.2,219l2-54.4C-1.5,233.3,54.3,294,144.6,319.3z"/>
	</g>
</g>
<g>
	<g>
		<path fill="#3A4551" d="M2.2,164.6l117.5,5.3c-0.4,7.4,0.7,15,3.7,22.6c9.1,23.1,32.7,40.6,61.6,48.8l-40.4,78
			C54.3,294-1.5,233.3,2.2,164.6z"/>
	</g>
</g>
<g>
	<g>
		<path fill="#3A4551" d="M318.7,217.3c-0.2,5.2-0.4,10.4-0.6,15.6c0.3-7.1-1-14.3-3.8-21.5c-3-7.6-7.6-14.6-13.4-20.8l0.6-15.6
			c5.8,6.3,10.4,13.3,13.4,20.9C317.7,203,318.9,210.2,318.7,217.3z"/>
	</g>
</g>
<g>
	<g>
		<polygon fill="#6DBA13" points="389.5,312.7 388.9,328.3 296.8,274.8 297.4,259.2 		"/>
	</g>
</g>
<g>
	<g>
		<path fill="#455260" d="M436.8,221.4c-0.2,5.2-0.4,10.4-0.6,15.6c-1.2,32.4-17,64.3-47.3,91.4l0.6-15.6
			C419.8,285.7,435.6,253.8,436.8,221.4z"/>
	</g>
</g>
<g>
	<g>
		<path fill="#4E5C6E" d="M399.2,129.8c53.5,58.2,49.7,129.8-9.8,182.9l-92.1-53.5c19-17.1,26.6-40.4,17.5-63.4
			c-3-7.6-7.6-14.6-13.4-20.9L399.2,129.8z"/>
	</g>
</g>
<g>
	<g>
		<path fill="#508E47" d="M390.1,297.1l-1.1,31.1c-29.7,26.5-68.7,44.3-111.6,52.2c-42.8,7.9-89.5,6-134.7-6.6l1.1-31.1
			c45.1,12.7,91.8,14.6,134.7,6.6C321.3,341.4,360.3,323.7,390.1,297.1z"/>
	</g>
</g>
<g>
	<g>
		<path fill="#5FAD56" d="M298,243.6l92.1,53.5c-29.7,26.5-68.7,44.3-111.6,52.2c-42.8,7.9-89.5,6-134.7-6.6l40.4-78
			c19.2,5.5,40.9,6.8,62.1,2.9C267.6,263.6,285.3,255,298,243.6z"/>
	</g>
</g>
<g>
	<g>
		<g>
			<path fill="#FFFFFF" d="M99.9,78c0,6.2-2.5,10.5-7.6,10.5c-5.2,0-7.5-4.7-7.5-10.3c0-5.8,2.5-10.4,7.7-10.4
				C97.8,67.7,99.9,72.5,99.9,78z M89.5,78.1c0,4.6,1.1,6.8,2.9,6.8c1.8,0,2.8-2.3,2.8-6.8c0-4.4-1-6.8-2.8-6.8
				C90.7,71.3,89.5,73.4,89.5,78.1z"/>
		</g>
		<g>
			<path fill="#FFFFFF" d="M108.2,72.2L108.2,72.2l-3.9,1.8l-0.8-3.5l5.3-2.5h3.9v20.1h-4.5V72.2z"/>
		</g>
	</g>
	<g>
		<path fill="#FFFFFF" d="M98.8,109.7c-17.4,0-31.6-14.2-31.6-31.6s14.2-31.6,31.6-31.6c17.4,0,31.6,14.2,31.6,31.6
			S116.2,109.7,98.8,109.7z M98.8,48c-16.6,0-30.1,13.5-30.1,30.1c0,16.6,13.5,30.1,30.1,30.1c16.6,0,30.1-13.5,30.1-30.1
			C128.9,61.5,115.4,48,98.8,48z"/>
	</g>
</g>
<g>
	<g>
		<g>
			<path fill="#FFFFFF" d="M86,232.2c0,6.2-2.5,10.5-7.6,10.5c-5.2,0-7.5-4.7-7.5-10.3c0-5.8,2.5-10.4,7.7-10.4
				C83.9,221.9,86,226.7,86,232.2z M75.6,232.3c0,4.6,1.1,6.8,2.9,6.8c1.8,0,2.8-2.3,2.8-6.8c0-4.4-1-6.8-2.8-6.8
				C76.8,225.5,75.6,227.7,75.6,232.3z"/>
		</g>
		<g>
			<path fill="#FFFFFF" d="M88.3,242.3v-2.8l2.6-2.3c4.4-3.9,6.5-6.2,6.6-8.5c0-1.6-1-2.9-3.3-2.9c-1.7,0-3.2,0.9-4.3,1.7l-1.3-3.4
				c1.5-1.1,3.9-2.1,6.6-2.1c4.5,0,7,2.7,7,6.3c0,3.4-2.4,6-5.3,8.6l-1.9,1.5v0.1h7.6v3.9H88.3z"/>
		</g>
	</g>
	<g>
		<path fill="#FFFFFF" d="M86.7,263.9c-17.4,0-31.6-14.2-31.6-31.6s14.2-31.6,31.6-31.6s31.6,14.2,31.6,31.6S104.2,263.9,86.7,263.9
			z M86.7,202.2c-16.6,0-30.1,13.5-30.1,30.1s13.5,30.1,30.1,30.1c16.6,0,30.1-13.5,30.1-30.1S103.3,202.2,86.7,202.2z"/>
	</g>
</g>
<g>
	<g>
		<g>
			<path fill="#FFFFFF" d="M260.2,307.2c0,6.2-2.5,10.5-7.6,10.5c-5.2,0-7.5-4.7-7.5-10.3c0-5.8,2.5-10.4,7.7-10.4
				C258.1,297,260.2,301.7,260.2,307.2z M249.8,307.3c0,4.6,1.1,6.8,2.9,6.8c1.8,0,2.8-2.3,2.8-6.8c0-4.4-1-6.8-2.8-6.8
				C251,300.5,249.8,302.7,249.8,307.3z"/>
		</g>
		<g>
			<path fill="#FFFFFF" d="M263.4,312.7c0.8,0.4,2.7,1.2,4.7,1.2c2.4,0,3.7-1.2,3.7-2.7c0-2-2-2.9-4-2.9h-1.9v-3.4h1.8
				c1.6,0,3.6-0.6,3.6-2.3c0-1.2-1-2.1-3-2.1c-1.6,0-3.4,0.7-4.2,1.2l-1-3.4c1.2-0.8,3.6-1.5,6.2-1.5c4.3,0,6.7,2.3,6.7,5
				c0,2.1-1.2,3.8-3.7,4.7v0.1c2.4,0.4,4.4,2.3,4.4,4.9c0,3.5-3.1,6.1-8.2,6.1c-2.6,0-4.8-0.7-6-1.4L263.4,312.7z"/>
		</g>
	</g>
	<g>
		<path fill="#FFFFFF" d="M260.9,338.9c-17.4,0-31.6-14.2-31.6-31.6c0-17.4,14.2-31.6,31.6-31.6s31.6,14.2,31.6,31.6
			C292.5,324.7,278.3,338.9,260.9,338.9z M260.9,277.2c-16.6,0-30.1,13.5-30.1,30.1c0,16.6,13.5,30.1,30.1,30.1
			c16.6,0,30.1-13.5,30.1-30.1C291,290.7,277.5,277.2,260.9,277.2z"/>
	</g>
</g>
<g>
	<g>
		<path fill="#FFFFFF" d="M380.8,213.5c0,6.2-2.5,10.5-7.6,10.5c-5.2,0-7.5-4.7-7.5-10.3c0-5.8,2.5-10.4,7.7-10.4
			C378.7,203.2,380.8,208,380.8,213.5z M370.4,213.6c0,4.6,1.1,6.8,2.9,6.8c1.8,0,2.8-2.3,2.8-6.8c0-4.4-1-6.8-2.8-6.8
			C371.6,206.8,370.4,209,370.4,213.6z"/>
	</g>
	<g>
		<path fill="#FFFFFF" d="M381.4,245.2c-17.4,0-31.6-14.2-31.6-31.6S364,182,381.4,182c17.4,0,31.6,14.2,31.6,31.6
			S398.9,245.2,381.4,245.2z M381.4,183.5c-16.6,0-30.1,13.5-30.1,30.1s13.5,30.1,30.1,30.1c16.6,0,30.1-13.5,30.1-30.1
			S398.1,183.5,381.4,183.5z"/>
	</g>
	<g>
		<path fill="#FFFFFF" d="M393.1,224.6v-5.2h-9.6v-3.3l8.2-13.3h6.2v12.7h2.6v3.8H398v5.2H393.1z M393.1,215.6v-4.8
			c0-1.3,0.1-2.6,0.2-4h-0.1c-0.7,1.4-1.3,2.7-2,4l-2.9,4.8v0.1H393.1z"/>
	</g>
</g>
<g>
	<g>
		<path fill="#FFFFFF" d="M267.1,80.5c0,6.2-2.5,10.5-7.6,10.5c-5.2,0-7.5-4.7-7.5-10.3c0-5.8,2.5-10.4,7.7-10.4
			C265,70.2,267.1,75,267.1,80.5z M256.7,80.6c0,4.6,1.1,6.8,2.9,6.8c1.8,0,2.8-2.3,2.8-6.8c0-4.4-1-6.8-2.8-6.8
			C257.9,73.8,256.7,76,256.7,80.6z"/>
	</g>
	<g>
		<path fill="#FFFFFF" d="M267.7,112.2c-17.4,0-31.6-14.2-31.6-31.6S250.3,49,267.7,49s31.6,14.2,31.6,31.6S285.2,112.2,267.7,112.2
			z M267.7,50.5c-16.6,0-30.1,13.5-30.1,30.1c0,16.6,13.5,30.1,30.1,30.1c16.6,0,30.1-13.5,30.1-30.1
			C297.9,64,284.4,50.5,267.7,50.5z"/>
	</g>
	<g>
		<path fill="#FFFFFF" d="M281.4,74.8h-6.9l-0.4,3.1c0.4-0.1,0.7-0.1,1.2-0.1c1.7,0,3.4,0.4,4.7,1.5c1.3,1,2.2,2.7,2.2,5.1
			c0,3.8-2.9,7.2-7.7,7.2c-2.2,0-4-0.6-5-1.2l0.7-3.6c0.8,0.4,2.4,1,4,1c1.7,0,3.6-0.9,3.6-3.1c0-2.1-1.5-3.4-5-3.4
			c-1,0-1.7,0.1-2.4,0.2l1.2-10.7h9.9V74.8z"/>
	</g>
</g>
<g>
	<g>
		<g enable-background="new    ">
			<g>
				<polygon fill="#7C5717" points="239.5,186.6 238.9,190 237,187.2 237.6,183.9 				"/>
			</g>
			<g>
				<polygon fill="#7C5717" points="233.4,188.6 232.8,192 230.9,189.2 231.5,185.9 				"/>
			</g>
			<g enable-background="new    ">
				<defs>
					<path id="SVGID_1_" enable-background="new    " d="M245.5,190.2l-0.6,3.4c-1-0.1-2.3,0.2-4.1,0.8l0.6-3.4
						C243.1,190.3,244.5,190.1,245.5,190.2z"/>
				</defs>
				<clipPath id="SVGID_2_">
					<use xlink:href="#SVGID_1_"  overflow="visible"/>
				</clipPath>
				<g clip-path="url(#SVGID_2_)" enable-background="new    ">
					<path fill="#8A6119" d="M245.5,190.2l-0.6,3.4c0,0,0,0,0,0L245.5,190.2C245.4,190.2,245.4,190.2,245.5,190.2"/>
					<path fill="#8F651A" d="M245.4,190.2l-0.6,3.4c-0.3,0-0.7,0-1,0l0.6-3.4C244.7,190.1,245.1,190.1,245.4,190.2"/>
					<path fill="#94681B" d="M244.4,190.2l-0.6,3.4c-0.8,0.1-1.8,0.3-3,0.7l0.6-3.4C242.5,190.5,243.5,190.3,244.4,190.2"/>
				</g>
			</g>
			<g enable-background="new    ">
				<defs>
					<path id="SVGID_3_" enable-background="new    " d="M254.6,192.2l-0.6,3.4c-0.1,0.4-0.2,0.7-0.4,1.1l0.6-3.4
						C254.4,192.9,254.5,192.6,254.6,192.2z"/>
				</defs>
				<clipPath id="SVGID_4_">
					<use xlink:href="#SVGID_3_"  overflow="visible"/>
				</clipPath>
				<g clip-path="url(#SVGID_4_)" enable-background="new    ">
					<path fill="#8A6119" d="M254.6,192.2l-0.6,3.4c0,0.1,0,0.2-0.1,0.3l0.6-3.4C254.5,192.4,254.6,192.3,254.6,192.2"/>
					<path fill="#8F651A" d="M254.5,192.5l-0.6,3.4c-0.1,0.3-0.2,0.6-0.4,0.8l0.6-3.4C254.3,193,254.4,192.7,254.5,192.5"/>
				</g>
			</g>
			<g enable-background="new    ">
				<defs>
					<path id="SVGID_5_" enable-background="new    " d="M248.4,193.2l-0.6,3.4c0.1-0.4-0.1-0.9-0.5-1.5c-0.7-0.9-1.5-1.4-2.4-1.5
						l0.6-3.4c1,0,1.8,0.6,2.4,1.5C248.3,192.2,248.5,192.7,248.4,193.2z"/>
				</defs>
				<clipPath id="SVGID_6_">
					<use xlink:href="#SVGID_5_"  overflow="visible"/>
				</clipPath>
				<g clip-path="url(#SVGID_6_)" enable-background="new    ">
					<path fill="#805A17" d="M248.4,193.2l-0.6,3.4c0.1-0.4-0.1-0.9-0.5-1.5c-0.4-0.6-1-1.1-1.5-1.3l0.6-3.4
						c0.6,0.2,1.1,0.7,1.5,1.3C248.3,192.2,248.5,192.7,248.4,193.2"/>
					<path fill="#855E18" d="M246.3,190.3l-0.6,3.4c-0.1-0.1-0.3-0.1-0.4-0.1l0.6-3.4C246.1,190.2,246.2,190.3,246.3,190.3"/>
					<path fill="#8A6119" d="M245.9,190.2l-0.6,3.4c-0.1,0-0.3,0-0.4-0.1l0.6-3.4C245.6,190.2,245.8,190.2,245.9,190.2"/>
					<path fill="#8F651A" d="M245.5,190.2l-0.6,3.4c0,0,0,0,0,0L245.5,190.2C245.5,190.2,245.5,190.2,245.5,190.2"/>
				</g>
			</g>
			<g enable-background="new    ">
				<defs>
					<path id="SVGID_7_" enable-background="new    " d="M254.1,193.3l-0.6,3.4c-0.3,0.4-0.5,0.7-0.6,0.8l0.6-3.4
						C253.7,194,253.9,193.7,254.1,193.3z"/>
				</defs>
				<clipPath id="SVGID_8_">
					<use xlink:href="#SVGID_7_"  overflow="visible"/>
				</clipPath>
				<g clip-path="url(#SVGID_8_)" enable-background="new    ">
					<path fill="#8F651A" d="M254.1,193.3l-0.6,3.4c-0.1,0.1-0.2,0.3-0.2,0.4l0.6-3.4C254,193.6,254.1,193.4,254.1,193.3"/>
					<path fill="#94681B" d="M253.9,193.7l-0.6,3.4c-0.1,0.2-0.3,0.4-0.3,0.5l0.6-3.4C253.6,194,253.8,193.9,253.9,193.7"/>
				</g>
			</g>
			<g>
				<polygon fill="#A2731E" points="241.4,190.9 240.7,194.3 237.8,195.2 238.5,191.9 				"/>
			</g>
			<g enable-background="new    ">
				<defs>
					<path id="SVGID_9_" enable-background="new    " d="M253.6,194.1l-0.6,3.4c-0.1,0.1-0.4,0.4-0.7,0.7l0.6-3.4
						C253.2,194.5,253.4,194.3,253.6,194.1z"/>
				</defs>
				<clipPath id="SVGID_10_">
					<use xlink:href="#SVGID_9_"  overflow="visible"/>
				</clipPath>
				<g clip-path="url(#SVGID_10_)" enable-background="new    ">
					<path fill="#94681B" d="M253.6,194.1l-0.6,3.4c-0.1,0.1-0.4,0.4-0.7,0.7l0.6-3.4C253.2,194.5,253.4,194.3,253.6,194.1"/>
				</g>
			</g>
			<g enable-background="new    ">
				<defs>
					<path id="SVGID_11_" enable-background="new    " d="M233.7,195.5l-0.6,3.4c-1.1-1.6-2.5-1.3-3.4-1l0.6-3.4
						C231.1,194.2,232.6,194,233.7,195.5z"/>
				</defs>
				<clipPath id="SVGID_12_">
					<use xlink:href="#SVGID_11_"  overflow="visible"/>
				</clipPath>
				<g clip-path="url(#SVGID_12_)" enable-background="new    ">
					<path fill="#805A17" d="M233.7,195.5l-0.6,3.4c-0.4-0.6-0.8-0.9-1.3-1l0.6-3.4C232.8,194.6,233.3,195,233.7,195.5"/>
					<path fill="#855E18" d="M232.4,194.5l-0.6,3.4c-0.1,0-0.2-0.1-0.4-0.1l0.6-3.4C232.2,194.4,232.3,194.4,232.4,194.5"/>
					<path fill="#8A6119" d="M232,194.4l-0.6,3.4c-0.1,0-0.3,0-0.4-0.1l0.6-3.4C231.8,194.3,231.9,194.3,232,194.4"/>
					<path fill="#8F651A" d="M231.6,194.3l-0.6,3.4c-0.2,0-0.4,0-0.5,0l0.6-3.4C231.3,194.3,231.5,194.3,231.6,194.3"/>
					<path fill="#94681B" d="M231.1,194.3l-0.6,3.4c-0.3,0-0.6,0.1-0.9,0.2l0.6-3.4C230.5,194.4,230.8,194.4,231.1,194.3"/>
				</g>
			</g>
			<g enable-background="new    ">
				<defs>
					<path id="SVGID_13_" enable-background="new    " d="M278.3,204l-0.6,3.4c0.9-5.1-0.3-10.6-3.9-15.8c-9-12.9-29.7-19-46-13.7
						c-9.8,3.2-15.8,9.7-17.2,17.2l0.6-3.4c1.4-7.5,7.4-14.1,17.2-17.2c16.4-5.3,37,0.8,46,13.7C278,193.5,279.2,199,278.3,204z"/>
				</defs>
				<clipPath id="SVGID_14_">
					<use xlink:href="#SVGID_13_"  overflow="visible"/>
				</clipPath>
				<g clip-path="url(#SVGID_14_)" enable-background="new    ">
					<path fill="#293039" d="M278.3,204l-0.6,3.4c0.9-5.1-0.3-10.6-3.9-15.8c-3.8-5.4-9.7-9.7-16.5-12.4l0.6-3.4
						c6.8,2.7,12.7,6.9,16.5,12.4C278,193.5,279.2,199,278.3,204"/>
					<path fill="#2A323B" d="M257.9,175.9l-0.6,3.4c-2.4-0.9-4.9-1.7-7.4-2.2l0.6-3.4C253,174.2,255.5,175,257.9,175.9"/>
					<path fill="#2C343E" d="M250.5,173.7l-0.6,3.4c-2.3-0.5-4.7-0.8-7-0.9l0.6-3.4C245.8,172.9,248.2,173.2,250.5,173.7"/>
					<path fill="#2D3540" d="M243.4,172.7l-0.6,3.4c-2.6-0.1-5.2-0.1-7.7,0.2l0.6-3.4C238.3,172.7,240.9,172.6,243.4,172.7"/>
					<path fill="#2F3742" d="M235.7,173l-0.6,3.4c-2.5,0.3-5,0.8-7.4,1.6c-6.5,2.1-11.4,5.8-14.3,10.2l0.6-3.4
						c2.9-4.4,7.8-8.1,14.3-10.2C230.7,173.8,233.2,173.3,235.7,173"/>
					<path fill="#2D3540" d="M214,184.8l-0.6,3.4c-1.1,1.7-1.9,3.5-2.5,5.4l0.6-3.4C212.1,188.3,212.9,186.5,214,184.8"/>
					<path fill="#2C343E" d="M211.5,190.2l-0.6,3.4c-0.2,0.6-0.3,1.1-0.4,1.7l0.6-3.4C211.2,191.3,211.4,190.7,211.5,190.2"/>
				</g>
			</g>
			<g>
				<polygon fill="#A2731E" points="230.2,194.5 229.6,197.9 226.9,198.8 227.5,195.4 				"/>
			</g>
			<g>
				<polygon fill="#7C5717" points="227.5,195.4 226.9,198.8 224.1,194.8 224.7,191.4 				"/>
			</g>
			<g enable-background="new    ">
				<defs>
					<path id="SVGID_15_" enable-background="new    " d="M255.8,201.2l-0.6,3.4c0.1-0.5-0.1-1-0.5-1.6c-0.7-1-1.6-1.5-2.7-1.5
						c-1.1,0-2.7,0.3-4.7,0.9l0.6-3.4c2-0.7,3.6-1,4.7-0.9c1.1,0,2,0.5,2.7,1.5C255.7,200.2,255.9,200.7,255.8,201.2z"/>
				</defs>
				<clipPath id="SVGID_16_">
					<use xlink:href="#SVGID_15_"  overflow="visible"/>
				</clipPath>
				<g clip-path="url(#SVGID_16_)" enable-background="new    ">
					<path fill="#805A17" d="M255.8,201.2l-0.6,3.4c0.1-0.5-0.1-1-0.5-1.6c-0.4-0.6-0.9-1-1.5-1.3l0.6-3.4c0.6,0.2,1.1,0.7,1.5,1.3
						C255.7,200.2,255.9,200.7,255.8,201.2"/>
					<path fill="#855E18" d="M253.7,198.3l-0.6,3.4c-0.2-0.1-0.3-0.1-0.5-0.1l0.6-3.4C253.4,198.2,253.6,198.2,253.7,198.3"/>
					<path fill="#8A6119" d="M253.3,198.1l-0.6,3.4c-0.2,0-0.3-0.1-0.5-0.1l0.6-3.4C252.9,198.1,253.1,198.1,253.3,198.1"/>
					<path fill="#8F651A" d="M252.7,198.1l-0.6,3.4c-0.1,0-0.1,0-0.2,0c-0.3,0-0.7,0-1,0.1l0.6-3.4c0.4,0,0.7-0.1,1-0.1
						C252.6,198.1,252.7,198.1,252.7,198.1"/>
					<path fill="#94681B" d="M251.5,198.1l-0.6,3.4c-1,0.1-2.2,0.4-3.7,0.9l0.6-3.4C249.3,198.5,250.5,198.3,251.5,198.1"/>
				</g>
			</g>
			<g>
				<polygon fill="#A2731E" points="247.8,199 247.2,202.4 243.7,203.5 244.3,200.2 				"/>
			</g>
			<g enable-background="new    ">
				<defs>
					<path id="SVGID_17_" enable-background="new    " d="M262.9,202.1l-0.6,3.4c0,0.2-0.1,0.4-0.1,0.6c-0.5,1.6-2.3,3-5.4,4.1
						l0.6-3.4c3.1-1.1,4.9-2.5,5.4-4.1C262.8,202.5,262.8,202.3,262.9,202.1z"/>
				</defs>
				<clipPath id="SVGID_18_">
					<use xlink:href="#SVGID_17_"  overflow="visible"/>
				</clipPath>
				<g clip-path="url(#SVGID_18_)" enable-background="new    ">
					<path fill="#8A6119" d="M262.9,202.1l-0.6,3.4c0,0.2-0.1,0.3-0.1,0.5l0.6-3.4C262.8,202.4,262.9,202.2,262.9,202.1"/>
					<path fill="#8F651A" d="M262.8,202.5l-0.6,3.4c0,0,0,0.1,0,0.1c-0.1,0.3-0.2,0.6-0.4,0.9l0.6-3.4c0.2-0.3,0.3-0.6,0.4-0.9
						C262.7,202.6,262.8,202.6,262.8,202.5"/>
					<path fill="#94681B" d="M262.3,203.6l-0.6,3.4c-0.8,1.2-2.5,2.3-5,3.2l0.6-3.4C259.8,205.9,261.5,204.8,262.3,203.6"/>
				</g>
			</g>
			<g>
				<polygon fill="#7C5717" points="240.5,205.3 239.9,208.7 233,198.9 233.7,195.5 				"/>
			</g>
			<g enable-background="new    ">
				<defs>
					<path id="SVGID_19_" enable-background="new    " d="M240.9,206.6l-0.6,3.4c0.1-0.3,0-0.7-0.4-1.3l0.6-3.4
						C240.9,205.8,241,206.3,240.9,206.6z"/>
				</defs>
				<clipPath id="SVGID_20_">
					<use xlink:href="#SVGID_19_"  overflow="visible"/>
				</clipPath>
				<g clip-path="url(#SVGID_20_)" enable-background="new    ">
					<path fill="#805A17" d="M240.9,206.6l-0.6,3.4c0.1-0.3,0-0.7-0.4-1.3l0.6-3.4C240.9,205.8,241,206.3,240.9,206.6"/>
				</g>
			</g>
			<g>
				<polygon fill="#A2731E" points="254.4,207.8 253.8,211.2 250.6,212.2 251.2,208.9 				"/>
			</g>
			<g>
				<polygon fill="#A2731E" points="259.3,209.6 258.6,212.9 255.7,213.9 256.3,210.5 				"/>
			</g>
			<g>
				<polygon fill="#7C5717" points="256.3,210.5 255.7,213.9 253.8,211.2 254.4,207.8 				"/>
			</g>
			<g>
				<polygon fill="#A2731E" points="248.3,209.8 247.6,213.2 243.9,214.4 244.5,211 				"/>
			</g>
			<g>
				<polygon fill="#7C5717" points="250.2,212.5 249.5,215.9 247.6,213.2 248.3,209.8 				"/>
			</g>
			<g>
				<polygon fill="#A2731E" points="253.1,211.6 252.5,214.9 249.5,215.9 250.2,212.5 				"/>
			</g>
			<g>
				<polygon fill="#A2731E" points="244.5,211 243.9,214.4 239,216 239.6,212.6 				"/>
			</g>
			<g>
				<polygon fill="#7C5717" points="239.6,212.6 239,216 236.2,212 236.8,208.6 				"/>
			</g>
			<g enable-background="new    ">
				<defs>
					<path id="SVGID_21_" enable-background="new    " d="M284.1,205.1l-0.6,3.4c-1.6,8.8-8.7,16.5-20.2,20.2
						c-19.2,6.2-43.4-1-53.9-16.1c-4.3-6.1-5.7-12.5-4.6-18.4l0.6-3.4c-1.1,5.9,0.3,12.4,4.6,18.4c10.6,15.1,34.8,22.3,53.9,16.1
						C275.4,221.6,282.5,213.9,284.1,205.1z"/>
				</defs>
				<clipPath id="SVGID_22_">
					<use xlink:href="#SVGID_21_"  overflow="visible"/>
				</clipPath>
				<g clip-path="url(#SVGID_22_)" enable-background="new    ">
					<path fill="#2C343E" d="M284.1,205.1l-0.6,3.4c-0.1,0.7-0.3,1.3-0.5,2l0.6-3.4C283.8,206.4,283.9,205.7,284.1,205.1"/>
					<path fill="#2D3540" d="M283.6,207l-0.6,3.4c-0.6,2.2-1.6,4.3-2.9,6.3l0.6-3.4C282,211.4,283,209.2,283.6,207"/>
					<path fill="#2F3742" d="M280.7,213.3l-0.6,3.4c-3.4,5.2-9.1,9.5-16.8,11.9c-2.8,0.9-5.7,1.5-8.6,1.9l0.6-3.4
						c2.9-0.4,5.8-1,8.6-1.9C271.6,222.8,277.3,218.5,280.7,213.3"/>
					<path fill="#2D3540" d="M255.3,227.2l-0.6,3.4c-3,0.4-6,0.4-9.1,0.3l0.6-3.4C249.2,227.6,252.3,227.5,255.3,227.2"/>
					<path fill="#2C343E" d="M246.2,227.4l-0.6,3.4c-2.8-0.2-5.5-0.5-8.2-1.1l0.6-3.4C240.7,226.9,243.4,227.3,246.2,227.4"/>
					<path fill="#2A323B" d="M238,226.3l-0.6,3.4c-3-0.6-5.9-1.5-8.7-2.6l0.6-3.4C232.1,224.8,235,225.7,238,226.3"/>
					<path fill="#293039" d="M229.3,223.7l-0.6,3.4c-7.9-3.1-14.9-8.1-19.3-14.5c-4.3-6.1-5.7-12.5-4.6-18.4l0.6-3.4
						c-1.1,5.9,0.3,12.4,4.6,18.4C214.5,215.6,221.4,220.6,229.3,223.7"/>
				</g>
			</g>
			<g>
				<path fill="#495667" d="M225.5,170.6c19.2-6.2,43.4,1,53.9,16.1c10.6,15.1,3.6,32.4-15.6,38.6c-19.2,6.2-43.4-1-53.9-16.1
					C199.4,194.1,206.4,176.8,225.5,170.6z M261.1,221.3c16.4-5.3,22.3-20.1,13.3-33c-9-12.9-29.7-19-46-13.7s-22.3,20.1-13.3,33
					C224.1,220.4,244.7,226.6,261.1,221.3"/>
			</g>
			<g>
				<path fill="#E7A32A" d="M258.1,195.3c1.6,0.6,2.9,1.5,3.8,2.9c1,1.5,1.3,3,0.8,4.5c-0.5,1.6-2.3,3-5.4,4.1l1.9,2.7l-2.9,1
					l-1.9-2.7l-3.2,1l1.9,2.7l-2.9,1l-1.9-2.7l-3.7,1.2l-4.9,1.6l-2.8-4l2.7-0.9c0.9-0.3,2.1-0.9,1-2.4l-6.9-9.8
					c-1.1-1.6-2.5-1.3-3.4-1l-2.7,0.9l-2.8-4l4.9-1.6l3.7-1.2l-1.9-2.7l2.9-1l1.9,2.7l3.2-1l-1.9-2.7l2.9-1l2,2.8
					c0.9-0.2,1.8-0.3,2.7-0.4c1.6-0.1,2.9,0.1,4,0.4c2,0.7,3.4,1.7,4.4,3.1c1.2,1.7,1.4,3.1,0.6,4.4c-0.3,0.4-0.5,0.7-0.6,0.8
					c-0.1,0.1-0.4,0.4-0.7,0.7C254.7,194.5,256.4,194.7,258.1,195.3z M255.4,202c0.6-0.6,0.6-1.4-0.1-2.4c-0.7-1-1.6-1.5-2.7-1.5
					c-1.1,0-2.7,0.3-4.7,0.9l-3.6,1.2l3.4,4.9l4.1-1.3C253.6,203.2,254.8,202.6,255.4,202 M238.5,191.9l3.2,4.6l2.9-0.9
					c1.7-0.5,2.8-1.1,3.4-1.6c0.6-0.5,0.6-1.3-0.1-2.2c-0.7-0.9-1.5-1.4-2.4-1.5c-1-0.1-2.3,0.2-4.1,0.8L238.5,191.9"/>
			</g>
		</g>
		<g enable-background="new    ">
			<g enable-background="new    ">
				<defs>
					<path id="SVGID_23_" enable-background="new    " d="M200.9,202.6l-0.6,3.4c-0.1,0.7-0.7,1.3-1.8,1.7c-8.2,2.7-16.4,5.3-24.6,8
						c-3,1-5.6-1.4-5.3-3.3l0.6-3.4c-0.3,1.9,2.3,4.3,5.3,3.3c8.2-2.7,16.4-5.3,24.6-8C200.2,204,200.7,203.3,200.9,202.6z"/>
				</defs>
				<clipPath id="SVGID_24_">
					<use xlink:href="#SVGID_23_"  overflow="visible"/>
				</clipPath>
				<g clip-path="url(#SVGID_24_)" enable-background="new    ">
					<path fill="#2C343E" d="M200.9,202.6l-0.6,3.4c0,0.1,0,0.1,0,0.2l0.6-3.4C200.8,202.7,200.8,202.7,200.9,202.6"/>
					<path fill="#2D3540" d="M200.8,202.8l-0.6,3.4c0,0.2-0.1,0.3-0.2,0.5l0.6-3.4C200.7,203.1,200.8,203,200.8,202.8"/>
					<path fill="#2F3742" d="M200.6,203.3l-0.6,3.4c-0.3,0.4-0.8,0.8-1.5,1c-8.2,2.7-16.4,5.3-24.6,8c-0.3,0.1-0.6,0.2-0.8,0.2
						l0.6-3.4c0.3,0,0.6-0.1,0.8-0.2c8.2-2.7,16.4-5.3,24.6-8C199.8,204.1,200.3,203.7,200.6,203.3"/>
					<path fill="#2D3540" d="M173.6,212.5l-0.6,3.4c-0.3,0-0.5,0-0.8,0l0.6-3.4C173,212.6,173.3,212.6,173.6,212.5"/>
					<path fill="#2C343E" d="M172.8,212.6l-0.6,3.4c-0.2,0-0.4,0-0.7-0.1l0.6-3.4C172.3,212.5,172.6,212.5,172.8,212.6"/>
					<path fill="#2A323B" d="M172.1,212.5l-0.6,3.4c-0.2-0.1-0.5-0.1-0.7-0.2l0.6-3.4C171.6,212.3,171.9,212.4,172.1,212.5"/>
					<path fill="#293039" d="M171.4,212.3l-0.6,3.4c-1.5-0.6-2.5-2-2.3-3.2l0.6-3.4C168.9,210.2,169.9,211.7,171.4,212.3"/>
				</g>
			</g>
			<g>
				<path fill="#495667" d="M195.5,199.3c4.1-1.3,7.6,3.7,3.5,5c-8.2,2.7-16.4,5.3-24.6,8c-4.1,1.3-7.6-3.7-3.5-5
					C179.1,204.7,187.3,202,195.5,199.3z"/>
			</g>
		</g>
		<g enable-background="new    ">
			<g enable-background="new    ">
				<defs>
					<path id="SVGID_25_" enable-background="new    " d="M204.6,213.5l-0.6,3.4c-0.1,0.7-0.7,1.3-1.8,1.7
						c-18.4,6-22.9,7.5-41.4,13.4c-3,1-5.7-1.4-5.3-3.3l0.6-3.4c-0.3,1.9,2.3,4.3,5.3,3.3c18.4-6,22.9-7.5,41.4-13.4
						C203.9,214.8,204.5,214.2,204.6,213.5z"/>
				</defs>
				<clipPath id="SVGID_26_">
					<use xlink:href="#SVGID_25_"  overflow="visible"/>
				</clipPath>
				<g clip-path="url(#SVGID_26_)" enable-background="new    ">
					<path fill="#2C343E" d="M204.6,213.5l-0.6,3.4c0,0.1,0,0.1,0,0.2l0.6-3.4C204.6,213.6,204.6,213.5,204.6,213.5"/>
					<path fill="#2D3540" d="M204.6,213.6L204,217c0,0.2-0.1,0.3-0.2,0.5l0.6-3.4C204.5,214,204.5,213.8,204.6,213.6"/>
					<path fill="#2F3742" d="M204.3,214.1l-0.6,3.4c-0.3,0.4-0.8,0.8-1.5,1c-18.4,6-22.9,7.5-41.4,13.4c-0.3,0.1-0.6,0.2-0.8,0.2
						l0.6-3.4c0.3,0,0.6-0.1,0.8-0.2c18.4-6,22.9-7.5,41.4-13.4C203.6,214.9,204.1,214.6,204.3,214.1"/>
					<path fill="#2D3540" d="M160.6,228.8l-0.6,3.4c-0.3,0-0.5,0-0.8,0l0.6-3.4C160.1,228.8,160.3,228.8,160.6,228.8"/>
					<path fill="#2C343E" d="M159.8,228.8l-0.6,3.4c-0.2,0-0.4,0-0.7-0.1l0.6-3.4C159.4,228.8,159.6,228.8,159.8,228.8"/>
					<path fill="#2A323B" d="M159.2,228.7l-0.6,3.4c-0.2-0.1-0.5-0.1-0.7-0.2l0.6-3.4C158.7,228.6,158.9,228.7,159.2,228.7"/>
					<path fill="#293039" d="M158.4,228.5l-0.6,3.4c-1.5-0.6-2.5-2-2.3-3.2l0.6-3.4C155.9,226.5,156.9,227.9,158.4,228.5"/>
				</g>
			</g>
			<g>
				<path fill="#495667" d="M199.3,210.2c4.1-1.3,7.6,3.7,3.5,5c-18.4,6-22.9,7.5-41.4,13.4c-4.1,1.3-7.6-3.7-3.5-5
					C176.4,217.6,180.9,216.2,199.3,210.2z"/>
			</g>
		</g>
		<g enable-background="new    ">
			<g enable-background="new    ">
				<defs>
					<path id="SVGID_27_" enable-background="new    " d="M214.2,222.3l-0.6,3.4c-0.1,0.7-0.7,1.3-1.8,1.7c-8.2,2.7-16.4,5.3-24.6,8
						c-3,1-5.7-1.4-5.3-3.3l0.6-3.4c-0.3,1.9,2.3,4.3,5.3,3.3c8.2-2.7,16.4-5.3,24.6-8C213.5,223.6,214,223,214.2,222.3z"/>
				</defs>
				<clipPath id="SVGID_28_">
					<use xlink:href="#SVGID_27_"  overflow="visible"/>
				</clipPath>
				<g clip-path="url(#SVGID_28_)" enable-background="new    ">
					<path fill="#2C343E" d="M214.2,222.3l-0.6,3.4c0,0.1,0,0.1,0,0.2l0.6-3.4C214.1,222.4,214.2,222.3,214.2,222.3"/>
					<path fill="#2D3540" d="M214.1,222.4l-0.6,3.4c0,0.2-0.1,0.3-0.2,0.5l0.6-3.4C214,222.8,214.1,222.6,214.1,222.4"/>
					<path fill="#2F3742" d="M213.9,223l-0.6,3.4c-0.3,0.4-0.8,0.8-1.5,1c-8.2,2.7-16.4,5.3-24.6,8c-0.3,0.1-0.6,0.2-0.8,0.2
						l0.6-3.4c0.3,0,0.6-0.1,0.8-0.2c8.2-2.7,16.4-5.3,24.6-8C213.1,223.7,213.6,223.4,213.9,223"/>
					<path fill="#2D3540" d="M186.9,232.2l-0.6,3.4c-0.3,0-0.5,0-0.8,0l0.6-3.4C186.4,232.2,186.6,232.2,186.9,232.2"/>
					<path fill="#2C343E" d="M186.1,232.2l-0.6,3.4c-0.2,0-0.4,0-0.7-0.1l0.6-3.4C185.7,232.2,185.9,232.2,186.1,232.2"/>
					<path fill="#2A323B" d="M185.5,232.1l-0.6,3.4c-0.2-0.1-0.5-0.1-0.7-0.2l0.6-3.4C185,232,185.2,232.1,185.5,232.1"/>
					<path fill="#293039" d="M184.7,231.9l-0.6,3.4c-1.5-0.6-2.5-2-2.3-3.2l0.6-3.4C182.2,229.9,183.2,231.3,184.7,231.9"/>
				</g>
			</g>
			<g>
				<path fill="#495667" d="M208.9,219c4.1-1.3,7.6,3.7,3.5,5c-8.2,2.7-16.4,5.3-24.6,8c-4.1,1.3-7.6-3.7-3.5-5
					C192.4,224.3,200.7,221.6,208.9,219z"/>
			</g>
		</g>
	</g>
</g>
</svg>
