<?xml version="1.0" encoding="utf-8"?>
<!-- Generator: Adobe Illustrator 19.0.0, SVG Export Plug-In . SVG Version: 6.00 Build 0)  -->
<svg version="1.1" id="Layer_1" xmlns="http://www.w3.org/2000/svg" xmlns:xlink="http://www.w3.org/1999/xlink" x="0px" y="0px"
	 viewBox="0 0 108.5 125.7" enable-background="new 0 0 108.5 125.7" xml:space="preserve">
<g id="XMLID_602_">
	<polygon id="XMLID_598_" fill="#E1E6E9" points="12.1,116.5 9,113.7 36.8,82.8 72.2,82.8 96.2,45.2 99.7,47.4 74.5,87 38.6,87 	"/>
	<circle id="XMLID_597_" fill="#27A2DB" cx="10.6" cy="115.1" r="10.6"/>
	<path id="XMLID_596_" fill="#EBF0F3" d="M3.7,115.5l7.5-7.3c0.3-0.3,0.1-0.8-0.3-0.8c-2.4,0-8.1,0.8-8,7.8
		C3,115.6,3.4,115.8,3.7,115.5z"/>
	<circle id="XMLID_595_" fill="#27A2DB" cx="73.4" cy="84.9" r="10.6"/>
	<path id="XMLID_594_" fill="#EBF0F3" d="M66.5,85.3l7.5-7.3c0.3-0.3,0.1-0.8-0.3-0.8c-2.4,0-8.1,0.8-8,7.8
		C65.8,85.3,66.2,85.5,66.5,85.3z"/>
	<circle id="XMLID_593_" fill="#44C4A1" cx="97.9" cy="46.3" r="10.6"/>
	<path id="XMLID_592_" fill="#EBF0F3" d="M91.1,46.7l7.5-7.3c0.3-0.3,0.1-0.8-0.3-0.8c-2.4,0-8.1,0.8-8,7.8
		C90.3,46.8,90.8,46.9,91.1,46.7z"/>
	<circle id="XMLID_591_" fill="#44C4A1" cx="37.7" cy="84.9" r="10.6"/>
	<path id="XMLID_590_" fill="#EBF0F3" d="M30.9,85.3l7.5-7.3c0.3-0.3,0.1-0.8-0.3-0.8c-2.4,0-8.1,0.8-8,7.8
		C30.1,85.3,30.6,85.5,30.9,85.3z"/>
	<circle id="XMLID_586_" fill="#F6C358" cx="46.7" cy="33.3" r="33.3"/>
	<circle id="XMLID_461_" fill="#FCD462" cx="46.7" cy="33.3" r="28.4"/>
	<path id="XMLID_612_" fill="#F6C358" d="M46.7,58.1c-1.6,0-3.3-0.2-4.8-0.5l0.4-1.9c1.5,0.3,3,0.4,4.4,0.4l0,1.7L46.7,58.1
		C46.7,58.1,46.7,58.1,46.7,58.1z M51.6,57.6l-0.4-1.9c1.5-0.3,2.9-0.7,4.3-1.3l0.7,1.8C54.7,56.8,53.2,57.3,51.6,57.6z M37.2,56.2
		c-1.5-0.6-2.9-1.4-4.3-2.3l1.1-1.6c1.2,0.8,2.6,1.5,4,2.1L37.2,56.2z M60.5,53.9l-1.1-1.6c1.2-0.8,2.4-1.8,3.5-2.9l1.4,1.3
		C63.1,52,61.9,53,60.5,53.9z M29.2,50.9c-1.1-1.1-2.2-2.4-3.1-3.8l1.6-1.1c0.8,1.2,1.8,2.4,2.9,3.5L29.2,50.9z M67.4,47.1L65.8,46
		c0.8-1.2,1.5-2.6,2.1-4l1.8,0.7C69,44.3,68.3,45.7,67.4,47.1z M23.8,42.8c-0.6-1.5-1.1-3.1-1.4-4.7l1.9-0.4
		c0.3,1.5,0.7,2.9,1.3,4.3L23.8,42.8z M71.1,38.1l-1.9-0.4c0.3-1.5,0.4-3,0.4-4.5v-0.1h1.9v0.1C71.5,34.9,71.4,36.5,71.1,38.1z
		 M21.9,33.3L21.9,33.3c0-1.7,0.2-3.3,0.5-4.8l1.9,0.4c-0.3,1.4-0.4,2.9-0.4,4.4L21.9,33.3z M69.2,28.7c-0.3-1.5-0.7-2.9-1.3-4.3
		l1.8-0.7c0.6,1.5,1.1,3.1,1.4,4.7L69.2,28.7z M25.5,24.5l-1.8-0.7c0.6-1.5,1.4-2.9,2.3-4.3l1.6,1.1C26.8,21.8,26.1,23.2,25.5,24.5z
		 M65.7,20.5c-0.8-1.2-1.8-2.4-2.9-3.5l1.3-1.4c1.2,1.1,2.2,2.4,3.1,3.7L65.7,20.5z M30.4,17.1l-1.4-1.3c1.1-1.2,2.4-2.2,3.8-3.1
		l1.1,1.6C32.7,15.1,31.5,16,30.4,17.1z M59.4,14.2c-1.2-0.8-2.6-1.5-4-2.1l0.7-1.8c1.5,0.6,2.9,1.4,4.3,2.3L59.4,14.2z M37.9,12.1
		l-0.7-1.8c1.5-0.6,3.1-1.1,4.7-1.4l0.4,1.9C40.7,11.1,39.2,11.5,37.9,12.1z M51.1,10.8c-1.4-0.3-2.9-0.4-4.4-0.4L46.6,9l0-0.6
		c1.6,0,3.2,0.2,4.8,0.5L51.1,10.8z"/>
	<path id="XMLID_607_" fill="#DC8744" d="M52.5,33.3c2-1.5,3.2-3.9,3.2-6.4c0-4.4-3.6-8.1-8.1-8.1h-0.9v-3.3h-1.7v3.3h-1.9v-3.3
		h-1.7v3.3h-1.7h-2.1v3.3h2.1v9.5h-2.1v3.3h2.1v9.5h-2.1v3.3h2.1h1.7v3.3h1.7v-3.3h1.9v3.3h1.7v-3.3h0.9c4.4,0,8.1-3.6,8.1-8.1
		C55.7,37.1,54.5,34.8,52.5,33.3z M47.7,44.4h-4.5v-9.5h4.5c2.6,0,4.7,2.1,4.7,4.7C52.4,42.3,50.3,44.4,47.7,44.4z M47.7,31.6h-4.5
		v-9.5h4.5c2.6,0,4.7,2.1,4.7,4.7S50.3,31.6,47.7,31.6z"/>
</g>
</svg>
