<?xml version="1.0" encoding="utf-8"?>
<!-- Generator: Adobe Illustrator 19.0.0, SVG Export Plug-In . SVG Version: 6.00 Build 0)  -->
<svg version="1.1" id="Layer_1" xmlns="http://www.w3.org/2000/svg" xmlns:xlink="http://www.w3.org/1999/xlink" x="0px" y="0px"
	 viewBox="0 0 65.9 106.6" enable-background="new 0 0 65.9 106.6" xml:space="preserve">
<g id="XMLID_713_">
	<g id="XMLID_818_">
		<path id="XMLID_712_" fill="#E1E6E9" d="M65.9,9.3H0V4.3C0,1.9,1.9,0,4.3,0h57.3c2.4,0,4.3,1.9,4.3,4.3V9.3z"/>
		<path id="XMLID_711_" fill="#E1E6E9" d="M61.6,106.6H4.3c-2.4,0-4.3-1.9-4.3-4.3V90.9h65.9v11.5C65.9,104.7,64,106.6,61.6,106.6z"
			/>
	</g>
	<rect id="XMLID_710_" x="0" y="9.3" fill="#27A2DB" width="65.9" height="81.5"/>
	<g id="XMLID_814_">
		<circle id="XMLID_709_" fill="#64798A" cx="32.9" cy="98.8" r="5.7"/>
		<path id="XMLID_708_" fill="#64798A" d="M44.4,5.8h-23c-0.6,0-1.1-0.5-1.1-1.1V4.6c0-0.6,0.5-1.1,1.1-1.1h23
			c0.6,0,1.1,0.5,1.1,1.1v0.2C45.5,5.4,45,5.8,44.4,5.8z"/>
	</g>
	<path id="XMLID_811_" fill="#1C75A1" d="M32.9,69.5c-10.7,0-19.4-8.7-19.4-19.4c0-10.7,8.7-19.4,19.4-19.4
		c10.7,0,19.4,8.7,19.4,19.4C52.4,60.8,43.6,69.5,32.9,69.5z M32.9,33c-9.4,0-17.1,7.7-17.1,17.1c0,9.4,7.7,17.1,17.1,17.1
		c9.4,0,17.1-7.7,17.1-17.1C50,40.7,42.3,33,32.9,33z"/>
	<circle id="XMLID_705_" fill="#F6C358" cx="32.9" cy="32.4" r="9"/>
	<circle id="XMLID_704_" fill="#FCD462" cx="32.9" cy="32.4" r="7.7"/>
	<path id="XMLID_790_" fill="#F6C358" d="M32.9,39.2c-0.4,0-0.9,0-1.3-0.1l0.1-0.5c0.4,0.1,0.8,0.1,1.2,0.1L32.9,39.2L32.9,39.2
		L32.9,39.2L32.9,39.2z M34.3,39l-0.1-0.5c0.4-0.1,0.8-0.2,1.2-0.4l0.2,0.5C35.1,38.8,34.7,38.9,34.3,39z M30.4,38.6
		c-0.4-0.2-0.8-0.4-1.2-0.6l0.3-0.4c0.3,0.2,0.7,0.4,1.1,0.6L30.4,38.6z M36.7,38l-0.3-0.4c0.3-0.2,0.7-0.5,0.9-0.8l0.4,0.4
		C37.4,37.5,37,37.8,36.7,38z M28.2,37.2c-0.3-0.3-0.6-0.7-0.8-1l0.4-0.3c0.2,0.3,0.5,0.7,0.8,0.9L28.2,37.2z M38.5,36.2l-0.4-0.3
		c0.2-0.3,0.4-0.7,0.6-1.1l0.5,0.2C39,35.4,38.8,35.8,38.5,36.2z M26.7,35c-0.2-0.4-0.3-0.8-0.4-1.3l0.5-0.1
		c0.1,0.4,0.2,0.8,0.4,1.2L26.7,35z M39.5,33.7L39,33.6c0.1-0.4,0.1-0.8,0.1-1.2v0h0.5v0C39.7,32.9,39.6,33.3,39.5,33.7z M26.2,32.5
		L26.2,32.5c0-0.4,0-0.9,0.1-1.3l0.5,0.1c-0.1,0.4-0.1,0.8-0.1,1.2L26.2,32.5z M39,31.2c-0.1-0.4-0.2-0.8-0.4-1.2l0.5-0.2
		c0.2,0.4,0.3,0.8,0.4,1.3L39,31.2z M27.2,30.1l-0.5-0.2c0.2-0.4,0.4-0.8,0.6-1.2l0.4,0.3C27.5,29.3,27.4,29.7,27.2,30.1z M38.1,29
		c-0.2-0.3-0.5-0.7-0.8-0.9l0.4-0.4c0.3,0.3,0.6,0.7,0.8,1L38.1,29z M28.5,28.1l-0.4-0.4c0.3-0.3,0.7-0.6,1-0.8l0.3,0.4
		C29.1,27.5,28.8,27.8,28.5,28.1z M36.4,27.3c-0.3-0.2-0.7-0.4-1.1-0.6l0.2-0.5c0.4,0.2,0.8,0.4,1.2,0.6L36.4,27.3z M30.5,26.7
		l-0.2-0.5c0.4-0.2,0.8-0.3,1.3-0.4l0.1,0.5C31.3,26.4,30.9,26.6,30.5,26.7z M34.1,26.4c-0.4-0.1-0.8-0.1-1.2-0.1l0-0.4l0-0.2
		c0.4,0,0.9,0,1.3,0.1L34.1,26.4z"/>
	<path id="XMLID_784_" fill="#DC8744" d="M34.5,32.4c0.5-0.4,0.9-1,0.9-1.7c0-1.2-1-2.2-2.2-2.2h-0.2v-0.9h-0.4v0.9H32v-0.9h-0.4
		v0.9h-0.4h-0.6v0.9h0.6V32h-0.6v0.9h0.6v2.6h-0.6v0.9h0.6h0.4v0.9H32v-0.9h0.5v0.9h0.4v-0.9h0.2c1.2,0,2.2-1,2.2-2.2
		C35.4,33.5,35.1,32.9,34.5,32.4z M33.2,35.4H32v-2.6h1.2c0.7,0,1.3,0.6,1.3,1.3S33.9,35.4,33.2,35.4z M33.2,32H32v-2.6h1.2
		c0.7,0,1.3,0.6,1.3,1.3S33.9,32,33.2,32z"/>
	<circle id="XMLID_683_" fill="#F6C358" cx="32.9" cy="67.8" r="9"/>
	<circle id="XMLID_682_" fill="#FCD462" cx="32.9" cy="67.8" r="7.7"/>
	<path id="XMLID_765_" fill="#F6C358" d="M32.9,74.5c-0.4,0-0.9,0-1.3-0.1l0.1-0.5c0.4,0.1,0.8,0.1,1.2,0.1L32.9,74.5L32.9,74.5
		L32.9,74.5L32.9,74.5z M34.3,74.4l-0.1-0.5c0.4-0.1,0.8-0.2,1.2-0.4l0.2,0.5C35.1,74.1,34.7,74.3,34.3,74.4z M30.4,74
		c-0.4-0.2-0.8-0.4-1.2-0.6l0.3-0.4c0.3,0.2,0.7,0.4,1.1,0.6L30.4,74z M36.7,73.4l-0.3-0.4c0.3-0.2,0.7-0.5,0.9-0.8l0.4,0.4
		C37.4,72.8,37,73.1,36.7,73.4z M28.2,72.5c-0.3-0.3-0.6-0.7-0.8-1l0.4-0.3c0.2,0.3,0.5,0.7,0.8,0.9L28.2,72.5z M38.5,71.5l-0.4-0.3
		c0.2-0.3,0.4-0.7,0.6-1.1l0.5,0.2C39,70.7,38.8,71.1,38.5,71.5z M26.7,70.4c-0.2-0.4-0.3-0.8-0.4-1.3l0.5-0.1
		c0.1,0.4,0.2,0.8,0.4,1.2L26.7,70.4z M39.5,69.1L39,69c0.1-0.4,0.1-0.8,0.1-1.2v0h0.5v0C39.7,68.2,39.6,68.7,39.5,69.1z M26.2,67.8
		L26.2,67.8c0-0.4,0-0.9,0.1-1.3l0.5,0.1c-0.1,0.4-0.1,0.8-0.1,1.2L26.2,67.8z M39,66.5c-0.1-0.4-0.2-0.8-0.4-1.2l0.5-0.2
		c0.2,0.4,0.3,0.8,0.4,1.3L39,66.5z M27.2,65.4l-0.5-0.2c0.2-0.4,0.4-0.8,0.6-1.2l0.4,0.3C27.5,64.7,27.4,65,27.2,65.4z M38.1,64.3
		c-0.2-0.3-0.5-0.7-0.8-0.9l0.4-0.4c0.3,0.3,0.6,0.7,0.8,1L38.1,64.3z M28.5,63.4L28.2,63c0.3-0.3,0.7-0.6,1-0.8l0.3,0.4
		C29.1,62.9,28.8,63.1,28.5,63.4z M36.4,62.6c-0.3-0.2-0.7-0.4-1.1-0.6l0.2-0.5c0.4,0.2,0.8,0.4,1.2,0.6L36.4,62.6z M30.5,62
		l-0.2-0.5c0.4-0.2,0.8-0.3,1.3-0.4l0.1,0.5C31.3,61.8,30.9,61.9,30.5,62z M34.1,61.7c-0.4-0.1-0.8-0.1-1.2-0.1l0-0.4l0-0.2
		c0.4,0,0.9,0,1.3,0.1L34.1,61.7z"/>
	<path id="XMLID_761_" fill="#DC8744" d="M34.5,67.8c0.5-0.4,0.9-1,0.9-1.7c0-1.2-1-2.2-2.2-2.2h-0.2V63h-0.4v0.9H32V63h-0.4v0.9
		h-0.4h-0.6v0.9h0.6v2.6h-0.6v0.9h0.6v2.6h-0.6v0.9h0.6h0.4v0.9H32v-0.9h0.5v0.9h0.4v-0.9h0.2c1.2,0,2.2-1,2.2-2.2
		C35.4,68.8,35.1,68.2,34.5,67.8z M33.2,70.8H32v-2.6h1.2c0.7,0,1.3,0.6,1.3,1.3S33.9,70.8,33.2,70.8z M33.2,67.3H32v-2.6h1.2
		c0.7,0,1.3,0.6,1.3,1.3C34.5,66.7,33.9,67.3,33.2,67.3z"/>
	<g id="XMLID_758_" transform="matrix(0.77196 -0.63567 0.63567 0.77196 -18.11 26.998)">
		
			<ellipse id="XMLID_662_" transform="matrix(-0.772 -0.6357 0.6357 -0.772 -5.1947 76.2396)" fill="#F6C358" cx="11.1" cy="39.1" rx="9" ry="9"/>
		
			<ellipse id="XMLID_661_" transform="matrix(-0.772 -0.6357 0.6357 -0.772 -5.1947 76.2396)" fill="#FCD462" cx="11.1" cy="39.1" rx="7.7" ry="7.7"/>
	</g>
	<path id="XMLID_741_" fill="#F6C358" d="M15.3,56.8c-0.4,0-0.9,0-1.3-0.1l0.1-0.5c0.4,0.1,0.8,0.1,1.2,0.1L15.3,56.8L15.3,56.8
		L15.3,56.8L15.3,56.8z M16.6,56.7l-0.1-0.5c0.4-0.1,0.8-0.2,1.2-0.4l0.2,0.5C17.4,56.5,17,56.6,16.6,56.7z M12.7,56.3
		c-0.4-0.2-0.8-0.4-1.2-0.6l0.3-0.4c0.3,0.2,0.7,0.4,1.1,0.6L12.7,56.3z M19,55.7l-0.3-0.4c0.3-0.2,0.7-0.5,0.9-0.8l0.4,0.4
		C19.7,55.2,19.4,55.4,19,55.7z M10.5,54.9c-0.3-0.3-0.6-0.7-0.8-1l0.4-0.3c0.2,0.3,0.5,0.7,0.8,0.9L10.5,54.9z M20.9,53.8l-0.4-0.3
		c0.2-0.3,0.4-0.7,0.6-1.1l0.5,0.2C21.3,53.1,21.1,53.5,20.9,53.8z M9.1,52.7c-0.2-0.4-0.3-0.8-0.4-1.3l0.5-0.1
		c0.1,0.4,0.2,0.8,0.4,1.2L9.1,52.7z M21.9,51.4l-0.5-0.1c0.1-0.4,0.1-0.8,0.1-1.2v0H22v0C22,50.5,21.9,51,21.9,51.4z M8.6,50.1
		L8.6,50.1c0-0.4,0-0.9,0.1-1.3l0.5,0.1c-0.1,0.4-0.1,0.8-0.1,1.2L8.6,50.1z M21.3,48.9c-0.1-0.4-0.2-0.8-0.4-1.2l0.5-0.2
		c0.2,0.4,0.3,0.8,0.4,1.3L21.3,48.9z M9.5,47.7l-0.5-0.2c0.2-0.4,0.4-0.8,0.6-1.2l0.4,0.3C9.9,47,9.7,47.4,9.5,47.7z M20.4,46.6
		c-0.2-0.3-0.5-0.7-0.8-0.9l0.4-0.4c0.3,0.3,0.6,0.7,0.8,1L20.4,46.6z M10.9,45.7l-0.4-0.4c0.3-0.3,0.7-0.6,1-0.8l0.3,0.4
		C11.5,45.2,11.2,45.4,10.9,45.7z M18.7,44.9c-0.3-0.2-0.7-0.4-1.1-0.6l0.2-0.5c0.4,0.2,0.8,0.4,1.2,0.6L18.7,44.9z M12.9,44.4
		l-0.2-0.5c0.4-0.2,0.8-0.3,1.3-0.4L14,44C13.6,44.1,13.3,44.2,12.9,44.4z M16.5,44c-0.4-0.1-0.8-0.1-1.2-0.1l0-0.4l0-0.2
		c0.4,0,0.9,0,1.3,0.1L16.5,44z"/>
	<path id="XMLID_737_" fill="#DC8744" d="M16.8,50.1c0.5-0.4,0.9-1,0.9-1.7c0-1.2-1-2.2-2.2-2.2h-0.2v-0.9h-0.4v0.9h-0.5v-0.9h-0.4
		v0.9h-0.4h-0.6v0.9h0.6v2.6h-0.6v0.9h0.6v2.6h-0.6V54h0.6h0.4v0.9h0.4V54h0.5v0.9h0.4V54h0.2c1.2,0,2.2-1,2.2-2.2
		C17.7,51.1,17.4,50.5,16.8,50.1z M15.5,53.1h-1.2v-2.6h1.2c0.7,0,1.3,0.6,1.3,1.3C16.8,52.5,16.2,53.1,15.5,53.1z M15.5,49.7h-1.2
		v-2.6h1.2c0.7,0,1.3,0.6,1.3,1.3C16.8,49.1,16.2,49.7,15.5,49.7z"/>
	<ellipse id="XMLID_641_" fill="#F6C358" cx="50.6" cy="50.1" rx="9" ry="9"/>
	<ellipse id="XMLID_640_" fill="#FCD462" cx="50.6" cy="50.1" rx="7.7" ry="7.7"/>
	<path id="XMLID_718_" fill="#F6C358" d="M50.6,56.8c-0.4,0-0.9,0-1.3-0.1l0.1-0.5c0.4,0.1,0.8,0.1,1.2,0.1L50.6,56.8L50.6,56.8
		L50.6,56.8L50.6,56.8z M51.9,56.7l-0.1-0.5c0.4-0.1,0.8-0.2,1.2-0.4l0.2,0.5C52.8,56.5,52.3,56.6,51.9,56.7z M48,56.3
		c-0.4-0.2-0.8-0.4-1.2-0.6l0.3-0.4c0.3,0.2,0.7,0.4,1.1,0.6L48,56.3z M54.3,55.7L54,55.3c0.3-0.2,0.7-0.5,0.9-0.8l0.4,0.4
		C55,55.2,54.7,55.4,54.3,55.7z M45.9,54.9c-0.3-0.3-0.6-0.7-0.8-1l0.4-0.3c0.2,0.3,0.5,0.7,0.8,0.9L45.9,54.9z M56.2,53.8l-0.4-0.3
		c0.2-0.3,0.4-0.7,0.6-1.1l0.5,0.2C56.6,53.1,56.4,53.5,56.2,53.8z M44.4,52.7c-0.2-0.4-0.3-0.8-0.4-1.3l0.5-0.1
		c0.1,0.4,0.2,0.8,0.4,1.2L44.4,52.7z M57.2,51.4l-0.5-0.1c0.1-0.4,0.1-0.8,0.1-1.2v0h0.5v0C57.3,50.5,57.3,51,57.2,51.4z
		 M43.9,50.1L43.9,50.1c0-0.4,0-0.9,0.1-1.3l0.5,0.1c-0.1,0.4-0.1,0.8-0.1,1.2L43.9,50.1z M56.7,48.9c-0.1-0.4-0.2-0.8-0.4-1.2
		l0.5-0.2c0.2,0.4,0.3,0.8,0.4,1.3L56.7,48.9z M44.9,47.7l-0.5-0.2c0.2-0.4,0.4-0.8,0.6-1.2l0.4,0.3C45.2,47,45,47.4,44.9,47.7z
		 M55.7,46.6c-0.2-0.3-0.5-0.7-0.8-0.9l0.4-0.4c0.3,0.3,0.6,0.7,0.8,1L55.7,46.6z M46.2,45.7l-0.4-0.4c0.3-0.3,0.7-0.6,1-0.8
		l0.3,0.4C46.8,45.2,46.5,45.4,46.2,45.7z M54,44.9c-0.3-0.2-0.7-0.4-1.1-0.6l0.2-0.5c0.4,0.2,0.8,0.4,1.2,0.6L54,44.9z M48.2,44.4
		L48,43.9c0.4-0.2,0.8-0.3,1.3-0.4l0.1,0.5C49,44.1,48.6,44.2,48.2,44.4z M51.8,44c-0.4-0.1-0.8-0.1-1.2-0.1l0-0.4l0-0.2
		c0.4,0,0.9,0,1.3,0.1L51.8,44z"/>
	<path id="XMLID_714_" fill="#DC8744" d="M52.2,50.1c0.5-0.4,0.9-1,0.9-1.7c0-1.2-1-2.2-2.2-2.2h-0.2v-0.9h-0.4v0.9h-0.5v-0.9h-0.4
		v0.9h-0.4h-0.6v0.9h0.6v2.6h-0.6v0.9h0.6v2.6h-0.6V54h0.6h0.4v0.9h0.4V54h0.5v0.9h0.4V54h0.2c1.2,0,2.2-1,2.2-2.2
		C53,51.1,52.7,50.5,52.2,50.1z M50.9,53.1h-1.2v-2.6h1.2c0.7,0,1.3,0.6,1.3,1.3C52.1,52.5,51.6,53.1,50.9,53.1z M50.9,49.7h-1.2
		v-2.6h1.2c0.7,0,1.3,0.6,1.3,1.3S51.6,49.7,50.9,49.7z"/>
</g>
</svg>
