<?xml version="1.0" encoding="utf-8"?>
<!-- Generator: Adobe Illustrator 19.0.0, SVG Export Plug-In . SVG Version: 6.00 Build 0)  -->
<svg version="1.1" id="Layer_1" xmlns="http://www.w3.org/2000/svg" xmlns:xlink="http://www.w3.org/1999/xlink" x="0px" y="0px"
	 viewBox="0 0 108.5 94.3" enable-background="new 0 0 108.5 94.3" xml:space="preserve">
<g id="XMLID_202_">
	<circle id="XMLID_972_" fill="#F6C358" cx="83.8" cy="23.7" r="15.6"/>
	<circle id="XMLID_971_" fill="#FCD462" cx="83.8" cy="23.7" r="13.4"/>
	<path id="XMLID_954_" fill="#F6C358" d="M83.8,35.3c-0.8,0-1.5-0.1-2.3-0.2l0.2-0.9c0.7,0.1,1.4,0.2,2.1,0.2L83.8,35.3L83.8,35.3
		L83.8,35.3z M86.1,35.1L86,34.2c0.7-0.1,1.4-0.3,2-0.6l0.3,0.8C87.6,34.7,86.9,35,86.1,35.1z M79.4,34.5c-0.7-0.3-1.4-0.7-2-1.1
		l0.5-0.7c0.6,0.4,1.2,0.7,1.9,1L79.4,34.5z M90.3,33.4l-0.5-0.7c0.6-0.4,1.1-0.8,1.6-1.3l0.6,0.6C91.6,32.4,91,32.9,90.3,33.4z
		 M75.6,31.9c-0.5-0.5-1-1.1-1.5-1.8l0.7-0.5c0.4,0.6,0.8,1.1,1.3,1.6L75.6,31.9z M93.6,30.1l-0.7-0.5c0.4-0.6,0.7-1.2,1-1.9
		l0.8,0.3C94.3,28.8,94,29.5,93.6,30.1z M73,28.1c-0.3-0.7-0.5-1.4-0.7-2.2l0.9-0.2c0.1,0.7,0.3,1.4,0.6,2L73,28.1z M95.3,25.9
		l-0.9-0.2c0.1-0.7,0.2-1.4,0.2-2.1v0h0.9v0C95.5,24.4,95.4,25.2,95.3,25.9z M72.2,23.7L72.2,23.7c0-0.8,0.1-1.5,0.2-2.3l0.9,0.2
		c-0.1,0.7-0.2,1.4-0.2,2.1L72.2,23.7z M94.4,21.5c-0.1-0.7-0.3-1.4-0.6-2l0.8-0.3c0.3,0.7,0.5,1.4,0.7,2.2L94.4,21.5z M73.9,19.5
		L73,19.2c0.3-0.7,0.7-1.4,1.1-2l0.7,0.5C74.5,18.3,74.1,18.9,73.9,19.5z M92.8,17.6c-0.4-0.6-0.8-1.1-1.3-1.6l0.6-0.6
		c0.5,0.5,1,1.1,1.5,1.8L92.8,17.6z M76.2,16l-0.6-0.6c0.5-0.5,1.1-1,1.8-1.5l0.5,0.7C77.2,15.1,76.7,15.5,76.2,16z M89.8,14.7
		c-0.6-0.4-1.2-0.7-1.9-1l0.3-0.8c0.7,0.3,1.4,0.7,2,1.1L89.8,14.7z M79.7,13.7l-0.3-0.8c0.7-0.3,1.4-0.5,2.2-0.7l0.2,0.9
		C81,13.2,80.3,13.4,79.7,13.7z M85.9,13.1c-0.7-0.1-1.4-0.2-2.1-0.2l0-0.6l0-0.3c0.7,0,1.5,0.1,2.2,0.2L85.9,13.1z"/>
	<path id="XMLID_950_" fill="#DC8744" d="M86.6,23.7c0.9-0.7,1.5-1.8,1.5-3c0-2.1-1.7-3.8-3.8-3.8h-0.4v-1.6h-0.8v1.6h-0.9v-1.6
		h-0.8v1.6h-0.8h-1v1.6h1v4.5h-1v1.6h1v4.5h-1v1.6h1h0.8V32h0.8v-1.6h0.9V32h0.8v-1.6h0.4c2.1,0,3.8-1.7,3.8-3.8
		C88.1,25.5,87.5,24.4,86.6,23.7z M84.3,28.9h-2.1v-4.5h2.1c1.2,0,2.2,1,2.2,2.2S85.5,28.9,84.3,28.9z M84.3,22.9h-2.1v-4.5h2.1
		c1.2,0,2.2,1,2.2,2.2C86.5,21.9,85.5,22.9,84.3,22.9z"/>
	<circle id="XMLID_949_" fill="#64798A" cx="52.8" cy="23.7" r="15.6"/>
	<circle id="XMLID_948_" fill="#D5D6DB" cx="52.8" cy="23.7" r="14.1"/>
	<circle id="XMLID_947_" fill="#EBF0F3" cx="52.8" cy="23.7" r="12.5"/>
	<path id="XMLID_946_" fill="#E1E6E9" d="M40.3,23.7c0,6.9,5.6,12.5,12.5,12.5V11.1C45.9,11.1,40.3,16.7,40.3,23.7z"/>
	<path id="XMLID_942_" fill="#DC8744" d="M55.4,23.7c0.9-0.7,1.4-1.7,1.4-2.8c0-2-1.6-3.6-3.6-3.6h-0.4v-1.5h-0.7v1.5h-0.9v-1.5
		h-0.7v1.5h-0.7h-0.9v1.5h0.9v4.2h-0.9v1.5h0.9v4.2h-0.9V30h0.9h0.7v1.5h0.7V30h0.9v1.5h0.7V30h0.4c2,0,3.6-1.6,3.6-3.6
		C56.8,25.4,56.3,24.3,55.4,23.7z M53.2,28.6h-2v-4.2h2c1.2,0,2.1,0.9,2.1,2.1C55.3,27.6,54.4,28.6,53.2,28.6z M53.2,22.9h-2v-4.2h2
		c1.2,0,2.1,0.9,2.1,2.1C55.3,22,54.4,22.9,53.2,22.9z"/>
	<circle id="XMLID_941_" fill="#27A2DB" cx="68.3" cy="15.6" r="15.6"/>
	<path id="XMLID_940_" fill="#1C75A1" d="M81.7,15.6c0,7.4-6,13.4-13.4,13.4c-4.1,0-7.8-1.9-10.2-4.8L77.5,5.9
		C80.1,8.4,81.7,11.8,81.7,15.6z"/>
	<path id="XMLID_939_" fill="#2D93BA" d="M77.5,5.9L58.1,24.2c-1.9-2.3-3.1-5.3-3.1-8.6c0-7.4,6-13.4,13.4-13.4
		C71.9,2.3,75.1,3.7,77.5,5.9z"/>
	<g id="XMLID_914_">
		<path id="XMLID_916_" fill="#E1E6E9" d="M71.1,15.6c0.9-0.7,1.5-1.8,1.5-3c0-2.1-1.7-3.8-3.8-3.8h-0.4V7.3h-0.8v1.6h-0.9V7.3h-0.8
			v1.6h-0.8h-1v1.6h1v4.5h-1v1.6h1v4.5h-1v1.6h1h0.8V24h0.8v-1.6h0.9V24h0.8v-1.6h0.4c2.1,0,3.8-1.7,3.8-3.8
			C72.6,17.5,72,16.4,71.1,15.6z M68.8,20.9h-2.1v-4.5h2.1c1.2,0,2.2,1,2.2,2.2C71,19.9,70,20.9,68.8,20.9z M68.8,14.9h-2.1v-4.5
			h2.1c1.2,0,2.2,1,2.2,2.2S70,14.9,68.8,14.9z"/>
		<path id="XMLID_915_" fill="#E1E6E9" d="M93.7,70.5H34.4l-6-44h77.4c1.9,0,3.2,1.8,2.6,3.6L96.3,68.6C96,69.7,94.9,70.5,93.7,70.5
			z"/>
	</g>
	<path id="XMLID_913_" fill="#D5D6DB" d="M98.7,82.5h-59c-3.1,0-5.7-2.3-6.2-5.3l-9.4-65.6c-0.2-1.7-1.7-3-3.4-3h-6.6
		c-1.1,0-2.1-0.9-2.1-2.1s0.9-2.1,2.1-2.1h6.6c3.8,0,7,2.8,7.5,6.6l9.4,65.6c0.1,1,1,1.8,2.1,1.8h59c1.1,0,2.1,0.9,2.1,2.1
		S99.9,82.5,98.7,82.5z"/>
	<g id="XMLID_909_">
		<path id="XMLID_912_" fill="#64798A" d="M16.6,11.2H4.8C2.2,11.2,0,9,0,6.4l0,0c0-2.7,2.2-4.8,4.8-4.8h11.8c0.8,0,1.4,0.6,1.4,1.4
			v6.9C18,10.6,17.4,11.2,16.6,11.2z"/>
		<circle id="XMLID_911_" fill="#64798A" cx="46.2" cy="87.4" r="6.9"/>
	</g>
	<circle id="XMLID_830_" fill="#E1E6E9" cx="46.2" cy="87.4" r="3.5"/>
	<circle id="XMLID_827_" fill="#64798A" cx="89.2" cy="87.4" r="6.9"/>
	<circle id="XMLID_794_" fill="#E1E6E9" cx="89.2" cy="87.4" r="3.5"/>
	<g id="XMLID_604_">
		<path id="XMLID_792_" fill="#D5D6DB" d="M56.9,65.4c-0.6,0-1.2-0.4-1.4-1l-9.9-31c-0.2-0.8,0.2-1.6,0.9-1.8
			c0.8-0.2,1.6,0.2,1.8,0.9l9.9,31c0.2,0.8-0.2,1.6-0.9,1.8C57.2,65.4,57,65.4,56.9,65.4z"/>
		<path id="XMLID_789_" fill="#D5D6DB" d="M65.6,65.4c-0.6,0-1.2-0.4-1.4-1l-9.9-31c-0.2-0.8,0.2-1.6,0.9-1.8
			c0.8-0.2,1.6,0.2,1.8,0.9l9.9,31c0.2,0.8-0.2,1.6-0.9,1.8C65.9,65.4,65.8,65.4,65.6,65.4z"/>
		<path id="XMLID_787_" fill="#D5D6DB" d="M74.4,65.4c-0.6,0-1.2-0.4-1.4-1l-10-31c-0.2-0.8,0.2-1.6,0.9-1.8
			c0.8-0.2,1.6,0.2,1.8,0.9l10,31c0.2,0.8-0.2,1.6-0.9,1.8C74.7,65.4,74.5,65.4,74.4,65.4z"/>
		<path id="XMLID_620_" fill="#D5D6DB" d="M83.1,65.4c-0.6,0-1.2-0.4-1.4-1l-9.9-31c-0.2-0.8,0.2-1.6,0.9-1.8
			c0.8-0.2,1.6,0.2,1.8,0.9l9.9,31c0.2,0.8-0.2,1.6-0.9,1.8C83.4,65.4,83.3,65.4,83.1,65.4z"/>
		<path id="XMLID_619_" fill="#D5D6DB" d="M91.9,65.4c-0.6,0-1.2-0.4-1.4-1l-9.9-31c-0.2-0.8,0.2-1.6,0.9-1.8
			c0.8-0.2,1.6,0.2,1.8,0.9l9.9,31c0.2,0.8-0.2,1.6-0.9,1.8C92.2,65.4,92,65.4,91.9,65.4z"/>
		<path id="XMLID_606_" fill="#D5D6DB" d="M48.1,65.4c-0.6,0-1.2-0.4-1.4-1l-5.4-16.8c-0.2-0.8,0.2-1.6,0.9-1.8
			c0.8-0.2,1.6,0.2,1.8,0.9l5.4,16.8c0.2,0.8-0.2,1.6-0.9,1.8C48.4,65.4,48.3,65.4,48.1,65.4z"/>
		<path id="XMLID_605_" fill="#D5D6DB" d="M94.4,46.2c-0.6,0-1.2-0.4-1.4-1l-3.8-11.8c-0.2-0.8,0.2-1.6,0.9-1.8
			c0.8-0.2,1.6,0.2,1.8,0.9l3.8,11.8c0.2,0.8-0.2,1.6-0.9,1.8C94.7,46.2,94.6,46.2,94.4,46.2z"/>
	</g>
</g>
</svg>
