<?xml version="1.0" encoding="utf-8"?>
<!-- Generator: Adobe Illustrator 19.0.0, SVG Export Plug-In . SVG Version: 6.00 Build 0)  -->
<svg version="1.1" id="Layer_1" xmlns="http://www.w3.org/2000/svg" xmlns:xlink="http://www.w3.org/1999/xlink" x="0px" y="0px"
	 viewBox="0 0 107 113.7" enable-background="new 0 0 107 113.7" xml:space="preserve">
<g id="XMLID_497_">
	<path id="XMLID_561_" fill="#D5D6DB" d="M106.9,38.1V108c0,3.1-2.6,5.7-5.7,5.7h-6.7l4.4-4.3V52.4c0-2.4-1.9-4.3-4.3-4.3H8.8
		c-0.5,0-1,0-1.4-0.1C3.2,47.4,0,44.2,0,40.3c0-0.2,0-0.4,0-0.5c0.1-1.9,1.1-3.7,2.5-5c1.6-1.4,3.8-2.3,6.2-2.3h92.4
		C104.3,32.4,106.9,35,106.9,38.1z"/>
	<path id="XMLID_560_" fill="#44C4A1" d="M11.3,42.6c0,0.1,0,0.3,0,0.4L11.3,42.6L11.3,42.6z"/>
	<path id="XMLID_558_" fill="#27A2DB" d="M76.8,85.7L26.7,65L52.8,1.9c0.6-1.5,2.4-2.3,4-1.6l44.5,18.4c1.5,0.6,2.3,2.4,1.6,4
		L76.8,85.7z"/>
	
		<rect id="XMLID_551_" x="51.6" y="3" transform="matrix(0.9239 0.3827 -0.3827 0.9239 19.0987 -18.6455)" fill="#1C75A1" width="9.7" height="71.3"/>
	<circle id="XMLID_550_" fill="#F6C358" cx="36.7" cy="47" r="22.4"/>
	<circle id="XMLID_549_" fill="#FCD462" cx="36.7" cy="47" r="19.1"/>
	<path id="XMLID_530_" fill="#F6C358" d="M36.7,63.8c-1.1,0-2.2-0.1-3.3-0.3l0.2-1.3c1,0.2,2,0.3,3,0.3l0,1.2L36.7,63.8L36.7,63.8z
		 M39.9,63.5l-0.3-1.3c1-0.2,2-0.5,2.9-0.9l0.5,1.2C42.1,62.9,41,63.2,39.9,63.5z M30.3,62.5c-1-0.4-2-0.9-2.9-1.5l0.7-1.1
		c0.8,0.6,1.7,1,2.7,1.4L30.3,62.5z M46,61l-0.7-1.1c0.8-0.6,1.6-1.2,2.3-1.9l0.9,0.9C47.7,59.6,46.9,60.3,46,61z M24.8,58.9
		c-0.8-0.8-1.5-1.6-2.1-2.5l1.1-0.7c0.6,0.8,1.2,1.6,1.9,2.3L24.8,58.9z M50.6,56.3l-1.1-0.7c0.6-0.8,1-1.7,1.4-2.7l1.2,0.5
		C51.7,54.5,51.2,55.4,50.6,56.3z M21.2,53.5c-0.4-1-0.7-2.1-1-3.1l1.3-0.3c0.2,1,0.5,2,0.9,2.9L21.2,53.5z M53.1,50.3l-1.3-0.2
		c0.2-1,0.3-2,0.3-3V47h1.3V47C53.4,48.1,53.3,49.2,53.1,50.3z M19.9,47.1L19.9,47.1c0-1.1,0.1-2.2,0.3-3.3l1.3,0.2
		c-0.2,1-0.3,2-0.3,3L19.9,47.1z M51.8,44c-0.2-1-0.5-2-0.9-2.9l1.2-0.5c0.4,1,0.7,2.1,1,3.1L51.8,44z M22.4,41.2l-1.2-0.5
		c0.4-1,0.9-2,1.5-2.9l1.1,0.7C23.2,39.3,22.8,40.2,22.4,41.2z M49.5,38.4c-0.6-0.8-1.2-1.6-1.9-2.3l0.9-0.9
		c0.8,0.8,1.5,1.6,2.1,2.5L49.5,38.4z M25.7,36.2l-0.9-0.9c0.8-0.8,1.6-1.5,2.5-2.1l0.7,1.1C27.2,34.8,26.4,35.4,25.7,36.2z
		 M45.2,34.2c-0.8-0.6-1.7-1-2.7-1.4l0.5-1.2c1,0.4,2,0.9,2.9,1.5L45.2,34.2z M30.7,32.8l-0.5-1.2c1-0.4,2.1-0.7,3.1-1l0.3,1.3
		C32.6,32.1,31.6,32.4,30.7,32.8z M39.6,31.9c-1-0.2-2-0.3-3-0.3l0-0.9l0-0.4c1.1,0,2.2,0.1,3.2,0.3L39.6,31.9z"/>
	<path id="XMLID_526_" fill="#DC8744" d="M40.6,47c1.3-1,2.1-2.6,2.1-4.3c0-3-2.4-5.4-5.4-5.4h-0.6v-2.2h-1.1v2.2h-1.3v-2.2h-1.1
		v2.2H32h-1.4v2.2H32v6.4h-1.4v2.2H32v6.4h-1.4v2.2H32h1.1V59h1.1v-2.2h1.3V59h1.1v-2.2h0.6c3,0,5.4-2.4,5.4-5.4
		C42.7,49.6,41.9,48.1,40.6,47z M37.3,54.5h-3v-6.4h3c1.8,0,3.2,1.4,3.2,3.2C40.5,53.1,39.1,54.5,37.3,54.5z M37.3,45.9h-3v-6.4h3
		c1.8,0,3.2,1.4,3.2,3.2C40.5,44.5,39.1,45.9,37.3,45.9z"/>
	<path id="XMLID_525_" fill="#44C4A1" d="M98.9,52.4v57.1c0,2.4-1.9,4.3-4.3,4.3h-85c-5.3,0-9.6-4.3-9.6-9.6V40.3
		c0,3.9,3.2,7.1,7.3,7.7l0.1,0.1h87.2C97,48.1,98.9,50,98.9,52.4z"/>
	<path id="XMLID_524_" fill="#3EA69B" d="M106.9,83.2V67.4c-0.5,1.7-2.7,4.2-11.1,4.9H84.2c-1.6,0-2.8,1.3-2.8,2.8V87
		c0,1.6,1.3,2.8,2.8,2.8h11.6C109,88.7,106.9,83.2,106.9,83.2z"/>
	<circle id="XMLID_523_" fill="#64798A" cx="89.2" cy="81.1" r="3.7"/>
	<g id="XMLID_499_">
		<rect id="XMLID_518_" x="0" y="59.1" fill="#3EA69B" width="3.8" height="2.3"/>
		<rect id="XMLID_517_" x="8.3" y="59.1" fill="#3EA69B" width="7.6" height="2.3"/>
		<rect id="XMLID_516_" x="20.5" y="59.1" fill="#3EA69B" width="7.6" height="2.3"/>
		<rect id="XMLID_515_" x="32.7" y="59.1" fill="#3EA69B" width="7.6" height="2.3"/>
		<rect id="XMLID_514_" x="44.8" y="59.1" fill="#3EA69B" width="7.6" height="2.3"/>
		<rect id="XMLID_513_" x="56.9" y="59.1" fill="#3EA69B" width="7.6" height="2.3"/>
		<rect id="XMLID_512_" x="69.1" y="59.1" fill="#3EA69B" width="7.6" height="2.3"/>
		<rect id="XMLID_511_" x="81.3" y="59.1" fill="#3EA69B" width="7.6" height="2.3"/>
		<rect id="XMLID_510_" x="93.4" y="59.1" fill="#3EA69B" width="5.5" height="2.3"/>
		<rect id="XMLID_509_" x="0" y="100.6" fill="#3EA69B" width="3.8" height="2.3"/>
		<rect id="XMLID_508_" x="8.3" y="100.6" fill="#3EA69B" width="7.6" height="2.3"/>
		<rect id="XMLID_507_" x="20.5" y="100.6" fill="#3EA69B" width="7.6" height="2.3"/>
		<rect id="XMLID_506_" x="32.7" y="100.6" fill="#3EA69B" width="7.6" height="2.3"/>
		<rect id="XMLID_505_" x="44.8" y="100.6" fill="#3EA69B" width="7.6" height="2.3"/>
		<rect id="XMLID_504_" x="56.9" y="100.6" fill="#3EA69B" width="7.6" height="2.3"/>
		<rect id="XMLID_503_" x="69.1" y="100.6" fill="#3EA69B" width="7.6" height="2.3"/>
		<rect id="XMLID_502_" x="81.3" y="100.6" fill="#3EA69B" width="7.6" height="2.3"/>
		<rect id="XMLID_500_" x="93.4" y="100.6" fill="#3EA69B" width="5.5" height="2.3"/>
	</g>
</g>
</svg>
