<?xml version="1.0" encoding="utf-8"?>
<!-- Generator: Adobe Illustrator 19.0.0, SVG Export Plug-In . SVG Version: 6.00 Build 0)  -->
<svg version="1.1" id="Layer_1" xmlns="http://www.w3.org/2000/svg" xmlns:xlink="http://www.w3.org/1999/xlink" x="0px" y="0px"
	 viewBox="0 0 109 109" enable-background="new 0 0 109 109" xml:space="preserve">
<g id="XMLID_720_">
	<path id="XMLID_976_" fill="#E1E6E9" d="M109,34.3v5.3H68v-8.2h38.1C107.7,31.3,109,32.7,109,34.3z"/>
	<path id="XMLID_975_" fill="#D5D6DB" d="M68,31.3v8.2h-8.4v-5.3c0-1.6,1.3-2.9,2.9-2.9H68z"/>
	<path id="XMLID_974_" fill="#E1E6E9" d="M109,97.2v8.9c0,1.6-1.3,2.9-2.9,2.9H68V97.2L109,97.2L109,97.2z"/>
	<path id="XMLID_973_" fill="#D5D6DB" d="M68,97.2V109h-5.5c-1.6,0-2.9-1.3-2.9-2.9v-8.9L68,97.2L68,97.2z"/>
	<g id="XMLID_820_">
		<path id="XMLID_850_" fill="#E1E6E9" d="M49.4,2.9v5.3h-41V0h38.1C48.1,0,49.4,1.3,49.4,2.9z"/>
		<path id="XMLID_845_" fill="#E1E6E9" d="M49.4,65.9v8.9c0,1.6-1.3,2.9-2.9,2.9H8.4V65.9L49.4,65.9L49.4,65.9z"/>
	</g>
	<g id="XMLID_780_">
		<circle id="XMLID_815_" fill="#1C75A1" cx="24.7" cy="71.8" r="4.4"/>
		<circle id="XMLID_791_" fill="#1C75A1" cx="84.3" cy="103.1" r="4.4"/>
		<rect id="XMLID_783_" x="16" y="3" fill="#1C75A1" width="17.4" height="2.2"/>
		<rect id="XMLID_781_" x="75.6" y="34.4" fill="#1C75A1" width="17.4" height="2.2"/>
	</g>
	<path id="XMLID_779_" fill="#D5D6DB" d="M8.4,0v8.2H0V2.9C0,1.3,1.3,0,2.9,0H8.4z"/>
	<rect id="XMLID_778_" x="8.4" y="8.2" fill="#27A2DB" width="41" height="57.6"/>
	<rect id="XMLID_777_" x="0" y="8.2" fill="#2D93BA" width="8.4" height="57.6"/>
	<path id="XMLID_776_" fill="#D5D6DB" d="M8.4,65.9v11.8H2.9c-1.6,0-2.9-1.3-2.9-2.9v-8.9L8.4,65.9L8.4,65.9z"/>
	<rect id="XMLID_775_" x="68" y="39.6" fill="#E56353" width="41" height="57.6"/>
	<rect id="XMLID_774_" x="59.6" y="39.6" fill="#D15241" width="8.4" height="57.6"/>
	<circle id="XMLID_773_" fill="#F6C358" cx="24.7" cy="30.2" r="17.4"/>
	<circle id="XMLID_772_" fill="#FCD462" cx="24.7" cy="30.2" r="14.9"/>
	<path id="XMLID_752_" fill="#F6C358" d="M24.7,43.2c-0.9,0-1.7-0.1-2.5-0.2l0.2-1c0.8,0.1,1.5,0.2,2.3,0.2L24.7,43.2L24.7,43.2
		C24.7,43.2,24.7,43.2,24.7,43.2z M27.3,43l-0.2-1c0.8-0.2,1.5-0.4,2.3-0.7l0.4,0.9C28.9,42.6,28.1,42.8,27.3,43z M19.7,42.3
		c-0.8-0.3-1.5-0.7-2.3-1.2l0.6-0.8c0.7,0.4,1.4,0.8,2.1,1.1L19.7,42.3z M31.9,41l-0.6-0.8c0.7-0.4,1.3-0.9,1.8-1.5l0.7,0.7
		C33.3,40,32.7,40.6,31.9,41z M15.5,39.4c-0.6-0.6-1.1-1.3-1.6-2l0.8-0.6c0.4,0.7,0.9,1.3,1.5,1.8L15.5,39.4z M35.5,37.4l-0.8-0.6
		c0.4-0.7,0.8-1.4,1.1-2.1l0.9,0.4C36.4,36,36,36.7,35.5,37.4z M12.7,35.2c-0.3-0.8-0.6-1.6-0.7-2.4l1-0.2c0.2,0.8,0.4,1.5,0.7,2.3
		L12.7,35.2z M37.5,32.8l-1-0.2c0.2-0.8,0.2-1.6,0.2-2.3v-0.1h1v0.1C37.7,31.1,37.6,31.9,37.5,32.8z M11.7,30.2L11.7,30.2
		c0-0.9,0.1-1.7,0.2-2.5l1,0.2c-0.1,0.8-0.2,1.5-0.2,2.3L11.7,30.2z M36.5,27.8c-0.2-0.8-0.4-1.5-0.7-2.3l0.9-0.4
		c0.3,0.8,0.6,1.6,0.7,2.4L36.5,27.8z M13.6,25.6l-0.9-0.4c0.3-0.8,0.7-1.5,1.2-2.3l0.8,0.6C14.3,24.2,13.9,24.9,13.6,25.6z
		 M34.7,23.5c-0.4-0.7-0.9-1.3-1.5-1.8l0.7-0.7c0.6,0.6,1.2,1.3,1.6,2L34.7,23.5z M16.2,21.7L15.5,21c0.6-0.6,1.3-1.1,2-1.6l0.6,0.8
		C17.4,20.7,16.7,21.2,16.2,21.7z M31.3,20.2c-0.7-0.4-1.4-0.8-2.1-1.1l0.4-0.9c0.8,0.3,1.5,0.7,2.3,1.2L31.3,20.2z M20.1,19.1
		l-0.4-0.9c0.8-0.3,1.6-0.6,2.4-0.7l0.2,1C21.6,18.6,20.8,18.8,20.1,19.1z M27,18.4c-0.8-0.1-1.5-0.2-2.3-0.2l0-0.7l0-0.3
		c0.8,0,1.7,0.1,2.5,0.2L27,18.4z"/>
	<path id="XMLID_748_" fill="#DC8744" d="M27.8,30.2c1-0.8,1.7-2,1.7-3.4c0-2.3-1.9-4.2-4.2-4.2h-0.5v-1.7h-0.9v1.7h-1v-1.7H22v1.7
		h-0.9H20v1.7h1.1v5H20v1.7h1.1v5H20v1.7h1.1H22v1.7h0.9v-1.7h1v1.7h0.9v-1.7h0.5c2.3,0,4.2-1.9,4.2-4.2
		C29.4,32.2,28.8,31,27.8,30.2z M25.2,36.1h-2.4v-5h2.4c1.4,0,2.5,1.1,2.5,2.5C27.7,34.9,26.6,36.1,25.2,36.1z M25.2,29.3h-2.4v-5
		h2.4c1.4,0,2.5,1.1,2.5,2.5C27.7,28.2,26.6,29.3,25.2,29.3z"/>
	<path id="XMLID_747_" fill="#EBF0F3" d="M33.9,56.8c0.1-0.3,0.1-0.7,0-1c0-0.1-0.1-0.1-0.1-0.2c0-0.1-0.1-0.2-0.1-0.2l-2.9-3.6
		c-0.5-0.6-1.4-0.7-2-0.2c-0.6,0.5-0.7,1.4-0.2,2l1,1.3H16.9c-0.8,0-1.5,0.7-1.5,1.5c0,0.8,0.7,1.5,1.5,1.5h12.7l-1,1.3
		c-0.5,0.6-0.4,1.5,0.2,2c0.3,0.2,0.6,0.3,0.9,0.3c0.4,0,0.8-0.2,1.1-0.5l2.9-3.6c0.1-0.1,0.1-0.1,0.1-0.2
		C33.8,56.9,33.9,56.8,33.9,56.8z"/>
	<circle id="XMLID_746_" fill="#F6C358" cx="84.3" cy="61.6" r="17.4"/>
	<circle id="XMLID_745_" fill="#FCD462" cx="84.3" cy="61.6" r="14.9"/>
	<path id="XMLID_726_" fill="#F6C358" d="M84.3,74.6c-0.9,0-1.7-0.1-2.5-0.2l0.2-1c0.8,0.1,1.5,0.2,2.3,0.2L84.3,74.6L84.3,74.6
		L84.3,74.6z M86.8,74.3l-0.2-1c0.8-0.2,1.5-0.4,2.3-0.7l0.4,0.9C88.5,73.9,87.7,74.2,86.8,74.3z M79.3,73.6
		c-0.8-0.3-1.5-0.7-2.3-1.2l0.6-0.8c0.7,0.4,1.4,0.8,2.1,1.1L79.3,73.6z M91.5,72.4L91,71.6c0.7-0.4,1.3-0.9,1.8-1.5l0.7,0.7
		C92.9,71.4,92.2,71.9,91.5,72.4z M75.1,70.8c-0.6-0.6-1.1-1.3-1.6-2l0.8-0.6c0.4,0.7,0.9,1.3,1.5,1.8L75.1,70.8z M95.1,68.8
		l-0.8-0.6c0.4-0.7,0.8-1.4,1.1-2.1l0.9,0.4C96,67.3,95.6,68.1,95.1,68.8z M72.3,66.6c-0.3-0.8-0.6-1.6-0.7-2.4l1-0.2
		c0.2,0.8,0.4,1.5,0.7,2.3L72.3,66.6z M97.1,64.1l-1-0.2c0.2-0.8,0.2-1.6,0.2-2.3v-0.1h1v0.1C97.3,62.4,97.2,63.3,97.1,64.1z
		 M71.3,61.6L71.3,61.6c0-0.9,0.1-1.7,0.2-2.5l1,0.2c-0.1,0.8-0.2,1.5-0.2,2.3L71.3,61.6z M96.1,59.2c-0.2-0.8-0.4-1.5-0.7-2.3
		l0.9-0.4c0.3,0.8,0.6,1.6,0.7,2.4L96.1,59.2z M73.2,57l-0.9-0.4c0.3-0.8,0.7-1.5,1.2-2.3l0.8,0.6C73.8,55.6,73.5,56.3,73.2,57z
		 M94.3,54.9c-0.4-0.7-0.9-1.3-1.5-1.8l0.7-0.7c0.6,0.6,1.2,1.3,1.6,2L94.3,54.9z M75.8,53.1l-0.7-0.7c0.6-0.6,1.3-1.1,2-1.6
		l0.6,0.8C76.9,52,76.3,52.5,75.8,53.1z M90.9,51.5c-0.7-0.4-1.4-0.8-2.1-1.1l0.4-0.9c0.8,0.3,1.5,0.7,2.3,1.2L90.9,51.5z
		 M79.7,50.5l-0.4-0.9c0.8-0.3,1.6-0.6,2.4-0.7l0.2,1C81.1,49.9,80.4,50.2,79.7,50.5z M86.6,49.8c-0.8-0.1-1.5-0.2-2.3-0.2l0-0.7
		l0-0.3c0.8,0,1.7,0.1,2.5,0.2L86.6,49.8z"/>
	<path id="XMLID_722_" fill="#DC8744" d="M87.4,61.6c1-0.8,1.7-2,1.7-3.4c0-2.3-1.9-4.2-4.2-4.2h-0.5v-1.7h-0.9V54h-1v-1.7h-0.9V54
		h-0.9h-1.1v1.7h1.1v5h-1.1v1.7h1.1v5h-1.1v1.7h1.1h0.9v1.7h0.9v-1.7h1v1.7h0.9v-1.7h0.5c2.3,0,4.2-1.9,4.2-4.2
		C89,63.6,88.4,62.4,87.4,61.6z M84.8,67.4h-2.4v-5h2.4c1.4,0,2.5,1.1,2.5,2.5C87.3,66.3,86.2,67.4,84.8,67.4z M84.8,60.7h-2.4v-5
		h2.4c1.4,0,2.5,1.1,2.5,2.5C87.3,59.6,86.2,60.7,84.8,60.7z"/>
	<path id="XMLID_721_" fill="#EBF0F3" d="M75.1,88.1c-0.1-0.3-0.1-0.7,0-1c0-0.1,0.1-0.1,0.1-0.2c0-0.1,0.1-0.2,0.1-0.2l2.9-3.6
		c0.5-0.6,1.4-0.7,2-0.2c0.6,0.5,0.7,1.4,0.2,2l-1,1.3h12.7c0.8,0,1.5,0.7,1.5,1.5s-0.7,1.5-1.5,1.5H79.5l1,1.3
		c0.5,0.6,0.4,1.5-0.2,2c-0.3,0.2-0.6,0.3-0.9,0.3c-0.4,0-0.8-0.2-1.1-0.5l-2.9-3.6c-0.1-0.1-0.1-0.1-0.1-0.2
		C75.2,88.2,75.1,88.2,75.1,88.1z"/>
</g>
</svg>
