<?xml version="1.0" encoding="utf-8"?>
<!-- Generator: Adobe Illustrator 19.0.0, SVG Export Plug-In . SVG Version: 6.00 Build 0)  -->
<svg version="1.1" id="Layer_1" xmlns="http://www.w3.org/2000/svg" xmlns:xlink="http://www.w3.org/1999/xlink" x="0px" y="0px"
	 viewBox="0 0 119.3 96.1" enable-background="new 0 0 119.3 96.1" xml:space="preserve">
<g id="XMLID_716_">
	<circle id="XMLID_1064_" fill="#F6C358" cx="92.7" cy="49.5" r="26.7"/>
	<circle id="XMLID_1063_" fill="#FCD462" cx="92.7" cy="49.5" r="22.8"/>
	<path id="XMLID_1046_" fill="#F6C358" d="M92.7,69.4c-1.3,0-2.6-0.1-3.9-0.4l0.3-1.5c1.2,0.2,2.4,0.3,3.6,0.3l0,1.4L92.7,69.4
		L92.7,69.4z M96.6,69.1l-0.3-1.5c1.2-0.2,2.3-0.6,3.4-1l0.6,1.4C99.1,68.4,97.8,68.8,96.6,69.1z M85.1,67.9
		c-1.2-0.5-2.4-1.1-3.4-1.8l0.9-1.3c1,0.7,2.1,1.2,3.2,1.7L85.1,67.9z M103.7,66.1l-0.9-1.3c1-0.7,1.9-1.4,2.8-2.3l1.1,1.1
		C105.8,64.5,104.8,65.4,103.7,66.1z M78.6,63.6c-0.9-0.9-1.8-1.9-2.5-3l1.3-0.9c0.7,1,1.4,1.9,2.3,2.8L78.6,63.6z M109.2,60.6
		l-1.3-0.9c0.7-1,1.2-2.1,1.7-3.2l1.4,0.6C110.6,58.3,110,59.5,109.2,60.6z M74.3,57.2c-0.5-1.2-0.9-2.5-1.1-3.7l1.5-0.3
		c0.2,1.2,0.6,2.3,1.1,3.4L74.3,57.2z M112.2,53.4l-1.5-0.3c0.2-1.2,0.3-2.4,0.3-3.6v-0.1h1.5v0.1C112.6,50.8,112.5,52.1,112.2,53.4
		z M72.7,49.6L72.7,49.6c0-1.3,0.1-2.6,0.4-3.9l1.5,0.3c-0.2,1.2-0.3,2.4-0.3,3.5L72.7,49.6z M110.7,45.8c-0.2-1.2-0.6-2.3-1.1-3.4
		l1.4-0.6c0.5,1.2,0.9,2.5,1.1,3.7L110.7,45.8z M75.6,42.5l-1.4-0.6c0.5-1.2,1.1-2.4,1.8-3.4l1.3,0.8C76.7,40.3,76.1,41.4,75.6,42.5
		z M107.9,39.2c-0.7-1-1.4-1.9-2.3-2.8l1.1-1.1c0.9,0.9,1.8,1.9,2.5,3L107.9,39.2z M79.6,36.5l-1.1-1.1c0.9-0.9,1.9-1.8,3-2.5
		l0.9,1.3C81.4,34.9,80.5,35.7,79.6,36.5z M102.8,34.2c-1-0.7-2.1-1.2-3.2-1.7l0.6-1.4c1.2,0.5,2.4,1.1,3.4,1.8L102.8,34.2z
		 M85.6,32.5L85,31.1c1.2-0.5,2.5-0.9,3.7-1.1l0.3,1.5C87.8,31.7,86.7,32.1,85.6,32.5z M96.2,31.5c-1.2-0.2-2.3-0.3-3.5-0.3l0-1.1
		l0-0.5c1.3,0,2.6,0.1,3.8,0.4L96.2,31.5z"/>
	<path id="XMLID_1042_" fill="#DC8744" d="M97.3,49.5c1.6-1.2,2.5-3.1,2.5-5.1c0-3.6-2.9-6.5-6.5-6.5h-0.7v-2.7h-1.3v2.7h-1.6v-2.7
		h-1.3v2.7h-1.3h-1.7v2.7h1.7v7.6h-1.7v2.7h1.7v7.6h-1.7v2.7h1.7h1.3v2.7h1.3v-2.7h1.6v2.7h1.3v-2.7h0.7c3.6,0,6.5-2.9,6.5-6.5
		C99.9,52.6,98.9,50.7,97.3,49.5z M93.4,58.4h-3.6v-7.6h3.6c2.1,0,3.8,1.7,3.8,3.8C97.2,56.7,95.5,58.4,93.4,58.4z M93.4,48.2h-3.6
		v-7.6h3.6c2.1,0,3.8,1.7,3.8,3.8C97.2,46.5,95.5,48.2,93.4,48.2z"/>
	<g id="XMLID_1039_">
		<path id="XMLID_1041_" fill="#64798A" d="M68.7,95.8L68.7,95.8c-2.1,0.9-4.6-0.1-5.4-2.3L26.9,5.7C26,3.6,27,1.2,29.1,0.3l0,0
			c2.1-0.9,4.6,0.1,5.4,2.3l36.4,87.8C71.8,92.5,70.8,94.9,68.7,95.8z"/>
		<path id="XMLID_1040_" fill="#64798A" d="M0.2,48.3c0.9-10.9,22.8-21.9,22.8-21.9l28.8-11.9c0,0,23.2-7.7,31.6-0.7l0,0
			c-12.1-16-36-9.9-36-9.9L18.7,15.9C18.7,15.9-2.5,28.5,0.2,48.3L0.2,48.3z"/>
	</g>
	<path id="XMLID_1038_" fill="#E1E6E9" d="M50.9,18.2L26.4,28.3c-1.6,0.7-3.5-0.1-4.2-1.7L17.8,16c-0.7-1.6,0.1-3.5,1.7-4.2L44,1.7
		c1.6-0.7,3.5,0.1,4.2,1.7L52.6,14C53.3,15.7,52.5,17.5,50.9,18.2z"/>
</g>
</svg>
