<?xml version="1.0" encoding="utf-8"?>
<!-- Generator: Adobe Illustrator 19.0.0, SVG Export Plug-In . SVG Version: 6.00 Build 0)  -->
<svg version="1.1" id="Layer_1" xmlns="http://www.w3.org/2000/svg" xmlns:xlink="http://www.w3.org/1999/xlink" x="0px" y="0px"
	 viewBox="1.2 1.2 7.5 7.5" enable-background="new 1.2 1.2 7.5 7.5" xml:space="preserve">
<pattern  x="0" y="600" width="72" height="72" patternUnits="userSpaceOnUse" id="image" viewBox="0 -72 72 72" overflow="visible">
	<g>
		<polygon fill="none" points="0,-72 72,-72 72,0 0,0 		"/>
		<polygon points="36,-36 72,-36 72,0 36,0 		"/>
		<polygon points="0,-72 36,-72 36,-36 0,-36 		"/>
	</g>
</pattern>
<pattern  id="SVGID_1_" xlink:href="#image" patternTransform="matrix(1 0 0 -1 0 -17710.5)">
</pattern>
<path fill="url(#SVGID_1_)" d="M5.5,1.5l3,3c0.3,0.3,0.3,0.7,0,1l-3,3c-0.3,0.3-0.7,0.3-1,0l-3-3c-0.3-0.3-0.3-0.7,0-1l3-3
	C4.8,1.2,5.2,1.2,5.5,1.5z"/>
</svg>
