<?xml version="1.0" encoding="utf-8"?>
<!-- Generator: Adobe Illustrator 19.0.0, SVG Export Plug-In . SVG Version: 6.00 Build 0)  -->
<svg version="1.1" id="Layer_1" xmlns="http://www.w3.org/2000/svg" xmlns:xlink="http://www.w3.org/1999/xlink" x="0px" y="0px"
	 viewBox="0 0 582.8 582.8" enable-background="new 0 0 582.8 582.8" xml:space="preserve">
<circle id="XMLID_14_" fill="#FCD206" cx="291.4" cy="291.4" r="291.4"/>
<path id="XMLID_20_" fill="#FFFFFF" d="M170.4,232.4c-5.8,0-10.7,2-14.7,6c-4,4-6,8.9-6,14.5v86.6c0,5.8,2,10.7,6,14.7
	c4,4,8.9,6,14.7,6c5.8,0,10.6-2,14.6-6c4-4,5.9-8.9,5.9-14.7V253c0-5.6-2-10.5-6-14.5C180.9,234.4,176.1,232.4,170.4,232.4z"/>
<path id="XMLID_11_" fill="#FFFFFF" d="M250.9,152.1l-14.5-26.6c-0.9-1.6-2.3-2-4-1.2c-1.6,0.9-1.9,2.3-1,4l14.3,26.4
	c-14.5,7.4-26,17.7-34.6,30.9c-8.6,13.2-12.9,27.7-12.9,43.4h93.2v-85.4C277.2,143.7,263.7,146.5,250.9,152.1z M248.9,195.4
	c-2.1,0-4-0.8-5.4-2.3c-1.5-1.5-2.2-3.4-2.2-5.5c0-2.1,0.7-4,2.2-5.5c1.5-1.5,3.3-2.3,5.4-2.3c2.1,0,4,0.8,5.5,2.3
	c1.5,1.5,2.3,3.4,2.3,5.5c0,2.1-0.8,4-2.3,5.5C252.9,194.6,251.1,195.4,248.9,195.4z"/>
<path id="XMLID_6_" fill="#FFFFFF" d="M199,236.2v134.1c0,6.2,2.1,11.4,6.4,15.7c4.3,4.3,9.5,6.4,15.7,6.4H236l0.2,45.7
	c0,5.8,2,10.7,6,14.7c4,4,8.9,6,14.5,6c5.8,0,10.7-2,14.7-6c4-4,6-8.9,6-14.7v-45.7h13.9V236.2H199z"/>
<g id="XMLID_1_" opacity="0.7">
	<path id="XMLID_22_" fill="#FFFFFF" d="M371.5,185.6c-8.6-13.2-20.1-23.5-34.4-30.9l14.3-26.4c0.9-1.7,0.6-3.1-1-4
		c-1.7-0.8-3.1-0.4-4,1.2l-14.5,26.6c-12.8-5.6-26.2-8.5-40.5-8.5c0,0,0,0,0,0V229h93C384.4,213.3,380.1,198.8,371.5,185.6z
		 M339.3,193.1c-1.5,1.5-3.3,2.3-5.4,2.3c-2.2,0-4-0.8-5.5-2.3c-1.5-1.5-2.3-3.4-2.3-5.5c0-2.1,0.8-4,2.3-5.5
		c1.5-1.5,3.4-2.3,5.5-2.3c2.1,0,4,0.8,5.4,2.3c1.5,1.5,2.2,3.4,2.2,5.5C341.5,189.7,340.8,191.5,339.3,193.1z"/>
	<path id="XMLID_7_" fill="#FFFFFF" d="M305.3,438.1c0,5.8,2,10.7,6,14.7c4,4,8.9,6,14.7,6c5.8,0,10.7-2,14.7-6c4-4,6-8.9,6-14.7
		v-45.7h15.1c6,0,11.2-2.1,15.5-6.4c4.3-4.3,6.4-9.5,6.4-15.7V236.2h-92.4v156.2h13.9V438.1z"/>
	<path id="XMLID_8_" fill="#FFFFFF" d="M412.4,232.4c-5.6,0-10.5,2-14.5,5.9c-4,4-6,8.8-6,14.6v86.6c0,5.8,2,10.7,6,14.7
		c4,4,8.9,6,14.5,6c5.8,0,10.7-2,14.7-6c4-4,6-8.9,6-14.7V253c0-5.8-2-10.6-6-14.6C423,234.4,418.1,232.4,412.4,232.4z"/>
</g>
</svg>
