<?xml version="1.0" encoding="utf-8"?>
<!-- Generator: Adobe Illustrator 19.0.0, SVG Export Plug-In . SVG Version: 6.00 Build 0)  -->
<svg version="1.1" id="Layer_1" xmlns="http://www.w3.org/2000/svg" xmlns:xlink="http://www.w3.org/1999/xlink" x="0px" y="0px"
	 viewBox="-1147.2 2830.6 132.4 132.4" style="enable-background:new -1147.2 2830.6 132.4 132.4;" xml:space="preserve">
<style type="text/css">
	.st0{fill:#3A4551;}
	.st1{fill:#F6AE2D;}
</style>
<circle id="XMLID_7720_" class="st0" cx="-1081" cy="2896.8" r="65.2"/>
<path id="XMLID_6794_" class="st1" d="M-1058.4,2890.9c0.9-6.3-3.9-9.7-10.4-12l2.1-8.6l-5.2-1.3l-2.1,8.3c-1.4-0.3-2.8-0.7-4.2-1
	l2.1-8.4l-5.2-1.3l-2.1,8.6c-1.1-0.3-2.2-0.5-3.3-0.8l0,0l-7.2-1.8l-1.4,5.6c0,0,3.9,0.9,3.8,0.9c2.1,0.5,2.5,1.9,2.4,3l-2.4,9.7
	c0.1,0,0.3,0.1,0.5,0.2l-0.5-0.1l-3.4,13.7c-0.3,0.6-0.9,1.6-2.4,1.2c0.1,0.1-3.8-0.9-3.8-0.9l-2.6,6l6.8,1.7c1.3,0.3,2.5,0.6,3.7,1
	l-2.2,8.7l5.2,1.3l2.1-8.6c1.4,0.4,2.8,0.7,4.1,1.1l-2.1,8.5l5.2,1.3l2.2-8.6c8.9,1.7,15.6,1,18.4-7c2.3-6.5-0.1-10.2-4.8-12.6
	C-1061.7,2897.8-1059.1,2895.5-1058.4,2890.9L-1058.4,2890.9z M-1070.3,2907.6c-1.6,6.5-12.5,3-16,2.1l2.9-11.5
	C-1079.9,2899.1-1068.6,2900.8-1070.3,2907.6L-1070.3,2907.6z M-1068.7,2890.8c-1.5,5.9-10.5,2.9-13.5,2.2l2.6-10.4
	C-1076.6,2883.3-1067.2,2884.7-1068.7,2890.8z"/>
</svg>
