<?xml version="1.0" encoding="utf-8"?>
<!-- Generator: Adobe Illustrator 19.0.0, SVG Export Plug-In . SVG Version: 6.00 Build 0)  -->
<svg version="1.1" id="Layer_1" xmlns="http://www.w3.org/2000/svg" xmlns:xlink="http://www.w3.org/1999/xlink" x="0px" y="0px"
	 viewBox="-178.5 924.7 68.9 75.4" style="enable-background:new -178.5 924.7 68.9 75.4;" xml:space="preserve">
<style type="text/css">
	.st0{fill:#9BA6B2;}
</style>
<g id="XMLID_2838_">
	<g id="XMLID_3138_">
		<g id="XMLID_3139_">
			<path id="XMLID_3140_" class="st0" d="M-144,996.9L-144,996.9c-0.9,0-1.7,0.7-1.7,1.6s0.8,1.6,1.7,1.6c0.9,0,1.6-0.7,1.6-1.6
				S-143.1,996.9-144,996.9z"/>
		</g>
	</g>
	<g id="XMLID_3135_">
		<g id="XMLID_3136_">
			<path id="XMLID_3137_" class="st0" d="M-144,990.3L-144,990.3c-0.9,0-1.7,0.7-1.7,1.6s0.8,1.6,1.7,1.6c0.9,0,1.6-0.7,1.6-1.6
				C-142.4,991-143.1,990.3-144,990.3z"/>
		</g>
	</g>
	<g id="XMLID_3132_">
		<g id="XMLID_3133_">
			<path id="XMLID_3134_" class="st0" d="M-144,983.7L-144,983.7c-0.9,0-1.7,0.7-1.7,1.6s0.8,1.6,1.7,1.6c0.9,0,1.6-0.7,1.6-1.6
				C-142.4,984.5-143.1,983.7-144,983.7z"/>
		</g>
	</g>
	<g id="XMLID_3129_">
		<g id="XMLID_3130_">
			<path id="XMLID_3131_" class="st0" d="M-144,977.2L-144,977.2c-0.9,0-1.7,0.7-1.7,1.6s0.8,1.6,1.7,1.6c0.9,0,1.6-0.7,1.6-1.6
				S-143.1,977.2-144,977.2z"/>
		</g>
	</g>
	<g id="XMLID_3126_">
		<g id="XMLID_3127_">
			<path id="XMLID_3128_" class="st0" d="M-144,970.6L-144,970.6c-0.9,0-1.7,0.7-1.7,1.6s0.8,1.6,1.7,1.6c0.9,0,1.6-0.7,1.6-1.6
				C-142.4,971.4-143.1,970.6-144,970.6z"/>
		</g>
	</g>
	<g id="XMLID_3123_">
		<g id="XMLID_3124_">
			<path id="XMLID_3125_" class="st0" d="M-144,964.1L-144,964.1c-0.9,0-1.7,0.7-1.7,1.6s0.8,1.6,1.7,1.6c0.9,0,1.6-0.7,1.6-1.6
				S-143.1,964.1-144,964.1z"/>
		</g>
	</g>
	<g id="XMLID_3120_">
		<g id="XMLID_3121_">
			<path id="XMLID_3122_" class="st0" d="M-144,957.5L-144,957.5c-0.9,0-1.7,0.7-1.7,1.6s0.8,1.6,1.7,1.6c0.9,0,1.6-0.7,1.6-1.6
				C-142.4,958.2-143.1,957.5-144,957.5z"/>
		</g>
	</g>
	<g id="XMLID_3117_">
		<g id="XMLID_3118_">
			<path id="XMLID_3119_" class="st0" d="M-137.5,990.3L-137.5,990.3c-0.9,0-1.7,0.7-1.7,1.6s0.8,1.6,1.7,1.6c0.9,0,1.6-0.7,1.6-1.6
				C-135.8,991-136.5,990.3-137.5,990.3z"/>
		</g>
	</g>
	<g id="XMLID_3114_">
		<g id="XMLID_3115_">
			<path id="XMLID_3116_" class="st0" d="M-137.5,983.7L-137.5,983.7c-0.9,0-1.7,0.7-1.7,1.6s0.8,1.6,1.7,1.6c0.9,0,1.6-0.7,1.6-1.6
				S-136.5,983.7-137.5,983.7z"/>
		</g>
	</g>
	<g id="XMLID_3111_">
		<g id="XMLID_3112_">
			<path id="XMLID_3113_" class="st0" d="M-137.5,977.2L-137.5,977.2c-0.9,0-1.7,0.7-1.7,1.6s0.8,1.6,1.7,1.6c0.9,0,1.6-0.7,1.6-1.6
				S-136.5,977.2-137.5,977.2z"/>
		</g>
	</g>
	<g id="XMLID_3108_">
		<g id="XMLID_3109_">
			<path id="XMLID_3110_" class="st0" d="M-137.5,970.6L-137.5,970.6c-0.9,0-1.7,0.7-1.7,1.6s0.8,1.6,1.7,1.6c0.9,0,1.6-0.7,1.6-1.6
				C-135.8,971.4-136.5,970.6-137.5,970.6z"/>
		</g>
	</g>
	<g id="XMLID_3105_">
		<g id="XMLID_3106_">
			<path id="XMLID_3107_" class="st0" d="M-137.5,964.1L-137.5,964.1c-0.9,0-1.7,0.7-1.7,1.6s0.8,1.6,1.7,1.6c0.9,0,1.6-0.7,1.6-1.6
				S-136.5,964.1-137.5,964.1z"/>
		</g>
	</g>
	<g id="XMLID_3102_">
		<g id="XMLID_3103_">
			<path id="XMLID_3104_" class="st0" d="M-130.9,983.7L-130.9,983.7c-0.9,0-1.7,0.7-1.7,1.6s0.8,1.6,1.7,1.6c0.9,0,1.6-0.7,1.6-1.6
				S-130,983.7-130.9,983.7z"/>
		</g>
	</g>
	<g id="XMLID_3099_">
		<g id="XMLID_3100_">
			<path id="XMLID_3101_" class="st0" d="M-130.9,977.2L-130.9,977.2c-0.9,0-1.7,0.7-1.7,1.6s0.8,1.6,1.7,1.6c0.9,0,1.6-0.7,1.6-1.6
				S-130,977.2-130.9,977.2z"/>
		</g>
	</g>
	<g id="XMLID_3096_">
		<g id="XMLID_3097_">
			<path id="XMLID_3098_" class="st0" d="M-130.9,970.6L-130.9,970.6c-0.9,0-1.7,0.7-1.7,1.6s0.8,1.6,1.7,1.6c0.9,0,1.6-0.7,1.6-1.6
				C-129.3,971.4-130,970.6-130.9,970.6z"/>
		</g>
	</g>
	<g id="XMLID_3093_">
		<g id="XMLID_3094_">
			<path id="XMLID_3095_" class="st0" d="M-130.9,964.1L-130.9,964.1c-0.9,0-1.7,0.7-1.7,1.6s0.8,1.6,1.7,1.6c0.9,0,1.6-0.7,1.6-1.6
				S-130,964.1-130.9,964.1z"/>
		</g>
	</g>
	<g id="XMLID_3090_">
		<g id="XMLID_3091_">
			<path id="XMLID_3092_" class="st0" d="M-124.3,977.2L-124.3,977.2c-0.9,0-1.7,0.7-1.7,1.6s0.8,1.6,1.7,1.6c0.9,0,1.6-0.7,1.6-1.6
				S-123.4,977.2-124.3,977.2z"/>
		</g>
	</g>
	<g id="XMLID_3087_">
		<g id="XMLID_3088_">
			<path id="XMLID_3089_" class="st0" d="M-124.3,970.6L-124.3,970.6c-0.9,0-1.7,0.7-1.7,1.6s0.8,1.6,1.7,1.6c0.9,0,1.6-0.7,1.6-1.6
				C-122.7,971.4-123.4,970.6-124.3,970.6z"/>
		</g>
	</g>
	<g id="XMLID_3084_">
		<g id="XMLID_3085_">
			<path id="XMLID_3086_" class="st0" d="M-124.3,964.1L-124.3,964.1c-0.9,0-1.7,0.7-1.7,1.6s0.8,1.6,1.7,1.6c0.9,0,1.6-0.7,1.6-1.6
				S-123.4,964.1-124.3,964.1z"/>
		</g>
	</g>
	<g id="XMLID_3081_">
		<g id="XMLID_3082_">
			<path id="XMLID_3083_" class="st0" d="M-117.8,970.6L-117.8,970.6c-0.9,0-1.7,0.7-1.7,1.6s0.8,1.6,1.7,1.6c0.9,0,1.6-0.7,1.6-1.6
				C-116.1,971.4-116.9,970.6-117.8,970.6z"/>
		</g>
	</g>
	<g id="XMLID_3078_">
		<g id="XMLID_3079_">
			<path id="XMLID_3080_" class="st0" d="M-117.8,964.1L-117.8,964.1c-0.9,0-1.7,0.7-1.7,1.6s0.8,1.6,1.7,1.6c0.9,0,1.6-0.7,1.6-1.6
				S-116.9,964.1-117.8,964.1z"/>
		</g>
	</g>
	<g id="XMLID_3075_">
		<g id="XMLID_3076_">
			<path id="XMLID_3077_" class="st0" d="M-111.2,964.1L-111.2,964.1c-0.9,0-1.7,0.7-1.7,1.6s0.8,1.6,1.7,1.6c0.9,0,1.6-0.7,1.6-1.6
				S-110.3,964.1-111.2,964.1z"/>
		</g>
	</g>
	<g id="XMLID_3072_">
		<g id="XMLID_3073_">
			<path id="XMLID_3074_" class="st0" d="M-150.6,990.3L-150.6,990.3c-0.9,0-1.7,0.7-1.7,1.6s0.8,1.6,1.7,1.6c0.9,0,1.6-0.7,1.6-1.6
				C-148.9,991-149.7,990.3-150.6,990.3z"/>
		</g>
	</g>
	<g id="XMLID_3069_">
		<g id="XMLID_3070_">
			<path id="XMLID_3071_" class="st0" d="M-150.6,983.7L-150.6,983.7c-0.9,0-1.7,0.7-1.7,1.6s0.8,1.6,1.7,1.6c0.9,0,1.6-0.7,1.6-1.6
				S-149.7,983.7-150.6,983.7z"/>
		</g>
	</g>
	<g id="XMLID_3066_">
		<g id="XMLID_3067_">
			<path id="XMLID_3068_" class="st0" d="M-150.6,977.2L-150.6,977.2c-0.9,0-1.7,0.7-1.7,1.6s0.8,1.6,1.7,1.6c0.9,0,1.6-0.7,1.6-1.6
				S-149.7,977.2-150.6,977.2z"/>
		</g>
	</g>
	<g id="XMLID_3063_">
		<g id="XMLID_3064_">
			<path id="XMLID_3065_" class="st0" d="M-150.6,970.6L-150.6,970.6c-0.9,0-1.7,0.7-1.7,1.6s0.8,1.6,1.7,1.6c0.9,0,1.6-0.7,1.6-1.6
				C-148.9,971.4-149.7,970.6-150.6,970.6z"/>
		</g>
	</g>
	<g id="XMLID_3060_">
		<g id="XMLID_3061_">
			<path id="XMLID_3062_" class="st0" d="M-150.6,964.1L-150.6,964.1c-0.9,0-1.7,0.7-1.7,1.6s0.8,1.6,1.7,1.6c0.9,0,1.6-0.7,1.6-1.6
				S-149.7,964.1-150.6,964.1z"/>
		</g>
	</g>
	<g id="XMLID_3057_">
		<g id="XMLID_3058_">
			<path id="XMLID_3059_" class="st0" d="M-157.1,983.7L-157.1,983.7c-0.9,0-1.7,0.7-1.7,1.6s0.8,1.6,1.7,1.6c0.9,0,1.6-0.7,1.6-1.6
				S-156.2,983.7-157.1,983.7z"/>
		</g>
	</g>
	<g id="XMLID_3052_">
		<g id="XMLID_3055_">
			<path id="XMLID_3056_" class="st0" d="M-157.1,977.2L-157.1,977.2c-0.9,0-1.7,0.7-1.7,1.6s0.8,1.6,1.7,1.6c0.9,0,1.6-0.7,1.6-1.6
				S-156.2,977.2-157.1,977.2z"/>
		</g>
	</g>
	<g id="XMLID_3049_">
		<g id="XMLID_3050_">
			<path id="XMLID_3051_" class="st0" d="M-157.1,970.6L-157.1,970.6c-0.9,0-1.7,0.7-1.7,1.6s0.8,1.6,1.7,1.6c0.9,0,1.6-0.7,1.6-1.6
				C-155.5,971.4-156.2,970.6-157.1,970.6z"/>
		</g>
	</g>
	<g id="XMLID_3046_">
		<g id="XMLID_3047_">
			<path id="XMLID_3048_" class="st0" d="M-157.1,964.1L-157.1,964.1c-0.9,0-1.7,0.7-1.7,1.6s0.8,1.6,1.7,1.6c0.9,0,1.6-0.7,1.6-1.6
				S-156.2,964.1-157.1,964.1z"/>
		</g>
	</g>
	<g id="XMLID_3042_">
		<g id="XMLID_3044_">
			<path id="XMLID_3045_" class="st0" d="M-163.7,977.2L-163.7,977.2c-0.9,0-1.7,0.7-1.7,1.6s0.8,1.6,1.7,1.6c0.9,0,1.6-0.7,1.6-1.6
				S-162.8,977.2-163.7,977.2z"/>
		</g>
	</g>
	<g id="XMLID_3038_">
		<g id="XMLID_3039_">
			<path id="XMLID_3041_" class="st0" d="M-163.7,970.6L-163.7,970.6c-0.9,0-1.7,0.7-1.7,1.6s0.8,1.6,1.7,1.6c0.9,0,1.6-0.7,1.6-1.6
				C-162,971.4-162.8,970.6-163.7,970.6z"/>
		</g>
	</g>
	<g id="XMLID_3032_">
		<g id="XMLID_3036_">
			<path id="XMLID_3037_" class="st0" d="M-163.7,964.1L-163.7,964.1c-0.9,0-1.7,0.7-1.7,1.6s0.8,1.6,1.7,1.6c0.9,0,1.6-0.7,1.6-1.6
				S-162.8,964.1-163.7,964.1z"/>
		</g>
	</g>
	<g id="XMLID_2896_">
		<g id="XMLID_3029_">
			<path id="XMLID_3031_" class="st0" d="M-170.2,970.6L-170.2,970.6c-0.9,0-1.7,0.7-1.7,1.6s0.8,1.6,1.7,1.6c0.9,0,1.6-0.7,1.6-1.6
				C-168.6,971.4-169.3,970.6-170.2,970.6z"/>
		</g>
	</g>
	<g id="XMLID_2893_">
		<g id="XMLID_2894_">
			<path id="XMLID_2895_" class="st0" d="M-170.2,964.1L-170.2,964.1c-0.9,0-1.7,0.7-1.7,1.6s0.8,1.6,1.7,1.6c0.9,0,1.6-0.7,1.6-1.6
				S-169.3,964.1-170.2,964.1z"/>
		</g>
	</g>
	<g id="XMLID_2890_">
		<g id="XMLID_2891_">
			<path id="XMLID_2892_" class="st0" d="M-176.8,964.1L-176.8,964.1c-0.9,0-1.7,0.7-1.7,1.6s0.8,1.6,1.7,1.6c0.9,0,1.6-0.7,1.6-1.6
				S-175.9,964.1-176.8,964.1z"/>
		</g>
	</g>
	<g id="XMLID_2887_">
		<g id="XMLID_2888_">
			<path id="XMLID_2889_" class="st0" d="M-144,951L-144,951c-0.9,0-1.7,0.7-1.7,1.6s0.8,1.6,1.7,1.6c0.9,0,1.6-0.7,1.6-1.6
				S-143.1,951-144,951z"/>
		</g>
	</g>
	<g id="XMLID_2884_">
		<g id="XMLID_2885_">
			<path id="XMLID_2886_" class="st0" d="M-144,944.4L-144,944.4c-0.9,0-1.7,0.7-1.7,1.6s0.8,1.6,1.7,1.6c0.9,0,1.6-0.7,1.6-1.6
				S-143.1,944.4-144,944.4z"/>
		</g>
	</g>
	<g id="XMLID_2881_">
		<g id="XMLID_2882_">
			<path id="XMLID_2883_" class="st0" d="M-144,937.8L-144,937.8c-0.9,0-1.7,0.7-1.7,1.6s0.8,1.6,1.7,1.6c0.9,0,1.6-0.7,1.6-1.6
				S-143.1,937.8-144,937.8z"/>
		</g>
	</g>
	<g id="XMLID_2878_">
		<g id="XMLID_2879_">
			<path id="XMLID_2880_" class="st0" d="M-144,931.3L-144,931.3c-0.9,0-1.7,0.7-1.7,1.6s0.8,1.6,1.7,1.6c0.9,0,1.6-0.7,1.6-1.6
				S-143.1,931.3-144,931.3z"/>
		</g>
	</g>
	<g id="XMLID_2875_">
		<g id="XMLID_2876_">
			<path id="XMLID_2877_" class="st0" d="M-144,924.7L-144,924.7c-0.9,0-1.7,0.7-1.7,1.6s0.8,1.6,1.7,1.6c0.9,0,1.6-0.7,1.6-1.6
				S-143.1,924.7-144,924.7z"/>
		</g>
	</g>
	<g id="XMLID_2872_">
		<g id="XMLID_2873_">
			<path id="XMLID_2874_" class="st0" d="M-150.6,957.5L-150.6,957.5c-0.9,0-1.7,0.7-1.7,1.6s0.8,1.6,1.7,1.6c0.9,0,1.6-0.7,1.6-1.6
				C-148.9,958.2-149.7,957.5-150.6,957.5z"/>
		</g>
	</g>
	<g id="XMLID_2869_">
		<g id="XMLID_2870_">
			<path id="XMLID_2871_" class="st0" d="M-150.6,951L-150.6,951c-0.9,0-1.7,0.7-1.7,1.6s0.8,1.6,1.7,1.6c0.9,0,1.6-0.7,1.6-1.6
				S-149.7,951-150.6,951z"/>
		</g>
	</g>
	<g id="XMLID_2866_">
		<g id="XMLID_2867_">
			<path id="XMLID_2868_" class="st0" d="M-150.6,944.4L-150.6,944.4c-0.9,0-1.7,0.7-1.7,1.6s0.8,1.6,1.7,1.6c0.9,0,1.6-0.7,1.6-1.6
				S-149.7,944.4-150.6,944.4z"/>
		</g>
	</g>
	<g id="XMLID_2863_">
		<g id="XMLID_2864_">
			<path id="XMLID_2865_" class="st0" d="M-150.6,937.8L-150.6,937.8c-0.9,0-1.7,0.7-1.7,1.6s0.8,1.6,1.7,1.6c0.9,0,1.6-0.7,1.6-1.6
				S-149.7,937.8-150.6,937.8z"/>
		</g>
	</g>
	<g id="XMLID_2860_">
		<g id="XMLID_2861_">
			<path id="XMLID_2862_" class="st0" d="M-150.6,931.3L-150.6,931.3c-0.9,0-1.7,0.7-1.7,1.6s0.8,1.6,1.7,1.6c0.9,0,1.6-0.7,1.6-1.6
				S-149.7,931.3-150.6,931.3z"/>
		</g>
	</g>
	<g id="XMLID_2857_">
		<g id="XMLID_2858_">
			<path id="XMLID_2859_" class="st0" d="M-150.6,924.7L-150.6,924.7c-0.9,0-1.7,0.7-1.7,1.6s0.8,1.6,1.7,1.6c0.9,0,1.6-0.7,1.6-1.6
				S-149.7,924.7-150.6,924.7z"/>
		</g>
	</g>
	<g id="XMLID_2854_">
		<g id="XMLID_2855_">
			<path id="XMLID_2856_" class="st0" d="M-137.5,957.5L-137.5,957.5c-0.9,0-1.7,0.7-1.7,1.6s0.8,1.6,1.7,1.6c0.9,0,1.6-0.7,1.6-1.6
				C-135.8,958.2-136.5,957.5-137.5,957.5z"/>
		</g>
	</g>
	<g id="XMLID_2851_">
		<g id="XMLID_2852_">
			<path id="XMLID_2853_" class="st0" d="M-137.5,951L-137.5,951c-0.9,0-1.7,0.7-1.7,1.6s0.8,1.6,1.7,1.6c0.9,0,1.6-0.7,1.6-1.6
				S-136.5,951-137.5,951z"/>
		</g>
	</g>
	<g id="XMLID_2848_">
		<g id="XMLID_2849_">
			<path id="XMLID_2850_" class="st0" d="M-137.5,944.4L-137.5,944.4c-0.9,0-1.7,0.7-1.7,1.6s0.8,1.6,1.7,1.6c0.9,0,1.6-0.7,1.6-1.6
				S-136.5,944.4-137.5,944.4z"/>
		</g>
	</g>
	<g id="XMLID_2845_">
		<g id="XMLID_2846_">
			<path id="XMLID_2847_" class="st0" d="M-137.5,937.8L-137.5,937.8c-0.9,0-1.7,0.7-1.7,1.6s0.8,1.6,1.7,1.6c0.9,0,1.6-0.7,1.6-1.6
				S-136.5,937.8-137.5,937.8z"/>
		</g>
	</g>
	<g id="XMLID_2842_">
		<g id="XMLID_2843_">
			<path id="XMLID_2844_" class="st0" d="M-137.5,931.3L-137.5,931.3c-0.9,0-1.7,0.7-1.7,1.6s0.8,1.6,1.7,1.6c0.9,0,1.6-0.7,1.6-1.6
				S-136.5,931.3-137.5,931.3z"/>
		</g>
	</g>
	<g id="XMLID_2839_">
		<g id="XMLID_2840_">
			<path id="XMLID_2841_" class="st0" d="M-137.5,924.7L-137.5,924.7c-0.9,0-1.7,0.7-1.7,1.6s0.8,1.6,1.7,1.6c0.9,0,1.6-0.7,1.6-1.6
				S-136.5,924.7-137.5,924.7z"/>
		</g>
	</g>
</g>
</svg>
