<?xml version="1.0" encoding="utf-8"?>
<!-- Generator: Adobe Illustrator 19.0.0, SVG Export Plug-In . SVG Version: 6.00 Build 0)  -->
<svg version="1.1" id="Capa_1" xmlns="http://www.w3.org/2000/svg" xmlns:xlink="http://www.w3.org/1999/xlink" x="0px" y="0px"
	 viewBox="-339 761 400 400" style="enable-background:new -339 761 400 400;" xml:space="preserve">
<style type="text/css">
	.st0{fill:#F6AE2D;}
</style>
<g>
	<path class="st0" d="M43.7,943.7h-323.6l77.2-77.2c6.8-6.8,6.8-17.7,0-24.5c-6.8-6.8-17.7-6.8-24.5,0l-106.8,106.8
		c-6.8,6.8-6.8,17.7,0,24.5l106.8,106.8c3.4,3.4,7.8,5.1,12.2,5.1c4.4,0,8.9-1.7,12.2-5.1c6.8-6.8,6.8-17.7,0-24.5l-77.2-77.2H43.7
		c9.6,0,17.3-7.8,17.3-17.3S53.3,943.7,43.7,943.7z"/>
</g>
</svg>
