<?xml version="1.0" encoding="utf-8"?>
<!-- Generator: Adobe Illustrator 19.0.0, SVG Export Plug-In . SVG Version: 6.00 Build 0)  -->
<svg version="1.1" id="Layer_1" xmlns="http://www.w3.org/2000/svg" xmlns:xlink="http://www.w3.org/1999/xlink" x="0px" y="0px"
	 viewBox="-394 816.1 289.9 289.9" enable-background="new -394 816.1 289.9 289.9" xml:space="preserve">
<circle id="XMLID_5208_" fill="#3A4551" cx="-249.1" cy="961" r="144.9"/>
<g id="XMLID_5209_">
	<path id="XMLID_5210_" fill="#F6AE2D" d="M-285.5,964.4h6.6v6.6h6.6v6.6h-33.1V971h6.6v-13.3h13.3V964.4L-285.5,964.4z
		 M-199.4,1024h6.6v-6.6h-6.6V1024z M-278.9,964.4h6.6v-6.6h-6.6V964.4z M-186.1,1024h6.6v-6.6h-6.6V1024z M-265.6,1030.6h13.2v-6.6
		h-13.2V1030.6z M-206,1030.6v-6.6h-6.6v6.6H-206z M-232.5,1030.6h6.6v-13.3h-6.6V1030.6z M-285.5,944.5v6.6h19.9v-6.6H-285.5z
		 M-292.1,951.1v-6.6h-13.3v13.3h6.6v-6.7H-292.1z M-272.2,937.9h-46.4v-46.4h46.4V937.9z M-278.9,898.1H-312v33.1h33.1V898.1z
		 M-305.4,1017.3h19.9v-19.9h-19.9V1017.3z M-239.1,1010.7v6.6h6.6v-6.6H-239.1z M-285.5,904.7h-19.9v19.9h19.9V904.7z
		 M-179.5,891.5v46.4h-46.4v-46.4H-179.5z M-186.1,898.1h-33.1v33.1h33.1V898.1z M-318.6,984.2h46.4v46.4h-46.4V984.2z M-312,1024
		h33.1v-33.1H-312V1024z M-312,944.5h-6.6v33.1h6.6V944.5z M-225.9,977.6v6.6h6.6v-6.6H-225.9z M-245.8,1004.1v-6.6h-6.6v6.6h-13.2
		v13.3h13.2v6.6h6.6v-13.3h6.6v-6.6H-245.8L-245.8,1004.1z M-265.6,918h13.2v-6.6h-13.2V918z M-212.6,971h13.3v6.6h6.6v-19.9h-6.6
		v-13.3h-6.7v19.9h-19.9v6.6h6.6v6.6h6.6L-212.6,971L-212.6,971L-212.6,971z M-206,990.8h-6.6v-6.6h-6.6v13.3h-19.9v6.6h13.3v13.3
		h6.6v6.6h6.6v-13.3h26.5v-6.6H-206V990.8L-206,990.8z M-206,990.8h6.6v-13.2h-6.6V990.8z M-259,990.8v-6.6h6.6v-6.6h6.6V971h6.6
		v-13.3h19.9v-13.3h-6.6v6.6h-6.6v-26.5h-6.6v-13.2h6.6v-19.8h-6.6v13.3h-6.6v-13.3h-19.9v13.3h6.6v-6.7h6.6v13.2h6.6v19.9h6.6v6.6
		h-6.6v13.3h-6.6v-13.3h-6.6v-6.6h-6.6v13.3h6.6v6.6h-6.6V971h6.6v-13.3h6.6V971h-6.6v6.6h-6.6v19.9h13.2v-6.6L-259,990.8
		L-259,990.8z M-186.1,997.5v-6.6h-13.2v6.6H-186.1z M-192.8,904.7h-19.9v19.9h19.9V904.7z M-245.8,990.8h13.3v-6.6h-6.6v-6.6h-6.6
		L-245.8,990.8L-245.8,990.8z M-232.5,977.6V971h-6.6v6.6H-232.5z M-192.8,951.1h13.3v-6.6h-13.3V951.1z M-186.1,1004.1h6.6v-6.6
		h-6.6V1004.1z M-186.1,964.4h6.6v-6.6h-6.6V964.4z M-245.8,931.2h-6.6v6.6h6.6V931.2z"/>
</g>
</svg>
