<?xml version="1.0" encoding="utf-8"?>
<!-- Generator: Adobe Illustrator 19.0.0, SVG Export Plug-In . SVG Version: 6.00 Build 0)  -->
<svg version="1.1" id="Layer_1" xmlns="http://www.w3.org/2000/svg" xmlns:xlink="http://www.w3.org/1999/xlink" x="0px" y="0px"
	 viewBox="-419 840.6 240.4 240.4" enable-background="new -419 840.6 240.4 240.4" xml:space="preserve">
<circle id="XMLID_4972_" fill="#3A4551" cx="-298.8" cy="960.8" r="120.2"/>
<g id="XMLID_4725_">
	<g id="XMLID_4756_">
		<g id="XMLID_4757_">
			<path id="XMLID_4758_" fill="#F6AE2D" d="M-262.2,988.4c-6.7-5.3-24.6-19.4-27.2-28.6c-1.9-6.5-8.7-10.3-15.3-8.5
				c-6.5,1.9-10.3,8.7-8.5,15.3c4.4,15.5,20.7,29.3,35.6,41.1c0.5,0.4,1,0.5,1.5,0.5c0.7,0,1.5-0.3,1.9-0.9c0.8-1.1,0.7-2.6-0.4-3.5
				c-14.3-11.3-29.9-24.6-33.9-38.6c-1.1-3.9,1.2-8,5.1-9.2c3.9-1.1,8,1.1,9.2,5.1c2.7,9.4,16.1,21,28.9,31.1
				c1.1,0.8,2.6,0.7,3.5-0.4C-260.9,990.8-261.1,989.3-262.2,988.4z"/>
		</g>
	</g>
	<g id="XMLID_4753_">
		<g id="XMLID_4754_">
			<path id="XMLID_4755_" fill="#F6AE2D" d="M-255.2,966.3c-5.8-4.7-14.2-11.7-15.4-12.8c-5.2-16.4-22.8-25.8-39.5-21.1
				c-8.3,2.4-15.1,7.8-19.2,15.3c-4.2,7.5-5.1,16.2-2.8,24.4c4.1,14.1-4.6,18-7.4,18.9c-1.3,0.4-2,1.8-1.6,3.1
				c0.3,1.1,1.3,1.7,2.4,1.7c0.2,0,0.5,0,0.7-0.1c7.6-2.4,14.9-10.3,10.7-24.9c-2-7-1.2-14.3,2.3-20.7c3.5-6.4,9.3-11,16.3-13
				c14.2-4,29.2,4.1,33.5,18.2c0.1,0.2,0.1,0.4,0.2,0.5c0.3,0.4,0.8,1.3,16.7,14.2c1.1,0.9,2.6,0.7,3.5-0.4
				C-254,968.8-254.2,967.2-255.2,966.3z"/>
		</g>
	</g>
	<g id="XMLID_4750_">
		<g id="XMLID_4751_">
			<path id="XMLID_4752_" fill="#F6AE2D" d="M-257.7,978.7c-18.3-14.5-21.5-19.1-22.2-21.5c-3.4-11.8-15.7-18.6-27.5-15.2
				c-11.4,3.3-18,15-15.3,27.4c5,22.7,1.3,28-9,31.2c-1.3,0.4-2,1.8-1.6,3.1c0.3,1.1,1.3,1.7,2.4,1.7c0.2,0,0.5,0,0.7-0.1
				c14.3-4.5,17.4-13.8,12.3-37c-2.1-9.7,2.9-19,11.8-21.6c9.2-2.6,18.8,2.7,21.4,11.8c1,3.4,3.6,8,23.8,24c1.1,0.9,2.6,0.7,3.5-0.4
				C-256.5,981.1-256.7,979.6-257.7,978.7z"/>
		</g>
	</g>
	<g id="XMLID_4747_">
		<g id="XMLID_4748_">
			<path id="XMLID_4749_" fill="#F6AE2D" d="M-267.4,996.2c-1.1-1.1-3.2-2.7-5.7-4.6c-8.4-6.3-22.4-17-25.8-28.9
				c-0.4-1.3-1.7-2.1-3.1-1.7c-1.3,0.4-2.1,1.7-1.7,3.1c3.9,13.6,18.7,24.8,27.6,31.5c2.3,1.7,4.3,3.3,5.2,4.2
				c0.5,0.5,1.1,0.7,1.7,0.7c0.6,0,1.3-0.2,1.7-0.7C-266.4,998.7-266.4,997.2-267.4,996.2z"/>
		</g>
	</g>
	<g id="XMLID_4744_">
		<g id="XMLID_4745_">
			<path id="XMLID_4746_" fill="#F6AE2D" d="M-284.7,1010.9c-0.5-0.5-1.1-1.3-1.8-2.2c-2.5-3.3-6.2-8.4-12.3-8.4
				c-8.4,0-9.7,14.3-9.9,17.1c-0.1,1.4,1,2.5,2.3,2.6c0.1,0,0.1,0,0.2,0c1.3,0,2.4-1,2.5-2.3c0.3-5.1,2.3-12.5,4.9-12.5
				c3.7,0,6.3,3.5,8.3,6.4c0.8,1.1,1.6,2.1,2.3,2.8c1,1,2.5,1,3.5,0S-283.7,1011.9-284.7,1010.9z"/>
		</g>
	</g>
	<g id="XMLID_4741_">
		<g id="XMLID_4742_">
			<path id="XMLID_4743_" fill="#F6AE2D" d="M-308.8,987.2c-0.4-1.3-1.8-2-3.1-1.6s-2,1.8-1.6,3.1c2.1,6.6-2,19.6-8.3,21.6
				c-1.3,0.4-2,1.8-1.6,3.1c0.3,1,1.3,1.7,2.4,1.7c0.3,0,0.5,0,0.8-0.1C-310.8,1011.9-306.2,995.4-308.8,987.2z"/>
		</g>
	</g>
	<g id="XMLID_4738_">
		<g id="XMLID_4739_">
			<path id="XMLID_4740_" fill="#F6AE2D" d="M-256,953.6c-3.1-1-5.5-4.9-8.3-9.5c-6-9.6-14.1-22.8-36.9-22.8c-23.2,0-42,18.8-42,42
				c0,1.4,1.1,2.5,2.5,2.5s2.5-1.1,2.5-2.5c0-20.4,16.6-37.1,37.1-37.1c20,0,27.1,11.3,32.7,20.4c3.3,5.4,6.2,10,11,11.6
				c1.3,0.4,2.7-0.3,3.1-1.6C-254,955.3-254.7,953.9-256,953.6z"/>
		</g>
	</g>
	<g id="XMLID_4735_">
		<g id="XMLID_4736_">
			<path id="XMLID_4737_" fill="#F6AE2D" d="M-336.1,979.6c-0.9-1.8-2.2-5-2.2-6.3c0-1.4-1.1-2.5-2.5-2.5s-2.5,1.1-2.5,2.5
				c0,2.9,2.3,7.6,2.7,8.5s1.3,1.4,2.2,1.4c0.4,0,0.8-0.1,1.1-0.3C-336,982.2-335.5,980.8-336.1,979.6z"/>
		</g>
	</g>
	<g id="XMLID_4732_">
		<g id="XMLID_4733_">
			<path id="XMLID_4734_" fill="#F6AE2D" d="M-264.6,927.4c-3.4-5.6-18.4-16-39.2-16c-22.1,0-34,11.6-36.7,16
				c-0.7,1.2-0.3,2.7,0.8,3.4c1.2,0.7,2.7,0.3,3.4-0.8c2.1-3.5,12.7-13.6,32.5-13.6c19,0,32.5,9.6,34.9,13.6
				c0.5,0.8,1.3,1.2,2.1,1.2c0.4,0,0.9-0.1,1.3-0.4C-264.2,930.2-263.9,928.7-264.6,927.4z"/>
		</g>
	</g>
	<g id="XMLID_4729_">
		<g id="XMLID_4730_">
			<path id="XMLID_4731_" fill="#F6AE2D" d="M-275.8,906.7c-1-0.3-1.9-0.7-2.8-1c-5.4-2-11-4.1-25.2-4.1c-13.1,0-16.3,1.7-20.5,3.8
				c-0.8,0.4-1.7,0.9-2.8,1.4c-1.2,0.6-1.8,2-1.2,3.3c0.6,1.2,2,1.8,3.3,1.2c1.1-0.5,2.1-1,3-1.5c3.7-1.9,6.4-3.3,18.2-3.3
				c13.4,0,18.3,1.8,23.5,3.8c0.9,0.3,1.9,0.7,2.9,1c0.3,0.1,0.5,0.1,0.8,0.1c1,0,2-0.6,2.3-1.7
				C-273.8,908.4-274.5,907.1-275.8,906.7z"/>
		</g>
	</g>
	<g id="XMLID_4726_">
		<g id="XMLID_4727_">
			<path id="XMLID_4728_" fill="#F6AE2D" d="M-254.4,942.8c-1.3-4.1-5-10.2-5.2-10.4c-0.7-1.2-2.2-1.5-3.4-0.8s-1.5,2.2-0.8,3.4
				c0,0.1,3.6,5.8,4.7,9.3c0.3,1.1,1.3,1.7,2.4,1.7c0.2,0,0.5,0,0.8-0.1C-254.7,945.4-254,944.1-254.4,942.8z"/>
		</g>
	</g>
</g>
</svg>
