<?xml version="1.0" encoding="utf-8"?>
<!-- Generator: Adobe Illustrator 19.0.0, SVG Export Plug-In . SVG Version: 6.00 Build 0)  -->
<svg version="1.1" id="Layer_1" xmlns="http://www.w3.org/2000/svg" xmlns:xlink="http://www.w3.org/1999/xlink" x="0px" y="0px"
	 viewBox="-1428.2 2522.4 240.4 240.4" enable-background="new -1428.2 2522.4 240.4 240.4" xml:space="preserve">
<circle id="XMLID_4972_" fill="#3A4551" cx="-1308" cy="2642.6" r="120.2"/>
<path id="XMLID_2955_" fill="#3A4551" stroke="#F6AE2D" stroke-width="2" stroke-miterlimit="10" d="M-1289.4,2671.2
	c-6.7,27-34.1,43.4-61.1,36.7c-27-6.7-43.4-34.1-36.7-61.1c6.7-27,34.1-43.4,61.1-36.7C-1299.1,2616.9-1282.7,2644.2-1289.4,2671.2
	L-1289.4,2671.2z"/>
<path id="XMLID_2912_" fill="#F6AE2D" d="M-1316.1,2651.8c1-6.7-4.1-10.3-11.1-12.7l2.3-9.1l-5.5-1.4l-2.2,8.8
	c-1.5-0.4-2.9-0.7-4.4-1l2.2-8.9l-5.5-1.4l-2.3,9.1c-1.2-0.3-2.4-0.5-3.5-0.8l0,0l-7.6-1.9l-1.5,5.9c0,0,4.1,0.9,4,1
	c2.2,0.6,2.6,2,2.6,3.2l-2.6,10.3c0.2,0,0.4,0.1,0.6,0.2l-0.6-0.1l-3.6,14.5c-0.3,0.7-1,1.7-2.5,1.3c0.1,0.1-4-1-4-1l-2.7,6.3
	l7.2,1.8c1.3,0.3,2.7,0.7,3.9,1l-2.3,9.2l5.5,1.4l2.3-9.1c1.5,0.4,3,0.8,4.4,1.1l-2.3,9l5.5,1.4l2.3-9.2c9.4,1.8,16.5,1.1,19.5-7.5
	c2.4-6.9-0.1-10.8-5.1-13.4C-1319.5,2659.1-1316.8,2656.7-1316.1,2651.8L-1316.1,2651.8z M-1328.7,2669.6c-1.7,6.9-13.3,3.2-17,2.2
	l3-12.2C-1339,2660.5-1326.9,2662.4-1328.7,2669.6L-1328.7,2669.6z M-1327,2651.7c-1.6,6.2-11.2,3.1-14.3,2.3l2.8-11
	C-1335.4,2643.8-1325.4,2645.2-1327,2651.7z"/>
<path id="XMLID_2895_" fill="#3A4551" stroke="#F6AE2D" stroke-width="2" stroke-miterlimit="10" d="M-1228.8,2638.4
	c-6.7,27-34.1,43.4-61.1,36.7c-27-6.7-43.4-34.1-36.7-61.1c6.7-27,34.1-43.4,61.1-36.7C-1238.5,2584-1222.1,2611.4-1228.8,2638.4
	L-1228.8,2638.4z"/>
<g id="XMLID_2469_">
	<path id="XMLID_2887_" fill="#F6AE2D" d="M-1277.7,2637.2l19.8-11.7l-19.8-32.8l-19.8,32.8L-1277.7,2637.2L-1277.7,2637.2z"/>
	<path id="XMLID_2883_" fill="#F6AE2D" d="M-1277.7,2657.2l19.8-27.9l-19.8,11.7l-19.8-11.7L-1277.7,2657.2z"/>
</g>
</svg>
