<?xml version="1.0" encoding="utf-8"?>
<!-- Generator: Adobe Illustrator 19.0.0, SVG Export Plug-In . SVG Version: 6.00 Build 0)  -->
<svg version="1.1" id="Layer_1" xmlns="http://www.w3.org/2000/svg" xmlns:xlink="http://www.w3.org/1999/xlink" x="0px" y="0px"
	 viewBox="0 0 582.8 582.8" enable-background="new 0 0 582.8 582.8" xml:space="preserve">
<g id="XMLID_1_">
	<circle id="XMLID_81_" fill="#FCD206" cx="291.4" cy="291.4" r="291.4"/>
	<path id="XMLID_74_" fill="#FFFFFF" d="M343.6,177.5c12.2-14.5,18.3-30.1,18.3-46.9l0,0c0-2.2-0.1-4.5-0.4-6.7
		c-8.5,0.4-17.5,3-27.1,7.7c-9.6,4.7-17.5,10.6-23.7,17.8c-12.4,14.1-19.4,31.3-19.4,47.4c0,2.2,0.1,4.3,0.4,6.3
		C311.1,204.7,328.9,194.7,343.6,177.5z"/>
	<path id="XMLID_75_" fill="#FFFFFF" d="M360,203.4c-10.4-0.9-23.1,1.4-38.1,6.8c-15.9,5.8-25.3,8.8-28.1,8.8
		c-3.7,0-12.1-2.5-25.3-7.4c-13.2-4.9-23.8-7.4-31.9-7.4c-14.8,0.2-28.5,4.1-41.2,11.6s-22.9,17.8-30.5,30.9
		c-9.7,16.2-14.6,35.6-14.6,58c0,19.6,3.6,39.8,10.8,60.7c6.5,18.8,14.8,35.4,24.9,49.8l187.5-209.8
		C369.2,204.5,364.7,203.8,360,203.4z"/>
	<path id="XMLID_76_" opacity="0.7" fill="#FFFFFF" d="M211,445.4c10.1,9.4,20.3,13.9,30.5,13.5c6.7-0.2,15.5-2.5,26.3-6.9
		c10.9-4.4,21-6.6,30.5-6.6c9,0,18.9,2.2,29.6,6.6c10.7,4.4,19.9,6.6,27.5,6.6c10.6-0.2,20.6-4.6,29.8-13.1c6-5.2,13.7-14.5,23.2-28
		c6.9-9.9,12.9-20.7,18-32.4l0,0c2.1-5,4.1-10.1,5.9-15.5c-8.6-3.6-16.3-8.7-23.2-15.2c-15.2-14.1-23-31.9-23.2-53.3
		c-0.2-27.4,12.2-48.8,37.4-64.1c-11.7-16.7-28.4-27.2-50-31.5L186,415.2c0.3,0.4,0.5,0.8,0.8,1.2C196.5,430,204.6,439.7,211,445.4z
		"/>
</g>
</svg>
