<?xml version="1.0" encoding="utf-8"?>
<!-- Generator: Adobe Illustrator 19.0.0, SVG Export Plug-In . SVG Version: 6.00 Build 0)  -->
<svg version="1.1" id="Layer_1" xmlns="http://www.w3.org/2000/svg" xmlns:xlink="http://www.w3.org/1999/xlink" x="0px" y="0px"
	 viewBox="-522 1435.5 393.2 91.5" enable-background="new -522 1435.5 393.2 91.5" xml:space="preserve">
<g id="XMLID_15_">
	<g id="XMLID_1144_">
		<path id="XMLID_1149_" fill="#F9FBFC" d="M-309.4,1468.8c2.3,0,4.5,0.4,6.4,1.2c2.1,0.8,3.7,2.1,5.4,3.5c1.4,1.4,2.7,3.3,3.5,5.4
			s1.2,4.1,1.2,6.4c0,2.3-0.4,4.5-1.2,6.4c-0.8,2.1-2.1,3.7-3.5,5.4c-1.4,1.4-3.3,2.7-5.4,3.5c-2.1,0.8-4.1,1.2-6.4,1.2
			s-4.5-0.4-6.4-1.2c-2.1-0.8-3.7-2.1-5.4-3.5c-1.4-1.4-2.7-3.3-3.5-5.4c-0.8-2.1-1.2-4.1-1.2-6.4v-31.6h3.3v21.9
			c1.4-2.1,3.5-3.7,5.8-5C-314.5,1469.4-312,1468.8-309.4,1468.8z M-309.4,1472.1c-1.9,0-3.5,0.4-5.2,1c-1.7,0.6-3.1,1.7-4.3,2.9
			s-2.1,2.7-2.9,4.3c-0.6,1.7-1,3.3-1,5.2s0.4,3.5,1,5.2c0.6,1.7,1.7,3.1,2.9,4.3s2.7,2.1,4.3,2.9c1.7,0.6,3.3,1,5.2,1
			s3.5-0.4,5.2-1c1.7-0.6,3.1-1.7,4.3-2.9s2.1-2.7,2.9-4.3c0.6-1.7,1-3.3,1-5.2s-0.4-3.5-1-5.2c-0.6-1.7-1.7-3.1-2.9-4.3
			s-2.7-2.1-4.3-2.9C-305.8,1472.5-307.5,1472.1-309.4,1472.1z"/>
		<path id="XMLID_1146_" fill="#F9FBFC" d="M-287.5,1453.5h3.3v5.4h-3.3V1453.5z M-287.5,1469.4h3.3v31.8h-3.3V1469.4z"/>
		<path id="XMLID_1145_" fill="#F9FBFC" d="M-278,1461.3h3.3v8.3h12v3.3h-12v20.6c0,1.4,0.4,2.5,1.4,3.5s2.1,1.4,3.5,1.4
			s2.5-0.4,3.5-1.4s1.4-2.1,1.4-3.5h3.3c0,1.2-0.2,2.3-0.6,3.3s-1,1.9-1.9,2.7c-0.8,0.8-1.7,1.2-2.7,1.9c-1,0.4-2.1,0.6-3.3,0.6
			s-2.3-0.2-3.3-0.6s-1.9-1-2.7-1.9c-0.8-0.8-1.2-1.7-1.9-2.7c-0.4-1-0.6-2.1-0.6-3.3v-32.2H-278z"/>
	</g>
	<g id="XMLID_1142_">
		<path id="XMLID_1143_" fill="#F9FBFC" d="M-256.5,1446.3h29.1c-3.9,9.3-7.8,18.4-11.8,27.4c-3.9,9.1-7.8,18.2-11.8,27.4h-3.7
			l22.1-51.6h-23.9L-256.5,1446.3L-256.5,1446.3z"/>
	</g>
	<g id="XMLID_1134_">
		<path id="XMLID_1139_" fill="#F9FBFC" d="M-213.6,1468.8c2.3,0,4.5,0.4,6.4,1.2c2.1,0.8,3.7,2.1,5.4,3.5c1.4,1.4,2.7,3.3,3.5,5.4
			s1.2,4.1,1.2,6.4c0,2.3-0.4,4.5-1.2,6.4c-0.8,2.1-2.1,3.7-3.5,5.4c-1.4,1.4-3.3,2.7-5.4,3.5c-2.1,0.8-4.1,1.2-6.4,1.2
			c-2.7,0-5.4-0.6-7.6-1.9c-2.3-1.2-4.1-2.9-5.8-4.7v21.9h-3.3v-31.6c0-2.3,0.4-4.5,1.2-6.4c0.8-2.1,2.1-3.7,3.5-5.4
			c1.4-1.4,3.3-2.7,5.4-3.5C-218.2,1469.2-215.9,1468.8-213.6,1468.8z M-213.6,1472.3c-1.9,0-3.5,0.4-5.2,1
			c-1.7,0.6-3.1,1.7-4.1,2.9c-1.2,1.2-2.1,2.7-2.9,4.3c-0.6,1.7-1,3.3-1,5.2c0,1.9,0.4,3.5,1,5.2c0.6,1.7,1.7,3.1,2.9,4.3
			c1.2,1.2,2.7,2.1,4.1,2.9c1.7,0.6,3.3,1,5.2,1c1.9,0,3.5-0.4,5.2-1s3.1-1.7,4.3-2.9c1.2-1.2,2.1-2.7,2.9-4.3c0.6-1.7,1-3.3,1-5.2
			c0-1.9-0.4-3.5-1-5.2s-1.7-3.1-2.9-4.3c-1.2-1.2-2.7-2.1-4.3-2.9C-210.1,1472.5-211.8,1472.3-213.6,1472.3z"/>
		<path id="XMLID_1136_" fill="#F9FBFC" d="M-175.7,1468.6c2.3,0,4.5,0.4,6.4,1.2c2.1,0.8,3.7,2.1,5.4,3.5c1.4,1.4,2.7,3.3,3.5,5.4
			c0.8,2.1,1.2,4.1,1.2,6.4v15.9h-3.3v-6c-1.4,2.1-3.3,3.7-5.8,4.7c-2.3,1.2-5,1.9-7.6,1.9c-2.3,0-4.5-0.4-6.4-1.2
			c-2.1-0.8-3.7-2.1-5.4-3.5c-1.4-1.4-2.7-3.3-3.5-5.4s-1.2-4.1-1.2-6.4c0-2.3,0.4-4.5,1.2-6.4c0.8-2.1,2.1-3.7,3.5-5.4
			c1.4-1.4,3.3-2.7,5.4-3.5C-180,1469-177.9,1468.6-175.7,1468.6z M-175.7,1472.1c-1.9,0-3.5,0.4-5.2,1s-3.1,1.7-4.3,2.9
			c-1.2,1.2-2.1,2.7-2.9,4.3c-0.6,1.7-1,3.3-1,5.2s0.4,3.5,1,5.2c0.6,1.7,1.7,3.1,2.9,4.3c1.2,1.2,2.7,2.1,4.3,2.9
			c1.7,0.6,3.3,1,5.2,1s3.5-0.4,5.2-1s3.1-1.7,4.3-2.9c1.2-1.2,2.1-2.7,2.9-4.3c0.6-1.7,1-3.3,1-5.2s-0.4-3.5-1-5.2
			c-0.6-1.7-1.7-3.1-2.9-4.3c-1.2-1.2-2.7-2.1-4.3-2.9C-172,1472.3-173.8,1472.1-175.7,1472.1z"/>
		<path id="XMLID_1135_" fill="#F9FBFC" d="M-141,1502c-1.7,0-3.3-0.4-5-1c-1.4-0.6-2.9-1.7-3.9-2.7s-2.1-2.5-2.7-3.9s-1-3.1-1-5
			v-20h3.3v20c0,1.2,0.2,2.5,0.6,3.5s1,2.1,1.9,2.9c0.9,0.8,1.9,1.4,2.9,1.9c1,0.4,2.3,0.6,3.5,0.6s2.5-0.2,3.5-0.6
			c1-0.4,2.1-1,2.9-1.9c0.8-0.9,1.4-1.9,2.1-2.9c0.4-1,0.8-2.3,0.8-3.5v-20h3.3v20v15.5c0,1.7-0.4,3.3-1,5c-0.6,1.4-1.7,2.9-2.7,3.9
			s-2.5,2.1-3.9,2.7s-3.1,1-5,1v-3.3c1.2,0,2.5-0.2,3.5-0.8c1-0.4,2.1-1.2,2.9-2.1c0.8-0.8,1.4-1.9,2.1-2.9c0.4-1,0.8-2.3,0.8-3.5
			v-7c-1.2,1.2-2.5,2.3-4.1,2.9C-137.5,1501.6-139.2,1502-141,1502z"/>
	</g>
</g>
<path id="XMLID_879_" fill="#F9FBFC" d="M-404.8,1435.5c-25.5,0-45.8,20.7-45.8,45.8c0,25.5,20.7,45.8,45.8,45.8
	c25.5,0,45.8-20.7,45.8-45.8C-358.7,1455.8-379.4,1435.5-404.8,1435.5z M-404.8,1520.6c-21.5,0-39.4-17.5-39.4-39.4
	c0-21.9,17.5-39.3,39.4-39.3c21.5,0,39.4,17.5,39.4,39.4C-365.4,1503.2-382.9,1520.6-404.8,1520.6z"/>
<path id="XMLID_875_" fill="#F6AE2D" d="M-393.7,1480.5c0.8-0.4,1.2-0.4,1.2-0.4c0.4,0,0.8-0.4,1.2-0.8c2-1.2,2.8-3.6,2.8-6.4
	c0-2.4-0.8-4.4-2.4-6.4c-0.8-0.8-2.4-1.6-4-2.4c-0.8-0.4-2-0.4-3.2-0.8v-4.4h-4v4.4h-4.4v-4.4h-4v4.4h-4.8h-6.4v6.8h3.6
	c1.2,0,2.8,0.4,2.8,2.8v16.3c0,2.8-1.6,2.8-2.8,2.8h-3.6v6.8h6.4h4.8v4.4h4v-4.4h4.4v4.4h4v-4.8c4,0,7.2-1.2,8.8-3.2s2.4-4,2.4-6.8
	c0-2.4-0.8-4-2-5.6C-389.7,1482.1-391.3,1481.3-393.7,1480.5z M-406.8,1470.1h4c2.4,0,4,0.4,5.2,0.8s1.6,1.6,1.6,3.2
	s-0.4,2.8-1.6,3.2c-1.2,0.4-2.8,0.8-4.8,0.8h-4L-406.8,1470.1L-406.8,1470.1z M-396.5,1491.6c-1.2,0.4-2.8,0.8-5.2,0.8h-5.6v-8.4
	h4.8c2.8,0,4.8,0.4,6,0.8c1.2,0.4,2,1.6,2,3.2C-394.5,1490-395.3,1490.8-396.5,1491.6z"/>
<path id="XMLID_874_" fill="#F9FBFC" d="M-459.3,1494c-10.7,0-21.9,0-32.6,0c-5.6,0-5.6,8.4,0,8.4c10.7,0,21.9,0,32.6,0
	C-453.8,1502.7-453.8,1494-459.3,1494z"/>
<path id="XMLID_873_" fill="#F9FBFC" d="M-458.9,1461.4c-10.7,0-21.9,0-32.6,0c-5.6,0-5.6,8.4,0,8.4c10.7,0,21.9,0,32.6,0
	C-453.4,1469.7-453.4,1461.4-458.9,1461.4z"/>
<path id="XMLID_872_" fill="#F9FBFC" d="M-462.9,1477.7c-24.3,0-30.2,0-54.9,0c-5.6,0-5.6,8.4,0,8.4c24.3,0,30.2,0,54.9,0
	C-457.3,1486.4-457.3,1477.7-462.9,1477.7z"/>
</svg>
