<?xml version="1.0" encoding="utf-8"?>
<!-- Generator: Adobe Illustrator 19.0.0, SVG Export Plug-In . SVG Version: 6.00 Build 0)  -->
<svg version="1.1" id="Capa_1" xmlns="http://www.w3.org/2000/svg" xmlns:xlink="http://www.w3.org/1999/xlink" x="0px" y="0px"
	 viewBox="-227 228 57 57" style="enable-background:new -227 228 57 57;" xml:space="preserve">
<style type="text/css">
	.st0{fill:#44CCFF;}
	.st1{fill:#F9FBFC;}
</style>
<rect x="-227" y="228" class="st0" width="57" height="57"/>
<g>
	<circle class="st1" cx="-208.5" cy="259.5" r="5.5"/>
	<path class="st1" d="M-208.5,266c-3.6,0-6.5-2.9-6.5-6.5c0-3.6,2.9-6.5,6.5-6.5s6.5,2.9,6.5,6.5C-202,263.1-204.9,266-208.5,266z
		 M-208.5,255c-2.5,0-4.5,2-4.5,4.5s2,4.5,4.5,4.5s4.5-2,4.5-4.5S-206,255-208.5,255z"/>
</g>
<g>
	<circle class="st1" cx="-191.5" cy="259.5" r="5.5"/>
	<path class="st1" d="M-191.5,266c-3.6,0-6.5-2.9-6.5-6.5c0-3.6,2.9-6.5,6.5-6.5s6.5,2.9,6.5,6.5C-185,263.1-187.9,266-191.5,266z
		 M-191.5,255c-2.5,0-4.5,2-4.5,4.5s2,4.5,4.5,4.5s4.5-2,4.5-4.5S-189,255-191.5,255z"/>
</g>
<path class="st1" d="M-214,260c-0.6,0-1-0.4-1-1c0-7.7,6.3-14,14-14c0.6,0,1,0.4,1,1s-0.4,1-1,1c-6.6,0-12,5.4-12,12
	C-213,259.6-213.4,260-214,260z"/>
<path class="st1" d="M-197,260c-0.6,0-1-0.4-1-1c0-7.7,6.3-14,14-14c0.6,0,1,0.4,1,1s-0.4,1-1,1c-6.6,0-12,5.4-12,12
	C-196,259.6-196.4,260-197,260z"/>
</svg>
