<?xml version="1.0" encoding="utf-8"?>
<!-- Generator: Adobe Illustrator 19.0.0, SVG Export Plug-In . SVG Version: 6.00 Build 0)  -->
<svg version="1.1" id="Layer_1" xmlns="http://www.w3.org/2000/svg" xmlns:xlink="http://www.w3.org/1999/xlink" x="0px" y="0px"
	 viewBox="0 0 18.6 17.7" enable-background="new 0 0 18.6 17.7" xml:space="preserve">
<g id="XMLID_715_">
	<path id="XMLID_717_" fill="#44CCFF" d="M8.6,0.4C8.8,0.2,9,0,9.3,0c0.3,0,0.5,0.2,0.6,0.4l2.3,4.7c0.1,0.2,0.3,0.4,0.5,0.4L18,6.2
		c0.3,0,0.5,0.2,0.6,0.5c0.1,0.3,0,0.5-0.2,0.7l-3.7,3.6c-0.2,0.2-0.2,0.4-0.2,0.6l0.9,5.2c0,0.3-0.1,0.5-0.3,0.7
		c-0.2,0.2-0.5,0.2-0.8,0.1l-4.6-2.4c-0.2-0.1-0.5-0.1-0.7,0l-4.6,2.4c-0.2,0.1-0.5,0.1-0.8-0.1c-0.2-0.2-0.3-0.4-0.3-0.7l0.9-5.2
		c0-0.2,0-0.5-0.2-0.6L0.2,7.5C0,7.3,0,7,0,6.7c0.1-0.3,0.3-0.5,0.6-0.5l5.2-0.8c0.2,0,0.4-0.2,0.5-0.4L8.6,0.4z"/>
</g>
</svg>
