<?xml version="1.0" encoding="utf-8"?>
<!-- Generator: Adobe Illustrator 19.0.0, SVG Export Plug-In . SVG Version: 6.00 Build 0)  -->
<svg version="1.1" id="Layer_1" xmlns="http://www.w3.org/2000/svg" xmlns:xlink="http://www.w3.org/1999/xlink" x="0px" y="0px"
	 viewBox="-404.5 1289.2 395 395" enable-background="new -404.5 1289.2 395 395" xml:space="preserve">
<path fill="#FFFFFF" stroke="#9BA6B2" stroke-width="18" stroke-miterlimit="10" d="M-63.5,1675.2h-287c-24.8,0-45-20.2-45-45v-287
	c0-24.8,20.2-45,45-45h287c24.8,0,45,20.2,45,45v287C-18.5,1655-38.7,1675.2-63.5,1675.2z"/>
<g>
	<polygon fill="#3A4551" points="-207,1339.2 -285.2,1446.8 -231.5,1446.8 -231.5,1505.5 -182.5,1505.5 -182.5,1446.8 
		-128.8,1446.8 	"/>
	<path fill="#9BA6B2" d="M-192.3,1525h-29.3c-5.4,0-9.8,4.4-9.8,9.8s4.4,9.8,9.8,9.8h29.3c5.4,0,9.8-4.4,9.8-9.8
		S-187,1525-192.3,1525"/>
	<path fill="#9BA6B2" d="M-192.3,1564.1h-29.3c-5.4,0-9.8,4.4-9.8,9.8s4.4,9.8,9.8,9.8h29.3c5.4,0,9.8-4.4,9.8-9.8
		S-187,1564.1-192.3,1564.1"/>
	<path fill="#9BA6B2" d="M-192.3,1603.3h-29.3c-5.4,0-9.8,4.4-9.8,9.8s4.4,9.8,9.8,9.8h29.3c5.4,0,9.8-4.4,9.8-9.8
		C-182.5,1607.7-187,1603.3-192.3,1603.3"/>
</g>
</svg>
