<?xml version="1.0" encoding="utf-8"?>
<!-- Generator: Adobe Illustrator 19.0.0, SVG Export Plug-In . SVG Version: 6.00 Build 0)  -->
<svg version="1.1" id="Capa_1" xmlns="http://www.w3.org/2000/svg" xmlns:xlink="http://www.w3.org/1999/xlink" x="0px" y="0px"
	 viewBox="-498 920.2 81.8 81.8" enable-background="new -498 920.2 81.8 81.8" xml:space="preserve">
<path fill="#9BA6B2" d="M-419.1,944.7h-29v-18.9c0-3-2.5-5.5-5.5-5.5h-36.4c-3,0-5.5,2.5-5.5,5.5v70.7c0,3,2.5,5.5,5.5,5.5h36.4
	c3,0,5.5-2.5,5.5-5.5v-16.3h13.2h3l0.2-0.4l12.1-32.2l1.1-2.9L-419.1,944.7L-419.1,944.7z"/>
<polygon fill="#FFFFFF" points="-466.9,949.6 -457.2,960.2 -477,976.6 "/>
<polygon fill="#FFFFFF" points="-464.8,947.3 -423.4,947.3 -450.1,963.4 "/>
<path fill="#F9FBFC" d="M-477.7,924.2h11.7c0.4,0,0.7,0.3,0.7,0.7c0,0.4-0.3,0.7-0.7,0.7h-11.7c-0.4,0-0.7-0.3-0.7-0.7
	C-478.4,924.5-478.1,924.2-477.7,924.2z"/>
<path fill="#F9FBFC" d="M-471.9,999.2c-1.5,0-2.8-1.2-2.8-2.8c0-1.5,1.2-2.8,2.8-2.8c1.5,0,2.8,1.2,2.8,2.8
	C-469.1,998-470.3,999.2-471.9,999.2z"/>
<polygon fill="#FFFFFF" points="-452,991.8 -491.8,991.8 -491.8,929 -452,929 -452,944.7 -467.1,944.7 -467.6,944.7 -468.3,946.6 
	-487.5,946.6 -487.5,950.8 -469.9,950.8 -471.3,954.6 -481.8,954.6 -481.8,957.7 -472.5,957.7 -473.7,960.9 -479.8,960.9 
	-479.8,963.5 -474.7,963.5 -480.7,979.7 -480.9,980.2 -477.9,980.2 -452,980.2 -452,991.8 "/>
<polygon fill="#FFFFFF" points="-474.9,977.6 -455.8,961.7 -451.3,966.6 -443.2,961.7 -436.1,977.6 "/>
<polygon fill="#FFFFFF" points="-433.2,976.6 -440.6,960.2 -423,949.6 "/>
</svg>
