<?xml version="1.0" encoding="utf-8"?>
<!-- Generator: Adobe Illustrator 19.0.0, SVG Export Plug-In . SVG Version: 6.00 Build 0)  -->
<svg version="1.1" id="Capa_1" xmlns="http://www.w3.org/2000/svg" xmlns:xlink="http://www.w3.org/1999/xlink" x="0px" y="0px"
	 viewBox="-522 943.8 34.2 34.2" enable-background="new -522 943.8 34.2 34.2" xml:space="preserve">
<path fill="#3A4551" d="M-504,968.9v4.6h-16.4v-25.9h16.4v5h1.6v-6.3c0-1.3-1-2.3-2.3-2.3h-15c-1.3,0-2.3,1-2.3,2.3v29.1
	c0,1.3,1,2.3,2.3,2.3h15c1.2,0,2.3-1,2.3-2.3v-6.5L-504,968.9L-504,968.9z"/>
<path fill="#F6AE2D" d="M-514.6,945.7h4.8c0.2,0,0.3,0.1,0.3,0.3c0,0.2-0.1,0.3-0.3,0.3h-4.8c-0.2,0-0.3-0.1-0.3-0.3
	C-514.9,945.8-514.8,945.7-514.6,945.7z"/>
<circle fill="#F6AE2D" cx="-512.2" cy="975.5" r="1.1"/>
<polygon fill="#3A4551" points="-496.6,967.6 -512.9,967.6 -515.9,954.1 -497.6,954.1 -498,956 -513.5,956 -511.3,965.6 
	-498.1,965.6 -494.8,950.6 -487.8,950.6 -487.8,952.6 -493.3,952.6 "/>
<circle fill="#3A4551" cx="-509.3" cy="970.1" r="1.8"/>
<circle fill="#3A4551" cx="-499.9" cy="970.1" r="1.8"/>
</svg>
