<?xml version="1.0" encoding="utf-8"?>
<!-- Generator: Adobe Illustrator 19.0.0, SVG Export Plug-In . SVG Version: 6.00 Build 0)  -->
<svg version="1.1" id="Capa_1" xmlns="http://www.w3.org/2000/svg" xmlns:xlink="http://www.w3.org/1999/xlink" x="0px" y="0px"
	 viewBox="-498 920.3 81.7 81.7" enable-background="new -498 920.3 81.7 81.7" xml:space="preserve">
<path fill="#3A4551" d="M-438.9,920.3h-36.4c-3,0-5.5,2.5-5.5,5.5v70.7c0,3,2.5,5.5,5.5,5.5h36.4c3,0,5.5-2.5,5.5-5.5v-70.7
	C-433.4,922.7-435.9,920.3-438.9,920.3z M-437.2,991.8H-477V929h39.8V991.8z"/>
<path fill="#F6AE2D" d="M-463,924.2h11.7c0.4,0,0.7,0.3,0.7,0.7c0,0.4-0.3,0.7-0.7,0.7H-463c-0.4,0-0.7-0.3-0.7-0.7
	C-463.6,924.5-463.3,924.2-463,924.2z"/>
<path fill="#F6AE2D" d="M-457.1,999.2c-1.5,0-2.8-1.2-2.8-2.8c0-1.5,1.2-2.8,2.8-2.8s2.8,1.2,2.8,2.8
	C-454.4,998-455.6,999.2-457.1,999.2z"/>
<g>
	<path fill="#3A4551" d="M-457.5,946.7v28.7c0,0-7.7-6.2-9.2-9.2c-1.8-3.4-2.3-12.7-1.2-15.7L-457.5,946.7z"/>
	<path fill="#3A4551" d="M-446.3,950.4c1.1,3.1,0.6,12.3-1.2,15.7c-1.5,3-9.2,9.2-9.2,9.2v-28.7L-446.3,950.4z"/>
</g>
</svg>
