<?xml version="1.0" encoding="utf-8"?>
<!-- Generator: Adobe Illustrator 19.0.0, SVG Export Plug-In . SVG Version: 6.00 Build 0)  -->
<svg version="1.1" id="Layer_1" xmlns="http://www.w3.org/2000/svg" xmlns:xlink="http://www.w3.org/1999/xlink" x="0px" y="0px"
	 viewBox="-427.3 466.8 67.7 59.4" enable-background="new -427.3 466.8 67.7 59.4" xml:space="preserve">
<circle id="XMLID_23_" fill="none" stroke="#FFFFFF" stroke-width="2" stroke-miterlimit="10" cx="-397.6" cy="496.5" r="22.5"/>
<circle id="XMLID_24_" fill="none" stroke="#FFFFFF" stroke-miterlimit="10" stroke-opacity="0.5" cx="-397.6" cy="496.5" r="26"/>
<circle id="XMLID_31_" fill="none" stroke="#FFFFFF" stroke-miterlimit="10" stroke-opacity="0.2" cx="-397.6" cy="496.5" r="29.2"/>
<line id="XMLID_25_" fill="none" stroke="#FFFFFF" stroke-miterlimit="10" stroke-opacity="0.2" x1="-368.4" y1="496.5" x2="-359.6" y2="496.5"/>
<path id="XMLID_39_" fill="#0082D1" d="M-388.9,496.7c-0.3-1-1-1.6-1.9-1.9c-0.4-0.1-0.9-0.2-1.4-0.3c0,0,0.1-0.1,0.1-0.1
	c1.9-1.6,1-4.8-0.8-5.7c-0.7-0.3-1.5-0.5-2.3-0.5c-0.6,0-1.1,0-1.7,0c-0.2-1-0.5-2.3-0.7-3.4l-2,0.4c0.2,1.1,0.5,2.3,0.7,3.3
	c-0.6,0.1-1.1,0.2-1.6,0.3c-0.2-0.9-0.4-2.2-0.7-3.3l-2,0.4c0.2,1.1,0.5,2.4,0.7,3.4c-1.4,0.3-2.7,0.5-4.1,0.8
	c0.2,0.7,0.3,1.4,0.4,2.2c0.3-0.1,0.6-0.1,0.8-0.1c0.3-0.1,0.5-0.1,0.8-0.1c0.7-0.1,1.2,0.2,1.3,0.9c0.6,2.9,1.1,5.8,1.7,8.7
	c0.1,0.6-0.1,0.9-0.7,1.1c-0.4,0.1-0.9,0.2-1.3,0.3c0,0.8,0.1,1.6,0.1,2.5c1.4-0.3,2.7-0.5,4.1-0.8c0.2,1,0.5,2.3,0.7,3.4l2-0.4
	c-0.2-1.1-0.5-2.4-0.7-3.4c0.6-0.1,1.1-0.2,1.6-0.3c0.2,1,0.5,2.3,0.7,3.3l2-0.4c-0.2-1.1-0.5-2.4-0.7-3.4c0.1,0,0.1,0,0.2-0.1
	c0.9-0.4,1.9-0.6,2.8-1.1c1.2-0.6,2-1.5,2.2-2.8C-388.4,498.7-388.6,497.7-388.9,496.7z M-400,491.3c1.3-0.3,2.5-0.6,3.7-0.3
	c0.8,0.2,1.3,0.7,1.4,1.5c0.1,0.8-0.2,1.5-1,1.9c-1,0.6-2.2,0.8-3.4,1C-399.5,494-399.7,492.7-400,491.3z M-393.5,500.5
	c-1,0.7-2.2,1-3.4,1.2c-0.3,0.1-0.7,0.1-1,0.2c-0.3-1.5-0.6-3-0.9-4.5c1.5-0.3,3-0.8,4.6-0.4c0.8,0.2,1.4,0.7,1.5,1.5
	C-392.5,499.4-392.8,500-393.5,500.5z"/>
</svg>
