<?xml version="1.0" encoding="utf-8"?>
<!-- Generator: Adobe Illustrator 19.0.0, SVG Export Plug-In . SVG Version: 6.00 Build 0)  -->
<svg version="1.1" id="Layer_1" xmlns="http://www.w3.org/2000/svg" xmlns:xlink="http://www.w3.org/1999/xlink" x="0px" y="0px"
	 viewBox="-460.1 457.2 61.5 54" enable-background="new -460.1 457.2 61.5 54" xml:space="preserve">
<circle id="XMLID_108_" fill="none" stroke="#FFFFFF" stroke-width="2" stroke-miterlimit="10" cx="-433.1" cy="484.2" r="20.4"/>
<circle id="XMLID_105_" fill="none" stroke="#FFFFFF" stroke-miterlimit="10" stroke-opacity="0.5" cx="-433.1" cy="484.2" r="23.6"/>
<circle id="XMLID_102_" fill="none" stroke="#FFFFFF" stroke-miterlimit="10" stroke-opacity="0.2" cx="-433.1" cy="484.2" r="26.5"/>
<line id="XMLID_123_" fill="none" stroke="#FFFFFF" stroke-miterlimit="10" stroke-opacity="0.2" x1="-406.7" y1="484.2" x2="-398.6" y2="484.2"/>
<g>
	<g>
		<path fill="#0082D1" d="M-433.5,473.7h1.1c1.1,0.1,2.3,0.3,3.3,0.7c2.6,1,4.8,3.2,5.8,5.8c1.5,3.5,0.8,7.7-1.6,10.6
			c-1.6,2-4,3.4-6.6,3.7c-2.4,0.3-4.9-0.2-7-1.5c-1.6-1-2.9-2.4-3.8-4.1c-1.1-2.1-1.4-4.6-0.9-6.9c0.5-2.6,2-4.9,4.2-6.4
			C-437.4,474.5-435.5,473.9-433.5,473.7 M-434.1,474.2c-3.2,0.4-6.1,2.4-7.6,5.2c-1,1.9-1.4,4.1-1.1,6.2c0.4,2.6,1.7,4.9,3.8,6.5
			c1.5,1.2,3.5,2,5.4,2.1c2.2,0.2,4.5-0.4,6.3-1.7c2.3-1.5,3.9-4,4.3-6.6c0.3-1.6,0.2-3.2-0.3-4.7c-0.7-2.2-2.2-4.2-4.1-5.4
			C-429.4,474.5-431.8,473.9-434.1,474.2L-434.1,474.2z"/>
		<path fill="#0082D1" d="M-433.9,478.3c1.8-0.3,3.8,0.3,5.1,1.6c1.2,1.1,1.8,2.7,1.8,4.3c0,1.6-0.7,3.2-1.8,4.3
			c-1.3,1.3-3.1,1.8-4.9,1.6c-1.7-0.2-3.2-1.1-4.1-2.5c-1-1.5-1.3-3.4-0.8-5.2C-438,480.3-436.1,478.7-433.9,478.3 M-433.5,478.7
			c0,0.5,0,1,0,1.6c0.3,0,0.5,0,0.8,0c0-0.5,0-1.1,0-1.6C-433,478.7-433.3,478.7-433.5,478.7 M-431.6,480.3c0.7,0.1,1.4,0.2,2,0.7
			c0.8,0.7,0.7,2.3-0.3,2.9c0.6,0.1,1.2,0.5,1.4,1.2c0.2,0.8,0,1.8-0.6,2.4c-0.7,0.6-1.6,0.6-2.4,0.7c0,0.5,0,1,0,1.5
			c1.7-0.4,3.2-1.7,3.9-3.4c0.6-1.5,0.5-3.4-0.4-4.8c-0.8-1.3-2-2.2-3.5-2.6C-431.7,479.3-431.7,479.8-431.6,480.3 M-436.8,480.3
			c0.8,0,1.5,0,2.3,0c0-0.5,0-0.9,0-1.4C-435.4,479.2-436.2,479.7-436.8,480.3 M-436.9,480.3c-0.2,0.4-0.6,0.7-0.8,1.2
			c-0.9,1.5-1,3.4-0.2,5c0.6,1.4,1.9,2.5,3.4,3c0-0.5,0-0.9,0-1.4c-0.8,0-1.5,0-2.3,0c0-0.4,0.1-0.8,0.3-1.2c0.4,0,0.8,0.1,1.1-0.1
			c0.2-0.2,0.1-0.5,0.2-0.7c0-1.4,0-2.8,0-4.1c0-0.2-0.1-0.5-0.4-0.5c-0.4-0.1-0.8,0-1.2,0c0-0.3,0-0.6-0.1-0.9l0.1,0
			C-436.8,480.5-436.9,480.4-436.9,480.3 M-433.5,481.5v2c0.7,0,1.4,0.1,2-0.3c0.5-0.3,0.5-1.1,0-1.4
			C-432.1,481.4-432.8,481.5-433.5,481.5 M-433.5,484.6v2.3c0.8-0.1,1.8,0.1,2.5-0.4c0.5-0.3,0.5-1.2-0.1-1.5
			C-431.8,484.5-432.7,484.7-433.5,484.6 M-433.5,488.2c0,0.5,0,1,0,1.6c0.3,0,0.5,0,0.8,0c0-0.5,0-1.1,0-1.6H-433.5z"/>
	</g>
	<path fill="#0082D1" d="M-434.1,474.8c1.8-0.2,3.7,0.1,5.4,0.9c2.1,1,3.8,2.9,4.6,5.1c0.9,2.2,0.8,4.7,0,6.9c-1.3,3.5-4.9,6-8.6,6
		c-2.2,0.1-4.4-0.7-6.1-2c-1.8-1.4-3.1-3.5-3.5-5.8c-0.4-2.3,0-4.7,1.3-6.6C-439.6,476.8-436.9,475.1-434.1,474.8 M-434.4,477.8
		c-1.5,0.3-2.9,1.2-3.8,2.4c-1,1.3-1.5,3.1-1.3,4.7c0.2,1.8,1.2,3.4,2.6,4.5c1.3,1,3.1,1.5,4.8,1.2c2.1-0.3,3.9-1.6,4.9-3.4
		c0.7-1.3,0.9-2.9,0.7-4.3c-0.3-1.8-1.4-3.4-3-4.3C-430.9,477.7-432.7,477.5-434.4,477.8z"/>
</g>
</svg>
