<?xml version="1.0" encoding="utf-8"?>
<!-- Generator: Adobe Illustrator 19.0.0, SVG Export Plug-In . SVG Version: 6.00 Build 0)  -->
<svg version="1.1" id="Layer_1" xmlns="http://www.w3.org/2000/svg" xmlns:xlink="http://www.w3.org/1999/xlink" x="0px" y="0px"
	 viewBox="-472 1233 495 495" enable-background="new -472 1233 495 495" xml:space="preserve">
<g>
	<polygon fill="#9BA6B2" points="-224.5,1233 -224.5,1273 -17,1273 -17,1688 -224.5,1688 -224.5,1728 23,1728 23,1233 	"/>
	<polygon fill="#9BA6B2" points="-432,1688 -432,1273 -224.5,1273 -224.5,1233 -472,1233 -472,1728 -224.5,1728 -224.5,1688 	"/>
	<path fill="#9BA6B2" d="M-266.2,1638h65.3v-157.6h43.8c0,0,4.1-25.4,6.1-53.2h-49.6v-36.3c0-5.4,7.1-12.7,14.2-12.7h35.6V1323
		h-48.4c-68.5,0-66.9,53.1-66.9,61v43.4H-298v53h31.8L-266.2,1638L-266.2,1638z"/>
</g>
</svg>
