<?xml version="1.0" encoding="UTF-8"?>
<svg width="15px" height="15px" viewBox="0 0 15 15" version="1.1" xmlns="http://www.w3.org/2000/svg" xmlns:xlink="http://www.w3.org/1999/xlink">
    <!-- Generator: Sketch 50.2 (55047) - http://www.bohemiancoding.com/sketch -->
    <title>Group</title>
    <desc>Created with Sketch.</desc>
    <defs></defs>
    <g id="Page-1" stroke="none" stroke-width="1" fill="none" fill-rule="evenodd">
        <g id="Group">
            <path d="M14.9069621,7.3807752 C14.9069621,10.9461204 11.907781,13.8750287 8.09743336,14.1542816 C7.88752626,14.19 7.67406141,14.19 7.4641543,14.19 C6.90558794,14.19 6.36481032,14.138046 5.84893693,14.0341379 C2.50109651,13.345747 0,10.6246548 0,7.3807752 C0,3.62384955 3.34784042,0.584538907 7.4641543,0.584538907 C11.5804682,0.584538907 14.9069621,3.62384955 14.9069621,7.3807752" id="Fill-20" fill="#FFFFFF"></path>
            <path d="M8.31089821,5.95853368 C8.42474613,5.83514287 8.65599972,5.74422332 8.98331249,5.74422332 C9.28927878,5.74422332 9.65572678,5.78318884 10.0008283,5.87086126 L10.2925636,4.44537262 C9.694862,4.25379214 9.08292942,4.19859098 8.44609262,4.19859098 C7.80925581,4.19859098 7.31117116,4.28951053 6.90558794,4.49732664 C6.50000472,4.70838988 6.23317366,4.93893588 6.08019052,5.27663706 C5.92364962,5.56887847 5.84893693,6.0819245 5.84893693,6.71186709 L5.84893693,7.27362002 L4.61439854,7.27362002 L4.61439854,8.90692477 L5.84893693,8.90692477 L5.84893693,14.0341379 C6.36481032,14.138046 6.90558794,14.19 7.4641543,14.19 C7.67406141,14.19 7.88752626,14.19 8.09743336,14.1542816 L8.09743336,8.90692477 L9.73399722,8.90692477 L9.73399722,7.27362002 L8.09743336,7.27362002 L8.09743336,6.74758548 C8.09743336,6.34494177 8.15791507,6.09491301 8.31089821,5.95853368" id="Fill-21" fill="#3A506B"></path>
        </g>
    </g>
</svg>