<?xml version="1.0" encoding="UTF-8"?>
<svg width="14px" height="15px" viewBox="0 0 14 15" version="1.1" xmlns="http://www.w3.org/2000/svg" xmlns:xlink="http://www.w3.org/1999/xlink">
    <!-- Generator: Sketch 50.2 (55047) - http://www.bohemiancoding.com/sketch -->
    <title>Group</title>
    <desc>Created with Sketch.</desc>
    <defs></defs>
    <g id="Page-1" stroke="none" stroke-width="1" fill="none" fill-rule="evenodd">
        <g id="Group">
            <path d="M13.9131646,7.3807752 C13.9131646,10.9461204 11.1139289,13.8750287 7.55760447,14.1542816 C7.36169117,14.19 7.16245731,14.19 6.96654402,14.19 C6.44521541,14.19 5.94048963,14.138046 5.4590078,14.0341379 C2.33435674,13.345747 0,10.6246548 0,7.3807752 C0,3.62384955 3.12465106,0.584538907 6.96654402,0.584538907 C10.808437,0.584538907 13.9131646,3.62384955 13.9131646,7.3807752" id="Fill-20" fill="#FFFFFF"></path>
            <path d="M7.75683833,5.95853368 C7.86309639,5.83514287 8.07893307,5.74422332 8.38442499,5.74422332 C8.66999353,5.74422332 9.01201166,5.78318884 9.3341064,5.87086126 L9.60639268,4.44537262 C9.04853787,4.25379214 8.4774008,4.19859098 7.88301978,4.19859098 C7.28863876,4.19859098 6.82375975,4.28951053 6.44521541,4.49732664 C6.06667108,4.70838988 5.81762875,4.93893588 5.67484448,5.27663706 C5.52873965,5.56887847 5.4590078,6.0819245 5.4590078,6.71186709 L5.4590078,7.27362002 L4.30677197,7.27362002 L4.30677197,8.90692477 L5.4590078,8.90692477 L5.4590078,14.0341379 C5.94048963,14.138046 6.44521541,14.19 6.96654402,14.19 C7.16245731,14.19 7.36169117,14.19 7.55760447,14.1542816 L7.55760447,8.90692477 L9.08506407,8.90692477 L9.08506407,7.27362002 L7.55760447,7.27362002 L7.55760447,6.74758548 C7.55760447,6.34494177 7.61405406,6.09491301 7.75683833,5.95853368" id="Fill-21" fill="#3A506B"></path>
        </g>
    </g>
</svg>