<?xml version="1.0" encoding="utf-8"?>
<!-- Generator: Adobe Illustrator 19.0.0, SVG Export Plug-In . SVG Version: 6.00 Build 0)  -->
<svg version="1.1" id="Layer_1" xmlns="http://www.w3.org/2000/svg" xmlns:xlink="http://www.w3.org/1999/xlink" x="0px" y="0px"
	 viewBox="-472 1233 495 495" enable-background="new -472 1233 495 495" xml:space="preserve">
<g>
	<polygon fill="#9BA6B2" points="-224.5,1233 -224.5,1273 -17,1273 -17,1688 -224.5,1688 -224.5,1728 23,1728 23,1233 	"/>
	<polygon fill="#9BA6B2" points="-432,1688 -432,1273 -224.5,1273 -224.5,1233 -472,1233 -472,1728 -224.5,1728 -224.5,1688 	"/>
	<path fill="#9BA6B2" d="M-296.2,1606c-69.9,0-125.5-55.6-125.5-125.5s55.6-125.5,125.5-125.5c34.1,0,62.8,12.6,84.3,34.1
		l-34.1,32.3c-9-9-25.1-19.7-50.2-19.7c-43,0-77.1,35.9-77.1,78.9s34.1,78.9,77.1,78.9c50.2,0,68.1-35.9,71.7-53.8h-71.7v-43h118.4
		c1.8,7.2,1.8,12.6,1.8,21.5C-176.1,1555.8-224.5,1606-296.2,1606L-296.2,1606z"/>
	<polygon fill="#9BA6B2" points="-27.2,1498.4 -63.1,1498.4 -63.1,1534.3 -99,1534.3 -99,1498.4 -134.8,1498.4 -134.8,1462.6 
		-99,1462.6 -99,1426.7 -63.1,1426.7 -63.1,1462.6 -27.2,1462.6 	"/>
	<path fill="#9BA6B2" d="M-27.2,1497.9"/>
</g>
</svg>
