<?xml version="1.0" encoding="utf-8"?>
<!-- Generator: Adobe Illustrator 19.0.0, SVG Export Plug-In . SVG Version: 6.00 Build 0)  -->
<svg version="1.1" id="Layer_1" xmlns="http://www.w3.org/2000/svg" xmlns:xlink="http://www.w3.org/1999/xlink" x="0px" y="0px"
	 viewBox="-521 1283 396 396" enable-background="new -521 1283 396 396" xml:space="preserve">
<g>
	<g>
		<path fill="#9BA6B2" d="M-323,1283v32h166v332h-166v32h198v-396H-323z"/>
		<path fill="#9BA6B2" d="M-489,1647v-332h166v-32h-198v396h198v-32H-489z"/>
	</g>
	<g>
		<path fill="#9BA6B2" d="M-260.6,1355h-124.8c-35,0-63.6,28.5-63.6,63.6v124.8c0,35.1,28.5,63.6,63.6,63.6h124.8
			c35.1,0,63.6-28.5,63.6-63.6v-124.8C-197,1383.5-225.5,1355-260.6,1355z M-224.4,1543.4c0,19.9-16.2,36.1-36.1,36.1h-124.8
			c-19.9,0-36.1-16.2-36.1-36.1v-124.8c0-19.9,16.2-36.1,36.1-36.1h124.8c19.9,0,36.1,16.2,36.1,36.1V1543.4z"/>
		<path fill="#9BA6B2" d="M-256,1429.5c-8.5,0-15.4-6.9-15.4-15.4c0-8.5,6.9-15.4,15.4-15.4c8.5,0,15.4,6.9,15.4,15.4
			C-240.7,1422.6-247.6,1429.5-256,1429.5L-256,1429.5z"/>
		<path fill="#9BA6B2" d="M-323,1416.1c-35.8,0-64.9,29.1-64.9,64.9c0,35.8,29.1,64.9,64.9,64.9c35.8,0,64.9-29.1,64.9-64.9
			C-258.1,1445.2-287.2,1416.1-323,1416.1z M-323,1518.5c-20.7,0-37.5-16.8-37.5-37.5c0-20.7,16.8-37.5,37.5-37.5
			c20.7,0,37.5,16.8,37.5,37.5C-285.5,1501.7-302.3,1518.5-323,1518.5z"/>
	</g>
</g>
</svg>
