<?xml version="1.0" encoding="UTF-8"?>
<svg width="13px" height="14px" viewBox="0 0 13 14" version="1.1" xmlns="http://www.w3.org/2000/svg" xmlns:xlink="http://www.w3.org/1999/xlink">
    <!-- Generator: Sketch 50.2 (55047) - http://www.bohemiancoding.com/sketch -->
    <title>Group</title>
    <desc>Created with Sketch.</desc>
    <defs></defs>
    <g id="Page-1" stroke="none" stroke-width="1" fill="none" fill-rule="evenodd">
        <g id="Group">
            <path d="M12.57,6.7104 C12.57,10.4128 9.759,13.4144 6.282,13.4144 C2.814,13.4144 0,10.4128 0,6.7104 C0,3.0048 2.814,0 6.282,0 C9.759,0 12.57,3.0048 12.57,6.7104" id="Fill-27" fill="#FFFFFF"></path>
            <path d="M8.907,9.072 C8.901,9.408 8.82,9.5072 8.505,9.5072 C7.764,9.5072 7.023,9.5072 6.279,9.5072 C5.544,9.5072 4.803,9.5072 4.062,9.5072 C3.753,9.5072 3.663,9.408 3.663,9.072 C3.663,8.2016 3.666,7.3152 3.651,6.4352 C3.651,6.1856 3.717,6.128 3.933,6.1376 C4.245,6.16 4.251,6.1472 4.215,6.4672 C4.095,7.5904 4.821,8.6752 5.856,8.8896 C6.921,9.1104 7.989,8.4288 8.28,7.3376 C8.37,6.9984 8.397,6.6336 8.328,6.2976 C8.304,6.1728 8.334,6.1472 8.439,6.1472 C8.907,6.1088 8.907,6.0992 8.907,6.6176 C8.907,7.4272 8.907,8.2528 8.907,9.072 Z M6.288,5.3024 C6.999,5.3024 7.608,5.9552 7.596,6.7104 C7.59,7.4816 6.987,8.1216 6.267,8.1088 C5.55,8.0896 4.947,7.4496 4.965,6.6912 C4.983,5.9296 5.58,5.3024 6.288,5.3024 Z M8.235,3.9072 C8.907,3.9072 8.907,3.9072 8.907,4.624 C8.907,5.328 8.907,5.328 8.247,5.328 C7.578,5.328 7.578,5.328 7.578,4.6144 C7.578,3.9072 7.578,3.9072 8.235,3.9072 Z M8.784,3.0912 C7.122,3.0912 5.451,3.0912 3.786,3.0912 C3.192,3.0912 2.886,3.4208 2.886,4.0608 C2.886,4.9376 2.886,5.8176 2.886,6.7104 C2.886,7.5904 2.886,8.4864 2.886,9.3792 C2.886,9.9904 3.201,10.3264 3.759,10.3264 C5.439,10.3264 7.11,10.3264 8.784,10.3264 C9.366,10.3264 9.684,9.9904 9.684,9.3696 C9.684,7.5904 9.684,5.8176 9.684,4.0384 C9.684,3.4208 9.366,3.0912 8.784,3.0912 Z" id="Fill-28" fill="#3A506B"></path>
        </g>
    </g>
</svg>