<?xml version="1.0" encoding="utf-8"?>
<!-- Generator: Adobe Illustrator 19.0.0, SVG Export Plug-In . SVG Version: 6.00 Build 0)  -->
<svg version="1.1" id="Layer_1" xmlns="http://www.w3.org/2000/svg" xmlns:xlink="http://www.w3.org/1999/xlink" x="0px" y="0px"
	 viewBox="-472 1233 495 495" enable-background="new -472 1233 495 495" xml:space="preserve">
<g>
	<polygon fill="#9BA6B2" points="-224.5,1233 -224.5,1273 -17,1273 -17,1688 -224.5,1688 -224.5,1728 23,1728 23,1233 	"/>
	<polygon fill="#9BA6B2" points="-432,1688 -432,1273 -224.5,1273 -224.5,1233 -472,1233 -472,1728 -224.5,1728 -224.5,1688 	"/>
	<path fill="#9BA6B2" d="M-344.7,1400.2h0.4c23.6,0,38.2-15.6,38.2-35.1c-0.4-19.9-14.6-35.1-37.8-35.1c-23.1,0-38.2,15.2-38.2,35.1
		C-382,1384.6-367.3,1400.2-344.7,1400.2z"/>
	<path fill="#9BA6B2" d="M-205.6,1631v-113.4c0-6.1,0.5-12.1,2.2-16.5c4.9-12.1,16-24.7,34.6-24.7c24.4,0,34.2,18.6,34.2,45.9V1631
		H-67v-116.5c0-62.4-33.3-91.4-77.7-91.4c-35.9,0-51.9,19.7-60.9,33.5v0.7h-0.4c0.1-0.2,0.3-0.4,0.4-0.7v-28.8h-67.5
		c0.9,19.1,0,203.1,0,203.1L-205.6,1631L-205.6,1631z"/>
	<rect x="-378" y="1427.9" fill="#9BA6B2" width="67.5" height="203.1"/>
</g>
</svg>
