<?xml version="1.0" encoding="UTF-8"?>
<svg width="5px" height="5px" viewBox="0 0 5 5" version="1.1" xmlns="http://www.w3.org/2000/svg" xmlns:xlink="http://www.w3.org/1999/xlink">
    <!-- Generator: Sketch 50.2 (55047) - http://www.bohemiancoding.com/sketch -->
    <title>Group</title>
    <desc>Created with Sketch.</desc>
    <defs></defs>
    <g id="Page-1" stroke="none" stroke-width="1" fill="none" fill-rule="evenodd">
        <g id="Group">
            <path d="M4.191,2.096 C4.191,3.253 3.252,4.191 2.096,4.191 C0.938,4.191 0,3.253 0,2.096 C0,0.937 0.938,0 2.096,0 C3.252,0 4.191,0.937 4.191,2.096" id="Fill-25" fill="#FFFFFF"></path>
            <path d="M0.827,2.949 C1.027,2.962 1.22,2.931 1.402,2.849 C1.484,2.814 1.558,2.77 1.632,2.712 C1.545,2.709 1.466,2.689 1.394,2.652 C1.271,2.59 1.184,2.491 1.131,2.359 C1.119,2.33 1.119,2.33 1.152,2.332 C1.24,2.339 1.304,2.338 1.354,2.318 C1.306,2.301 1.261,2.293 1.224,2.267 C1.04,2.167 0.943,2.008 0.926,1.799 C0.924,1.774 0.931,1.771 0.953,1.782 C1.018,1.817 1.088,1.834 1.169,1.841 C1.134,1.809 1.104,1.784 1.077,1.756 C0.924,1.592 0.888,1.332 0.99,1.132 C1.003,1.106 1.008,1.106 1.027,1.127 C1.283,1.423 1.603,1.602 1.988,1.663 C2.027,1.671 2.07,1.672 2.11,1.678 C2.137,1.683 2.14,1.671 2.136,1.649 C2.096,1.418 2.204,1.189 2.41,1.073 C2.618,0.951 2.89,0.99 3.058,1.154 C3.077,1.171 3.096,1.175 3.118,1.169 C3.222,1.146 3.319,1.107 3.409,1.055 C3.417,1.053 3.423,1.049 3.433,1.041 C3.394,1.171 3.316,1.266 3.2,1.344 C3.307,1.334 3.403,1.303 3.497,1.266 C3.499,1.28 3.489,1.288 3.484,1.298 C3.419,1.386 3.344,1.465 3.255,1.532 C3.239,1.546 3.235,1.555 3.235,1.577 C3.242,1.98 3.113,2.339 2.855,2.652 C2.613,2.937 2.303,3.108 1.935,3.169 C1.544,3.229 1.177,3.163 0.839,2.955 C0.835,2.952 0.83,2.949 0.827,2.949" id="Fill-26" fill="#3A506B"></path>
        </g>
    </g>
</svg>