<?xml version="1.0" encoding="UTF-8"?>
<svg width="14px" height="14px" viewBox="0 0 14 14" version="1.1" xmlns="http://www.w3.org/2000/svg" xmlns:xlink="http://www.w3.org/1999/xlink">
    <!-- Generator: Sketch 50.2 (55047) - http://www.bohemiancoding.com/sketch -->
    <title>Group</title>
    <desc>Created with Sketch.</desc>
    <defs></defs>
    <g id="Page-1" stroke="none" stroke-width="1" fill="none" fill-rule="evenodd">
        <g id="Group">
            <path d="M13.5236044,6.9258845 C13.5236044,10.7489992 10.49362,13.8484647 6.76341559,13.8484647 C3.02675755,13.8484647 0,10.7489992 0,6.9258845 C0,3.09616115 3.02675755,0 6.76341559,0 C10.49362,0 13.5236044,3.09616115 13.5236044,6.9258845" id="Fill-25" fill="#FFFFFF"></path>
            <path d="M2.66858048,9.74448158 C3.31394457,9.78743792 3.93672091,9.68500356 4.52400222,9.41404815 C4.78860149,9.29839646 5.02738621,9.15300575 5.26617092,8.96135437 C4.98543754,8.95144137 4.73051873,8.88535468 4.49818766,8.76309432 C4.10128875,8.5582256 3.82055537,8.23109651 3.64953389,7.79492439 C3.61081204,7.6990987 3.61081204,7.6990987 3.71729712,7.70570737 C4.00125731,7.72883771 4.20777382,7.72553337 4.36911484,7.65944669 C4.21422746,7.60327301 4.06902054,7.57683834 3.94962819,7.49092565 C3.35589323,7.16049223 3.04289165,6.63510309 2.9880357,5.94449724 C2.98158206,5.86188888 3.00416981,5.85197588 3.07515985,5.88832356 C3.28490318,6.00397525 3.51078061,6.06014893 3.77215306,6.08327927 C3.65921435,5.97754058 3.56240974,5.89493222 3.47528559,5.80241087 C2.98158206,5.26050006 2.86541653,4.40137316 3.19455221,3.74050632 C3.23650088,3.65459363 3.25263498,3.65459363 3.31394457,3.72398465 C4.14001059,4.70206758 5.17259312,5.2935434 6.41491898,5.49510779 C6.54076498,5.52154246 6.67951826,5.52484679 6.80859107,5.5446728 C6.89571522,5.56119447 6.90539569,5.52154246 6.8924884,5.44884711 C6.76341559,4.6855459 7.11191219,3.92885337 7.7766372,3.5455506 C8.44781584,3.14242183 9.325511,3.27129086 9.86761683,3.81320167 C9.92892641,3.86937536 9.990236,3.88259269 10.0612261,3.86276669 C10.3968154,3.786767 10.709817,3.65789797 11.0002308,3.48607259 C11.0260454,3.47946392 11.0454063,3.46624658 11.0776745,3.43981191 C10.9518285,3.86937536 10.7001365,4.18328711 10.3258253,4.44102517 C10.6710951,4.40798183 10.9808699,4.30554747 11.284191,4.18328711 C11.2906446,4.22954778 11.2583764,4.25598246 11.2422423,4.2890258 C11.032499,4.57980721 10.7904875,4.84084961 10.5033004,5.06224 C10.4516713,5.10850068 10.438764,5.13823969 10.438764,5.21093504 C10.4613518,6.54258173 10.0450919,7.72883771 9.21257228,8.76309432 C8.43168174,9.70482956 7.43136741,10.2698707 6.2438975,10.4714351 C4.98221072,10.6696952 3.79796763,10.4516091 2.70730233,9.76430758 C2.69439505,9.75439458 2.67826094,9.74448158 2.66858048,9.74448158" id="Fill-26" fill="#3A506B"></path>
        </g>
    </g>
</svg>