<?xml version="1.0" encoding="UTF-8"?>
<svg width="5px" height="5px" viewBox="0 0 5 5" version="1.1" xmlns="http://www.w3.org/2000/svg" xmlns:xlink="http://www.w3.org/1999/xlink">
    <!-- Generator: Sketch 50.2 (55047) - http://www.bohemiancoding.com/sketch -->
    <title>Group</title>
    <desc>Created with Sketch.</desc>
    <defs>
        <path d="M4.191,2.096 C4.191,3.254 3.252,4.192 2.095,4.192 C0.938,4.192 0,3.254 0,2.096 C0,0.939 0.938,0 2.095,0 C3.252,0 4.191,0.939 4.191,2.096" id="path-1"></path>
    </defs>
    <g id="Page-1" stroke="none" stroke-width="1" fill="none" fill-rule="evenodd">
        <g id="Group">
            <mask id="mask-2" fill="white">
                <use xlink:href="#path-1"></use>
            </mask>
            <use id="Mask" fill="#FFFFFF" xlink:href="#path-1"></use>
            <path d="M2.274,3.13 C2.213,3.142 2.156,3.147 2.127,3.143 C1.902,3.143 1.721,3.093 1.552,2.995 C1.528,2.981 1.51,2.977 1.487,2.985 C1.372,3.013 1.26,3.044 1.146,3.074 C1.122,3.08 1.12,3.077 1.125,3.052 C1.155,2.948 1.184,2.84 1.217,2.731 C1.224,2.702 1.222,2.679 1.204,2.655 C0.973,2.28 0.983,1.816 1.241,1.468 C1.51,1.109 1.88,0.959 2.319,1.053 C2.752,1.144 3.029,1.426 3.128,1.857 C3.268,2.447 2.87,3.034 2.274,3.13 Z M3.338,1.796 C3.199,1.216 2.698,0.821 2.095,0.812 C2.015,0.816 1.929,0.822 1.851,0.837 C1.005,1.006 0.569,1.941 0.979,2.694 C0.993,2.715 0.993,2.734 0.99,2.757 C0.931,2.951 0.876,3.152 0.823,3.349 C0.815,3.383 0.815,3.383 0.847,3.374 C1.054,3.318 1.258,3.266 1.465,3.214 C1.483,3.209 1.495,3.209 1.51,3.217 C1.775,3.352 2.054,3.389 2.347,3.335 C3.046,3.2 3.505,2.488 3.338,1.796 Z" id="Fill-23" fill="#3A506B" mask="url(#mask-2)"></path>
            <path d="M2.428,2.694 C2.384,2.698 2.339,2.69 2.296,2.676 C2.005,2.591 1.784,2.412 1.607,2.169 C1.541,2.079 1.478,1.983 1.459,1.869 C1.432,1.738 1.473,1.619 1.573,1.529 C1.607,1.497 1.704,1.483 1.743,1.503 C1.756,1.514 1.763,1.525 1.772,1.537 C1.808,1.628 1.846,1.712 1.883,1.798 C1.888,1.816 1.887,1.834 1.878,1.852 C1.858,1.892 1.828,1.924 1.799,1.957 C1.775,1.978 1.775,2.002 1.792,2.028 C1.896,2.202 2.037,2.327 2.227,2.401 C2.254,2.412 2.275,2.408 2.292,2.386 C2.325,2.348 2.357,2.307 2.387,2.267 C2.406,2.242 2.431,2.238 2.458,2.249 C2.521,2.278 2.582,2.307 2.642,2.334 C2.658,2.343 2.67,2.349 2.685,2.354 C2.748,2.386 2.748,2.39 2.74,2.457 C2.732,2.591 2.63,2.659 2.513,2.691 C2.482,2.698 2.456,2.698 2.428,2.694" id="Fill-24" fill="#3A506B" mask="url(#mask-2)"></path>
        </g>
    </g>
</svg>