<?xml version="1.0" encoding="utf-8"?>
<!-- Generator: Adobe Illustrator 19.0.0, SVG Export Plug-In . SVG Version: 6.00 Build 0)  -->
<svg version="1.1" id="Layer_1" xmlns="http://www.w3.org/2000/svg" xmlns:xlink="http://www.w3.org/1999/xlink" x="0px" y="0px"
	 viewBox="0 0 68.1 68.1" enable-background="new 0 0 68.1 68.1" xml:space="preserve">
<circle id="XMLID_34_" fill="#5FAD56" cx="34" cy="34" r="34"/>
<path id="XMLID_29_" fill="#FFFFFF" d="M56.5,32.7c-3.4-3.4-6.8-6.8-10.2-10.2c-1.1-1.1-3-0.3-3,1.2c0,2.2,0,4.5,0,6.7
	c-9.6,0-19.1,0-28.7,0c-4.6,0-4.6,7.1-0.1,7.1c9.6,0,19.2,0,28.7,0c0,2.2,0,4.4,0,6.7c0,0.1,0,0.1,0,0.2c0.1,0.7,0.5,1.2,1.1,1.4
	c0.6,0.3,1.2,0.3,1.8-0.2c0.1-0.1,0.1-0.1,0.2-0.2c3.4-3.4,6.8-6.8,10.2-10.2C57.2,34.5,57.2,33.3,56.5,32.7z"/>
</svg>
