<?xml version="1.0" encoding="utf-8"?>
<!-- Generator: Adobe Illustrator 19.0.0, SVG Export Plug-In . SVG Version: 6.00 Build 0)  -->
<svg version="1.1" id="Layer_1" xmlns="http://www.w3.org/2000/svg" xmlns:xlink="http://www.w3.org/1999/xlink" x="0px" y="0px"
	 viewBox="-383 145 512 512" style="enable-background:new -383 145 512 512;" xml:space="preserve">
<style type="text/css">
	.st0{fill:#F6AE2D;}
	.st1{fill:#E09B2D;}
	.st2{fill:#F8F8F8;}
</style>
<circle class="st0" cx="-127" cy="401" r="256"/>
<path class="st1" d="M127.6,427.7C115.5,545,24,638.9-92.2,654.6l-151.9-151.9l3-3c-23.6-27.3-37.9-63-37.9-102
	c0-86.2,69.9-156,156-156c39,0,74.6,14.3,102,37.9l0.3-0.3l7.8,7.8l0.6,0.6L127.6,427.7z"/>
<path class="st2" d="M66.6,376.9l-46.1,61.7c-1.4,1.9-3.5,3-5.9,3.1c-2.4,0.1-4.5-0.8-6.1-2.6l-51.3-57.5c-2.1-2.3-2.6-5.4-1.4-8.2
	c1.2-2.8,3.7-4.6,6.8-4.7l22.9-1l11-0.5l1.9-0.1C-14.1,308.2-66.4,264-129.1,264c-72,0-130.4,58.4-130.4,130.4
	c0,72,58.4,130.4,130.4,130.4c48.2,0,90.3-26.1,112.8-65L3.1,481c-28.2,43-76.9,71.4-132.2,71.4c-87.3,0-158-70.8-158-158
	c0-87.3,70.8-158,158-158c77.6,0,142.1,55.9,155.5,129.7l16.8-0.7l16.9-0.7c3.1-0.1,5.8,1.4,7.2,4.1
	C68.7,371.4,68.5,374.5,66.6,376.9z"/>
</svg>
