<?xml version="1.0" encoding="utf-8"?>
<!-- Generator: Adobe Illustrator 19.0.0, SVG Export Plug-In . SVG Version: 6.00 Build 0)  -->
<svg version="1.1" id="Layer_1" xmlns="http://www.w3.org/2000/svg" xmlns:xlink="http://www.w3.org/1999/xlink" x="0px" y="0px"
	 viewBox="-677.5 1379.7 183 200.4" enable-background="new -677.5 1379.7 183 200.4" xml:space="preserve">
<g id="XMLID_5042_">
	<g id="XMLID_5218_">
		<g id="XMLID_5219_">
			<path id="XMLID_5220_" fill="#9BA6B2" d="M-586,1388.5L-586,1388.5c2.5,0,4.4-2,4.4-4.4s-2-4.4-4.4-4.4c-2.4,0-4.4,2-4.4,4.4
				S-588.4,1388.5-586,1388.5z"/>
		</g>
	</g>
	<g id="XMLID_5215_">
		<g id="XMLID_5216_">
			<path id="XMLID_5217_" fill="#9BA6B2" d="M-586,1405.9L-586,1405.9c2.5,0,4.4-2,4.4-4.4s-2-4.4-4.4-4.4c-2.4,0-4.4,2-4.4,4.4
				C-590.4,1403.9-588.4,1405.9-586,1405.9z"/>
		</g>
	</g>
	<g id="XMLID_5212_">
		<g id="XMLID_5213_">
			<path id="XMLID_5214_" fill="#9BA6B2" d="M-586,1423.3L-586,1423.3c2.5,0,4.4-2,4.4-4.4s-2-4.4-4.4-4.4c-2.4,0-4.4,2-4.4,4.4
				C-590.4,1421.4-588.4,1423.3-586,1423.3z"/>
		</g>
	</g>
	<g id="XMLID_5209_">
		<g id="XMLID_5210_">
			<path id="XMLID_5211_" fill="#9BA6B2" d="M-586,1440.7L-586,1440.7c2.5,0,4.4-2,4.4-4.4s-2-4.4-4.4-4.4c-2.4,0-4.4,2-4.4,4.4
				S-588.4,1440.7-586,1440.7z"/>
		</g>
	</g>
	<g id="XMLID_5206_">
		<g id="XMLID_5207_">
			<path id="XMLID_5208_" fill="#9BA6B2" d="M-586,1458.2L-586,1458.2c2.5,0,4.4-2,4.4-4.4s-2-4.4-4.4-4.4c-2.4,0-4.4,2-4.4,4.4
				S-588.4,1458.2-586,1458.2z"/>
		</g>
	</g>
	<g id="XMLID_5203_">
		<g id="XMLID_5204_">
			<path id="XMLID_5205_" fill="#9BA6B2" d="M-586,1475.6L-586,1475.6c2.5,0,4.4-2,4.4-4.4s-2-4.4-4.4-4.4c-2.4,0-4.4,2-4.4,4.4
				S-588.4,1475.6-586,1475.6z"/>
		</g>
	</g>
	<g id="XMLID_5200_">
		<g id="XMLID_5201_">
			<path id="XMLID_5202_" fill="#9BA6B2" d="M-586,1493L-586,1493c2.5,0,4.4-2,4.4-4.4s-2-4.4-4.4-4.4c-2.4,0-4.4,2-4.4,4.4
				C-590.4,1491.1-588.4,1493-586,1493z"/>
		</g>
	</g>
	<g id="XMLID_5197_">
		<g id="XMLID_5198_">
			<path id="XMLID_5199_" fill="#9BA6B2" d="M-603.4,1405.9L-603.4,1405.9c2.5,0,4.4-2,4.4-4.4s-2-4.4-4.4-4.4c-2.4,0-4.4,2-4.4,4.4
				C-607.8,1403.9-605.9,1405.9-603.4,1405.9z"/>
		</g>
	</g>
	<g id="XMLID_5194_">
		<g id="XMLID_5195_">
			<path id="XMLID_5196_" fill="#9BA6B2" d="M-603.4,1423.3L-603.4,1423.3c2.5,0,4.4-2,4.4-4.4s-2-4.4-4.4-4.4c-2.4,0-4.4,2-4.4,4.4
				S-605.9,1423.3-603.4,1423.3z"/>
		</g>
	</g>
	<g id="XMLID_5191_">
		<g id="XMLID_5192_">
			<path id="XMLID_5193_" fill="#9BA6B2" d="M-603.4,1440.7L-603.4,1440.7c2.5,0,4.4-2,4.4-4.4s-2-4.4-4.4-4.4c-2.4,0-4.4,2-4.4,4.4
				S-605.9,1440.7-603.4,1440.7z"/>
		</g>
	</g>
	<g id="XMLID_5188_">
		<g id="XMLID_5189_">
			<path id="XMLID_5190_" fill="#9BA6B2" d="M-603.4,1458.2L-603.4,1458.2c2.5,0,4.4-2,4.4-4.4s-2-4.4-4.4-4.4c-2.4,0-4.4,2-4.4,4.4
				S-605.9,1458.2-603.4,1458.2z"/>
		</g>
	</g>
	<g id="XMLID_5185_">
		<g id="XMLID_5186_">
			<path id="XMLID_5187_" fill="#9BA6B2" d="M-603.4,1475.6L-603.4,1475.6c2.5,0,4.4-2,4.4-4.4s-2-4.4-4.4-4.4c-2.4,0-4.4,2-4.4,4.4
				S-605.9,1475.6-603.4,1475.6z"/>
		</g>
	</g>
	<g id="XMLID_5182_">
		<g id="XMLID_5183_">
			<path id="XMLID_5184_" fill="#9BA6B2" d="M-620.9,1423.3L-620.9,1423.3c2.5,0,4.4-2,4.4-4.4s-2-4.4-4.4-4.4c-2.4,0-4.4,2-4.4,4.4
				S-623.3,1423.3-620.9,1423.3z"/>
		</g>
	</g>
	<g id="XMLID_5179_">
		<g id="XMLID_5180_">
			<path id="XMLID_5181_" fill="#9BA6B2" d="M-620.9,1440.7L-620.9,1440.7c2.5,0,4.4-2,4.4-4.4s-2-4.4-4.4-4.4c-2.4,0-4.4,2-4.4,4.4
				S-623.3,1440.7-620.9,1440.7z"/>
		</g>
	</g>
	<g id="XMLID_5176_">
		<g id="XMLID_5177_">
			<path id="XMLID_5178_" fill="#9BA6B2" d="M-620.9,1458.2L-620.9,1458.2c2.5,0,4.4-2,4.4-4.4s-2-4.4-4.4-4.4c-2.4,0-4.4,2-4.4,4.4
				S-623.3,1458.2-620.9,1458.2z"/>
		</g>
	</g>
	<g id="XMLID_5173_">
		<g id="XMLID_5174_">
			<path id="XMLID_5175_" fill="#9BA6B2" d="M-620.9,1475.6L-620.9,1475.6c2.5,0,4.4-2,4.4-4.4s-2-4.4-4.4-4.4c-2.4,0-4.4,2-4.4,4.4
				S-623.3,1475.6-620.9,1475.6z"/>
		</g>
	</g>
	<g id="XMLID_5170_">
		<g id="XMLID_5171_">
			<path id="XMLID_5172_" fill="#9BA6B2" d="M-638.3,1440.7L-638.3,1440.7c2.5,0,4.4-2,4.4-4.4s-2-4.4-4.4-4.4c-2.4,0-4.4,2-4.4,4.4
				S-640.7,1440.7-638.3,1440.7z"/>
		</g>
	</g>
	<g id="XMLID_5167_">
		<g id="XMLID_5168_">
			<path id="XMLID_5169_" fill="#9BA6B2" d="M-638.3,1458.2L-638.3,1458.2c2.5,0,4.4-2,4.4-4.4s-2-4.4-4.4-4.4c-2.4,0-4.4,2-4.4,4.4
				S-640.7,1458.2-638.3,1458.2z"/>
		</g>
	</g>
	<g id="XMLID_5164_">
		<g id="XMLID_5165_">
			<path id="XMLID_5166_" fill="#9BA6B2" d="M-638.3,1475.6L-638.3,1475.6c2.5,0,4.4-2,4.4-4.4s-2-4.4-4.4-4.4c-2.4,0-4.4,2-4.4,4.4
				S-640.7,1475.6-638.3,1475.6z"/>
		</g>
	</g>
	<g id="XMLID_5161_">
		<g id="XMLID_5162_">
			<path id="XMLID_5163_" fill="#9BA6B2" d="M-655.7,1458.2L-655.7,1458.2c2.5,0,4.4-2,4.4-4.4s-2-4.4-4.4-4.4c-2.4,0-4.4,2-4.4,4.4
				S-658.1,1458.2-655.7,1458.2z"/>
		</g>
	</g>
	<g id="XMLID_5158_">
		<g id="XMLID_5159_">
			<path id="XMLID_5160_" fill="#9BA6B2" d="M-655.7,1475.6L-655.7,1475.6c2.5,0,4.4-2,4.4-4.4s-2-4.4-4.4-4.4c-2.4,0-4.4,2-4.4,4.4
				S-658.1,1475.6-655.7,1475.6z"/>
		</g>
	</g>
	<g id="XMLID_5155_">
		<g id="XMLID_5156_">
			<path id="XMLID_5157_" fill="#9BA6B2" d="M-673.1,1475.6L-673.1,1475.6c2.5,0,4.4-2,4.4-4.4s-2-4.4-4.4-4.4c-2.4,0-4.4,2-4.4,4.4
				S-675.5,1475.6-673.1,1475.6z"/>
		</g>
	</g>
	<g id="XMLID_5152_">
		<g id="XMLID_5153_">
			<path id="XMLID_5154_" fill="#9BA6B2" d="M-568.6,1405.9L-568.6,1405.9c2.5,0,4.4-2,4.4-4.4s-2-4.4-4.4-4.4c-2.4,0-4.4,2-4.4,4.4
				C-573,1403.9-571,1405.9-568.6,1405.9z"/>
		</g>
	</g>
	<g id="XMLID_5149_">
		<g id="XMLID_5150_">
			<path id="XMLID_5151_" fill="#9BA6B2" d="M-568.6,1423.3L-568.6,1423.3c2.5,0,4.4-2,4.4-4.4s-2-4.4-4.4-4.4c-2.4,0-4.4,2-4.4,4.4
				S-571,1423.3-568.6,1423.3z"/>
		</g>
	</g>
	<g id="XMLID_5146_">
		<g id="XMLID_5147_">
			<path id="XMLID_5148_" fill="#9BA6B2" d="M-568.6,1440.7L-568.6,1440.7c2.5,0,4.4-2,4.4-4.4s-2-4.4-4.4-4.4c-2.4,0-4.4,2-4.4,4.4
				S-571,1440.7-568.6,1440.7z"/>
		</g>
	</g>
	<g id="XMLID_5143_">
		<g id="XMLID_5144_">
			<path id="XMLID_5145_" fill="#9BA6B2" d="M-568.6,1458.2L-568.6,1458.2c2.5,0,4.4-2,4.4-4.4s-2-4.4-4.4-4.4c-2.4,0-4.4,2-4.4,4.4
				S-571,1458.2-568.6,1458.2z"/>
		</g>
	</g>
	<g id="XMLID_5140_">
		<g id="XMLID_5141_">
			<path id="XMLID_5142_" fill="#9BA6B2" d="M-568.6,1475.6L-568.6,1475.6c2.5,0,4.4-2,4.4-4.4s-2-4.4-4.4-4.4c-2.4,0-4.4,2-4.4,4.4
				S-571,1475.6-568.6,1475.6z"/>
		</g>
	</g>
	<g id="XMLID_5137_">
		<g id="XMLID_5138_">
			<path id="XMLID_5139_" fill="#9BA6B2" d="M-551.2,1423.3L-551.2,1423.3c2.5,0,4.4-2,4.4-4.4s-2-4.4-4.4-4.4c-2.4,0-4.4,2-4.4,4.4
				S-553.6,1423.3-551.2,1423.3z"/>
		</g>
	</g>
	<g id="XMLID_5134_">
		<g id="XMLID_5135_">
			<path id="XMLID_5136_" fill="#9BA6B2" d="M-551.2,1440.7L-551.2,1440.7c2.5,0,4.4-2,4.4-4.4s-2-4.4-4.4-4.4c-2.4,0-4.4,2-4.4,4.4
				S-553.6,1440.7-551.2,1440.7z"/>
		</g>
	</g>
	<g id="XMLID_5131_">
		<g id="XMLID_5132_">
			<path id="XMLID_5133_" fill="#9BA6B2" d="M-551.2,1458.2L-551.2,1458.2c2.5,0,4.4-2,4.4-4.4s-2-4.4-4.4-4.4c-2.4,0-4.4,2-4.4,4.4
				S-553.6,1458.2-551.2,1458.2z"/>
		</g>
	</g>
	<g id="XMLID_5128_">
		<g id="XMLID_5129_">
			<path id="XMLID_5130_" fill="#9BA6B2" d="M-551.2,1475.6L-551.2,1475.6c2.5,0,4.4-2,4.4-4.4s-2-4.4-4.4-4.4c-2.4,0-4.4,2-4.4,4.4
				S-553.6,1475.6-551.2,1475.6z"/>
		</g>
	</g>
	<g id="XMLID_5125_">
		<g id="XMLID_5126_">
			<path id="XMLID_5127_" fill="#9BA6B2" d="M-533.7,1440.7L-533.7,1440.7c2.5,0,4.4-2,4.4-4.4s-2-4.4-4.4-4.4c-2.4,0-4.4,2-4.4,4.4
				S-536.2,1440.7-533.7,1440.7z"/>
		</g>
	</g>
	<g id="XMLID_5122_">
		<g id="XMLID_5123_">
			<path id="XMLID_5124_" fill="#9BA6B2" d="M-533.7,1458.2L-533.7,1458.2c2.5,0,4.4-2,4.4-4.4s-2-4.4-4.4-4.4c-2.4,0-4.4,2-4.4,4.4
				S-536.2,1458.2-533.7,1458.2z"/>
		</g>
	</g>
	<g id="XMLID_5119_">
		<g id="XMLID_5120_">
			<path id="XMLID_5121_" fill="#9BA6B2" d="M-533.7,1475.6L-533.7,1475.6c2.5,0,4.4-2,4.4-4.4s-2-4.4-4.4-4.4c-2.4,0-4.4,2-4.4,4.4
				S-536.2,1475.6-533.7,1475.6z"/>
		</g>
	</g>
	<g id="XMLID_5116_">
		<g id="XMLID_5117_">
			<path id="XMLID_5118_" fill="#9BA6B2" d="M-516.3,1458.2L-516.3,1458.2c2.5,0,4.4-2,4.4-4.4s-2-4.4-4.4-4.4c-2.4,0-4.4,2-4.4,4.4
				S-518.7,1458.2-516.3,1458.2z"/>
		</g>
	</g>
	<g id="XMLID_5113_">
		<g id="XMLID_5114_">
			<path id="XMLID_5115_" fill="#9BA6B2" d="M-516.3,1475.6L-516.3,1475.6c2.5,0,4.4-2,4.4-4.4s-2-4.4-4.4-4.4c-2.4,0-4.4,2-4.4,4.4
				S-518.7,1475.6-516.3,1475.6z"/>
		</g>
	</g>
	<g id="XMLID_5110_">
		<g id="XMLID_5111_">
			<path id="XMLID_5112_" fill="#9BA6B2" d="M-498.9,1475.6L-498.9,1475.6c2.5,0,4.4-2,4.4-4.4s-2-4.4-4.4-4.4c-2.4,0-4.4,2-4.4,4.4
				S-501.3,1475.6-498.9,1475.6z"/>
		</g>
	</g>
	<g id="XMLID_5107_">
		<g id="XMLID_5108_">
			<path id="XMLID_5109_" fill="#9BA6B2" d="M-586,1510.4L-586,1510.4c2.5,0,4.4-2,4.4-4.4s-2-4.4-4.4-4.4c-2.4,0-4.4,2-4.4,4.4
				S-588.4,1510.4-586,1510.4z"/>
		</g>
	</g>
	<g id="XMLID_5104_">
		<g id="XMLID_5105_">
			<path id="XMLID_5106_" fill="#9BA6B2" d="M-586,1527.9L-586,1527.9c2.5,0,4.4-2,4.4-4.4c0-2.4-2-4.4-4.4-4.4
				c-2.4,0-4.4,2-4.4,4.4C-590.4,1525.9-588.4,1527.9-586,1527.9z"/>
		</g>
	</g>
	<g id="XMLID_5101_">
		<g id="XMLID_5102_">
			<path id="XMLID_5103_" fill="#9BA6B2" d="M-586,1545.3L-586,1545.3c2.5,0,4.4-2,4.4-4.4s-2-4.4-4.4-4.4c-2.4,0-4.4,2-4.4,4.4
				S-588.4,1545.3-586,1545.3z"/>
		</g>
	</g>
	<g id="XMLID_5098_">
		<g id="XMLID_5099_">
			<path id="XMLID_5100_" fill="#9BA6B2" d="M-586,1562.7L-586,1562.7c2.5,0,4.4-2,4.4-4.4s-2-4.4-4.4-4.4c-2.4,0-4.4,2-4.4,4.4
				S-588.4,1562.7-586,1562.7z"/>
		</g>
	</g>
	<g id="XMLID_5095_">
		<g id="XMLID_5096_">
			<path id="XMLID_5097_" fill="#9BA6B2" d="M-586,1580.1L-586,1580.1c2.5,0,4.4-2,4.4-4.4s-2-4.4-4.4-4.4c-2.4,0-4.4,2-4.4,4.4
				S-588.4,1580.1-586,1580.1z"/>
		</g>
	</g>
	<g id="XMLID_5092_">
		<g id="XMLID_5093_">
			<path id="XMLID_5094_" fill="#9BA6B2" d="M-568.6,1493L-568.6,1493c2.5,0,4.4-2,4.4-4.4s-2-4.4-4.4-4.4c-2.4,0-4.4,2-4.4,4.4
				C-573,1491.1-571,1493-568.6,1493z"/>
		</g>
	</g>
	<g id="XMLID_5089_">
		<g id="XMLID_5090_">
			<path id="XMLID_5091_" fill="#9BA6B2" d="M-568.6,1510.4L-568.6,1510.4c2.5,0,4.4-2,4.4-4.4s-2-4.4-4.4-4.4c-2.4,0-4.4,2-4.4,4.4
				S-571,1510.4-568.6,1510.4z"/>
		</g>
	</g>
	<g id="XMLID_5086_">
		<g id="XMLID_5087_">
			<path id="XMLID_5088_" fill="#9BA6B2" d="M-568.6,1527.9L-568.6,1527.9c2.5,0,4.4-2,4.4-4.4c0-2.4-2-4.4-4.4-4.4
				c-2.4,0-4.4,2-4.4,4.4C-573,1525.9-571,1527.9-568.6,1527.9z"/>
		</g>
	</g>
	<g id="XMLID_5083_">
		<g id="XMLID_5084_">
			<path id="XMLID_5085_" fill="#9BA6B2" d="M-568.6,1545.3L-568.6,1545.3c2.5,0,4.4-2,4.4-4.4s-2-4.4-4.4-4.4c-2.4,0-4.4,2-4.4,4.4
				S-571,1545.3-568.6,1545.3z"/>
		</g>
	</g>
	<g id="XMLID_5080_">
		<g id="XMLID_5081_">
			<path id="XMLID_5082_" fill="#9BA6B2" d="M-568.6,1562.7L-568.6,1562.7c2.5,0,4.4-2,4.4-4.4s-2-4.4-4.4-4.4c-2.4,0-4.4,2-4.4,4.4
				S-571,1562.7-568.6,1562.7z"/>
		</g>
	</g>
	<g id="XMLID_5077_">
		<g id="XMLID_5078_">
			<path id="XMLID_5079_" fill="#9BA6B2" d="M-568.6,1580.1L-568.6,1580.1c2.5,0,4.4-2,4.4-4.4s-2-4.4-4.4-4.4c-2.4,0-4.4,2-4.4,4.4
				S-571,1580.1-568.6,1580.1z"/>
		</g>
	</g>
	<g id="XMLID_5074_">
		<g id="XMLID_5075_">
			<path id="XMLID_5076_" fill="#9BA6B2" d="M-603.4,1493L-603.4,1493c2.5,0,4.4-2,4.4-4.4s-2-4.4-4.4-4.4c-2.4,0-4.4,2-4.4,4.4
				C-607.8,1491.1-605.9,1493-603.4,1493z"/>
		</g>
	</g>
	<g id="XMLID_5069_">
		<g id="XMLID_5070_">
			<path id="XMLID_5073_" fill="#9BA6B2" d="M-603.4,1510.4L-603.4,1510.4c2.5,0,4.4-2,4.4-4.4s-2-4.4-4.4-4.4c-2.4,0-4.4,2-4.4,4.4
				S-605.9,1510.4-603.4,1510.4z"/>
		</g>
	</g>
	<g id="XMLID_5064_">
		<g id="XMLID_5066_">
			<path id="XMLID_5067_" fill="#9BA6B2" d="M-603.4,1527.9L-603.4,1527.9c2.5,0,4.4-2,4.4-4.4c0-2.4-2-4.4-4.4-4.4
				c-2.4,0-4.4,2-4.4,4.4C-607.8,1525.9-605.9,1527.9-603.4,1527.9z"/>
		</g>
	</g>
	<g id="XMLID_5059_">
		<g id="XMLID_5060_">
			<path id="XMLID_5062_" fill="#9BA6B2" d="M-603.4,1545.3L-603.4,1545.3c2.5,0,4.4-2,4.4-4.4s-2-4.4-4.4-4.4c-2.4,0-4.4,2-4.4,4.4
				S-605.9,1545.3-603.4,1545.3z"/>
		</g>
	</g>
	<g id="XMLID_5056_">
		<g id="XMLID_5057_">
			<path id="XMLID_5058_" fill="#9BA6B2" d="M-603.4,1562.7L-603.4,1562.7c2.5,0,4.4-2,4.4-4.4s-2-4.4-4.4-4.4c-2.4,0-4.4,2-4.4,4.4
				S-605.9,1562.7-603.4,1562.7z"/>
		</g>
	</g>
	<g id="XMLID_5043_">
		<g id="XMLID_5052_">
			<path id="XMLID_5055_" fill="#9BA6B2" d="M-603.4,1580.1L-603.4,1580.1c2.5,0,4.4-2,4.4-4.4s-2-4.4-4.4-4.4c-2.4,0-4.4,2-4.4,4.4
				S-605.9,1580.1-603.4,1580.1z"/>
		</g>
	</g>
</g>
</svg>
