<?xml version="1.0" encoding="UTF-8"?>
<svg width="77px" height="75px" viewBox="0 0 77 75" version="1.1" xmlns="http://www.w3.org/2000/svg" xmlns:xlink="http://www.w3.org/1999/xlink">
    <!-- Generator: Sketch 50.2 (55047) - http://www.bohemiancoding.com/sketch -->
    <title>Group</title>
    <desc>Created with Sketch.</desc>
    <defs></defs>
    <g id="Page-1" stroke="none" stroke-width="1" fill="none" fill-rule="evenodd">
        <g id="Artboard" transform="translate(-7.000000, -4.000000)">
            <g id="Group" transform="translate(7.000000, 4.000000)">
                <g id="bch-coin" transform="translate(16.000000, 24.000000)" fill-rule="nonzero">
                    <path d="M33,28 C37.1144114,24.9093051 39.8030803,19.7926973 39.8030803,14.0023557 C39.8030803,8.21201413 37.1144114,3.09069494 33,0 L45,0 L45,28 L33,28 Z" id="Shape" fill="#0082D1"></path>
                    <path d="M5.2043956,14 C5.2043956,19.7913161 7.89010989,24.9087849 12,28 L0,28 L0,0 L12,0 C7.89010989,3.09121508 5.2043956,8.20868394 5.2043956,14 Z" id="Shape" fill="#0082D1"></path>
                    <circle id="Oval" fill="#0082D1" cx="23" cy="14" r="14"></circle>
                    <path d="M28.8921697,14.133914 L28.8833121,14.1200327 L28.8833121,14.1154056 C28.8788834,14.1015242 28.8744546,14.0876429 28.8700258,14.0691345 L28.8700258,14.0645073 C28.7150186,13.5231355 28.409433,13.0465433 27.993128,12.6902559 C27.9798416,12.6810016 27.9665553,12.6671203 27.953269,12.6578661 L27.9355539,12.6439848 L27.9222675,12.6347305 L27.9178388,12.6301034 L27.9045524,12.6208492 L27.9001237,12.6162221 L27.8868373,12.6069679 L27.8824086,12.6023408 L27.8691222,12.5930866 L27.8646934,12.5884594 L27.8514071,12.5792052 L27.8469783,12.5745781 L27.833692,12.5653239 L27.8292632,12.5606968 L27.8204057,12.5468155 L27.8115481,12.5421884 L27.7982618,12.5329341 L27.7894042,12.528307 L27.7761179,12.5190528 L27.7672604,12.5144257 L27.753974,12.5051715 L27.7451165,12.5005444 L27.7318301,12.4912901 L27.7229726,12.486663 L27.7096863,12.4774088 L27.7008287,12.4727817 L27.6875424,12.4635275 L27.6786848,12.4589004 L27.6653985,12.4496462 L27.6565409,12.4450191 L27.6432546,12.4357648 L27.634397,12.4311377 L27.6211107,12.4218835 L27.6122532,12.4172564 L27.5945381,12.4080022 L27.5856805,12.4033751 L27.5679654,12.3941208 L27.5591078,12.3894937 L27.5413927,12.3802395 L27.5325352,12.3756124 L27.5148201,12.3663582 L27.5059625,12.3617311 L27.4882474,12.3524769 L27.4793898,12.3478498 L27.4616747,12.3385955 L27.4528172,12.3339684 L27.4351021,12.3247142 L27.4218157,12.3200871 C27.4129582,12.31546 27.4041006,12.3108329 27.3952431,12.3062058 C27.018797,12.102613 26.6113496,11.9684268 26.1950445,11.9082744 C26.3146215,11.7787153 26.4209122,11.6352749 26.5183453,11.4872074 L26.5316316,11.4640719 L26.5404891,11.4501905 L26.5493467,11.4363092 L26.5537755,11.427055 L26.562633,11.4131737 L26.5670618,11.4039194 L26.5759194,11.3900381 L26.5803481,11.3807839 L26.5892057,11.3669026 L26.5936345,11.3576483 L26.602492,11.343767 L26.6069208,11.3345128 L26.6157783,11.3206315 L26.6202071,11.3113772 L26.6290647,11.2974959 L26.6334935,11.2928688 L26.642351,11.2789875 L26.6467798,11.2743604 L26.6556373,11.260479 L26.6600661,11.2558519 L26.6689237,11.2419706 L26.6733524,11.2373435 L26.68221,11.2234622 L26.6866388,11.2188351 L26.6954963,11.2049537 L26.6999251,11.2003266 L26.7087827,11.1864453 L26.7132114,11.1818182 L26.722069,11.1679369 L26.7264978,11.1633097 L26.7309265,11.1494284 L26.7353553,11.1448013 L26.7397841,11.13092 L26.7442129,11.1262929 L26.7486417,11.1124115 L26.7530704,11.1077844 L26.7574992,11.0939031 L26.761928,11.089276 L26.7663568,11.0753947 L26.7707855,11.0707676 L26.7752143,11.0568862 L26.7796431,11.0522591 L26.7840719,11.0383778 L26.7885006,11.0337507 L26.7929294,11.0198694 L26.7973582,11.0152422 L26.801787,11.0013609 L26.8106445,10.9828525 C26.8150733,10.9689711 26.8195021,10.9550898 26.8283596,10.9412085 C27.0099395,10.4784976 27.0497985,9.96951551 26.9479366,9.47904192 L26.9479366,9.47441481 C26.9435078,9.46053348 26.9435078,9.44665215 26.9390791,9.43277082 L26.9390791,9.42814371 L26.9346503,9.41888949 C26.9302215,9.40038106 26.9257927,9.38187262 26.921364,9.35873707 C26.9169352,9.34022863 26.9125064,9.3217202 26.9080776,9.30321176 L26.8992201,9.28933043 L26.8992201,9.28470332 C26.8947913,9.27082199 26.8903625,9.25694066 26.8859337,9.24305934 C26.7486417,8.76183996 26.4784863,8.33614589 26.106469,8.02150245 C26.0976114,8.01224823 26.0843251,8.00299401 26.0754676,7.99373979 L26.0621812,7.98448557 L26.0488949,7.97523136 L26.0444661,7.97060425 L26.0356086,7.96135003 L26.0311798,7.95672292 L26.0223222,7.9474687 L26.0178935,7.94284159 L26.0046071,7.93358737 L26.0001783,7.92896026 L25.986892,7.91970604 L25.9824632,7.91507893 L25.9691769,7.90582471 L25.9647481,7.9011976 L25.9514618,7.89194339 L25.947033,7.88731628 L25.9337467,7.87806206 L25.9293179,7.87343495 L25.9160316,7.86418073 L25.9116028,7.85955362 L25.8983165,7.8502994 L25.8938877,7.84567229 L25.8806014,7.83641807 L25.8761726,7.83179096 L25.8628863,7.82253674 L25.8584575,7.81790964 L25.8451712,7.80865542 L25.8407424,7.80402831 L25.827456,7.79477409 L25.8230273,7.79014698 L25.8097409,7.78089276 L25.8053122,7.77626565 L25.7920258,7.76701143 L25.7875971,7.76238432 L25.7743107,7.7531301 L25.7654532,7.74850299 L25.7521668,7.73924878 L25.7433093,7.73462167 L25.730023,7.72536745 L25.7211654,7.72074034 L25.7078791,7.71148612 L25.6990215,7.70685901 L25.6857352,7.69760479 L25.6768776,7.69297768 L25.6591625,7.68372346 L25.650305,7.67909635 L25.6325899,7.66984213 L25.6193035,7.66521502 L25.5927309,7.6513337 C24.875269,7.26265651 23.962941,7.14235166 23.0461841,7.39221557 L22.8070302,7.4569951 L22.2047165,5 L20.805223,5.37479586 L21.4075367,7.82253674 L20.2870561,8.12329886 L19.6847424,5.68481219 L18.2852489,6.05960806 L18.8875626,8.50734894 L16,9.28470332 L16.3853036,10.8440392 L17.5500719,10.5340229 C17.9353755,10.4322265 18.3295367,10.6728361 18.4269698,11.0753947 L20.0390446,17.6366358 C20.1054762,17.9050082 19.950469,18.1780076 19.6936,18.2474143 L18.6749813,18.5204137 L18.7369842,20.3758846 L21.6201179,19.6031573 L22.1914302,22 L23.5909237,21.6252041 L22.98861,19.1728361 L24.1090906,18.872074 L24.7114043,21.3198149 L26.1108978,20.9450191 L25.5041553,18.488024 C25.7433093,18.4232444 25.947033,18.3677191 26.0843251,18.3307022 C27.1206589,18.0530757 27.953269,17.4191617 28.4625783,16.627926 L28.4802934,16.6001633 L28.489151,16.586282 L28.4980085,16.5677735 L28.5024373,16.5585193 L28.5112949,16.5400109 L28.5157237,16.5307567 L28.5245812,16.5122482 L28.52901,16.502994 L28.5378675,16.4844856 L28.5422963,16.4752314 L28.5511539,16.4567229 L28.5555826,16.4474687 L28.5644402,16.4289603 L28.568869,16.419706 L28.5777265,16.4011976 L28.5821553,16.3919434 L28.5910129,16.3734349 L28.5954416,16.3641807 L28.6042992,16.3502994 L28.608728,16.3410452 L28.6175855,16.3271639 L28.6220143,16.3179096 L28.6308719,16.3040283 L28.6353006,16.2947741 L28.6441582,16.2808928 L28.648587,16.2716385 L28.6574445,16.2577572 L28.6618733,16.248503 L28.6707308,16.2346217 L28.6751596,16.2253674 L28.6840172,16.2114861 L28.688446,16.206859 L28.6973035,16.1929777 L28.7017323,16.1883506 L28.7105898,16.1744692 L28.7150186,16.1698421 L28.7238762,16.1559608 L28.7283049,16.1513337 L28.7371625,16.1374524 L28.7415913,16.1328253 L28.7504488,16.1189439 L28.7548776,16.1143168 L28.7593064,16.1004355 L28.7637352,16.0958084 L28.7681639,16.0819271 L28.7725927,16.0772999 L28.7770215,16.0634186 L28.785879,16.0449102 C28.7903078,16.0310289 28.7991654,16.0125204 28.8035942,15.9986391 C29.0073179,15.4757757 29.0516057,14.9020142 28.9408862,14.3513881 C28.9364575,14.3375068 28.9364575,14.3236255 28.9320287,14.305117 L28.9320287,14.3004899 L28.9275999,14.2958628 C28.9231711,14.2727273 28.9187424,14.2542188 28.9098848,14.2310833 C28.8965985,14.1801851 28.8921697,14.1570495 28.8921697,14.133914 Z M20.6679309,9.74278715 C20.9070849,9.67800762 21.8947021,9.41888949 22.2180028,9.33097441 C22.7361697,9.19216113 23.2454791,9.24768645 23.644069,9.44665215 L23.6573553,9.45127926 L23.6617841,9.45590637 L23.6706417,9.46053348 L23.6750705,9.46053348 L23.683928,9.46516059 L23.6883568,9.46516059 L23.6972143,9.4697877 L23.7016431,9.4697877 L23.7105007,9.47441481 L23.7149294,9.47441481 L23.723787,9.47904192 L23.7282158,9.47904192 L23.7370733,9.48366903 L23.7415021,9.48366903 L23.7503597,9.48829614 L23.7547884,9.48829614 L23.763646,9.49292324 L23.7680748,9.49292324 L23.7769323,9.49755035 L23.7813611,9.49755035 L23.7902187,9.50217746 L23.7946474,9.50217746 L23.803505,9.50680457 L23.8079338,9.50680457 L23.8167913,9.51143168 L23.8212201,9.51143168 L23.8256489,9.51605879 L23.8300776,9.51605879 L23.8345064,9.5206859 L23.8389352,9.5206859 L23.843364,9.52531301 L23.8477928,9.52531301 L23.8522215,9.52994012 L23.8566503,9.52994012 L23.8610791,9.53456723 L23.8655079,9.53919434 L23.8699366,9.54382145 L23.8743654,9.54382145 L23.8787942,9.54844856 L23.883223,9.54844856 L23.8876517,9.55307567 L23.8920805,9.55307567 L23.8965093,9.55770278 L23.9009381,9.55770278 L23.9053669,9.56232989 L23.9097956,9.56232989 L23.9142244,9.566957 L23.923082,9.5715841 C23.9275107,9.57621121 23.9363683,9.58083832 23.9407971,9.58546543 C24.1445208,9.74741426 24.2950992,9.96951551 24.3703884,10.2240065 L24.3703884,10.2286336 C24.3703884,10.2332608 24.3748172,10.242515 24.3748172,10.2517692 L24.379246,10.2610234 C24.3836748,10.2702776 24.3836748,10.2795318 24.3881035,10.2934132 C24.3925323,10.3026674 24.3925323,10.3165487 24.3925323,10.3258029 L24.3969611,10.3350572 C24.3969611,10.3443114 24.4013899,10.3489385 24.4013899,10.3581927 L24.4013899,10.3628198 C24.4545352,10.6219379 24.4279625,10.8949374 24.3216719,11.1401742 L24.3128143,11.1633097 L24.3083856,11.172564 L24.3039568,11.1771911 L24.3039568,11.1818182 L24.299528,11.1864453 L24.299528,11.1910724 L24.2950992,11.1956995 L24.2950992,11.2003266 L24.2906704,11.2049537 L24.2906704,11.2095808 L24.2862417,11.2142079 L24.2862417,11.2188351 L24.2818129,11.2234622 L24.2818129,11.2280893 L24.2773841,11.2327164 L24.2773841,11.2373435 L24.2729553,11.2419706 L24.2729553,11.2465977 L24.2685266,11.2512248 L24.2685266,11.2558519 L24.2640978,11.260479 L24.2640978,11.2651062 L24.259669,11.2697333 L24.259669,11.2743604 L24.2552402,11.2836146 L24.2552402,11.2882417 L24.2508115,11.2974959 L24.2508115,11.302123 L24.2463827,11.3113772 L24.2463827,11.3160044 L24.2419539,11.3252586 L24.2419539,11.3298857 L24.2375251,11.3391399 L24.2375251,11.343767 L24.2330963,11.3530212 L24.2330963,11.3576483 L24.2286676,11.3669026 L24.2286676,11.3715297 L24.2242388,11.3807839 L24.2242388,11.385411 L24.21981,11.3946652 L24.21981,11.3992923 L24.2153812,11.4085465 L24.2153812,11.4131737 L24.2109525,11.4224279 L24.2109525,11.427055 L24.2065237,11.4363092 L24.2020949,11.4409363 L24.1932374,11.4548176 C23.9363683,11.8296135 23.5156345,12.1350027 22.9974676,12.273816 C22.6697381,12.3617311 21.6865496,12.6301034 21.4473956,12.694883 L20.6679309,9.74278715 Z M26.1374704,14.7724551 L26.1418992,14.7817093 C26.1418992,14.7909635 26.146328,14.7955906 26.146328,14.8048449 C26.1994733,15.0917256 26.1640431,15.3924878 26.0356086,15.6516059 L26.0223222,15.6747414 L26.0178935,15.6839956 L26.0134647,15.6932499 L26.0134647,15.697877 L26.0090359,15.7025041 L26.0090359,15.7071312 L26.0046071,15.7117583 L26.0046071,15.7163854 L26.0001783,15.7256396 L26.0001783,15.7302667 L25.9957496,15.739521 L25.9957496,15.7441481 L25.9913208,15.7534023 L25.9913208,15.7580294 L25.986892,15.7672836 L25.986892,15.7719107 L25.9824632,15.7811649 L25.9824632,15.7857921 L25.9780345,15.7950463 L25.9780345,15.7996734 L25.9736057,15.8089276 L25.9736057,15.8135547 L25.9691769,15.8228089 L25.9691769,15.827436 L25.9647481,15.8366903 L25.9647481,15.8413174 L25.9603194,15.8505716 L25.9603194,15.8551987 L25.9558906,15.8644529 L25.9558906,15.86908 L25.9514618,15.8783342 L25.9514618,15.8829614 L25.947033,15.8922156 L25.947033,15.8968427 L25.9426042,15.9060969 L25.9381755,15.910724 L25.9337467,15.9199782 L25.9293179,15.9246053 L25.9204604,15.9338596 L25.9160316,15.9384867 L25.907174,15.9477409 L25.9027453,15.952368 L25.8938877,15.9616222 L25.8894589,15.9662493 L25.8806014,15.9755035 L25.8761726,15.9801306 L25.867315,15.9893849 L25.8628863,15.994012 L25.8540287,16.0078933 C25.5395855,16.4243332 25.0391338,16.7667392 24.4235338,16.9333152 C24.0382302,17.0397387 22.869033,17.3543821 22.5855913,17.433043 L21.7928402,14.2033206 C22.076282,14.1246598 23.2454791,13.8192705 23.6307827,13.7174741 C24.2419539,13.5555253 24.8442676,13.6017964 25.3092891,13.8053892 L25.3225755,13.8100163 L25.331433,13.8146434 L25.3402906,13.8192705 L25.3447194,13.8192705 L25.3535769,13.8238977 L25.3580057,13.8238977 L25.3668632,13.8285248 L25.371292,13.8285248 L25.3801496,13.8331519 L25.3845784,13.8331519 L25.3934359,13.837779 L25.3978647,13.837779 L25.4067222,13.8424061 L25.411151,13.8424061 L25.4200086,13.8470332 L25.4244373,13.8470332 L25.4332949,13.8516603 L25.4377237,13.8516603 L25.4465812,13.8562874 L25.45101,13.8562874 L25.4598676,13.8609145 L25.4642963,13.8609145 L25.4731539,13.8655416 L25.4775827,13.8655416 L25.4864402,13.8701688 L25.490869,13.8701688 L25.4997266,13.8747959 L25.5041553,13.8747959 L25.5130129,13.879423 L25.5174417,13.879423 L25.5262992,13.8840501 L25.530728,13.8840501 L25.5395855,13.8886772 L25.5440143,13.8886772 L25.5528719,13.8933043 L25.5573007,13.8933043 L25.5661582,13.8979314 L25.570587,13.8979314 L25.5794445,13.9025585 L25.5838733,13.9025585 L25.5927309,13.9071856 L25.5971596,13.9071856 L25.6060172,13.9118127 L25.610446,13.9118127 L25.6148748,13.9164398 L25.6193035,13.9164398 L25.6281611,13.921067 L25.6370186,13.9256941 C25.6458762,13.9303212 25.650305,13.9349483 25.6591625,13.9395754 C25.8894589,14.1061513 26.0621812,14.346761 26.1507568,14.6243876 L26.1551855,14.6290147 C26.1596143,14.6382689 26.1596143,14.642896 26.1640431,14.6521502 L26.1684719,14.6614045 C26.1729007,14.6706587 26.1729007,14.68454 26.1773294,14.6937942 C26.1374704,14.7446924 26.1418992,14.7585738 26.1374704,14.7724551 Z" id="Shape" fill="#FFFFFF"></path>
                </g>
                <g id="rings" stroke="#FFFFFF">
                    <circle id="XMLID_23_" stroke-width="2" cx="38.4" cy="38.4" r="29.2"></circle>
                    <circle id="XMLID_24_" stroke-opacity="0.5" cx="38.4" cy="38.4" r="33.8"></circle>
                    <circle id="XMLID_31_" stroke-opacity="0.2" cx="38.4" cy="38.4" r="37.9"></circle>
                </g>
            </g>
        </g>
    </g>
</svg>