<?xml version="1.0" encoding="UTF-8"?>
<svg width="77px" height="77px" viewBox="0 0 77 77" version="1.1" xmlns="http://www.w3.org/2000/svg" xmlns:xlink="http://www.w3.org/1999/xlink">
    <!-- Generator: Sketch 50.2 (55047) - http://www.bohemiancoding.com/sketch -->
    <title>Group</title>
    <desc>Created with Sketch.</desc>
    <defs></defs>
    <g id="Page-1" stroke="none" stroke-width="1" fill="none" fill-rule="evenodd">
        <g id="Artboard" transform="translate(-28.000000, -10.000000)">
            <g id="Group" transform="translate(28.000000, 10.000000)">
                <g id="bch-coin" transform="translate(22.000000, 27.000000)" fill-rule="nonzero">
                    <path d="M25,23 C28.0858086,20.4612149 30.1023102,16.2582871 30.1023102,11.501935 C30.1023102,6.74558304 28.0858086,2.53878513 25,0 L34,0 L34,23 L25,23 Z" id="Shape" fill="#0082D1"></path>
                    <path d="M3.9032967,11.5 C3.9032967,16.2571525 5.91758242,20.4607876 9,23 L0,23 L0,0 L9,0 C5.91758242,2.53921239 3.9032967,6.74284753 3.9032967,11.5 Z" id="Shape" fill="#0082D1"></path>
                    <ellipse id="Oval" fill="#0082D1" cx="17.5" cy="11.5" rx="10.5" ry="11.5"></ellipse>
                    <path d="M21.9170536,11.5220468 L21.9102401,11.5106151 L21.9102401,11.5068046 C21.9068334,11.4953729 21.9034266,11.4839412 21.9000199,11.468699 L21.9000199,11.4648884 C21.7807836,11.0190528 21.5457177,10.6265651 21.2254831,10.3331519 C21.2152628,10.3255308 21.2050425,10.3140991 21.1948223,10.306478 L21.1811953,10.2950463 L21.170975,10.2874251 L21.1675683,10.2836146 L21.157348,10.2759935 L21.1539413,10.2721829 L21.143721,10.2645618 L21.1403143,10.2607512 L21.130094,10.2531301 L21.1266873,10.2493195 L21.116467,10.2416984 L21.1130603,10.2378879 L21.10284,10.2302667 L21.0994333,10.2264562 L21.0926197,10.2150245 L21.0858062,10.2112139 L21.075586,10.2035928 L21.0687725,10.1997823 L21.0585522,10.1921611 L21.0517387,10.1883506 L21.0415185,10.1807295 L21.034705,10.1769189 L21.0244847,10.1692978 L21.0176712,10.1654872 L21.007451,10.1578661 L21.0006375,10.1540555 L20.9904172,10.1464344 L20.9836037,10.1426238 L20.9733834,10.1350027 L20.9665699,10.1311922 L20.9563497,10.123571 L20.9495362,10.1197605 L20.9393159,10.1121394 L20.9325024,10.1083288 L20.9188754,10.1007077 L20.9120619,10.0968971 L20.8984349,10.089276 L20.8916214,10.0854654 L20.8779944,10.0778443 L20.8711809,10.0740338 L20.8575539,10.0664126 L20.8507404,10.0626021 L20.8371134,10.0549809 L20.8302999,10.0511704 L20.8166729,10.0435493 L20.8098594,10.0397387 L20.7962324,10.0321176 L20.7860121,10.028307 C20.7791986,10.0244965 20.7723851,10.0206859 20.7655716,10.0168753 C20.4759977,9.84921067 20.1625766,9.73870441 19.8423419,9.68916712 C19.9343242,9.58247142 20.0160863,9.46434404 20.0910348,9.3424061 L20.1012551,9.32335329 L20.1080686,9.31192161 L20.1148821,9.30048993 L20.1182888,9.29286881 L20.1251023,9.28143713 L20.1285091,9.273816 L20.1353226,9.26238432 L20.1387293,9.2547632 L20.1455428,9.24333152 L20.1489496,9.2357104 L20.1557631,9.22427872 L20.1591698,9.21665759 L20.1659833,9.20522591 L20.1693901,9.19760479 L20.1762036,9.18617311 L20.1796103,9.18236255 L20.1864239,9.17093087 L20.1898306,9.1671203 L20.1966441,9.15568862 L20.2000509,9.15187806 L20.2068644,9.14044638 L20.2102711,9.13663582 L20.2170846,9.12520414 L20.2204914,9.12139358 L20.2273049,9.10996189 L20.2307116,9.10615133 L20.2375251,9.09471965 L20.2409319,9.09090909 L20.2477454,9.07947741 L20.2511521,9.07566685 L20.2545589,9.06423517 L20.2579656,9.06042461 L20.2613724,9.04899292 L20.2647791,9.04518236 L20.2681859,9.03375068 L20.2715926,9.02994012 L20.2749994,9.01850844 L20.2784061,9.01469788 L20.2818129,9.00326619 L20.2852196,8.99945563 L20.2886264,8.98802395 L20.2920331,8.98421339 L20.2954399,8.97278171 L20.2988467,8.96897115 L20.3022534,8.95753947 L20.3056602,8.95372891 L20.3090669,8.94229722 L20.3158804,8.92705498 C20.3192872,8.9156233 20.3226939,8.90419162 20.3295074,8.89275993 C20.4691842,8.51170386 20.499845,8.09254219 20.4214897,7.68862275 L20.4214897,7.68481219 C20.418083,7.67338051 20.418083,7.66194883 20.4146762,7.65051715 L20.4146762,7.64670659 L20.4112695,7.63908547 C20.4078627,7.62384322 20.4044559,7.60860098 20.4010492,7.58954818 C20.3976424,7.57430593 20.3942357,7.55906369 20.3908289,7.54382145 L20.3840154,7.53238977 L20.3840154,7.52857921 C20.3806087,7.51714752 20.3772019,7.50571584 20.3737952,7.49428416 C20.2681859,7.09798585 20.060374,6.74741426 19.7742069,6.48829614 C19.7673934,6.48067501 19.7571732,6.47305389 19.7503597,6.46543277 L19.7401394,6.45781165 L19.7299192,6.45019053 L19.7265124,6.44637997 L19.7196989,6.43875885 L19.7162921,6.43494829 L19.7094786,6.42732716 L19.7060719,6.4235166 L19.6958516,6.41589548 L19.6924449,6.41208492 L19.6822246,6.4044638 L19.6788179,6.40065324 L19.6685976,6.39303212 L19.6651909,6.38922156 L19.6549706,6.38160044 L19.6515639,6.37778987 L19.6413436,6.37016875 L19.6379369,6.36635819 L19.6277166,6.35873707 L19.6243099,6.35492651 L19.6140896,6.34730539 L19.6106828,6.34349483 L19.6004626,6.33587371 L19.5970558,6.33206315 L19.5868356,6.32444203 L19.5834288,6.32063146 L19.5732086,6.31301034 L19.5698018,6.30919978 L19.5595816,6.30157866 L19.5561748,6.2977681 L19.5459546,6.29014698 L19.5425478,6.28633642 L19.5323276,6.2787153 L19.5289208,6.27490474 L19.5187006,6.26728361 L19.5118871,6.26347305 L19.5016668,6.25585193 L19.4948533,6.25204137 L19.484633,6.24442025 L19.4778195,6.24060969 L19.4675993,6.23298857 L19.4607858,6.22917801 L19.4505655,6.22155689 L19.443752,6.21774633 L19.430125,6.2101252 L19.4233115,6.20631464 L19.4096845,6.19869352 L19.3994643,6.19488296 L19.3790237,6.18345128 C18.82713,5.86336418 18.1253392,5.7642896 17.4201416,5.97005988 L17.2361771,6.02340773 L16.7728588,4 L15.6963254,4.30865542 L16.1596436,6.32444203 L15.2977355,6.57212847 L14.8344172,4.56396298 L13.7578838,4.8726184 L14.221202,6.88840501 L12,7.52857921 L12.2963874,8.81273816 L13.192363,8.55743059 C13.4887504,8.47359826 13.7919513,8.67174741 13.8668998,9.00326619 L15.1069574,14.4066413 C15.1580586,14.6276538 15.0388223,14.8524769 14.8412307,14.9096353 L14.0576779,15.1344584 L14.1053724,16.6624932 L16.3231677,16.0261296 L16.7626386,18 L17.8391721,17.6913446 L17.3758539,15.6717474 L18.237762,15.424061 L18.7010802,17.4398476 L19.7776137,17.1311922 L19.3108887,15.1077844 C19.4948533,15.0544366 19.6515639,15.0087099 19.7571732,14.9782254 C20.554353,14.7495917 21.1948223,14.2275449 21.5865987,13.575939 L21.6002257,13.5530757 L21.6070392,13.541644 L21.6138527,13.5264017 L21.6172595,13.5187806 L21.624073,13.5035384 L21.6274797,13.4959173 L21.6342932,13.480675 L21.6377,13.4730539 L21.6445135,13.4578116 L21.6479202,13.4501905 L21.6547337,13.4349483 L21.6581405,13.4273272 L21.664954,13.4120849 L21.6683608,13.4044638 L21.6751743,13.3892216 L21.678581,13.3816004 L21.6853945,13.3663582 L21.6888013,13.3587371 L21.6956148,13.3473054 L21.6990215,13.3396843 L21.705835,13.3282526 L21.7092418,13.3206315 L21.7160553,13.3091998 L21.719462,13.3015787 L21.7262755,13.290147 L21.7296823,13.2825259 L21.7364958,13.2710942 L21.7399025,13.2634731 L21.746716,13.2520414 L21.7501228,13.2444203 L21.7569363,13.2329886 L21.760343,13.229178 L21.7671565,13.2177463 L21.7705633,13.2139358 L21.7773768,13.2025041 L21.7807836,13.1986935 L21.7875971,13.1872618 L21.7910038,13.1834513 L21.7978173,13.1720196 L21.8012241,13.168209 L21.8080376,13.1567774 L21.8114443,13.1529668 L21.8148511,13.1415351 L21.8182578,13.1377246 L21.8216646,13.1262929 L21.8250713,13.1224823 L21.8284781,13.1110506 L21.8352916,13.0958084 C21.8386983,13.0843767 21.8455118,13.0691345 21.8489186,13.0577028 C22.0056292,12.6271094 22.0396967,12.1545999 21.9545279,11.7011432 C21.9511211,11.6897115 21.9511211,11.6782798 21.9477144,11.6630376 L21.9477144,11.659227 L21.9443076,11.6554164 C21.9409009,11.6363636 21.9374941,11.6211214 21.9306806,11.6020686 C21.9204604,11.5601524 21.9170536,11.5410996 21.9170536,11.5220468 Z M15.5907161,7.90582471 C15.7746807,7.85247686 16.5343862,7.63908547 16.7830791,7.56668481 C17.181669,7.45236799 17.5734455,7.49809472 17.8800531,7.66194883 L17.8902733,7.66575939 L17.8936801,7.66956995 L17.9004936,7.67338051 L17.9039003,7.67338051 L17.9107139,7.67719107 L17.9141206,7.67719107 L17.9209341,7.68100163 L17.9243409,7.68100163 L17.9311544,7.68481219 L17.9345611,7.68481219 L17.9413746,7.68862275 L17.9447814,7.68862275 L17.9515949,7.69243332 L17.9550016,7.69243332 L17.9618151,7.69624388 L17.9652219,7.69624388 L17.9720354,7.70005444 L17.9754421,7.70005444 L17.9822556,7.703865 L17.9856624,7.703865 L17.9924759,7.70767556 L17.9958826,7.70767556 L18.0026961,7.71148612 L18.0061029,7.71148612 L18.0129164,7.71529668 L18.0163231,7.71529668 L18.0197299,7.71910724 L18.0231366,7.71910724 L18.0265434,7.7229178 L18.0299502,7.7229178 L18.0333569,7.72672836 L18.0367637,7.72672836 L18.0401704,7.73053892 L18.0435772,7.73053892 L18.0469839,7.73434948 L18.0503907,7.73816004 L18.0537974,7.7419706 L18.0572042,7.7419706 L18.0606109,7.74578116 L18.0640177,7.74578116 L18.0674244,7.74959173 L18.0708312,7.74959173 L18.0742379,7.75340229 L18.0776447,7.75340229 L18.0810514,7.75721285 L18.0844582,7.75721285 L18.0878649,7.76102341 L18.0946784,7.76483397 C18.0980852,7.76864453 18.1048987,7.77245509 18.1083054,7.77626565 C18.265016,7.90963527 18.3808456,8.09254219 18.4387603,8.30212303 L18.4387603,8.30593359 C18.4387603,8.30974415 18.4421671,8.31736527 18.4421671,8.32498639 L18.4455738,8.33260751 C18.4489806,8.34022863 18.4489806,8.34784976 18.4523873,8.35928144 C18.4557941,8.36690256 18.4557941,8.37833424 18.4557941,8.38595536 L18.4592008,8.39357648 C18.4592008,8.4011976 18.4626076,8.40500817 18.4626076,8.41262929 L18.4626076,8.41643985 C18.5034886,8.62983125 18.4830481,8.85465433 18.4012861,9.05661404 L18.3944726,9.07566685 L18.3910658,9.08328797 L18.3876591,9.08709853 L18.3876591,9.09090909 L18.3842523,9.09471965 L18.3842523,9.09853021 L18.3808456,9.10234077 L18.3808456,9.10615133 L18.3774388,9.10996189 L18.3774388,9.11377246 L18.3740321,9.11758302 L18.3740321,9.12139358 L18.3706253,9.12520414 L18.3706253,9.1290147 L18.3672186,9.13282526 L18.3672186,9.13663582 L18.3638118,9.14044638 L18.3638118,9.14425694 L18.360405,9.1480675 L18.360405,9.15187806 L18.3569983,9.15568862 L18.3569983,9.15949918 L18.3535915,9.16330974 L18.3535915,9.1671203 L18.3501848,9.17474143 L18.3501848,9.17855199 L18.346778,9.18617311 L18.346778,9.18998367 L18.3433713,9.19760479 L18.3433713,9.20141535 L18.3399645,9.20903647 L18.3399645,9.21284703 L18.3365578,9.22046815 L18.3365578,9.22427872 L18.333151,9.23189984 L18.333151,9.2357104 L18.3297443,9.24333152 L18.3297443,9.24714208 L18.3263375,9.2547632 L18.3263375,9.25857376 L18.3229308,9.26619488 L18.3229308,9.27000544 L18.319524,9.27762657 L18.319524,9.28143713 L18.3161173,9.28905825 L18.3161173,9.29286881 L18.3127105,9.30048993 L18.3093038,9.30430049 L18.3024903,9.31573217 C18.1048987,9.62438759 17.7812573,9.87588459 17.3826674,9.99020142 C17.1305678,10.0626021 16.3742689,10.2836146 16.1903043,10.3369624 L15.5907161,7.90582471 Z M19.7980542,12.0479042 L19.8014609,12.0555253 C19.8014609,12.0631464 19.8048677,12.066957 19.8048677,12.0745781 C19.8457487,12.3108329 19.8184947,12.5585193 19.7196989,12.7719107 L19.7094786,12.7909635 L19.7060719,12.7985846 L19.7026651,12.8062058 L19.7026651,12.8100163 L19.6992584,12.8138269 L19.6992584,12.8176375 L19.6958516,12.821448 L19.6958516,12.8252586 L19.6924449,12.8328797 L19.6924449,12.8366903 L19.6890381,12.8443114 L19.6890381,12.8481219 L19.6856314,12.8557431 L19.6856314,12.8595536 L19.6822246,12.8671747 L19.6822246,12.8709853 L19.6788179,12.8786064 L19.6788179,12.882417 L19.6754111,12.8900381 L19.6754111,12.8938487 L19.6720044,12.9014698 L19.6720044,12.9052803 L19.6685976,12.9129015 L19.6685976,12.916712 L19.6651909,12.9243332 L19.6651909,12.9281437 L19.6617841,12.9357648 L19.6617841,12.9395754 L19.6583774,12.9471965 L19.6583774,12.9510071 L19.6549706,12.9586282 L19.6549706,12.9624388 L19.6515639,12.9700599 L19.6515639,12.9738704 L19.6481571,12.9814916 L19.6447504,12.9853021 L19.6413436,12.9929232 L19.6379369,12.9967338 L19.6311234,13.0043549 L19.6277166,13.0081655 L19.6209031,13.0157866 L19.6174964,13.0195972 L19.6106828,13.0272183 L19.6072761,13.0310289 L19.6004626,13.03865 L19.5970558,13.0424605 L19.5902423,13.0500817 L19.5868356,13.0538922 L19.5800221,13.0653239 C19.3381427,13.4082744 18.9531798,13.6902559 18.4796414,13.827436 C18.183254,13.9150789 17.2838716,14.1741971 17.0658395,14.2389766 L16.456031,11.5792052 C16.6740631,11.5144257 17.5734455,11.2629287 17.8698328,11.1790964 C18.3399645,11.0457267 18.8032827,11.0838323 19.1609917,11.251497 L19.1712119,11.2553076 L19.1780254,11.2591181 L19.1848389,11.2629287 L19.1882457,11.2629287 L19.1950592,11.2667392 L19.1984659,11.2667392 L19.2052794,11.2705498 L19.2086862,11.2705498 L19.2154997,11.2743604 L19.2189064,11.2743604 L19.2257199,11.2781709 L19.2291267,11.2781709 L19.2359402,11.2819815 L19.2393469,11.2819815 L19.2461604,11.2857921 L19.2495672,11.2857921 L19.2563807,11.2896026 L19.2597874,11.2896026 L19.2666009,11.2934132 L19.2700077,11.2934132 L19.2768212,11.2972237 L19.280228,11.2972237 L19.2870415,11.3010343 L19.2904482,11.3010343 L19.2972617,11.3048449 L19.3006685,11.3048449 L19.307482,11.3086554 L19.3108887,11.3086554 L19.3177022,11.312466 L19.321109,11.312466 L19.3279225,11.3162765 L19.3313292,11.3162765 L19.3381427,11.3200871 L19.3415495,11.3200871 L19.348363,11.3238977 L19.3517697,11.3238977 L19.3585832,11.3277082 L19.36199,11.3277082 L19.3688035,11.3315188 L19.3722102,11.3315188 L19.3790237,11.3353293 L19.3824305,11.3353293 L19.389244,11.3391399 L19.3926508,11.3391399 L19.3960575,11.3429505 L19.3994643,11.3429505 L19.4062778,11.346761 L19.4130913,11.3505716 C19.4199048,11.3543821 19.4233115,11.3581927 19.430125,11.3620033 C19.6072761,11.4991835 19.7401394,11.6973326 19.8082744,11.9259662 L19.8116812,11.9297768 C19.8150879,11.9373979 19.8150879,11.9412085 19.8184947,11.9488296 L19.8219014,11.9564507 C19.8253082,11.9640719 19.8253082,11.9755035 19.8287149,11.9831247 C19.7980542,12.0250408 19.8014609,12.0364725 19.7980542,12.0479042 Z" id="Shape" fill="#FFFFFF"></path>
                </g>
                <g id="rings" stroke="#FFFFFF">
                    <circle id="XMLID_23_" stroke-width="2" cx="38.4" cy="38.4" r="29.2"></circle>
                    <circle id="XMLID_24_" stroke-opacity="0.5" cx="38.4" cy="38.4" r="33.8"></circle>
                    <circle id="XMLID_31_" stroke-opacity="0.2" cx="38.4" cy="38.4" r="37.9"></circle>
                </g>
            </g>
        </g>
    </g>
</svg>