<?xml version="1.0" encoding="utf-8"?>
<!-- Generator: Adobe Illustrator 19.0.0, SVG Export Plug-In . SVG Version: 6.00 Build 0)  -->
<svg version="1.1" id="Layer_1" xmlns="http://www.w3.org/2000/svg" xmlns:xlink="http://www.w3.org/1999/xlink" x="0px" y="0px"
	 viewBox="-94.4 -38.2 523.8 672.9" enable-background="new -94.4 -38.2 523.8 672.9" xml:space="preserve">
<linearGradient id="XMLID_2_" gradientUnits="userSpaceOnUse" x1="-94.3969" y1="298.3153" x2="429.356" y2="298.3153">
	<stop  offset="0" style="stop-color:#2AF598"/>
	<stop  offset="1" style="stop-color:#009EFD"/>
</linearGradient>
<path id="XMLID_347_" opacity="0.2" fill="url(#XMLID_2_)" d="M418.5,303.6c-9.9-27.6-28.4-46.6-56.4-55.9
	c-12.8-4.1-26.2-6-40.3-8.8c1.3-1.3,2.1-2.5,3-3.2c55.7-44.9,30.2-140-22.1-163.4c-21.3-9.6-43.5-13.8-65.9-14.4
	c-16.2-0.3-32.2,0.5-48.6,1.3c-5.8-27.9-13.3-66.4-19.7-97.3L110.1-26c5.8,30.5,13.6,67.9,18.8,95.4C112.4,72.9,97.5,76,82,79.2
	c-5.7-27.4-13-64.9-19.3-95.3L4.8-4.1c5.9,31,13.9,69.4,19.1,96.9c-40,7.8-78.4,15.8-118.4,23.6c4.5,21.4,8.1,41.5,12.5,62.4
	c8.5-1.8,16-3.3,23-4.3c7.5-1.6,15-3.1,22-4.1c20.8-2.8,33.6,6.5,37.8,26.5c16.3,83.5,32.8,167.5,49.6,250.8
	c3.8,18.4-2.7,27.1-20.6,30.8c-13,2.7-25.9,5.4-38.9,8.1c0.9,24.3,1.6,47.5,2.5,71.8C33,550.9,72,543.3,112,535.5
	c6.2,29.9,13.6,67.9,20.2,99.3l58.3-12.1c-6-31.5-13.7-68.4-19.3-97.9c16.6-2.9,31.6-5.5,47.2-8.3c6.2,29.9,13.3,66.4,19.6,96.8
	l58.3-12.1c-6-31.5-13.7-68.4-19.2-97.4c1.9-0.9,3.4-1.2,4.8-2c27-10.3,54.9-18.7,80.5-30.8c33.5-16.3,57.2-42.6,64.9-80.6
	C432,361.1,428.6,332.2,418.5,303.6z M97.3,147.8c36.4-7.6,71.2-17.9,107.2-9.8c23.9,4.9,38.6,20.6,41.6,42.3
	c3.3,23.2-6.3,42.4-28.1,54.8c-29.7,17.1-63.2,23.6-98,29.2C112.6,226.3,105.2,188.3,97.3,147.8z M285.1,412.5
	c-29.4,21.2-63.3,28.3-97.6,35.9c-9.5,2-19.1,3.4-29.5,5.6c-8.5-43.5-16.9-86-25.4-129.5c44.4-9.2,87.5-21.9,132.8-12
	c23.4,5,39.3,18.9,44.4,43.3C314.3,380.4,304.6,398.6,285.1,412.5z"/>
</svg>
