<?xml version="1.0" encoding="UTF-8"?>
<svg width="61px" height="61px" viewBox="0 0 61 61" version="1.1" xmlns="http://www.w3.org/2000/svg" xmlns:xlink="http://www.w3.org/1999/xlink">
    <!-- Generator: Sketch 50.2 (55047) - http://www.bohemiancoding.com/sketch -->
    <title>btc-full</title>
    <desc>Created with Sketch.</desc>
    <defs></defs>
    <g id="Page-1" stroke="none" stroke-width="1" fill="none" fill-rule="evenodd">
        <g id="btc-full" transform="translate(1.000000, 1.000000)">
            <circle id="XMLID_23_" stroke="#FFFFFF" stroke-width="2" cx="29.4" cy="29.5" r="22.5"></circle>
            <circle id="XMLID_24_" stroke-opacity="0.5" stroke="#FFFFFF" cx="29.4" cy="29.5" r="26"></circle>
            <circle id="XMLID_31_" stroke-opacity="0.2" stroke="#FFFFFF" cx="29.4" cy="29.5" r="29.2"></circle>
            <path d="M38.1,29.7 C37.8,28.7 37.1,28.1 36.2,27.8 C35.8,27.7 35.3,27.6 34.8,27.5 C34.8,27.5 34.9,27.4 34.9,27.4 C36.8,25.8 35.9,22.6 34.1,21.7 C33.4,21.4 32.6,21.2 31.8,21.2 C31.2,21.2 30.7,21.2 30.1,21.2 C29.9,20.2 29.6,18.9 29.4,17.8 L27.4,18.2 C27.6,19.3 27.9,20.5 28.1,21.5 C27.5,21.6 27,21.7 26.5,21.8 C26.3,20.9 26.1,19.6 25.8,18.5 L23.8,18.9 C24,20 24.3,21.3 24.5,22.3 C23.1,22.6 21.8,22.8 20.4,23.1 C20.6,23.8 20.7,24.5 20.8,25.3 C21.1,25.2 21.4,25.2 21.6,25.2 C21.9,25.1 22.1,25.1 22.4,25.1 C23.1,25 23.6,25.3 23.7,26 C24.3,28.9 24.8,31.8 25.4,34.7 C25.5,35.3 25.3,35.6 24.7,35.8 C24.3,35.9 23.8,36 23.4,36.1 C23.4,36.9 23.5,37.7 23.5,38.6 C24.9,38.3 26.2,38.1 27.6,37.8 C27.8,38.8 28.1,40.1 28.3,41.2 L30.3,40.8 C30.1,39.7 29.8,38.4 29.6,37.4 C30.2,37.3 30.7,37.2 31.2,37.1 C31.4,38.1 31.7,39.4 31.9,40.4 L33.9,40 C33.7,38.9 33.4,37.6 33.2,36.6 C33.3,36.6 33.3,36.6 33.4,36.5 C34.3,36.1 35.3,35.9 36.2,35.4 C37.4,34.8 38.2,33.9 38.4,32.6 C38.6,31.7 38.4,30.7 38.1,29.7 Z M27,24.3 C28.3,24 29.5,23.7 30.7,24 C31.5,24.2 32,24.7 32.1,25.5 C32.2,26.3 31.9,27 31.1,27.4 C30.1,28 28.9,28.2 27.7,28.4 C27.5,27 27.3,25.7 27,24.3 Z M33.5,33.5 C32.5,34.2 31.3,34.5 30.1,34.7 C29.8,34.8 29.4,34.8 29.1,34.9 C28.8,33.4 28.5,31.9 28.2,30.4 C29.7,30.1 31.2,29.6 32.8,30 C33.6,30.2 34.2,30.7 34.3,31.5 C34.5,32.4 34.2,33 33.5,33.5 Z" id="XMLID_39_" fill="#0082D1" fill-rule="nonzero"></path>
        </g>
    </g>
</svg>