<?xml version="1.0" encoding="utf-8"?>
<!-- Generator: Adobe Illustrator 19.0.0, SVG Export Plug-In . SVG Version: 6.00 Build 0)  -->
<svg version="1.1" id="Layer_1" xmlns="http://www.w3.org/2000/svg" xmlns:xlink="http://www.w3.org/1999/xlink" x="0px" y="0px"
	 viewBox="-526.3 597.5 116.7 116.5" enable-background="new -526.3 597.5 116.7 116.5" xml:space="preserve">
<g opacity="0.2">
	<g>
		<linearGradient id="SVGID_1_" gradientUnits="userSpaceOnUse" x1="-526.3192" y1="655.7755" x2="-409.5921" y2="655.7755">
			<stop  offset="0" style="stop-color:#2AF598"/>
			<stop  offset="1" style="stop-color:#009EFD"/>
		</linearGradient>
		<path fill="url(#SVGID_1_)" d="M-470.9,597.5h6.1c6.1,0.6,12.8,1.7,18.4,3.9c14.5,5.6,26.8,17.9,32.4,32.4
			c8.4,19.5,4.5,43-8.9,59.1c-8.9,11.2-22.3,19-36.8,20.6c-13.4,1.7-27.3-1.1-39.1-8.4c-8.9-5.6-16.2-13.4-21.2-22.9
			c-6.1-11.7-7.8-25.7-5-38.5c2.8-14.5,11.2-27.3,23.4-35.7C-492.7,602-482.1,598.6-470.9,597.5 M-474.2,600.3
			c-17.9,2.2-34,13.4-42.4,29c-5.6,10.6-7.8,22.9-6.1,34.6c2.2,14.5,9.5,27.3,21.2,36.3c8.4,6.7,19.5,11.2,30.1,11.7
			c12.3,1.1,25.1-2.2,35.1-9.5c12.8-8.4,21.8-22.3,24-36.8c1.7-8.9,1.1-17.9-1.7-26.2c-3.9-12.3-12.3-23.4-22.9-30.1
			C-448,602-461.4,598.6-474.2,600.3L-474.2,600.3z"/>
		<linearGradient id="SVGID_2_" gradientUnits="userSpaceOnUse" x1="-500.673" y1="656.0046" x2="-434.6313" y2="656.0046">
			<stop  offset="0" style="stop-color:#2AF598"/>
			<stop  offset="1" style="stop-color:#009EFD"/>
		</linearGradient>
		<path fill="url(#SVGID_2_)" d="M-473.1,623.2c10-1.7,21.2,1.7,28.5,8.9c6.7,6.1,10,15.1,10,24c0,8.9-3.9,17.9-10,24
			c-7.3,7.3-17.3,10-27.3,8.9c-9.5-1.1-17.9-6.1-22.9-13.9c-5.6-8.4-7.3-19-4.5-29C-496,634.3-485.4,625.4-473.1,623.2
			 M-470.9,625.4c0,2.8,0,5.6,0,8.9c1.7,0,2.8,0,4.5,0c0-2.8,0-6.1,0-8.9C-468.1,625.4-469.8,625.4-470.9,625.4 M-460.3,634.3
			c3.9,0.6,7.8,1.1,11.2,3.9c4.5,3.9,3.9,12.8-1.7,16.2c3.3,0.6,6.7,2.8,7.8,6.7c1.1,4.5,0,10-3.3,13.4c-3.9,3.3-8.9,3.3-13.4,3.9
			c0,2.8,0,5.6,0,8.4c9.5-2.2,17.9-9.5,21.8-19c3.3-8.4,2.8-19-2.2-26.8c-4.5-7.3-11.2-12.3-19.5-14.5
			C-460.9,628.8-460.9,631.6-460.3,634.3 M-489.3,634.3c4.5,0,8.4,0,12.8,0c0-2.8,0-5,0-7.8C-481.5,628.2-486,631-489.3,634.3
			 M-489.9,634.3c-1.1,2.2-3.3,3.9-4.5,6.7c-5,8.4-5.6,19-1.1,27.9c3.3,7.8,10.6,13.9,19,16.7c0-2.8,0-5,0-7.8c-4.5,0-8.4,0-12.8,0
			c0-2.2,0.6-4.5,1.7-6.7c2.2,0,4.5,0.6,6.1-0.6c1.1-1.1,0.6-2.8,1.1-3.9c0-7.8,0-15.6,0-22.9c0-1.1-0.6-2.8-2.2-2.8
			c-2.2-0.6-4.5,0-6.7,0c0-1.7,0-3.3-0.6-5h0.6C-489.3,635.5-489.9,634.9-489.9,634.3 M-470.9,641v11.2c3.9,0,7.8,0.6,11.2-1.7
			c2.8-1.7,2.8-6.1,0-7.8C-463.1,640.5-467,641-470.9,641 M-470.9,658.3v12.8c4.5-0.6,10,0.6,13.9-2.2c2.8-1.7,2.8-6.7-0.6-8.4
			C-461.4,657.8-466.4,658.9-470.9,658.3 M-470.9,678.4c0,2.8,0,5.6,0,8.9c1.7,0,2.8,0,4.5,0c0-2.8,0-6.1,0-8.9H-470.9z"/>
	</g>
	<linearGradient id="SVGID_3_" gradientUnits="userSpaceOnUse" x1="-520.8188" y1="656.2328" x2="-414.8924" y2="656.2328">
		<stop  offset="0" style="stop-color:#2AF598"/>
		<stop  offset="1" style="stop-color:#009EFD"/>
	</linearGradient>
	<path fill="url(#SVGID_3_)" d="M-474.2,603.7c10-1.1,20.6,0.6,30.1,5c11.7,5.6,21.2,16.2,25.7,28.5c5,12.3,4.5,26.2,0,38.5
		c-7.3,19.5-27.3,33.5-48,33.5c-12.3,0.6-24.5-3.9-34-11.2c-10-7.8-17.3-19.5-19.5-32.4c-2.2-12.8,0-26.2,7.3-36.8
		C-504.9,614.8-489.9,605.3-474.2,603.7 M-475.9,620.4c-8.4,1.7-16.2,6.7-21.2,13.4c-5.6,7.3-8.4,17.3-7.3,26.2
		c1.1,10,6.7,19,14.5,25.1c7.3,5.6,17.3,8.4,26.8,6.7c11.7-1.7,21.8-8.9,27.3-19c3.9-7.3,5-16.2,3.9-24c-1.7-10-7.8-19-16.7-24
		C-456.4,619.8-466.4,618.7-475.9,620.4z"/>
</g>
</svg>
