<?xml version="1.0" encoding="utf-8"?>
<!-- Generator: Adobe Illustrator 19.0.0, SVG Export Plug-In . SVG Version: 6.00 Build 0)  -->
<svg version="1.1" id="Layer_1" xmlns="http://www.w3.org/2000/svg" xmlns:xlink="http://www.w3.org/1999/xlink" x="0px" y="0px"
	 viewBox="-541 576.6 145.4 158.1" enable-background="new -541 576.6 145.4 158.1" xml:space="preserve">
<g opacity="0.2" enable-background="new    ">
	<g>
		<linearGradient id="SVGID_1_" gradientUnits="userSpaceOnUse" x1="-540.9826" y1="655.7" x2="-395.6174" y2="655.7">
			<stop  offset="0" style="stop-color:#2AF598"/>
			<stop  offset="1" style="stop-color:#009EFD"/>
		</linearGradient>
		<path fill="url(#SVGID_1_)" d="M-411.8,672.4c-5.4-3.4-11.8-3.9-18.2-4.4c-5.4,0-12.8-3.4-12.8-12.8c0-6.9,5.9-12.8,12.8-12.8
			c6.4,0,12.3-1,18.2-4.4c10.3-5.9,16.2-16.7,16.2-28.5c0-11.8-6.4-22.6-16.2-28.5c-9.8-5.9-22.6-5.9-32.9,0
			c-10.3,5.9-16.7,16.7-16.7,28.5c0,6.4,2.5,12.3,4.9,17.7c2.5,4.4,3.4,13.3-4.9,18.2c-6.4,3.4-14.2,1.5-17.7-4.9
			c-3.4-5.4-7.4-10.3-12.8-13.3c-10.3-5.9-22.6-5.9-32.9,0c-10.3,5.9-16.2,16.7-16.2,28.5c0,11.8,6.4,22.6,16.7,28.5
			c10.3,5.9,22.6,5.9,32.9,0c5.4-3.4,9.3-7.9,12.8-13.3c2.9-4.4,9.3-9.8,17.7-4.9c6.4,3.4,8.3,11.3,4.4,18.2
			c-2.9,5.4-4.9,11.3-4.9,17.7c0,11.8,6.4,22.6,16.2,28.5c10.3,5.9,22.6,5.9,32.9,0c10.3-5.9,16.2-16.7,16.2-28.5
			C-395.6,689.6-401.5,678.3-411.8,672.4z"/>
	</g>
</g>
</svg>
