<?xml version="1.0" encoding="UTF-8"?>
<svg width="69px" height="70px" viewBox="0 0 69 70" version="1.1" xmlns="http://www.w3.org/2000/svg" xmlns:xlink="http://www.w3.org/1999/xlink">
    <!-- Generator: Sketch 50.2 (55047) - http://www.bohemiancoding.com/sketch -->
    <title>xrp-full</title>
    <desc>Created with Sketch.</desc>
    <defs></defs>
    <g id="Page-1" stroke="none" stroke-width="1" fill="none" fill-rule="evenodd">
        <g id="xrp-full" transform="translate(0.000000, 1.000000)">
            <circle id="XMLID_93_" stroke="#FFFFFF" stroke-width="2" cx="34.7" cy="34.2" r="26"></circle>
            <circle id="XMLID_90_" stroke-opacity="0.5" stroke="#FFFFFF" cx="34.7" cy="34.2" r="30.1"></circle>
            <circle id="XMLID_37_" stroke-opacity="0.2" stroke="#FFFFFF" cx="34.7" cy="34.2" r="33.8"></circle>
            <path d="M46.2,38.1 C45.1,37.4 43.8,37.3 42.5,37.2 C41.4,37.2 39.9,36.5 39.9,34.6 C39.9,33.2 41.1,32 42.5,32 C43.8,32 45,31.8 46.2,31.1 C48.3,29.9 49.5,27.7 49.5,25.3 C49.5,22.9 48.2,20.7 46.2,19.5 C44.2,18.3 41.6,18.3 39.5,19.5 C37.4,20.7 36.1,22.9 36.1,25.3 C36.1,26.6 36.6,27.8 37.1,28.9 C37.6,29.8 37.8,31.6 36.1,32.6 C34.8,33.3 33.2,32.9 32.5,31.6 C31.8,30.5 31,29.5 29.9,28.9 C27.8,27.7 25.3,27.7 23.2,28.9 C21.1,30.1 19.9,32.3 19.9,34.7 C19.9,37.1 21.2,39.3 23.3,40.5 C25.4,41.7 27.9,41.7 30,40.5 C31.1,39.8 31.9,38.9 32.6,37.8 C33.2,36.9 34.5,35.8 36.2,36.8 C37.5,37.5 37.9,39.1 37.1,40.5 C36.5,41.6 36.1,42.8 36.1,44.1 C36.1,46.5 37.4,48.7 39.4,49.9 C41.5,51.1 44,51.1 46.1,49.9 C48.2,48.7 49.4,46.5 49.4,44.1 C49.5,41.6 48.3,39.3 46.2,38.1 Z" id="Shape" fill="#0082D1" fill-rule="nonzero"></path>
        </g>
    </g>
</svg>