<?xml version="1.0" encoding="UTF-8"?>
<svg width="501px" height="423px" viewBox="0 0 501 423" version="1.1" xmlns="http://www.w3.org/2000/svg" xmlns:xlink="http://www.w3.org/1999/xlink">
    <!-- Generator: Sketch 50.2 (55047) - http://www.bohemiancoding.com/sketch -->
    <title>Untitled 2</title>
    <desc>Created with Sketch.</desc>
    <defs></defs>
    <g id="Page-1" stroke="none" stroke-width="1" fill="none" fill-rule="evenodd">
        <g id="three-bitcoins" fill-rule="nonzero">
            <g id="XMLID_1891_" transform="translate(314.079422, 201.982906)">
                <g id="XMLID_1907_" fill="#F9B738">
                    <g id="XMLID_1908_">
                        <ellipse id="XMLID_1750_" cx="92.4187726" cy="93.0564103" rx="92.0577617" ry="91.974359"></ellipse>
                    </g>
                </g>
                <g id="XMLID_1892_" transform="translate(16.245487, 18.034188)">
                    <g id="XMLID_1905_" fill="#ED9B32">
                        <ellipse id="XMLID_1749_" cx="76.1732852" cy="75.0222222" rx="74.7292419" ry="74.6615385"></ellipse>
                    </g>
                    <g id="XMLID_1903_" opacity="0.5" fill="#ED9B32">
                        <path d="M6.13718412,79.7111111 C6.13718412,38.5931624 39.5306859,5.04957265 80.866426,5.04957265 C100.361011,5.04957265 118.050542,12.4435897 131.227437,24.7068376 C117.509025,9.73846154 98.0144404,0.541025641 76.1732852,0.541025641 C34.8375451,0.541025641 1.44404332,33.9042735 1.44404332,75.2025641 C1.44404332,97.0239316 10.8303249,116.500855 25.631769,130.206838 C13.5379061,116.861538 6.13718412,99.1880342 6.13718412,79.7111111 Z" id="XMLID_1742_"></path>
                    </g>
                    <g id="XMLID_1898_" opacity="0.5" transform="translate(45.126354, 28.854701)" fill="#ED9B32">
                        <path d="M55.7761733,47.4299145 C63.1768953,44.9051282 67.3285199,39.6752137 67.3285199,32.1008547 C67.3285199,22.0017094 60.6498195,14.9683761 48.3754513,13.525641 C46.0288809,13.3452991 44.4043321,13.1649573 42.4187726,13.1649573 L42.4187726,0.360683761 L33.3935018,0.360683761 L33.3935018,13.1649573 L26.8953069,13.1649573 L26.8953069,0.360683761 L17.8700361,0.360683761 L17.8700361,13.1649573 L0.180505415,13.1649573 L0.180505415,25.0675214 L9.38628159,25.0675214 C11.9133574,25.0675214 11.9133574,27.0512821 11.9133574,27.0512821 L11.9133574,73.9401709 C11.9133574,73.9401709 11.9133574,75.9239316 9.38628159,75.9239316 L1.44404332,75.9239316 L0.180505415,87.8264957 L17.8700361,87.8264957 L17.8700361,100.630769 L26.8953069,100.630769 L26.8953069,87.8264957 L33.3935018,87.8264957 L33.3935018,100.630769 L42.4187726,100.630769 L42.4187726,87.8264957 C44.9458484,87.8264957 46.9314079,87.6461538 49.6389892,87.465812 C59.566787,86.0230769 70.2166065,79.5307692 70.2166065,65.6444444 C70.2166065,55.725641 65.3429603,49.9547009 55.7761733,47.4299145 Z M51.6245487,33.9042735 C51.6245487,39.3145299 48.9169675,42.3803419 43.5018051,43.2820513 C41.6967509,43.4623932 40.0722022,43.642735 38.267148,43.642735 L27.0758123,43.642735 L27.0758123,24.7068376 L37.9061372,24.7068376 C39.7111913,24.7068376 41.5162455,24.8871795 43.3212996,25.0675214 C48.1949458,25.608547 51.6245487,28.3136752 51.6245487,33.9042735 Z M44.9458484,75.7435897 C43.5018051,75.9239316 41.6967509,75.9239316 39.8916968,75.9239316 L26.8953069,75.9239316 L26.8953069,54.8239316 L39.3501805,54.8239316 C41.1552347,54.8239316 42.7797834,55.0042735 44.5848375,55.1846154 C50,55.725641 54.1516245,58.6111111 54.1516245,65.6444444 C54.33213,71.7760684 50.1805054,75.382906 44.9458484,75.7435897 Z" id="XMLID_1899_"></path>
                    </g>
                    <g id="XMLID_1893_" transform="translate(39.711191, 23.444444)" fill="#FFFFFF">
                        <path d="M57.0397112,48.6923077 C64.4404332,46.1675214 68.5920578,40.9376068 68.5920578,33.3632479 C68.5920578,23.2641026 61.9133574,16.2307692 49.6389892,14.7880342 C47.2924188,14.6076923 45.66787,14.4273504 43.6823105,14.4273504 L43.6823105,1.62307692 L34.6570397,1.62307692 L34.6570397,14.4273504 L28.1588448,14.4273504 L28.1588448,1.62307692 L19.133574,1.62307692 L19.133574,14.4273504 L1.44404332,14.4273504 L1.44404332,26.3299145 L10.6498195,26.3299145 C13.1768953,26.3299145 13.1768953,28.3136752 13.1768953,28.3136752 L13.1768953,75.5632479 C13.1768953,75.5632479 13.1768953,77.5470085 10.6498195,77.5470085 L2.70758123,77.5470085 L1.44404332,89.4495726 L19.133574,89.4495726 L19.133574,102.253846 L28.1588448,102.253846 L28.1588448,89.4495726 L34.6570397,89.4495726 L34.6570397,102.253846 L43.6823105,102.253846 L43.6823105,89.4495726 C46.2093863,89.4495726 48.1949458,89.2692308 50.9025271,89.0888889 C60.8303249,87.6461538 71.4801444,81.1538462 71.4801444,67.2675214 C71.4801444,56.9880342 66.6064982,51.217094 57.0397112,48.6923077 Z M52.8880866,35.1666667 C52.8880866,40.5769231 50.1805054,43.642735 44.765343,44.5444444 C42.9602888,44.7247863 41.3357401,44.9051282 39.5306859,44.9051282 L28.1588448,44.9051282 L28.1588448,25.9692308 L38.9891697,25.9692308 C40.7942238,25.9692308 42.599278,26.1495726 44.4043321,26.3299145 C49.4584838,26.8709402 52.8880866,29.5760684 52.8880866,35.1666667 Z M46.2093863,77.1863248 C44.765343,77.3666667 42.9602888,77.3666667 41.1552347,77.3666667 L28.1588448,77.3666667 L28.1588448,56.2666667 L40.6137184,56.2666667 C42.4187726,56.2666667 44.0433213,56.4470085 45.8483755,56.6273504 C51.2635379,57.1683761 55.5956679,60.0538462 55.5956679,67.0871795 C55.7761733,73.0384615 51.4440433,76.6452991 46.2093863,77.1863248 Z" id="XMLID_1894_"></path>
                    </g>
                </g>
            </g>
            <g id="XMLID_1870_" transform="translate(0.000000, 201.982906)">
                <g id="XMLID_1888_" fill="#F9B738">
                    <g id="XMLID_1889_">
                        <ellipse id="XMLID_1722_" cx="92.0577617" cy="93.0564103" rx="92.0577617" ry="91.974359"></ellipse>
                    </g>
                </g>
                <g id="XMLID_1872_" transform="translate(16.245487, 18.034188)">
                    <g id="XMLID_1886_" fill="#ED9B32">
                        <ellipse id="XMLID_1718_" cx="75.8122744" cy="75.0222222" rx="74.7292419" ry="74.6615385"></ellipse>
                    </g>
                    <g id="XMLID_1884_" opacity="0.5" fill="#ED9B32">
                        <path d="M5.77617329,79.7111111 C5.77617329,38.5931624 39.1696751,5.04957265 80.5054152,5.04957265 C100,5.04957265 117.689531,12.4435897 130.866426,24.7068376 C117.148014,9.73846154 97.6534296,0.541025641 75.8122744,0.541025641 C34.4765343,0.541025641 1.08303249,33.9042735 1.08303249,75.2025641 C1.08303249,97.0239316 10.4693141,116.500855 25.2707581,130.206838 C13.1768953,116.861538 5.77617329,99.1880342 5.77617329,79.7111111 Z" id="XMLID_1716_"></path>
                    </g>
                    <g id="XMLID_1879_" opacity="0.5" transform="translate(45.126354, 28.854701)" fill="#ED9B32">
                        <path d="M55.4151625,47.4299145 C62.8158845,44.9051282 66.967509,39.6752137 66.967509,32.1008547 C66.967509,22.0017094 60.2888087,14.9683761 48.0144404,13.525641 C45.66787,13.3452991 44.0433213,13.1649573 42.0577617,13.1649573 L42.0577617,0.360683761 L33.032491,0.360683761 L33.032491,13.1649573 L26.534296,13.1649573 L26.534296,0.360683761 L17.5090253,0.360683761 L17.5090253,13.1649573 L0,13.1649573 L0,25.0675214 L9.20577617,25.0675214 C11.732852,25.0675214 11.732852,27.0512821 11.732852,27.0512821 L11.732852,73.9401709 C11.732852,73.9401709 11.732852,75.9239316 9.20577617,75.9239316 L1.26353791,75.9239316 L0,87.8264957 L17.6895307,87.8264957 L17.6895307,100.630769 L26.7148014,100.630769 L26.7148014,87.8264957 L33.2129964,87.8264957 L33.2129964,100.630769 L42.2382671,100.630769 L42.2382671,87.8264957 C44.765343,87.8264957 46.7509025,87.6461538 49.4584838,87.465812 C59.3862816,86.0230769 70.0361011,79.5307692 70.0361011,65.6444444 C69.8555957,55.725641 64.9819495,49.9547009 55.4151625,47.4299145 Z M51.4440433,33.9042735 C51.4440433,39.3145299 48.7364621,42.3803419 43.3212996,43.2820513 C41.5162455,43.4623932 39.8916968,43.642735 38.0866426,43.642735 L26.8953069,43.642735 L26.8953069,24.7068376 L37.7256318,24.7068376 C39.5306859,24.7068376 41.3357401,24.8871795 43.1407942,25.0675214 C47.833935,25.608547 51.4440433,28.3136752 51.4440433,33.9042735 Z M44.5848375,75.7435897 C43.1407942,75.9239316 41.3357401,75.9239316 39.5306859,75.9239316 L26.534296,75.9239316 L26.534296,54.8239316 L38.9891697,54.8239316 C40.7942238,54.8239316 42.4187726,55.0042735 44.2238267,55.1846154 C49.6389892,55.725641 53.7906137,58.6111111 53.7906137,65.6444444 C54.1516245,71.7760684 49.8194946,75.382906 44.5848375,75.7435897 Z" id="XMLID_1880_"></path>
                    </g>
                    <g id="XMLID_1874_" transform="translate(39.711191, 23.444444)" fill="#FFFFFF">
                        <path d="M56.6787004,48.6923077 C64.0794224,46.1675214 68.2310469,40.9376068 68.2310469,33.3632479 C68.2310469,23.2641026 61.5523466,16.2307692 49.2779783,14.7880342 C46.9314079,14.6076923 45.3068592,14.4273504 43.3212996,14.4273504 L43.3212996,1.62307692 L34.2960289,1.62307692 L34.2960289,14.4273504 L27.7978339,14.4273504 L27.7978339,1.62307692 L18.7725632,1.62307692 L18.7725632,14.4273504 L1.08303249,14.4273504 L1.08303249,26.3299145 L10.2888087,26.3299145 C12.8158845,26.3299145 12.8158845,28.3136752 12.8158845,28.3136752 L12.8158845,75.5632479 C12.8158845,75.5632479 12.8158845,77.5470085 10.2888087,77.5470085 L2.3465704,77.5470085 L1.08303249,89.4495726 L18.7725632,89.4495726 L18.7725632,102.253846 L27.7978339,102.253846 L27.7978339,89.4495726 L34.2960289,89.4495726 L34.2960289,102.253846 L43.3212996,102.253846 L43.3212996,89.4495726 C45.8483755,89.4495726 47.833935,89.2692308 50.5415162,89.0888889 C60.4693141,87.6461538 71.1191336,81.1538462 71.1191336,67.2675214 C71.1191336,56.9880342 66.4259928,51.217094 56.6787004,48.6923077 Z M52.7075812,35.1666667 C52.7075812,40.5769231 50,43.642735 44.5848375,44.5444444 C42.7797834,44.7247863 41.1552347,44.9051282 39.3501805,44.9051282 L27.9783394,44.9051282 L27.9783394,25.9692308 L38.8086643,25.9692308 C40.6137184,25.9692308 42.4187726,26.1495726 44.2238267,26.3299145 C49.2779783,26.8709402 52.7075812,29.5760684 52.7075812,35.1666667 Z M46.0288809,77.1863248 C44.5848375,77.3666667 42.7797834,77.3666667 40.9747292,77.3666667 L27.9783394,77.3666667 L27.9783394,56.2666667 L40.433213,56.2666667 C42.2382671,56.2666667 43.8628159,56.4470085 45.66787,56.6273504 C51.0830325,57.1683761 55.234657,60.0538462 55.234657,67.0871795 C55.4151625,73.0384615 51.0830325,76.6452991 46.0288809,77.1863248 Z" id="XMLID_1875_"></path>
                    </g>
                </g>
            </g>
            <g id="XMLID_1786_" transform="translate(129.963899, 0.000000)">
                <g id="XMLID_1831_" transform="translate(0.000000, 158.700855)">
                    <g id="XMLID_1861_" fill="#F9B738">
                        <g id="XMLID_1865_">
                            <ellipse id="XMLID_1698_" cx="118.050542" cy="119.025641" rx="117.870036" ry="117.763248"></ellipse>
                        </g>
                    </g>
                    <g id="XMLID_1837_" transform="translate(21.660650, 23.444444)">
                        <g id="XMLID_1858_" fill="#ED9B32">
                            <ellipse id="XMLID_1696_" cx="96.3898917" cy="95.5811966" rx="95.4873646" ry="95.4008547"></ellipse>
                        </g>
                        <g id="XMLID_1853_" opacity="0.5" fill="#ED9B32">
                            <path d="M6.85920578,101.532479 C6.85920578,48.8726496 49.6389892,6.13162393 102.34657,6.13162393 C127.256318,6.13162393 149.819495,15.6897436 166.967509,31.1991453 C149.458484,12.082906 124.368231,0.18034188 96.5703971,0.18034188 C43.8628159,0.18034188 1.08303249,42.9213675 1.08303249,95.5811966 C1.08303249,123.353846 12.9963899,148.421368 32.1299639,165.91453 C16.2454874,148.962393 6.85920578,126.419658 6.85920578,101.532479 Z" id="XMLID_1693_"></path>
                        </g>
                        <g id="XMLID_1846_" opacity="0.5" transform="translate(55.956679, 36.068376)" fill="#ED9B32">
                            <path d="M72.0216606,61.1358974 C81.5884477,57.8897436 86.8231047,51.217094 86.8231047,41.4786325 C86.8231047,28.4940171 78.1588448,19.657265 62.6353791,17.6735043 C59.7472924,17.3128205 57.400722,17.1324786 55.0541516,17.1324786 L55.0541516,0.721367521 L43.5018051,0.721367521 L43.5018051,16.9521368 L35.198556,16.9521368 L35.198556,0.721367521 L23.6462094,0.721367521 L23.6462094,16.9521368 L1.08303249,16.9521368 L1.08303249,32.1008547 L12.9963899,32.1008547 C16.0649819,32.1008547 16.0649819,34.625641 16.0649819,34.625641 L16.0649819,95.0401709 C16.0649819,95.0401709 16.0649819,97.5649573 12.9963899,97.5649573 L2.70758123,97.5649573 L1.08303249,112.713675 L23.6462094,112.713675 L23.6462094,128.944444 L35.198556,128.944444 L35.198556,112.713675 L43.5018051,112.713675 L43.5018051,128.944444 L55.0541516,128.944444 L55.0541516,112.533333 C58.1227437,112.533333 60.8303249,112.352991 64.2599278,111.992308 C77.0758123,110.188889 90.433213,101.712821 90.433213,84.0393162 C90.433213,71.7760684 84.2960289,64.2017094 72.0216606,61.1358974 Z M66.967509,43.8230769 C66.967509,50.6760684 63.5379061,54.6435897 56.4981949,55.725641 C54.33213,56.0863248 51.9855596,56.0863248 49.6389892,56.0863248 L35.198556,56.0863248 L35.198556,31.7401709 L49.0974729,31.7401709 C51.2635379,31.7401709 53.7906137,31.9205128 55.9566787,32.1008547 C62.4548736,33.182906 66.967509,36.6094017 66.967509,43.8230769 Z M58.3032491,97.3846154 C56.4981949,97.5649573 54.1516245,97.5649573 51.9855596,97.5649573 L35.3790614,97.5649573 L35.3790614,70.5136752 L51.2635379,70.5136752 C53.4296029,70.5136752 55.7761733,70.6940171 58.1227437,70.874359 C64.9819495,71.5957265 70.3971119,75.382906 70.3971119,84.2196581 C70.3971119,92.3350427 64.9819495,96.8435897 58.3032491,97.3846154 Z" id="XMLID_1847_"></path>
                        </g>
                        <g id="XMLID_1838_" transform="translate(50.541516, 30.658120)" fill="#FFFFFF">
                            <path d="M72.2021661,61.1358974 C81.7689531,57.8897436 87.0036101,51.217094 87.0036101,41.4786325 C87.0036101,28.4940171 78.3393502,19.4769231 62.8158845,17.6735043 C59.7472924,17.3128205 57.5812274,17.1324786 55.234657,17.1324786 L55.234657,0.721367521 L43.6823105,0.721367521 L43.6823105,16.9521368 L35.3790614,16.9521368 L35.3790614,0.721367521 L23.8267148,0.721367521 L23.8267148,16.9521368 L1.26353791,16.9521368 L1.26353791,32.1008547 L13.1768953,32.1008547 C16.2454874,32.1008547 16.2454874,34.625641 16.2454874,34.625641 L16.2454874,95.0401709 C16.2454874,95.0401709 16.2454874,97.5649573 13.1768953,97.5649573 L2.88808664,97.5649573 L1.26353791,112.713675 L23.8267148,112.713675 L23.8267148,128.944444 L35.3790614,128.944444 L35.3790614,112.713675 L43.6823105,112.713675 L43.6823105,128.944444 L55.234657,128.944444 L55.234657,112.533333 C58.3032491,112.533333 61.0108303,112.352991 64.4404332,111.992308 C77.2563177,110.188889 90.6137184,101.712821 90.6137184,84.0393162 C90.6137184,71.7760684 84.4765343,64.3820513 72.2021661,61.1358974 Z M66.967509,44.0034188 C66.967509,50.8564103 63.5379061,54.8239316 56.4981949,55.9059829 C54.33213,56.2666667 51.9855596,56.2666667 49.6389892,56.2666667 L35.198556,56.2666667 L35.198556,31.9205128 L49.0974729,31.9205128 C51.2635379,31.9205128 53.7906137,32.1008547 55.9566787,32.2811966 C62.6353791,33.3632479 66.967509,36.7897436 66.967509,44.0034188 Z M58.4837545,97.5649573 C56.6787004,97.7452991 54.33213,97.7452991 52.166065,97.7452991 L35.5595668,97.7452991 L35.5595668,70.6940171 L51.4440433,70.6940171 C53.6101083,70.6940171 55.9566787,70.874359 58.3032491,71.0547009 C65.1624549,71.7760684 70.5776173,75.5632479 70.5776173,84.4 C70.3971119,92.3350427 64.9819495,97.0239316 58.4837545,97.5649573 Z" id="XMLID_1840_"></path>
                        </g>
                    </g>
                </g>
                <g id="XMLID_1788_" transform="translate(23.465704, 0.000000)" fill="#F9B738">
                    <g id="XMLID_1797_">
                        <g id="XMLID_1829_" transform="translate(126.353791, 106.401709)">
                            <path d="M20.9386282,68.3495726 C20.9386282,73.7598291 16.6064982,78.0880342 11.1913357,78.0880342 C5.77617329,78.0880342 1.44404332,73.7598291 1.44404332,68.3495726 L1.44404332,9.91880342 C1.44404332,4.50854701 5.77617329,0.18034188 11.1913357,0.18034188 C16.6064982,0.18034188 20.9386282,4.50854701 20.9386282,9.91880342 L20.9386282,68.3495726 Z" id="XMLID_1678_"></path>
                        </g>
                        <g id="XMLID_1825_" transform="translate(84.837545, 54.102564)">
                            <path d="M19.4945848,81.5145299 C19.4945848,86.9247863 15.1624549,91.2529915 9.74729242,91.2529915 C4.33212996,91.2529915 0,86.9247863 0,81.5145299 L0,9.73846154 C0,4.32820513 4.33212996,0 9.74729242,0 C15.1624549,0 19.4945848,4.32820513 19.4945848,9.73846154 L19.4945848,81.5145299 Z" id="XMLID_1675_"></path>
                        </g>
                        <g id="XMLID_1822_" transform="translate(41.516245, 34.264957)">
                            <path d="M19.8555957,68.5299145 C19.8555957,73.9401709 15.5234657,78.2683761 10.1083032,78.2683761 C4.69314079,78.2683761 0.36101083,73.9401709 0.36101083,68.5299145 L0.36101083,11.3615385 C0.36101083,5.95128205 4.69314079,1.62307692 10.1083032,1.62307692 C15.5234657,1.62307692 19.8555957,5.95128205 19.8555957,11.3615385 L19.8555957,68.5299145 Z" id="XMLID_1673_"></path>
                        </g>
                        <g id="XMLID_1818_" transform="translate(84.837545, 0.000000)">
                            <path d="M19.4945848,30.8384615 C19.4945848,36.2487179 15.1624549,40.5769231 9.74729242,40.5769231 C4.33212996,40.5769231 0,36.2487179 0,30.8384615 L0,9.73846154 C0,4.32820513 4.33212996,0 9.74729242,0 C15.1624549,0 19.4945848,4.32820513 19.4945848,9.73846154 L19.4945848,30.8384615 Z" id="XMLID_1672_"></path>
                        </g>
                        <g id="XMLID_1814_" transform="translate(41.516245, 120.829060)">
                            <path d="M19.8555957,53.9222222 C19.8555957,59.3324786 15.5234657,63.6606838 10.1083032,63.6606838 C4.69314079,63.6606838 0.36101083,59.3324786 0.36101083,53.9222222 L0.36101083,9.91880342 C0.36101083,4.50854701 4.69314079,0.18034188 10.1083032,0.18034188 C15.5234657,0.18034188 19.8555957,4.50854701 19.8555957,9.91880342 L19.8555957,53.9222222 Z" id="XMLID_1670_"></path>
                        </g>
                        <g id="XMLID_1812_" transform="translate(0.000000, 131.649573)">
                            <path d="M20.5776173,35.8880342 C20.5776173,41.2982906 16.2454874,45.6264957 10.8303249,45.6264957 C5.41516245,45.6264957 1.08303249,41.2982906 1.08303249,35.8880342 L1.08303249,11.3615385 C1.08303249,5.95128205 5.41516245,1.62307692 10.8303249,1.62307692 C16.2454874,1.62307692 20.5776173,5.95128205 20.5776173,11.3615385 L20.5776173,35.8880342 Z" id="XMLID_1669_"></path>
                        </g>
                        <g id="XMLID_1808_" transform="translate(126.353791, 57.709402)">
                            <path d="M20.9386282,28.3136752 C20.9386282,33.7239316 16.6064982,38.0521368 11.1913357,38.0521368 C5.77617329,38.0521368 1.44404332,33.7239316 1.44404332,28.3136752 L1.44404332,10.2794872 C1.44404332,4.86923077 5.77617329,0.541025641 11.1913357,0.541025641 C16.6064982,0.541025641 20.9386282,4.86923077 20.9386282,10.2794872 L20.9386282,28.3136752 Z" id="XMLID_1667_"></path>
                        </g>
                        <g id="XMLID_1805_" transform="translate(126.353791, 27.051282)">
                            <path d="M20.9386282,10.6401709 C20.9386282,16.0504274 16.6064982,20.3786325 11.1913357,20.3786325 C5.77617329,20.3786325 1.44404332,16.0504274 1.44404332,10.6401709 C1.44404332,5.22991453 5.77617329,0.901709402 11.1913357,0.901709402 C16.6064982,0.901709402 20.9386282,5.22991453 20.9386282,10.6401709 Z" id="XMLID_1664_"></path>
                        </g>
                        <g id="XMLID_1802_" transform="translate(0.000000, 102.794872)">
                            <path d="M20.5776173,9.73846154 C20.5776173,15.1487179 16.2454874,19.4769231 10.8303249,19.4769231 C5.41516245,19.4769231 1.08303249,15.1487179 1.08303249,9.73846154 C1.08303249,4.32820513 5.41516245,0 10.8303249,0 C16.0649819,0 20.5776173,4.50854701 20.5776173,9.73846154 Z" id="XMLID_1662_"></path>
                        </g>
                        <g id="XMLID_1798_" transform="translate(166.064982, 108.205128)">
                            <path d="M19.8555957,54.4632479 C19.8555957,59.8735043 15.5234657,64.2017094 10.1083032,64.2017094 C4.69314079,64.2017094 0.36101083,59.8735043 0.36101083,54.4632479 L0.36101083,10.6401709 C0.36101083,5.22991453 4.69314079,0.901709402 10.1083032,0.901709402 C15.5234657,0.901709402 19.8555957,5.22991453 19.8555957,10.6401709 L19.8555957,54.4632479 Z" id="XMLID_1661_"></path>
                        </g>
                    </g>
                    <g id="XMLID_1791_" transform="translate(30.685921, 153.290598)">
                        <path d="M11.1913357,0.360683761 L11.1913357,5.95128205 C11.1913357,14.2470085 6.67870036,21.4606838 0,25.608547 L0,27.0512821 L13.898917,27.0512821 L13.898917,0.360683761 L11.1913357,0.360683761 Z" id="XMLID_1659_"></path>
                    </g>
                    <g id="XMLID_1789_" transform="translate(144.404332, 149.683761)">
                        <path d="M2.88808664,9.55811966 L2.88808664,1.62307692 L0,1.62307692 L0,30.6581197 L13.3574007,30.6581197 L13.3574007,28.8547009 C7.22021661,24.7068376 2.88808664,17.6735043 2.88808664,9.55811966 Z" id="XMLID_1657_"></path>
                    </g>
                </g>
            </g>
            <g id="XMLID_1783_" transform="translate(124.548736, 221.820513)" fill="#FFFFFF">
                <path d="M14.801444,0 C12.6353791,7.03333333 7.03971119,12.4435897 0,14.7880342 C7.03971119,16.9521368 12.4548736,22.542735 14.801444,29.5760684 C16.967509,22.542735 22.5631769,17.1324786 29.6028881,14.7880342 C22.5631769,12.6239316 16.967509,7.03333333 14.801444,0 Z" id="XMLID_1655_"></path>
            </g>
            <g id="XMLID_1780_" transform="translate(328.519856, 326.418803)" fill="#FFFFFF">
                <path d="M14.9819495,0.721367521 C12.8158845,7.75470085 7.22021661,13.1649573 0.180505415,15.5094017 C7.22021661,17.6735043 12.6353791,23.2641026 14.9819495,30.2974359 C17.1480144,23.2641026 22.7436823,17.8538462 29.7833935,15.5094017 C22.7436823,13.1649573 17.3285199,7.75470085 14.9819495,0.721367521 Z" id="XMLID_1652_"></path>
            </g>
            <g id="XMLID_1777_" transform="translate(435.018051, 201.982906)" fill="#FFFFFF">
                <path d="M11.3718412,0.721367521 C9.74729242,5.77094017 5.77617329,9.91880342 0.541516245,11.5418803 C5.59566787,13.1649573 9.74729242,17.1324786 11.3718412,22.3623932 C12.9963899,17.3128205 16.967509,13.1649573 22.2021661,11.5418803 C17.1480144,9.91880342 12.9963899,5.95128205 11.3718412,0.721367521 Z" id="XMLID_1650_"></path>
            </g>
            <g id="XMLID_1773_" transform="translate(368.231047, 171.324786)" fill="#FFFFFF">
                <path d="M7.94223827,0.541025641 C6.85920578,3.96752137 4.15162455,6.67264957 0.722021661,7.75470085 C4.15162455,8.83675214 6.85920578,11.5418803 7.94223827,14.9683761 C9.02527076,11.5418803 11.732852,8.83675214 15.1624549,7.75470085 C11.732852,6.67264957 9.02527076,3.96752137 7.94223827,0.541025641 Z" id="XMLID_1649_"></path>
            </g>
            <g id="XMLID_1769_" transform="translate(7.220217, 221.820513)" fill="#FFFFFF">
                <path d="M12.0938628,1.62307692 C10.4693141,6.67264957 6.49819495,10.8205128 1.26353791,12.4435897 C6.31768953,14.0666667 10.4693141,18.034188 12.0938628,23.2641026 C13.7184116,18.2145299 17.6895307,14.0666667 22.9241877,12.4435897 C17.6895307,10.6401709 13.7184116,6.67264957 12.0938628,1.62307692 Z" id="XMLID_1647_"></path>
            </g>
            <g id="XMLID_1766_" transform="translate(99.277978, 164.111111)" fill="#FFFFFF">
                <path d="M8.66425993,0.541025641 C7.40072202,4.68888889 4.15162455,7.75470085 0,9.1974359 C4.15162455,10.4598291 7.22021661,13.7059829 8.66425993,17.8538462 C9.92779783,13.7059829 13.1768953,10.6401709 17.3285199,9.1974359 C13.1768953,7.75470085 10.1083032,4.68888889 8.66425993,0.541025641 Z" id="XMLID_1646_"></path>
            </g>
            <g id="XMLID_1759_" opacity="0.7" transform="translate(189.530686, 407.572650)" fill="#BABCBE">
                <g id="XMLID_1760_">
                    <ellipse id="XMLID_1644_" cx="58.4837545" cy="6.67264957" rx="58.3032491" ry="6.49230769"></ellipse>
                </g>
            </g>
            <g id="XMLID_1756_" opacity="0.7" transform="translate(366.425993, 396.752137)" fill="#BABCBE">
                <g id="XMLID_1757_">
                    <ellipse id="XMLID_1640_" cx="40.0722022" cy="5.22991453" rx="39.8916968" ry="4.50854701"></ellipse>
                </g>
            </g>
            <g id="XMLID_1752_" opacity="0.7" transform="translate(50.541516, 396.752137)" fill="#BABCBE">
                <g id="XMLID_1754_">
                    <ellipse id="XMLID_1639_" cx="41.5162455" cy="5.22991453" rx="39.8916968" ry="4.50854701"></ellipse>
                </g>
            </g>
        </g>
    </g>
</svg>