<?xml version="1.0" encoding="utf-8"?>
<!-- Generator: Adobe Illustrator 19.0.0, SVG Export Plug-In . SVG Version: 6.00 Build 0)  -->
<svg version="1.1" id="Layer_1" xmlns="http://www.w3.org/2000/svg" xmlns:xlink="http://www.w3.org/1999/xlink" x="0px" y="0px"
	 viewBox="-638.5 792.5 348.4 286.4" enable-background="new -638.5 792.5 348.4 286.4" xml:space="preserve">
<path id="XMLID_940_" fill="#4E5C6E" d="M-460.7,958.4c-12.1,48.4-61,77.8-109.4,65.7c-48.3-12.1-77.8-61-65.7-109.4
	c12.1-48.4,61-77.8,109.4-65.7C-478,861.1-448.6,910.1-460.7,958.4L-460.7,958.4z"/>
<path id="XMLID_935_" fill="#F6AE2D" d="M-508.4,923.7c1.8-12-7.4-18.5-19.9-22.8l4.1-16.3l-9.9-2.5l-3.9,15.8
	c-2.6-0.6-5.3-1.3-7.9-1.9l4-15.9l-9.9-2.5l-4.1,16.3c-2.2-0.5-4.3-1-6.3-1.5l0-0.1l-13.7-3.4l-2.6,10.6c0,0,7.3,1.7,7.2,1.8
	c4,1,4.7,3.7,4.6,5.8l-4.6,18.5c0.3,0.1,0.6,0.2,1,0.3l-1-0.3l-6.5,26c-0.5,1.2-1.7,3-4.5,2.4c0.1,0.1-7.2-1.8-7.2-1.8l-4.9,11.3
	l12.9,3.2c2.4,0.6,4.7,1.2,7.1,1.8l-4.1,16.5l9.9,2.5l4.1-16.3c2.7,0.7,5.3,1.4,7.9,2l-4,16.2l9.9,2.5l4.1-16.4
	c16.9,3.2,29.6,1.9,34.9-13.4c4.3-12.3-0.2-19.4-9.1-24C-514.6,936.8-509.7,932.5-508.4,923.7L-508.4,923.7z M-531.1,955.5
	c-3.1,12.3-23.8,5.7-30.5,4l5.4-21.8C-549.4,939.3-527.9,942.6-531.1,955.5L-531.1,955.5z M-528,923.6c-2.8,11.2-20,5.5-25.6,4.1
	l4.9-19.8C-543.1,909.3-525.1,911.9-528,923.6z"/>
<path id="XMLID_939_" fill="#3A4551" d="M-352.5,956.8c-11.9,47.7-60.1,76.6-107.8,64.8c-47.6-11.9-76.6-60.1-64.8-107.8
	c11.9-47.7,60.1-76.7,107.8-64.8C-369.6,860.9-340.6,909.1-352.5,956.8L-352.5,956.8z"/>
<g id="XMLID_625_">
	<path id="XMLID_31_" fill="#9BA6B2" d="M-438.8,954.7l34.9-20.7l-34.9-58l-34.9,58L-438.8,954.7L-438.8,954.7z"/>
	<path id="XMLID_832_" fill="#9BA6B2" d="M-438.8,989.9l35-49.2l-35,20.6l-34.9-20.6L-438.8,989.9z"/>
</g>
<path fill="#9BA6B2" d="M-308.5,828.7c0,20-16.2,36.2-36.2,36.2c-20,0-36.2-16.2-36.2-36.2c0-20,16.2-36.2,36.2-36.2
	C-324.7,792.5-308.5,808.7-308.5,828.7"/>
<path fill="#FFFFFF" d="M-346.8,838.3l2.3-8.8l5.6-2l1.4-5.2l0-0.1l-5.5,2l3.9-14.8h-11.2l-5.2,19.4l-4.3,1.6l-1.4,5.4l4.3-1.6
	l-3,11.4h29.8l1.9-7.1H-346.8"/>
<path fill="#9BA6B2" d="M-300.3,1035c-3.5-2-7.4-2.6-11.2-2.7c-3.2-0.1-8.1-2.2-8.1-8.1c0-4.4,3.6-7.9,8.1-8.1
	c3.9-0.1,7.8-0.7,11.2-2.7c9.8-5.7,13.1-18.2,7.5-28c-5.7-9.8-18.2-13.1-28-7.5c-6.3,3.7-10.2,10.4-10.2,17.7c0,4,1.4,7.6,3.2,11
	c1.5,2.8,2.3,8.1-2.9,11.1c-3.9,2.2-8.7,0.8-11.1-3c-2-3.3-4.5-6.3-7.9-8.3c-9.8-5.7-22.3-2.3-28,7.5c-5.7,9.8-2.3,22.3,7.5,28
	c6.3,3.7,14.1,3.7,20.5,0c3.4-2,5.9-5,7.9-8.3c1.7-2.7,5.8-6.1,11.1-3c3.9,2.2,5,7.1,2.9,11.1c-1.8,3.4-3.2,7-3.2,11
	c0,11.3,9.2,20.5,20.5,20.5c11.3,0,20.5-9.2,20.5-20.5C-290.1,1045.4-294,1038.7-300.3,1035z"/>
<polygon fill="#9BA6B2" points="-456.2,1056.9 -464.1,1056.9 -466.9,1065.4 -481.9,1065.4 -479.1,1056.9 -487.1,1056.9 
	-494.3,1078.9 -486.4,1078.9 -483.6,1070.4 -468.6,1070.4 -471.4,1078.9 -463.4,1078.9 "/>
<path fill="#9BA6B2" d="M-495.7,1067c-0.4-0.5-0.8-1-1.4-1.3c-0.6-0.3-1.2-0.4-2-0.4h-17.5l1-3.1h22.9l1.8-5.5h-25.4
	c-0.7,0-1.5,0.1-2.2,0.4c-0.8,0.3-1.5,0.7-2.2,1.3c-0.6,0.5-1.3,1.1-1.7,1.8c-0.6,0.7-1,1.5-1.2,2.2l-0.7,2.1
	c-0.2,0.8-0.3,1.5-0.3,2.2c0.1,0.7,0.3,1.4,0.6,1.8c0.4,0.6,0.8,1,1.4,1.3c0.6,0.3,1.2,0.5,2,0.5h17.5l-1,2.9h-22.9l-1.8,5.5h25.4
	c0.7,0,1.5-0.1,2.2-0.4c0.8-0.3,1.5-0.7,2.2-1.3c0.6-0.5,1.3-1.1,1.7-1.8c0.6-0.7,1-1.5,1.2-2.2l0.7-2.1c0.3-0.8,0.3-1.5,0.3-2.2
	C-495.3,1068.2-495.4,1067.5-495.7,1067L-495.7,1067z"/>
<path fill="#9BA6B2" d="M-527,1060.2c-0.1-0.7-0.3-1.3-0.7-1.7c-0.3-0.6-0.7-1-1.3-1.2c-0.6-0.3-1.2-0.4-2-0.4h-20
	c-0.7,0-1.5,0.1-2.2,0.4c-0.8,0.3-1.5,0.7-2.2,1.3c-0.6,0.5-1.3,1.1-1.7,1.8c-0.6,0.7-1,1.5-1.2,2.2l-5.3,16.3h8l5.4-16.6h15.1
	l-1.7,4.9h-10.6l-1.7,5.2h10.6l-2.1,6.6h7.8l5.4-16.5C-527,1061.6-527,1060.9-527,1060.2L-527,1060.2z"/>
<path fill="#9BA6B2" d="M-561.8,1060.4c0-0.7-0.3-1.3-0.6-1.8c-0.3-0.6-0.7-1-1.4-1.3c-0.6-0.3-1.1-0.4-2-0.4h-25.4l-1.8,5.5h23
	l-3.6,11.2h-1.7h-13.4h-8l-1.8,5.5h25.5c0.7,0,1.4-0.1,2.2-0.4c0.7-0.4,1.5-0.8,2.2-1.4c0.6-0.4,1.3-1.1,1.8-1.8
	c0.4-0.7,0.9-1.4,1.1-2.1l3.4-10.6C-561.8,1061.9-561.6,1061.1-561.8,1060.4z"/>
<polygon fill="#9BA6B2" points="-585.5,1070.4 -583.8,1065.4 -597.4,1065.4 -599.2,1070.4 "/>
</svg>
