<?xml version="1.0" encoding="utf-8"?>
<!-- Generator: Adobe Illustrator 19.0.0, SVG Export Plug-In . SVG Version: 6.00 Build 0)  -->
<svg version="1.1" id="Layer_1" xmlns="http://www.w3.org/2000/svg" xmlns:xlink="http://www.w3.org/1999/xlink" x="0px" y="0px"
	 viewBox="-628.6 806.5 350.2 308.1" enable-background="new -628.6 806.5 350.2 308.1" xml:space="preserve">
<g id="XMLID_190_">
	<g id="XMLID_409_">
		<g opacity="0.25">
			<path fill-rule="evenodd" clip-rule="evenodd" d="M-439.9,858.8l75.3-22.2c10.9-3.2,22.4,3,25.7,14l59.7,202
				c3.2,10.9-3,22.4-14,25.7l-75.3,22.2c-10.9,3.2-22.4-3-25.7-14l-59.7-202C-457.1,873.5-450.8,862-439.9,858.8z"/>
		</g>
		<g>
			<g>
				<path fill-rule="evenodd" clip-rule="evenodd" fill="#3A4551" d="M-446.9,851.8l75.3-22.2c10.9-3.2,22.4,3,25.7,14l59.7,202
					c3.2,10.9-3,22.4-14,25.7l-75.3,22.2c-10.9,3.2-22.4-3-25.7-14l-59.7-202C-464.1,866.5-457.8,855-446.9,851.8z"/>
			</g>
		</g>
	</g>
	<path id="XMLID_365_" fill-rule="evenodd" clip-rule="evenodd" fill="#5FAD56" d="M-420,860.8c1.2-0.4,2.5,0.3,2.8,1.5
		c0.4,1.2-0.3,2.5-1.5,2.8c-1.2,0.4-2.5-0.3-2.8-1.5C-421.9,862.5-421.2,861.2-420,860.8z"/>
	<path id="XMLID_358_" fill-rule="evenodd" clip-rule="evenodd" fill="#5FAD56" d="M-411.1,858.2l21.8-6.4c1.2-0.4,2.5,0.3,2.8,1.5
		c0.4,1.2-0.3,2.5-1.5,2.8l-21.8,6.4c-1.2,0.4-2.5-0.3-2.8-1.5C-412.9,859.8-412.3,858.6-411.1,858.2z"/>
	<path id="XMLID_295_" fill-rule="evenodd" clip-rule="evenodd" fill="#5FAD56" d="M-345.8,1055.4c5-1.5,10.2,1.4,11.7,6.4
		c1.5,5-1.4,10.2-6.4,11.7c-5,1.5-10.2-1.4-11.7-6.4C-353.6,1062.1-350.8,1056.8-345.8,1055.4z"/>
	<path id="XMLID_240_" fill-rule="evenodd" clip-rule="evenodd" fill="#5FAD56" d="M-397.9,1061.2l-50.9-172.3l99-29.3l50.9,172.3
		L-397.9,1061.2z"/>
	
		<path id="XMLID_48_" fill-rule="evenodd" clip-rule="evenodd" fill="#EEEEEE" stroke="#E2E2E2" stroke-width="7" stroke-miterlimit="10" d="
		M-384.6,924c-15.9,4.6-24.6,13.5-24.6,13.5l10.1,34.3c0,0,3.3,5.9,12.5,10.6c8.4,4.3,20.8,5.5,20.8,5.5s9.7-7.8,14.5-15.9
		c5.2-8.9,4.8-15.7,4.8-15.7l-10.1-34.3C-356.6,921.9-368.8,919.2-384.6,924z"/>
	<polygon id="XMLID_43_" fill-rule="evenodd" clip-rule="evenodd" fill="#5FAD56" points="-396.1,952.5 -393.1,962.6 -371.8,972.9 
		-358.7,943.2 -362.3,930.9 -375.5,961.5 	"/>
	<rect id="XMLID_19_" x="-628.6" y="932" fill-rule="evenodd" clip-rule="evenodd" fill="none" width="132" height="44.9"/>
	
		<text id="XMLID_42_" transform="matrix(1 0 0 1 -628.5776 974.0039)" fill="#5FAD56" font-family="'AvenirNext-DemiBold'" font-size="55.5125px" letter-spacing="2">24H</text>
	<g id="XMLID_172_">
		<path id="XMLID_72_" fill="#9BA6B2" d="M-603.3,915c0,0,0.2-0.9,0.6-2.6c0.2-0.9,0.4-1.9,0.7-3.1c0.3-1.2,0.7-2.7,1.1-4.2
			c0.2-0.8,0.4-1.6,0.7-2.5c0.3-0.9,0.5-1.8,0.8-2.7c0.2-0.5,0.3-1,0.5-1.4c0.2-0.5,0.4-1,0.5-1.5c0.4-1,0.7-2.1,1.1-3.1
			c1.7-4.3,3.6-9.1,6.3-14.1c2.6-5,5.7-10.4,9.5-15.7c3.8-5.3,8.1-10.7,13.1-15.8c5-5.2,10.5-10.1,16.5-14.6
			c6-4.5,12.6-8.6,19.4-12.1c6.8-3.5,14-6.5,21.2-8.9c7.2-2.4,14.6-4.1,21.8-5.1c7.2-0.9,14.3-1.1,20.9-0.6c0.8,0.1,1.6,0.1,2.4,0.2
			c0.8,0.1,1.6,0.1,2.4,0.2c1.6,0.2,3.2,0.4,4.8,0.6c0.8,0.1,1.6,0.2,2.3,0.3c0.8,0.1,1.5,0.3,2.2,0.4c1.5,0.3,2.9,0.6,4.3,0.9
			c2.8,0.6,5.5,1.4,8,2.1c1.3,0.4,2.5,0.8,3.6,1.2c1.2,0.4,2.3,0.8,3.4,1.2c2.2,0.9,4.2,1.7,6,2.5c0.5,0.2,0.9,0.4,1.3,0.6
			c0.4,0.2,0.9,0.4,1.3,0.6c0.8,0.4,1.6,0.8,2.3,1.2c1.5,0.8,2.8,1.4,3.9,2.1c1.1,0.7,2,1.2,2.8,1.7c1.5,0.9,2.3,1.5,2.3,1.5l-0.5,1
			c0,0-0.9-0.2-2.6-0.7c-0.9-0.2-1.9-0.5-3.1-0.9c-1.2-0.4-2.6-0.7-4.2-1c-0.8-0.2-1.6-0.4-2.5-0.6c-0.4-0.1-0.9-0.2-1.3-0.3
			c-0.4-0.1-0.9-0.2-1.4-0.3c-1.9-0.4-3.9-0.8-6.1-1.2c-2.2-0.3-4.5-0.7-7-1.1c-1.2-0.1-2.5-0.3-3.8-0.4c-0.6-0.1-1.3-0.2-1.9-0.2
			c-0.7-0.1-1.3-0.2-2-0.2c-1.4-0.1-2.7-0.2-4.1-0.3c-0.7-0.1-1.4-0.1-2.1-0.2c-0.7,0-1.4,0-2.1-0.1c-1.4,0-2.9-0.1-4.3-0.2
			c-0.7,0-1.5,0-2.3,0c-0.8,0-1.6,0-2.4,0c-6.1,0-12.6,0.5-19.2,1.3c-6.6,0.8-13.5,1.9-20.3,3.6c-6.8,1.7-13.7,4-20.2,6.9
			c-6.6,3-12.9,6.5-18.8,10.4c-5.9,4-11.4,8.3-16.5,12.9c-5,4.6-9.5,9.5-13.5,14.3c-4,4.9-7.3,9.8-10.2,14.5
			c-2.9,4.7-5.2,9.2-7.1,13.2c-1.9,4.1-3.3,7.7-4.5,10.8c-0.5,1.5-1,2.9-1.4,4.1c-0.4,1.2-0.7,2.2-0.9,3.1c-0.5,1.7-0.8,2.6-0.8,2.6
			L-603.3,915z"/>
		<path id="XMLID_80_" fill="#9BA6B2" d="M-421,1076.9l-72.8-31.1l1.3,27.1c-2-0.4-4.1-0.7-6.2-1.1c-5.7-1.2-11.6-2.6-17.5-4.4
			c-5.9-1.8-11.8-4.1-17.4-7c-5.6-2.8-11.1-6.1-16.2-9.6c-5.1-3.6-9.9-7.4-14.3-11.5c-4.4-4-8.4-8.2-11.9-12.5
			c-3.5-4.2-6.7-8.4-9.3-12.4c-0.7-1-1.3-2-1.9-3c-0.6-1-1.2-1.9-1.8-2.9c-1.1-1.9-2.2-3.7-3.1-5.5c-0.5-0.9-0.9-1.7-1.3-2.5
			c-0.4-0.8-0.8-1.6-1.2-2.4c-0.7-1.5-1.4-3-2-4.3c-0.6-1.3-1.1-2.5-1.5-3.5c-0.4-1-0.7-1.9-1-2.6c-0.5-1.4-0.8-2.2-0.8-2.2
			l-1.1,0.3c0,0,0.2,0.8,0.6,2.3c0.2,0.7,0.5,1.7,0.8,2.7c0.3,1.1,0.7,2.3,1.2,3.7c0.4,1.4,1,2.9,1.6,4.5c0.3,0.8,0.6,1.7,1,2.5
			c0.4,0.9,0.7,1.8,1.1,2.7c1.5,3.7,3.5,7.8,5.9,12.2c2.4,4.4,5.3,8.9,8.6,13.6c0.9,1.2,1.7,2.3,2.6,3.5c0.9,1.1,1.9,2.3,2.8,3.5
			l0.7,0.9l0.7,0.9c0.5,0.6,1,1.1,1.5,1.7c0.5,0.6,1,1.2,1.5,1.7c0.5,0.6,1.1,1.1,1.6,1.7c4.3,4.6,9.1,9,14.3,13.1
			c5.2,4.1,10.8,7.9,16.6,11.2c5.8,3.4,11.9,6.4,18.1,8.9c6.2,2.6,12.5,4.6,18.7,5.9c3.1,0.6,6.1,1.1,9.1,1.5l1.4,30.1L-421,1076.9z
			"/>
	</g>
</g>
</svg>
