<?xml version="1.0" encoding="utf-8"?>
<!-- Generator: Adobe Illustrator 19.0.0, SVG Export Plug-In . SVG Version: 6.00 Build 0)  -->
<svg version="1.1" id="Layer_1" xmlns="http://www.w3.org/2000/svg" xmlns:xlink="http://www.w3.org/1999/xlink" x="0px" y="0px"
	 viewBox="-500.9 915.9 89.4 88.7" enable-background="new -500.9 915.9 89.4 88.7" xml:space="preserve">
<g>
	<circle fill="#CFD7DA" cx="-497.8" cy="918.9" r="3.1"/>
	<circle fill="#CFD7DA" cx="-488.6" cy="918.9" r="3.1"/>
	<circle fill="#CFD7DA" cx="-479.3" cy="918.9" r="3.1"/>
	<circle fill="#CFD7DA" cx="-470.1" cy="918.9" r="3.1"/>
	<circle fill="#CFD7DA" cx="-460.8" cy="918.9" r="3.1"/>
	<circle fill="#CFD7DA" cx="-451.6" cy="918.9" r="3.1"/>
	<circle fill="#CFD7DA" cx="-442.3" cy="918.9" r="3.1"/>
	<circle fill="#CFD7DA" cx="-433" cy="918.9" r="3.1"/>
	<circle fill="#CFD7DA" cx="-423.8" cy="918.9" r="3.1"/>
	<circle fill="#CFD7DA" cx="-414.5" cy="918.9" r="3.1"/>
	<circle fill="#CFD7DA" cx="-497.8" cy="927.2" r="3.1"/>
	<circle fill="#CFD7DA" cx="-488.6" cy="927.2" r="3.1"/>
	<circle fill="#CFD7DA" cx="-470.1" cy="927.2" r="3.1"/>
	<circle fill="#CFD7DA" cx="-460.8" cy="927.2" r="3.1"/>
	<circle fill="#CFD7DA" cx="-451.6" cy="927.2" r="3.1"/>
	<circle fill="#CFD7DA" cx="-442.3" cy="927.2" r="3.1"/>
	<circle fill="#CFD7DA" cx="-433" cy="927.2" r="3.1"/>
	<circle fill="#CFD7DA" cx="-423.8" cy="927.2" r="3.1"/>
	<circle fill="#CFD7DA" cx="-414.5" cy="927.2" r="3.1"/>
	<circle fill="#CFD7DA" cx="-488.6" cy="935.4" r="3.1"/>
	<circle fill="#CFD7DA" cx="-470.1" cy="935.4" r="3.1"/>
	<circle fill="#CFD7DA" cx="-460.8" cy="935.4" r="3.1"/>
	<circle fill="#CFD7DA" cx="-433" cy="935.4" r="3.1"/>
	<circle fill="#CFD7DA" cx="-414.5" cy="935.4" r="3.1"/>
	<circle fill="#CFD7DA" cx="-488.6" cy="943.7" r="3.1"/>
	<circle fill="#CFD7DA" cx="-470.1" cy="943.7" r="3.1"/>
	<circle fill="#CFD7DA" cx="-460.8" cy="943.7" r="3.1"/>
	<circle fill="#CFD7DA" cx="-433" cy="943.7" r="3.1"/>
	<circle fill="#CFD7DA" cx="-414.5" cy="943.7" r="3.1"/>
	<circle fill="#CFD7DA" cx="-470.1" cy="952" r="3.1"/>
	<circle fill="#CFD7DA" cx="-460.8" cy="952" r="3.1"/>
	<circle fill="#CFD7DA" cx="-433" cy="952" r="3.1"/>
	<circle fill="#CFD7DA" cx="-414.5" cy="952" r="3.1"/>
	<circle fill="#CFD7DA" cx="-470.1" cy="960.2" r="3.1"/>
	<circle fill="#CFD7DA" cx="-460.8" cy="960.2" r="3.1"/>
	<circle fill="#CFD7DA" cx="-414.5" cy="960.2" r="3.1"/>
	<circle fill="#CFD7DA" cx="-460.8" cy="968.5" r="3.1"/>
	<circle fill="#CFD7DA" cx="-460.8" cy="976.7" r="3.1"/>
	<circle fill="#CFD7DA" cx="-460.8" cy="985" r="3.1"/>
</g>
<g>
	<circle fill="#5FAD56" cx="-451.6" cy="935.4" r="3.1"/>
	<circle fill="#5FAD56" cx="-442.3" cy="935.4" r="3.1"/>
	<circle fill="#5FAD56" cx="-451.6" cy="943.7" r="3.1"/>
	<circle fill="#5FAD56" cx="-442.3" cy="943.7" r="3.1"/>
	<circle fill="#5FAD56" cx="-451.6" cy="952" r="3.1"/>
	<circle fill="#5FAD56" cx="-442.3" cy="952" r="3.1"/>
	<circle fill="#5FAD56" cx="-451.6" cy="960.2" r="3.1"/>
	<circle fill="#5FAD56" cx="-442.3" cy="960.2" r="3.1"/>
	<circle fill="#5FAD56" cx="-451.6" cy="968.5" r="3.1"/>
	<circle fill="#5FAD56" cx="-442.3" cy="968.5" r="3.1"/>
	<circle fill="#5FAD56" cx="-451.6" cy="976.7" r="3.1"/>
	<circle fill="#5FAD56" cx="-442.3" cy="976.7" r="3.1"/>
	<circle fill="#5FAD56" cx="-451.6" cy="985" r="3.1"/>
	<circle fill="#5FAD56" cx="-442.3" cy="985" r="3.1"/>
	<circle fill="#5FAD56" cx="-451.6" cy="993.3" r="3.1"/>
	<circle fill="#5FAD56" cx="-442.3" cy="993.3" r="3.1"/>
	<circle fill="#5FAD56" cx="-451.6" cy="1001.5" r="3.1"/>
	<circle fill="#5FAD56" cx="-442.3" cy="1001.5" r="3.1"/>
</g>
<g>
	<circle fill="#55934C" cx="-433" cy="960.2" r="3.1"/>
	<circle fill="#55934C" cx="-470.1" cy="968.5" r="3.1"/>
	<circle fill="#55934C" cx="-433" cy="968.5" r="3.1"/>
	<circle fill="#55934C" cx="-470.1" cy="976.7" r="3.1"/>
	<circle fill="#55934C" cx="-433" cy="976.7" r="3.1"/>
	<circle fill="#55934C" cx="-470.1" cy="985" r="3.1"/>
	<circle fill="#55934C" cx="-433" cy="985" r="3.1"/>
	<circle fill="#55934C" cx="-470.1" cy="993.3" r="3.1"/>
	<circle fill="#55934C" cx="-460.8" cy="993.3" r="3.1"/>
	<circle fill="#55934C" cx="-433" cy="993.3" r="3.1"/>
	<circle fill="#55934C" cx="-470.1" cy="1001.5" r="3.1"/>
	<circle fill="#55934C" cx="-460.8" cy="1001.5" r="3.1"/>
	<circle fill="#55934C" cx="-433" cy="1001.5" r="3.1"/>
</g>
<g>
	<circle fill="#407239" cx="-479.3" cy="927.2" r="3.1"/>
	<circle fill="#407239" cx="-479.3" cy="935.4" r="3.1"/>
	<circle fill="#407239" cx="-423.8" cy="935.4" r="3.1"/>
	<circle fill="#407239" cx="-479.3" cy="943.7" r="3.1"/>
	<circle fill="#407239" cx="-423.8" cy="943.7" r="3.1"/>
	<circle fill="#407239" cx="-488.6" cy="952" r="3.1"/>
	<circle fill="#407239" cx="-479.3" cy="952" r="3.1"/>
	<circle fill="#407239" cx="-423.8" cy="952" r="3.1"/>
	<circle fill="#407239" cx="-488.6" cy="960.2" r="3.1"/>
	<circle fill="#407239" cx="-479.3" cy="960.2" r="3.1"/>
	<circle fill="#407239" cx="-423.8" cy="960.2" r="3.1"/>
	<circle fill="#407239" cx="-488.6" cy="968.5" r="3.1"/>
	<circle fill="#407239" cx="-479.3" cy="968.5" r="3.1"/>
	<circle fill="#407239" cx="-423.8" cy="968.5" r="3.1"/>
	<circle fill="#407239" cx="-488.6" cy="976.7" r="3.1"/>
	<circle fill="#407239" cx="-479.3" cy="976.7" r="3.1"/>
	<circle fill="#407239" cx="-423.8" cy="976.7" r="3.1"/>
	<circle fill="#407239" cx="-488.6" cy="985" r="3.1"/>
	<circle fill="#407239" cx="-479.3" cy="985" r="3.1"/>
	<circle fill="#407239" cx="-423.8" cy="985" r="3.1"/>
	<circle fill="#407239" cx="-488.6" cy="993.3" r="3.1"/>
	<circle fill="#407239" cx="-479.3" cy="993.3" r="3.1"/>
	<circle fill="#407239" cx="-423.8" cy="993.3" r="3.1"/>
	<circle fill="#407239" cx="-488.6" cy="1001.5" r="3.1"/>
	<circle fill="#407239" cx="-479.3" cy="1001.5" r="3.1"/>
	<circle fill="#407239" cx="-423.8" cy="1001.5" r="3.1"/>
</g>
<g>
	<circle fill="#4E5C6E" cx="-414.5" cy="968.5" r="3.1"/>
	<circle fill="#4E5C6E" cx="-414.5" cy="976.7" r="3.1"/>
	<circle fill="#4E5C6E" cx="-414.5" cy="985" r="3.1"/>
	<circle fill="#4E5C6E" cx="-414.5" cy="993.3" r="3.1"/>
	<g>
		<circle fill="#4E5C6E" cx="-497.8" cy="935.4" r="3.1"/>
		<circle fill="#4E5C6E" cx="-497.8" cy="943.7" r="3.1"/>
		<circle fill="#4E5C6E" cx="-497.8" cy="952" r="3.1"/>
		<circle fill="#4E5C6E" cx="-497.8" cy="960.2" r="3.1"/>
		<circle fill="#4E5C6E" cx="-497.8" cy="968.5" r="3.1"/>
		<circle fill="#4E5C6E" cx="-497.8" cy="976.7" r="3.1"/>
		<circle fill="#4E5C6E" cx="-497.8" cy="985" r="3.1"/>
		<circle fill="#4E5C6E" cx="-497.8" cy="993.3" r="3.1"/>
		<circle fill="#4E5C6E" cx="-497.8" cy="1001.5" r="3.1"/>
	</g>
	<circle fill="#4E5C6E" cx="-414.5" cy="1001.5" r="3.1"/>
</g>
</svg>
