<?xml version="1.0" encoding="utf-8"?>
<!-- Generator: Adobe Illustrator 19.0.0, SVG Export Plug-In . SVG Version: 6.00 Build 0)  -->
<svg version="1.1" id="Layer_1" xmlns="http://www.w3.org/2000/svg" xmlns:xlink="http://www.w3.org/1999/xlink" x="0px" y="0px"
	 viewBox="-1004 1832.3 81.3 92.9" enable-background="new -1004 1832.3 81.3 92.9" xml:space="preserve">
<path id="XMLID_2318_" fill="#9BA6B2" d="M-923.2,1852.4l-40.1-20.1l-40.2,20.1c-5.9,62.1,40.1,72.8,40.1,72.8
	S-917.3,1914.4-923.2,1852.4z"/>
<path id="XMLID_2317_" fill="#3A4551" d="M-928.3,1855.7l-35-17.5l-35,17.5c-5.2,54.2,35,63.6,35,63.6S-923.2,1909.9-928.3,1855.7z"
	/>
<path id="XMLID_2296_" fill="#4E5C6E" d="M-963.6,1919.3c0,0-40.2-9.4-35-63.5l35-17.5V1919.3z"/>
<path id="XMLID_2295_" fill="#F6AE2D" d="M-971.9,1881.7c-0.9,0-1.7-0.7-1.7-1.7v-16.7c0-4.6,4.4-8.1,9.9-8.1h0.5
	c5.5,0,9.6,3.5,9.6,8.1v6.4c0,0.9-0.7,1.7-1.7,1.7c-0.9,0-1.7-0.7-1.7-1.7v-6.4c0-2.7-2.7-4.8-6.3-4.8h-0.5c-3.6,0-6.6,2.1-6.6,4.8
	v16.7C-970.2,1880.9-971,1881.7-971.9,1881.7z"/>
<path id="XMLID_2274_" fill="#F6AE2D" d="M-950.2,1892.6c0,2.1-1.8,3.9-4.2,3.9h-18.2c-2.5,0-4.6-1.8-4.6-3.9v-15.4
	c0-2.1,2.1-3.8,4.6-3.8h18.2c2.5,0,4.2,1.7,4.2,3.8V1892.6z"/>
<path id="XMLID_2268_" fill="#F2F2F2" d="M-960.8,1882c0-1.3-1.1-2.4-2.4-2.4h-0.1c-1.3,0-2.4,1.1-2.4,2.4v0.1
	c0,1.3,1.1,2.4,2.4,2.4h0.1C-961.9,1884.5-960.8,1883.4-960.8,1882L-960.8,1882z"/>
<path id="XMLID_2156_" fill="#F2F2F2" d="M-962.1,1889.7c0,0.6-0.5,1.1-1.1,1.1l0,0c-0.6,0-1.1-0.5-1.1-1.1v-6.4
	c0-0.6,0.5-1.1,1.1-1.1l0,0c0.6,0,1.1,0.5,1.1,1.1V1889.7z"/>
</svg>
