<?xml version="1.0" encoding="utf-8"?>
<!-- Generator: Adobe Illustrator 19.0.0, SVG Export Plug-In . SVG Version: 6.00 Build 0)  -->
<svg version="1.1" id="Layer_1" xmlns="http://www.w3.org/2000/svg" xmlns:xlink="http://www.w3.org/1999/xlink" x="0px" y="0px"
	 viewBox="-465 1227 508 508" enable-background="new -465 1227 508 508" xml:space="preserve">
<path fill="#3A4551" d="M-25.1,1474.6c0,152.2-83.2,260.4-185.9,260.4s-185.9-108.2-185.9-260.4c0-104.6,83.2-189.4,185.9-189.4
	S-25.1,1370-25.1,1474.6z"/>
<path fill="#F6AE2D" d="M-143.7,1447.5c6.9,8.6,12,32.6,12,32.6s-30.9-22.4-82.6-32.6c-37.4-7.4-82.6-65.1-82.6-65.1
	c-9.2,105.2-80.1,125.9-98.3,129.6c12.5,132.2,90.1,223,184.2,223c98.4,0,178.9-99.3,185.4-241.5
	C-58.8,1463.3-143.7,1447.5-143.7,1447.5z"/>
<g>
	<path fill="#3A4551" d="M-394.4,1443.4h-36.7c-18.7,0-33.9,15.4-33.9,34.5v51.2c0,19.1,15.2,34.5,33.9,34.5h44.5
		c-6.7-27.4-10.3-57.2-10.3-89C-396.9,1463.9-396.1,1453.5-394.4,1443.4z"/>
	<path fill="#3A4551" d="M9.1,1443.4h-36.7c1.6,10.1,2.5,20.5,2.5,31.2c0,31.8-3.6,61.6-10.3,89H9.1c18.7,0,33.9-15.4,33.9-34.5
		v-51.2C43,1458.8,27.9,1443.4,9.1,1443.4z"/>
</g>
<path fill="#9BA6B2" d="M9.1,1563.6H-7.8v47.6h-158v34.5H26V1559C21.1,1561.9,15.3,1563.6,9.1,1563.6z"/>
<path fill="#4E5C6E" d="M-160.8,1658h-74c-1.5,0-2.7-1.2-2.7-2.7v-53.6c0-1.5,1.2-2.7,2.7-2.7h74c1.5,0,2.7,1.2,2.7,2.7v53.6
	C-158.1,1656.8-159.3,1658-160.8,1658z"/>
<path fill="#9BA6B2" d="M-197.4,1227H-230c-119.9,0-217.4,99.1-218,221c5-2.9,10.7-4.6,16.9-4.6h17.1
	c3-100.8,84.4-181.9,184.1-181.9h32.5c99.7,0,181.1,81.1,184.1,181.9H9.2c4,0,7.8,0.7,11.4,2C18.6,1324.7-78.4,1227-197.4,1227z"/>
</svg>
