<?xml version="1.0" encoding="utf-8"?>
<!-- Generator: Adobe Illustrator 19.0.0, SVG Export Plug-In . SVG Version: 6.00 Build 0)  -->
<svg version="1.1" id="Layer_1" xmlns="http://www.w3.org/2000/svg" xmlns:xlink="http://www.w3.org/1999/xlink" x="0px" y="0px"
	 viewBox="0 0 276.2 233.3" enable-background="new 0 0 276.2 233.3" xml:space="preserve">
<g id="XMLID_1751_">
	<g id="XMLID_1891_">
		<g id="XMLID_1907_">
			<g id="XMLID_1908_">
				<circle id="XMLID_1750_" fill="#F9B738" cx="225.2" cy="163.6" r="51"/>
			</g>
		</g>
		<g id="XMLID_1892_">
			<g id="XMLID_1905_">
				<circle id="XMLID_1749_" fill="#ED9B32" cx="225.2" cy="163.6" r="41.4"/>
			</g>
			<g id="XMLID_1903_" opacity="0.5">
				<path id="XMLID_1742_" fill="#ED9B32" d="M186.4,166.2c0-22.8,18.5-41.4,41.4-41.4c10.8,0,20.6,4.1,27.9,10.9
					c-7.6-8.3-18.4-13.4-30.5-13.4c-22.9,0-41.4,18.5-41.4,41.4c0,12.1,5.2,22.9,13.4,30.5C190.5,186.8,186.4,177,186.4,166.2z"/>
			</g>
			<g id="XMLID_1898_" opacity="0.5">
				<path id="XMLID_1899_" fill="#ED9B32" d="M238.9,164.3c4.1-1.4,6.4-4.3,6.4-8.5c0-5.6-3.7-9.5-10.5-10.3
					c-1.3-0.1-2.2-0.2-3.3-0.2v-7.1h-5v7.1h-3.6v-7.1h-5v7.1h-9.8l0,6.6h5.1c1.4,0,1.4,1.1,1.4,1.1V179c0,0,0,1.1-1.4,1.1h-4.4
					l-0.7,6.6h9.8v7.1h5v-7.1h3.6v7.1h5v-7.1c1.4,0,2.5-0.1,4-0.2c5.5-0.8,11.4-4.4,11.4-12.1C246.9,168.9,244.2,165.7,238.9,164.3z
					 M236.6,156.8c0,3-1.5,4.7-4.5,5.2c-1,0.1-1.9,0.2-2.9,0.2h-6.2v-10.5h6c1,0,2,0.1,3,0.2C234.7,152.2,236.6,153.7,236.6,156.8z
					 M232.9,180c-0.8,0.1-1.8,0.1-2.8,0.1h-7.2v-11.7h6.9c1,0,1.9,0.1,2.9,0.2c3,0.3,5.3,1.9,5.3,5.8
					C238.1,177.8,235.8,179.8,232.9,180z"/>
			</g>
			<g id="XMLID_1893_">
				<path id="XMLID_1894_" fill="#FFFFFF" d="M236.6,162c4.1-1.4,6.4-4.3,6.4-8.5c0-5.6-3.7-9.5-10.5-10.3c-1.3-0.1-2.2-0.2-3.3-0.2
					v-7.1h-5v7.1h-3.6v-7.1h-5v7.1h-9.8l0,6.6h5.1c1.4,0,1.4,1.1,1.4,1.1v26.2c0,0,0,1.1-1.4,1.1h-4.4l-0.7,6.6h9.8v7.1h5v-7.1h3.6
					v7.1h5v-7.1c1.4,0,2.5-0.1,4-0.2c5.5-0.8,11.4-4.4,11.4-12.1C244.6,166.6,241.9,163.4,236.6,162z M234.3,154.5
					c0,3-1.5,4.7-4.5,5.2c-1,0.1-1.9,0.2-2.9,0.2h-6.3v-10.5h6c1,0,2,0.1,3,0.2C232.4,149.9,234.3,151.4,234.3,154.5z M230.6,177.8
					c-0.8,0.1-1.8,0.1-2.8,0.1h-7.2v-11.7h6.9c1,0,1.9,0.1,2.9,0.2c3,0.3,5.4,1.9,5.4,5.8C235.9,175.5,233.5,177.5,230.6,177.8z"/>
			</g>
		</g>
	</g>
	<g id="XMLID_1870_">
		<g id="XMLID_1888_">
			<g id="XMLID_1889_">
				<circle id="XMLID_1722_" fill="#F9B738" cx="51" cy="163.6" r="51"/>
			</g>
		</g>
		<g id="XMLID_1872_">
			<g id="XMLID_1886_">
				<circle id="XMLID_1718_" fill="#ED9B32" cx="51" cy="163.6" r="41.4"/>
			</g>
			<g id="XMLID_1884_" opacity="0.5">
				<path id="XMLID_1716_" fill="#ED9B32" d="M12.2,166.2c0-22.8,18.5-41.4,41.4-41.4c10.8,0,20.6,4.1,27.9,10.9
					c-7.6-8.3-18.4-13.4-30.5-13.4c-22.9,0-41.4,18.5-41.4,41.4c0,12.1,5.2,22.9,13.4,30.5C16.3,186.8,12.2,177,12.2,166.2z"/>
			</g>
			<g id="XMLID_1879_" opacity="0.5">
				<path id="XMLID_1880_" fill="#ED9B32" d="M64.7,164.3c4.1-1.4,6.4-4.3,6.4-8.5c0-5.6-3.7-9.5-10.5-10.3
					c-1.3-0.1-2.2-0.2-3.3-0.2v-7.1h-5v7.1h-3.6v-7.1h-5v7.1H34l0,6.6h5.1c1.4,0,1.4,1.1,1.4,1.1V179c0,0,0,1.1-1.4,1.1h-4.4
					l-0.7,6.6h9.8v7.1h5v-7.1h3.6v7.1h5v-7.1c1.4,0,2.5-0.1,4-0.2c5.5-0.8,11.4-4.4,11.4-12.1C72.7,168.9,70,165.7,64.7,164.3z
					 M62.5,156.8c0,3-1.5,4.7-4.5,5.2c-1,0.1-1.9,0.2-2.9,0.2h-6.2v-10.5h6c1,0,2,0.1,3,0.2C60.5,152.2,62.5,153.7,62.5,156.8z
					 M58.7,180c-0.8,0.1-1.8,0.1-2.8,0.1h-7.2v-11.7h6.9c1,0,1.9,0.1,2.9,0.2c3,0.3,5.3,1.9,5.3,5.8C64,177.8,61.6,179.8,58.7,180z"
					/>
			</g>
			<g id="XMLID_1874_">
				<path id="XMLID_1875_" fill="#FFFFFF" d="M62.4,162c4.1-1.4,6.4-4.3,6.4-8.5c0-5.6-3.7-9.5-10.5-10.3c-1.3-0.1-2.2-0.2-3.3-0.2
					v-7.1h-5v7.1h-3.6v-7.1h-5v7.1h-9.8l0,6.6h5.1c1.4,0,1.4,1.1,1.4,1.1v26.2c0,0,0,1.1-1.4,1.1h-4.4l-0.7,6.6h9.8v7.1h5v-7.1h3.6
					v7.1h5v-7.1c1.4,0,2.5-0.1,4-0.2c5.5-0.8,11.4-4.4,11.4-12.1C70.4,166.6,67.8,163.4,62.4,162z M60.2,154.5c0,3-1.5,4.7-4.5,5.2
					c-1,0.1-1.9,0.2-2.9,0.2h-6.3v-10.5h6c1,0,2,0.1,3,0.2C58.3,149.9,60.2,151.4,60.2,154.5z M56.5,177.8c-0.8,0.1-1.8,0.1-2.8,0.1
					h-7.2v-11.7h6.9c1,0,1.9,0.1,2.9,0.2c3,0.3,5.3,1.9,5.3,5.8C61.7,175.5,59.3,177.5,56.5,177.8z"/>
			</g>
		</g>
	</g>
	<g id="XMLID_1786_">
		<g id="XMLID_1831_">
			<g id="XMLID_1861_">
				<g id="XMLID_1865_">
					<circle id="XMLID_1698_" fill="#F9B738" cx="137.4" cy="154" r="65.3"/>
				</g>
			</g>
			<g id="XMLID_1837_">
				<g id="XMLID_1858_">
					<circle id="XMLID_1696_" fill="#ED9B32" cx="137.4" cy="154" r="52.9"/>
				</g>
				<g id="XMLID_1853_" opacity="0.5">
					<path id="XMLID_1693_" fill="#ED9B32" d="M87.8,157.3c0-29.2,23.7-52.9,52.9-52.9c13.8,0,26.3,5.3,35.8,13.9
						c-9.7-10.6-23.6-17.2-39-17.2c-29.2,0-52.9,23.7-52.9,52.9c0,15.4,6.6,29.3,17.2,39C93,183.6,87.8,171.1,87.8,157.3z"/>
				</g>
				<g id="XMLID_1846_" opacity="0.5">
					<path id="XMLID_1847_" fill="#ED9B32" d="M154.9,154.9c5.3-1.8,8.2-5.5,8.2-10.9c0-7.2-4.8-12.1-13.4-13.2
						c-1.6-0.2-2.9-0.3-4.2-0.3v-9.1h-6.4v9h-4.6v-9h-6.4v9h-12.5l0,8.4h6.6c1.7,0,1.7,1.4,1.7,1.4v33.5c0,0,0,1.4-1.7,1.4h-5.7
						l-0.9,8.4h12.5v9h6.4v-9h4.6v9h6.4v-9.1c1.7,0,3.2-0.1,5.1-0.3c7.1-1,14.5-5.7,14.5-15.5C165.1,160.8,161.7,156.6,154.9,154.9z
						 M152.1,145.3c0,3.8-1.9,6-5.8,6.6c-1.2,0.2-2.5,0.2-3.8,0.2h-8v-13.5h7.7c1.2,0,2.6,0.1,3.8,0.2
						C149.6,139.4,152.1,141.3,152.1,145.3z M147.3,175c-1,0.1-2.3,0.1-3.5,0.1h-9.2v-15h8.8c1.2,0,2.5,0.1,3.8,0.2
						c3.8,0.4,6.8,2.5,6.8,7.4C154,172.2,151,174.7,147.3,175z"/>
				</g>
				<g id="XMLID_1838_">
					<path id="XMLID_1840_" fill="#FFFFFF" d="M152,151.9c5.3-1.8,8.2-5.5,8.2-10.9c0-7.2-4.8-12.2-13.4-13.2
						c-1.7-0.2-2.9-0.3-4.2-0.3v-9.1h-6.4v9h-4.6v-9h-6.4v9h-12.5l0,8.4h6.6c1.7,0,1.7,1.4,1.7,1.4v33.5c0,0,0,1.4-1.7,1.4h-5.7
						l-0.9,8.4h12.5v9h6.4v-9h4.6v9h6.4v-9.1c1.7,0,3.2-0.1,5.1-0.3c7.1-1,14.5-5.7,14.5-15.5C162.2,157.8,158.8,153.7,152,151.9z
						 M149.1,142.4c0,3.8-1.9,6-5.8,6.6c-1.2,0.2-2.5,0.2-3.8,0.2h-8v-13.5h7.7c1.2,0,2.6,0.1,3.8,0.2
						C146.7,136.5,149.1,138.4,149.1,142.4z M144.4,172.1c-1,0.1-2.3,0.1-3.5,0.1h-9.2v-15h8.8c1.2,0,2.5,0.1,3.8,0.2
						c3.8,0.4,6.8,2.5,6.8,7.4C151,169.2,148,171.8,144.4,172.1z"/>
				</g>
			</g>
		</g>
		<g id="XMLID_1788_">
			<g id="XMLID_1797_">
				<g id="XMLID_1829_">
					<path id="XMLID_1678_" fill="#F9B738" d="M166.6,96.9c0,3-2.4,5.4-5.4,5.4l0,0c-3,0-5.4-2.4-5.4-5.4V64.5c0-3,2.4-5.4,5.4-5.4
						l0,0c3,0,5.4,2.4,5.4,5.4V96.9z"/>
				</g>
				<g id="XMLID_1825_">
					<path id="XMLID_1675_" fill="#F9B738" d="M142.8,75.2c0,3-2.4,5.4-5.4,5.4l0,0c-3,0-5.4-2.4-5.4-5.4V35.4c0-3,2.4-5.4,5.4-5.4
						l0,0c3,0,5.4,2.4,5.4,5.4V75.2z"/>
				</g>
				<g id="XMLID_1822_">
					<path id="XMLID_1673_" fill="#F9B738" d="M119,57c0,3-2.4,5.4-5.4,5.4l0,0c-3,0-5.4-2.4-5.4-5.4V25.3c0-3,2.4-5.4,5.4-5.4l0,0
						c3,0,5.4,2.4,5.4,5.4V57z"/>
				</g>
				<g id="XMLID_1818_">
					<path id="XMLID_1672_" fill="#F9B738" d="M142.8,17.1c0,3-2.4,5.4-5.4,5.4l0,0c-3,0-5.4-2.4-5.4-5.4V5.4c0-3,2.4-5.4,5.4-5.4
						l0,0c3,0,5.4,2.4,5.4,5.4V17.1z"/>
				</g>
				<g id="XMLID_1814_">
					<path id="XMLID_1670_" fill="#F9B738" d="M119,96.9c0,3-2.4,5.4-5.4,5.4l0,0c-3,0-5.4-2.4-5.4-5.4V72.5c0-3,2.4-5.4,5.4-5.4
						l0,0c3,0,5.4,2.4,5.4,5.4V96.9z"/>
				</g>
				<g id="XMLID_1812_">
					<path id="XMLID_1669_" fill="#F9B738" d="M96.4,92.9c0,3-2.4,5.4-5.4,5.4l0,0c-3,0-5.4-2.4-5.4-5.4V79.3c0-3,2.4-5.4,5.4-5.4
						l0,0c3,0,5.4,2.4,5.4,5.4V92.9z"/>
				</g>
				<g id="XMLID_1808_">
					<path id="XMLID_1667_" fill="#F9B738" d="M166.6,47.7c0,3-2.4,5.4-5.4,5.4l0,0c-3,0-5.4-2.4-5.4-5.4v-10c0-3,2.4-5.4,5.4-5.4
						l0,0c3,0,5.4,2.4,5.4,5.4V47.7z"/>
				</g>
				<g id="XMLID_1805_">
					<path id="XMLID_1664_" fill="#F9B738" d="M166.6,20.9c0,3-2.4,5.4-5.4,5.4l0,0c-3,0-5.4-2.4-5.4-5.4c0-3,2.4-5.4,5.4-5.4l0,0
						C164.2,15.5,166.6,17.9,166.6,20.9z"/>
				</g>
				<g id="XMLID_1802_">
					<path id="XMLID_1662_" fill="#F9B738" d="M96.4,62.4c0,3-2.4,5.4-5.4,5.4l0,0c-3,0-5.4-2.4-5.4-5.4c0-3,2.4-5.4,5.4-5.4l0,0
						C93.9,57,96.4,59.5,96.4,62.4z"/>
				</g>
				<g id="XMLID_1798_">
					<path id="XMLID_1661_" fill="#F9B738" d="M188,90.2c0,3-2.4,5.4-5.4,5.4l0,0c-3,0-5.4-2.4-5.4-5.4V65.9c0-3,2.4-5.4,5.4-5.4
						l0,0c3,0,5.4,2.4,5.4,5.4V90.2z"/>
				</g>
			</g>
			<g id="XMLID_1791_">
				<path id="XMLID_1659_" fill="#F9B738" d="M108.2,85.2v3.1c0,4.6-2.5,8.6-6.2,10.9v0.8h7.7V85.2H108.2z"/>
			</g>
			<g id="XMLID_1789_">
				<path id="XMLID_1657_" fill="#F9B738" d="M166.6,88.3v-4.4h-1.6v16.1h7.4V99C169,96.7,166.6,92.8,166.6,88.3z"/>
			</g>
		</g>
	</g>
	<g id="XMLID_1783_">
		<path id="XMLID_1655_" fill="#FFFFFF" d="M77.2,123c-1.2,3.9-4.3,6.9-8.2,8.2c3.9,1.2,6.9,4.3,8.2,8.2c1.2-3.9,4.3-6.9,8.2-8.2
			C81.5,130,78.4,126.9,77.2,123z"/>
	</g>
	<g id="XMLID_1780_">
		<path id="XMLID_1652_" fill="#FFFFFF" d="M190.3,181.4c-1.2,3.9-4.3,6.9-8.2,8.2c3.9,1.2,6.9,4.3,8.2,8.2c1.2-3.9,4.3-6.9,8.2-8.2
			C194.6,188.3,191.6,185.3,190.3,181.4z"/>
	</g>
	<g id="XMLID_1777_">
		<path id="XMLID_1650_" fill="#FFFFFF" d="M247.3,112.4c-0.9,2.8-3.1,5.1-6,6c2.8,0.9,5.1,3.1,6,6c0.9-2.8,3.1-5.1,6-6
			C250.5,117.5,248.2,115.3,247.3,112.4z"/>
	</g>
	<g id="XMLID_1773_">
		<path id="XMLID_1649_" fill="#FFFFFF" d="M208.4,95.3c-0.6,1.9-2.1,3.4-4,4c1.9,0.6,3.4,2.1,4,4c0.6-1.9,2.1-3.4,4-4
			C210.5,98.7,209,97.2,208.4,95.3z"/>
	</g>
	<g id="XMLID_1769_">
		<path id="XMLID_1647_" fill="#FFFFFF" d="M10.7,123.9c-0.9,2.8-3.1,5.1-6,6c2.8,0.9,5.1,3.1,6,6c0.9-2.8,3.1-5.1,6-6
			C13.8,128.9,11.6,126.7,10.7,123.9z"/>
	</g>
	<g id="XMLID_1766_">
		<path id="XMLID_1646_" fill="#FFFFFF" d="M59.8,91.3c-0.7,2.3-2.5,4-4.8,4.8c2.3,0.7,4,2.5,4.8,4.8c0.7-2.3,2.5-4,4.8-4.8
			C62.3,95.3,60.6,93.6,59.8,91.3z"/>
	</g>
	<g id="XMLID_1759_" opacity="0.7">
		<g id="XMLID_1760_">
			<ellipse id="XMLID_1644_" fill="#BABCBE" cx="137.4" cy="229.7" rx="32.3" ry="3.6"/>
		</g>
	</g>
	<g id="XMLID_1756_" opacity="0.7">
		<g id="XMLID_1757_">
			<ellipse id="XMLID_1640_" fill="#BABCBE" cx="225.2" cy="222.9" rx="22.1" ry="2.5"/>
		</g>
	</g>
	<g id="XMLID_1752_" opacity="0.7">
		<g id="XMLID_1754_">
			<ellipse id="XMLID_1639_" fill="#BABCBE" cx="51" cy="222.9" rx="22.1" ry="2.5"/>
		</g>
	</g>
</g>
</svg>
